<svg xmlns="http://www.w3.org/2000/svg" width="1179.321" height="1118.256" viewBox="0 0 1179.321 1118.256">
  <path id="Path_1036" data-name="Path 1036" d="M1235.58,488.084A580.571,580.571,0,0,0,1001.343,93.821,502.259,502.259,0,0,0,788.75,6.852,561.124,561.124,0,0,0,676.656.59C667.418.938,658.18,1.9,649.019,2.445S630.775,4.533,621.73,5.576s-18.012,2.783-27.057,4.175l-26.594,5.218A684.428,684.428,0,0,0,371.992,92.275,706.814,706.814,0,0,0,208.219,224.083l-17.858,20.293c-5.644,7-11.6,14.031-17.008,21.182s-11.055,14.534-16.273,22.071-10.475,15.113-15.461,22.96A546.424,546.424,0,0,0,91.6,410.816,476.824,476.824,0,0,0,64.893,636.937a499.591,499.591,0,0,0,80.4,214.641c42.518,63.816,99.532,116.539,162.072,156.545a726.911,726.911,0,0,0,305.63,106.451,651.343,651.343,0,0,0,107.8,2.59,602.4,602.4,0,0,0,212.786-52.375,510.49,510.49,0,0,0,181.051-136.832c5.991-7.731,12.1-15.113,18.012-22.844s11.209-15.809,16.582-23.888,10.475-16.389,15.461-24.815,9.47-17.007,13.76-25.743a577.383,577.383,0,0,0,41.4-109.2A598.623,598.623,0,0,0,1235.58,488.084Zm-465.809,233a67.489,67.489,0,0,1-59.062,30.923H252.979q-47.891,0-75.219-33.667t-27.367-84.187q0-46.152,29.531-77.306a96.633,96.633,0,0,1,73.055-31.193H404.268q-14.881-29.879-40.431-29.84H216.954l-20.447-59.062H363.489a92.381,92.381,0,0,1,72.281,31.7q28.255,31.7,28.255,78.35V664.111H408.133v-79.2H252.979q-23.192,0-34.788,15.925a67.256,67.256,0,0,0-11.6,40.973,52.221,52.221,0,0,0,13.683,35.948,42.519,42.519,0,0,0,32.932,15.461H701.9q27.946,0,27.985-37.919,0-33.628-24.893-33.59H571.4A70.117,70.117,0,0,1,514.2,593.723a97.6,97.6,0,0,1-21.027-63.546,100.807,100.807,0,0,1,21.762-64.667,68.919,68.919,0,0,1,56.588-27.367h533.993l-20.448,59.062H580.1q-27.947,0-27.985,31.734,0,33.59,24.274,33.551H710.71A69.576,69.576,0,0,1,767.3,589.549a99.648,99.648,0,0,1,21.762,64.358,115.65,115.65,0,0,1-19.288,67.179Zm297.165,31.7H930.143q-45.379,0-72.436-30.072T830.65,644.823V526.042h55.97V642.89a55.622,55.622,0,0,0,11.6,35.638,39.773,39.773,0,0,0,31.5,15.191l129.759,3.092q29.917.618,33.048-41.011,2.512-39.852-31.116-39.813H961.3l21.066-59.062h84.65q39.774,0,63.43,29.222,21.143,27.366,21.143,68.378Q1151.51,752.82,1066.937,752.781Z" transform="translate(-61.26 -0.037)" fill="#fff" opacity="0.03"/>
</svg>
