<?xml version="1.0" encoding="utf-8"?>
<!-- Generator: Adobe Illustrator 22.1.0, SVG Export Plug-In . SVG Version: 6.00 Build 0)  -->
<svg version="1.1" id="Layer_1" xmlns="http://www.w3.org/2000/svg" xmlns:xlink="http://www.w3.org/1999/xlink" x="0px" y="0px"
	 viewBox="0 0 624 414" style="enable-background:new 0 0 624 414;" xml:space="preserve">
<style type="text/css">
	.st0{enable-background:new    ;}
	.st1{fill:#003399;}
</style>
<g>
	<g class="st0">
		<path class="st1" d="M9.6,13.7H4.2L3,17H1.2L6.1,4.2h1.5L12.5,17h-1.7L9.6,13.7z M4.7,12.3h4.4l-2.2-6L4.7,12.3z"/>
		<path class="st1" d="M23.2,17V4.2h4.2c1.4,0,2.4,0.3,3.1,0.9s1.1,1.4,1.1,2.5c0,0.6-0.2,1.1-0.5,1.6c-0.3,0.5-0.8,0.8-1.4,1.1
			c0.7,0.2,1.2,0.6,1.6,1.1s0.6,1.2,0.6,1.9c0,1.1-0.4,2.1-1.1,2.7s-1.8,1-3.2,1H23.2z M24.9,9.7h2.5c0.7,0,1.3-0.2,1.8-0.6
			s0.7-0.9,0.7-1.5c0-0.7-0.2-1.2-0.6-1.5c-0.4-0.3-1-0.5-1.9-0.5h-2.5V9.7z M24.9,11v4.6h2.8c0.8,0,1.4-0.2,1.9-0.6s0.7-1,0.7-1.7
			c0-1.5-0.8-2.3-2.5-2.3H24.9z"/>
		<path class="st1" d="M52.8,12.9c-0.2,1.4-0.7,2.4-1.5,3.1c-0.8,0.7-2,1.1-3.4,1.1c-1.5,0-2.7-0.5-3.6-1.6S43,13,43,11.2V10
			c0-1.2,0.2-2.2,0.6-3.1s1-1.6,1.8-2.1C46.2,4.3,47.1,4,48.1,4c1.4,0,2.4,0.4,3.3,1.1s1.3,1.8,1.4,3.2h-1.7c-0.1-1-0.5-1.8-1-2.2
			c-0.5-0.5-1.2-0.7-2.1-0.7c-1.1,0-1.9,0.4-2.5,1.2s-0.9,1.9-0.9,3.4v1.2c0,1.4,0.3,2.5,0.9,3.3s1.4,1.2,2.4,1.2
			c0.9,0,1.7-0.2,2.2-0.6c0.5-0.4,0.8-1.2,1-2.2H52.8z"/>
		<path class="st1" d="M73.6,12.9c-0.2,1.4-0.7,2.4-1.5,3.1c-0.8,0.7-2,1.1-3.4,1.1c-1.5,0-2.7-0.5-3.6-1.6s-1.4-2.5-1.4-4.4V10
			c0-1.2,0.2-2.2,0.6-3.1s1-1.6,1.8-2.1C66.9,4.3,67.8,4,68.9,4c1.4,0,2.4,0.4,3.3,1.1s1.3,1.8,1.4,3.2h-1.7c-0.1-1-0.5-1.8-1-2.2
			c-0.5-0.5-1.2-0.7-2.1-0.7c-1.1,0-1.9,0.4-2.5,1.2s-0.9,1.9-0.9,3.4v1.2c0,1.4,0.3,2.5,0.9,3.3s1.4,1.2,2.4,1.2
			c0.9,0,1.7-0.2,2.2-0.6c0.5-0.4,0.8-1.2,1-2.2H73.6z M68.6,2l1.3-1.5h1.4v0.1L69.1,3h-1l-2.2-2.4V0.5h1.4L68.6,2z"/>
		<path class="st1" d="M94.3,12.9c-0.2,1.4-0.7,2.4-1.5,3.1c-0.8,0.7-2,1.1-3.4,1.1c-1.5,0-2.7-0.5-3.6-1.6s-1.4-2.5-1.4-4.4V10
			c0-1.2,0.2-2.2,0.6-3.1s1-1.6,1.8-2.1C87.6,4.3,88.6,4,89.6,4c1.4,0,2.4,0.4,3.3,1.1s1.3,1.8,1.4,3.2h-1.7c-0.1-1-0.5-1.8-1-2.2
			c-0.5-0.5-1.2-0.7-2.1-0.7c-1.1,0-1.9,0.4-2.5,1.2s-0.9,1.9-0.9,3.4v1.2c0,1.4,0.3,2.5,0.9,3.3s1.4,1.2,2.4,1.2
			c0.9,0,1.7-0.2,2.2-0.6c0.5-0.4,0.8-1.2,1-2.2H94.3z M90.1,0.5h2l-2.4,2.6l-1.3,0L90.1,0.5z"/>
		<path class="st1" d="M105.6,17V4.2h3.6c1.1,0,2.1,0.2,3,0.7s1.5,1.2,2,2.1s0.7,2,0.7,3.1V11c0,1.2-0.2,2.3-0.7,3.2s-1.1,1.6-2,2.1
			s-1.9,0.7-3,0.7H105.6z M107.3,5.6v10h1.8c1.3,0,2.3-0.4,3-1.2s1.1-2,1.1-3.5v-0.7c0-1.5-0.3-2.6-1-3.4c-0.7-0.8-1.7-1.2-2.9-1.2
			H107.3z"/>
		<path class="st1" d="M126.6,17v-5.9H125V9.8h1.7V4.2h3.6c1.1,0,2.1,0.2,3,0.7s1.5,1.2,2,2.1s0.7,2,0.7,3.1V11
			c0,1.2-0.2,2.3-0.7,3.2s-1.1,1.6-2,2.1s-1.9,0.7-3,0.7H126.6z M130.6,11.1h-2.2v4.5h1.8c1.3,0,2.3-0.4,3-1.2s1.1-1.9,1.1-3.4v-0.8
			c0-1.5-0.3-2.6-1-3.4c-0.7-0.8-1.7-1.2-2.9-1.2h-2v4.2h2.2V11.1z"/>
		<path class="st1" d="M154.7,11.1h-5.5v4.5h6.4V17h-8.1V4.2h8v1.4h-6.4v4.1h5.5V11.1z"/>
		<path class="st1" d="M173.7,11.3h-5.4V17h-1.7V4.2h7.9v1.4h-6.2V10h5.4V11.3z"/>
		<path class="st1" d="M195.1,15.3c-0.4,0.6-1,1.1-1.8,1.4c-0.8,0.3-1.7,0.5-2.7,0.5c-1,0-2-0.2-2.8-0.7c-0.8-0.5-1.4-1.2-1.9-2.1
			s-0.7-1.9-0.7-3.1v-1.1c0-1.9,0.4-3.4,1.3-4.5s2.2-1.6,3.8-1.6c1.3,0,2.4,0.3,3.2,1c0.8,0.7,1.3,1.7,1.5,2.9h-1.7
			c-0.3-1.7-1.3-2.5-3-2.5c-1.1,0-2,0.4-2.6,1.2c-0.6,0.8-0.9,1.9-0.9,3.5v1c0,1.4,0.3,2.6,1,3.4c0.7,0.8,1.5,1.3,2.7,1.3
			c0.6,0,1.2-0.1,1.7-0.2c0.5-0.1,0.9-0.4,1.2-0.7V12h-3v-1.4h4.6V15.3z"/>
		<path class="st1" d="M216.7,17H215v-5.9h-6.5V17h-1.7V4.2h1.7v5.5h6.5V4.2h1.7V17z"/>
		<path class="st1" d="M230.5,17h-1.7V4.2h1.7V17z"/>
		<path class="st1" d="M248,4.2h1.7v9.1c0,1.2-0.4,2.2-1.1,2.9s-1.7,1-2.9,1c-1.3,0-2.3-0.3-3-1s-1.1-1.6-1.1-2.7h1.7
			c0,0.7,0.2,1.3,0.6,1.7s1,0.6,1.7,0.6c0.7,0,1.3-0.2,1.7-0.7s0.6-1.1,0.7-1.8V4.2z"/>
		<path class="st1" d="M264.8,11.1l-1.6,1.6V17h-1.7V4.2h1.7v6.3l5.7-6.3h2l-5,5.7l5.4,7.1h-2L264.8,11.1z"/>
		<path class="st1" d="M283.5,15.6h6.1V17h-7.8V4.2h1.7V15.6z"/>
		<path class="st1" d="M302.7,4.2l4.2,10.4l4.2-10.4h2.2V17h-1.7v-5l0.2-5.4L307.5,17h-1.3L302,6.7l0.2,5.4v5h-1.7V4.2H302.7z"/>
		<path class="st1" d="M335.1,17h-1.7l-6.4-9.9V17h-1.7V4.2h1.7l6.5,9.9V4.2h1.7V17z"/>
		<path class="st1" d="M356.9,11c0,1.3-0.2,2.3-0.6,3.3c-0.4,0.9-1,1.6-1.8,2.1s-1.7,0.7-2.7,0.7c-1,0-1.9-0.2-2.7-0.7
			s-1.4-1.2-1.8-2.1c-0.4-0.9-0.7-2-0.7-3.2v-0.9c0-1.2,0.2-2.3,0.6-3.3s1-1.7,1.8-2.2c0.8-0.5,1.7-0.8,2.7-0.8c1,0,1.9,0.2,2.7,0.7
			c0.8,0.5,1.4,1.2,1.8,2.2c0.4,0.9,0.6,2,0.6,3.3V11z M355.2,10.2c0-1.5-0.3-2.7-0.9-3.5s-1.5-1.2-2.6-1.2c-1.1,0-1.9,0.4-2.5,1.2
			c-0.6,0.8-0.9,1.9-0.9,3.4V11c0,1.5,0.3,2.6,0.9,3.5c0.6,0.8,1.5,1.3,2.6,1.3c1.1,0,1.9-0.4,2.5-1.2s0.9-1.9,0.9-3.4V10.2z"/>
		<path class="st1" d="M370.1,12v5h-1.7V4.2h4.7c1.4,0,2.5,0.4,3.3,1.1c0.8,0.7,1.2,1.7,1.2,2.8c0,1.2-0.4,2.2-1.2,2.9
			c-0.8,0.7-1.9,1-3.3,1H370.1z M370.1,10.6h3c0.9,0,1.6-0.2,2.1-0.6c0.5-0.4,0.7-1,0.7-1.8c0-0.8-0.2-1.4-0.7-1.8s-1.1-0.7-2-0.7
			h-3.1V10.6z"/>
		<path class="st1" d="M398.6,11c0,1.2-0.2,2.3-0.6,3.2c-0.4,0.9-0.9,1.6-1.7,2.1l2.3,1.8l-1.2,1.1l-2.7-2.1
			c-0.4,0.1-0.9,0.2-1.3,0.2c-1,0-1.9-0.2-2.7-0.7s-1.4-1.2-1.8-2.1c-0.4-0.9-0.7-2-0.7-3.2v-0.9c0-1.2,0.2-2.3,0.6-3.3
			s1-1.7,1.8-2.2c0.8-0.5,1.7-0.8,2.7-0.8c1,0,1.9,0.2,2.7,0.7c0.8,0.5,1.4,1.2,1.8,2.1s0.6,2,0.6,3.3V11z M396.9,10.2
			c0-1.5-0.3-2.7-0.9-3.5c-0.6-0.8-1.5-1.2-2.6-1.2c-1.1,0-1.9,0.4-2.5,1.2c-0.6,0.8-0.9,1.9-0.9,3.4V11c0,1.5,0.3,2.6,0.9,3.5
			c0.6,0.8,1.5,1.3,2.6,1.3s1.9-0.4,2.5-1.2s0.9-1.9,0.9-3.4V10.2z"/>
		<path class="st1" d="M414.9,11.8h-3V17h-1.7V4.2h4.2c1.4,0,2.6,0.3,3.3,1c0.8,0.7,1.2,1.6,1.2,2.9c0,0.8-0.2,1.5-0.6,2.1
			c-0.4,0.6-1,1-1.8,1.3l3,5.4V17h-1.8L414.9,11.8z M411.9,10.4h2.6c0.8,0,1.5-0.2,2-0.7c0.5-0.4,0.7-1,0.7-1.7
			c0-0.8-0.2-1.4-0.7-1.8c-0.5-0.4-1.2-0.6-2-0.6h-2.6V10.4z"/>
		<path class="st1" d="M434,11.3c-1.4-0.4-2.5-0.9-3.2-1.5c-0.7-0.6-1-1.4-1-2.2c0-1,0.4-1.8,1.2-2.5c0.8-0.7,1.9-1,3.1-1
			c0.9,0,1.7,0.2,2.4,0.5s1.2,0.8,1.6,1.4c0.4,0.6,0.6,1.3,0.6,2h-1.7c0-0.8-0.2-1.4-0.7-1.8s-1.2-0.7-2.1-0.7
			c-0.8,0-1.5,0.2-1.9,0.6c-0.5,0.4-0.7,0.9-0.7,1.5c0,0.5,0.2,1,0.7,1.3c0.4,0.4,1.2,0.7,2.3,1c1.1,0.3,1.9,0.6,2.5,1
			c0.6,0.4,1,0.8,1.3,1.3c0.3,0.5,0.4,1,0.4,1.7c0,1-0.4,1.9-1.2,2.5c-0.8,0.6-1.9,0.9-3.2,0.9c-0.9,0-1.7-0.2-2.5-0.5
			c-0.8-0.3-1.3-0.8-1.8-1.4c-0.4-0.6-0.6-1.3-0.6-2h1.7c0,0.8,0.3,1.4,0.9,1.8c0.6,0.4,1.3,0.7,2.3,0.7c0.9,0,1.6-0.2,2-0.5
			s0.7-0.9,0.7-1.5s-0.2-1.1-0.7-1.5C436,12,435.2,11.6,434,11.3z"/>
		<path class="st1" d="M453.7,11.3c-1.4-0.4-2.5-0.9-3.2-1.5c-0.7-0.6-1-1.4-1-2.2c0-1,0.4-1.8,1.2-2.5c0.8-0.7,1.9-1,3.1-1
			c0.9,0,1.7,0.2,2.4,0.5s1.2,0.8,1.6,1.4c0.4,0.6,0.6,1.3,0.6,2h-1.7c0-0.8-0.2-1.4-0.7-1.8s-1.2-0.7-2.1-0.7
			c-0.8,0-1.5,0.2-1.9,0.6c-0.5,0.4-0.7,0.9-0.7,1.5c0,0.5,0.2,1,0.7,1.3c0.4,0.4,1.2,0.7,2.3,1c1.1,0.3,1.9,0.6,2.5,1
			c0.6,0.4,1,0.8,1.3,1.3c0.3,0.5,0.4,1,0.4,1.7c0,1-0.4,1.9-1.2,2.5c-0.8,0.6-1.9,0.9-3.2,0.9c-0.9,0-1.7-0.2-2.5-0.5
			c-0.8-0.3-1.3-0.8-1.8-1.4c-0.4-0.6-0.6-1.3-0.6-2h1.7c0,0.8,0.3,1.4,0.9,1.8c0.6,0.4,1.3,0.7,2.3,0.7c0.9,0,1.6-0.2,2-0.5
			s0.7-0.9,0.7-1.5s-0.2-1.1-0.7-1.5C455.7,12,454.9,11.6,453.7,11.3z M453.9,2.3l1.3-1.5h1.4v0.1l-2.2,2.4h-1l-2.2-2.4V0.8h1.4
			L453.9,2.3z"/>
		<path class="st1" d="M478.5,5.6h-4.1V17h-1.7V5.6h-4.1V4.2h9.9V5.6z"/>
		<path class="st1" d="M498.4,4.2v8.7c0,1.2-0.4,2.2-1.1,3s-1.8,1.2-3.1,1.3l-0.4,0c-1.4,0-2.5-0.4-3.3-1.1s-1.3-1.8-1.3-3.1V4.2
			h1.7v8.7c0,0.9,0.3,1.6,0.8,2.2s1.2,0.8,2.2,0.8c1,0,1.7-0.3,2.2-0.8s0.8-1.2,0.8-2.2V4.2H498.4z"/>
		<path class="st1" d="M514.3,14.8l3.7-10.6h1.8L515,17h-1.5l-4.7-12.8h1.8L514.3,14.8z"/>
		<path class="st1" d="M533.2,13l0.2,1.7l0.4-1.5l2.5-8.9h1.4l2.5,8.9l0.4,1.5l0.3-1.7l2-8.8h1.7L541.5,17h-1.5l-2.6-9.3l-0.2-1
			l-0.2,1l-2.7,9.3h-1.5l-3.1-12.8h1.7L533.2,13z"/>
		<path class="st1" d="M559.6,9.1l3.1-4.9h2l-4,6.3l4.1,6.5h-2l-3.1-5l-3.2,5h-2l4.1-6.5l-4.1-6.3h2L559.6,9.1z"/>
		<path class="st1" d="M579.6,10.6l3.3-6.4h1.9l-4.4,8V17h-1.7v-4.8l-4.4-8h1.9L579.6,10.6z"/>
	</g>
	<g class="st0">
		<path class="st1" d="M3.8,45.6h7.3V47H1.8v-1.3l7-10.2H1.9v-1.4h8.9v1.2L3.8,45.6z"/>
		<path class="st1" d="M23.5,45.6h7.3V47h-9.3v-1.3l7-10.2h-6.9v-1.4h8.9v1.2L23.5,45.6z M26.2,32.3l1.3-1.5h1.4v0.1l-2.2,2.4h-1
			l-2.2-2.4v-0.1h1.4L26.2,32.3z"/>
		<path class="st1" d="M49.2,43.7h-5.4L42.7,47h-1.7l4.9-12.8h1.5L52.2,47h-1.7L49.2,43.7z M44.4,42.3h4.4l-2.2-6L44.4,42.3z"/>
		<path class="st1" d="M70.7,35.6h-6.2v3.8h3.2c1.3,0,2.4,0.4,3.1,1S72,42,72,43.2c0,1.2-0.4,2.1-1.1,2.8S69,47,67.7,47h-4.9V34.2
			h7.9V35.6z M64.5,40.8v4.8h3.1c0.8,0,1.5-0.2,2-0.7s0.7-1,0.7-1.8c0-0.7-0.2-1.3-0.7-1.7s-1.1-0.6-1.9-0.6H64.5z"/>
		<path class="st1" d="M83.2,47V34.2h4.2c1.4,0,2.4,0.3,3.1,0.9s1.1,1.4,1.1,2.5c0,0.6-0.2,1.1-0.5,1.6c-0.3,0.5-0.8,0.8-1.4,1.1
			c0.7,0.2,1.2,0.6,1.6,1.1s0.6,1.2,0.6,1.9c0,1.1-0.4,2.1-1.1,2.7s-1.8,1-3.2,1H83.2z M84.9,39.7h2.5c0.7,0,1.3-0.2,1.8-0.6
			s0.7-0.9,0.7-1.5c0-0.7-0.2-1.2-0.6-1.5c-0.4-0.3-1-0.5-1.9-0.5h-2.5V39.7z M84.9,41v4.6h2.8c0.8,0,1.4-0.2,1.9-0.6s0.7-1,0.7-1.7
			c0-1.5-0.8-2.3-2.5-2.3H84.9z"/>
		<path class="st1" d="M111.4,35.6h-6.2V47h-1.7V34.2h7.9V35.6z"/>
		<path class="st1" d="M130.3,35.5L130.3,35.5L130.3,35.5l-6.2,0.1V47h-1.7V34.2h6.3v-3h1.6V35.5z"/>
		<path class="st1" d="M151.3,50.1h-1.7V47h-9.2v3.1h-1.7l0-4.5h1c0.6-0.6,1-1.5,1.3-2.5c0.3-1,0.5-2.2,0.6-3.4l0.3-5.5h7.7v11.4
			h1.7L151.3,50.1z M141.7,45.6h6.2v-10h-4.3l-0.2,3.8c-0.1,1.5-0.3,2.7-0.6,3.8S142.2,45,141.7,45.6z"/>
		<path class="st1" d="M170.9,35.6h-4.6v4c0.9-0.3,1.8-0.4,2.5-0.4c1.4,0,2.5,0.4,3.3,1.1s1.2,1.7,1.2,3s-0.4,2.2-1.1,2.9
			s-1.8,1-3.2,1l0-1.3c0.9,0,1.6-0.2,2-0.6c0.4-0.4,0.7-1.1,0.7-1.9c0-0.8-0.3-1.5-0.7-1.9s-1.2-0.7-2.1-0.7c-0.9,0-1.7,0.1-2.5,0.4
			v6h-1.7V35.6h-3.6v-1.4h9.9V35.6z"/>
		<path class="st1" d="M191.8,41.1h-5.5v4.5h6.4V47h-8.1V34.2h8v1.4h-6.4v4.1h5.5V41.1z"/>
		<path class="st1" d="M211,41.1h-5.5v4.5h6.4V47h-8.1V34.2h8v1.4h-6.4v4.1h5.5V41.1z M204.9,32.1c0-0.3,0.1-0.5,0.2-0.7
			s0.4-0.3,0.7-0.3s0.6,0.1,0.7,0.3s0.2,0.4,0.2,0.7c0,0.3-0.1,0.5-0.2,0.7s-0.4,0.3-0.7,0.3s-0.6-0.1-0.7-0.3
			S204.9,32.4,204.9,32.1z M208.7,32.1c0-0.3,0.1-0.5,0.2-0.7c0.2-0.2,0.4-0.3,0.7-0.3s0.6,0.1,0.7,0.3c0.2,0.2,0.2,0.4,0.2,0.7
			c0,0.3-0.1,0.5-0.2,0.7s-0.4,0.3-0.7,0.3s-0.6-0.1-0.7-0.3S208.7,32.4,208.7,32.1z"/>
		<path class="st1" d="M232.5,42.9c-0.2,1.4-0.7,2.4-1.5,3.1c-0.8,0.7-2,1.1-3.4,1.1c-1.5,0-2.7-0.5-3.6-1.6s-1.4-2.5-1.4-4.4V40
			c0-1.2,0.2-2.2,0.6-3.1c0.4-0.9,1-1.6,1.8-2.1s1.7-0.7,2.7-0.7c1.4,0,2.4,0.4,3.3,1.1s1.3,1.8,1.4,3.2h-1.7c-0.1-1-0.5-1.7-1-2.2
			c-0.5-0.5-1.2-0.7-2.1-0.7c-1.1,0-1.9,0.4-2.5,1.2s-0.9,1.9-0.9,3.3h5v1.4h-5v0c0,1.4,0.3,2.5,0.9,3.3s1.4,1.2,2.4,1.2
			c0.9,0,1.7-0.2,2.2-0.6c0.5-0.4,0.8-1.2,1-2.2H232.5z"/>
		<path class="st1" d="M253.1,41.2h-1.4V47h-1.7v-5.8h-1.5L245,47h-2.1l4.3-6.8l-4-6h2l3.4,5.6h1.5v-5.6h1.7v5.6h1.4l3.4-5.6h2l-4,6
			l4.3,6.8h-2.1L253.1,41.2z"/>
		<path class="st1" d="M276,37.6c0-0.7-0.2-1.2-0.7-1.6s-1.2-0.6-2.1-0.6c-0.8,0-1.4,0.2-1.9,0.6s-0.8,0.9-0.8,1.5h-1.7
			c0-0.7,0.2-1.3,0.6-1.8s0.9-1,1.6-1.3s1.4-0.5,2.2-0.5c1.4,0,2.5,0.3,3.3,1s1.2,1.5,1.2,2.7c0,0.6-0.2,1.1-0.5,1.6
			c-0.4,0.5-0.9,0.9-1.5,1.2c1.5,0.5,2.3,1.5,2.3,3c0,1.1-0.4,2.1-1.3,2.7c-0.9,0.7-2,1-3.4,1c-0.8,0-1.6-0.2-2.3-0.5
			c-0.7-0.3-1.2-0.7-1.6-1.3s-0.6-1.2-0.6-2h1.7c0,0.7,0.3,1.2,0.8,1.7s1.2,0.7,2,0.7c0.9,0,1.7-0.2,2.2-0.6s0.8-1,0.8-1.7
			c0-1.5-0.9-2.3-2.8-2.3h-1.6v-1.4h1.6c0.9,0,1.5-0.2,1.9-0.6S276,38.3,276,37.6z"/>
		<path class="st1" d="M292.9,41.3c-1.4-0.4-2.5-0.9-3.2-1.5c-0.7-0.6-1-1.4-1-2.2c0-1,0.4-1.8,1.2-2.5c0.8-0.7,1.9-1,3.1-1
			c0.9,0,1.7,0.2,2.4,0.5s1.2,0.8,1.6,1.4s0.6,1.3,0.6,2h-1.7c0-0.8-0.2-1.4-0.7-1.8s-1.2-0.7-2.1-0.7c-0.8,0-1.5,0.2-1.9,0.6
			c-0.5,0.4-0.7,0.9-0.7,1.5c0,0.5,0.2,1,0.7,1.3s1.2,0.7,2.3,1c1.1,0.3,1.9,0.6,2.5,1c0.6,0.4,1,0.8,1.3,1.3s0.4,1,0.4,1.7
			c0,1-0.4,1.9-1.2,2.5c-0.8,0.6-1.9,0.9-3.2,0.9c-0.9,0-1.7-0.2-2.5-0.5c-0.8-0.3-1.3-0.8-1.8-1.4s-0.6-1.3-0.6-2h1.7
			c0,0.8,0.3,1.4,0.9,1.8c0.6,0.4,1.3,0.7,2.3,0.7c0.9,0,1.6-0.2,2-0.5s0.7-0.9,0.7-1.5s-0.2-1.1-0.7-1.5
			C294.9,42,294.1,41.6,292.9,41.3z"/>
		<path class="st1" d="M316.9,34.2h1.7V47h-1.7v-9.9l-6.3,9.9h-1.7V34.2h1.7v9.9L316.9,34.2z"/>
		<path class="st1" d="M332.5,47h-1.7V34.2h1.7V47z"/>
		<path class="st1" d="M342.7,32.1c0-0.3,0.1-0.5,0.2-0.7c0.2-0.2,0.4-0.3,0.7-0.3s0.6,0.1,0.7,0.3s0.2,0.4,0.2,0.7
			c0,0.3-0.1,0.5-0.2,0.7S344,33,343.7,33s-0.6-0.1-0.7-0.3C342.8,32.6,342.7,32.4,342.7,32.1z M346.4,47h-1.7V34.2h1.7V47z
			 M346.5,32.1c0-0.3,0.1-0.5,0.2-0.7c0.2-0.2,0.4-0.3,0.7-0.3s0.6,0.1,0.7,0.3c0.2,0.2,0.2,0.4,0.2,0.7c0,0.3-0.1,0.5-0.2,0.7
			s-0.4,0.3-0.7,0.3s-0.6-0.1-0.7-0.3C346.6,32.6,346.5,32.4,346.5,32.1z"/>
		<path class="st1" d="M366.5,34.2h1.7V47h-1.7v-9.9l-6.3,9.9h-1.7V34.2h1.7v9.9L366.5,34.2z M366,31c0,0.7-0.2,1.3-0.7,1.7
			c-0.5,0.4-1.1,0.6-1.9,0.6s-1.4-0.2-1.9-0.7c-0.5-0.4-0.7-1-0.7-1.7h1.3c0,0.4,0.1,0.7,0.3,1c0.2,0.2,0.5,0.3,1,0.3
			c0.4,0,0.7-0.1,1-0.3c0.2-0.2,0.3-0.6,0.3-1H366z"/>
		<path class="st1" d="M385.6,34.2h1.7v9.1c0,1.2-0.4,2.2-1.1,2.9c-0.7,0.7-1.7,1-2.9,1c-1.3,0-2.3-0.3-3-1s-1.1-1.6-1.1-2.7h1.7
			c0,0.7,0.2,1.3,0.6,1.7c0.4,0.4,1,0.6,1.7,0.6c0.7,0,1.3-0.2,1.7-0.7c0.4-0.4,0.6-1.1,0.7-1.8V34.2z"/>
		<path class="st1" d="M402.5,41.3H401V47h-1.7V34.2h1.7v5.6h1.3l4.5-5.6h2.1l-4.9,6.2l5.2,6.6h-2.1L402.5,41.3z"/>
		<path class="st1" d="M429.5,34.2V47h-1.7V35.6h-4.6l-0.2,5.1c-0.1,1.7-0.3,3-0.5,3.8s-0.6,1.5-1.1,1.9s-1.2,0.6-2,0.6h-0.6v-1.4
			l0.4,0c0.5,0,1-0.2,1.3-0.5c0.3-0.3,0.5-0.8,0.7-1.5s0.3-1.7,0.3-3.2l0.3-6.2H429.5z"/>
		<path class="st1" d="M451.3,34.2v5h3.2c1.3,0,2.3,0.4,3.1,1.1s1.2,1.6,1.2,2.8c0,1.2-0.4,2.1-1.1,2.8c-0.8,0.7-1.8,1.1-3.1,1.1
			h-4.9V35.6h-4.5l-0.2,5.1c-0.1,1.7-0.3,3-0.5,3.8s-0.6,1.5-1.1,1.9s-1.2,0.6-2,0.6h-0.6v-1.4l0.4,0c0.5,0,1-0.2,1.3-0.5
			c0.3-0.3,0.5-0.8,0.7-1.5s0.3-1.7,0.3-3.2l0.3-6.2H451.3z M451.3,40.5v5.1h3.1c0.8,0,1.5-0.2,1.9-0.7s0.7-1.1,0.7-1.9
			c0-0.8-0.2-1.4-0.7-1.8s-1.1-0.7-1.9-0.7H451.3z"/>
		<path class="st1" d="M472.1,34.2l4.2,10.4l4.2-10.4h2.2V47H481v-5l0.2-5.4L476.9,47h-1.3l-4.2-10.3l0.2,5.4v5h-1.7V34.2H472.1z"/>
		<path class="st1" d="M504.5,47h-1.7v-5.9h-6.5V47h-1.7V34.2h1.7v5.5h6.5v-5.5h1.7V47z"/>
		<path class="st1" d="M518.3,39.7h6.3v-5.5h1.7v5.4h3.2c1.3,0,2.4,0.4,3.1,1s1.1,1.5,1.1,2.7c0,1.1-0.4,2-1.1,2.7s-1.8,1-3.1,1.1
			h-4.9v-5.9h-6.3V47h-1.7V34.2h1.7V39.7z M526.3,40.9v4.6h3.1c0.8,0,1.5-0.2,2-0.6s0.7-1,0.7-1.7c0-0.7-0.2-1.2-0.7-1.6
			s-1.1-0.6-1.9-0.6H526.3z"/>
		<path class="st1" d="M554.8,41c0,1.3-0.2,2.3-0.6,3.3c-0.4,0.9-1,1.6-1.8,2.1s-1.7,0.7-2.7,0.7c-1,0-1.9-0.2-2.7-0.7
			s-1.4-1.2-1.8-2.1c-0.4-0.9-0.7-2-0.7-3.2v-0.9c0-1.2,0.2-2.3,0.6-3.3s1-1.7,1.8-2.2c0.8-0.5,1.7-0.8,2.7-0.8c1,0,1.9,0.2,2.7,0.7
			c0.8,0.5,1.4,1.2,1.8,2.2c0.4,0.9,0.6,2,0.6,3.3V41z M553.1,40.2c0-1.5-0.3-2.7-0.9-3.5s-1.5-1.2-2.6-1.2c-1.1,0-1.9,0.4-2.5,1.2
			s-0.9,1.9-0.9,3.4V41c0,1.5,0.3,2.6,0.9,3.5s1.5,1.3,2.6,1.3c1.1,0,1.9-0.4,2.5-1.2s0.9-1.9,0.9-3.4V40.2z"/>
		<path class="st1" d="M576.1,47h-1.7V35.6h-6.3V47h-1.7V34.2h9.7V47z"/>
		<path class="st1" d="M589.8,42v5h-1.7V34.2h4.7c1.4,0,2.5,0.4,3.3,1.1s1.2,1.7,1.2,2.8c0,1.2-0.4,2.2-1.2,2.9
			c-0.8,0.7-1.9,1-3.3,1H589.8z M589.8,40.6h3c0.9,0,1.6-0.2,2.1-0.6c0.5-0.4,0.7-1,0.7-1.8c0-0.8-0.2-1.4-0.7-1.8s-1.1-0.7-2-0.7
			h-3.1V40.6z"/>
	</g>
	<g class="st0">
		<path class="st1" d="M11.9,72.9c-0.2,1.4-0.7,2.4-1.5,3.1c-0.8,0.7-2,1.1-3.4,1.1c-1.5,0-2.7-0.5-3.6-1.6S2,73,2,71.2V70
			c0-1.2,0.2-2.2,0.6-3.1s1-1.6,1.8-2.1C5.3,64.3,6.2,64,7.2,64c1.4,0,2.4,0.4,3.3,1.1s1.3,1.8,1.4,3.2h-1.7c-0.1-1-0.5-1.8-1-2.2
			c-0.5-0.5-1.2-0.7-2.1-0.7c-1.1,0-1.9,0.4-2.5,1.2S3.7,68.5,3.7,70v1.2c0,1.4,0.3,2.5,0.9,3.3S6,75.8,7,75.8
			c0.9,0,1.7-0.2,2.2-0.6c0.5-0.4,0.8-1.2,1-2.2H11.9z"/>
		<path class="st1" d="M31.8,65.6h-4.1V77H26V65.6h-4.1v-1.4h9.9V65.6z"/>
		<path class="st1" d="M51.8,65.6h-4.6v3.8c0.9-0.2,1.9-0.4,2.9-0.4c1.5,0,2.6,0.3,3.3,1s1.1,1.6,1.1,2.9V77h-1.7v-4.1
			c0-0.9-0.2-1.5-0.6-1.9c-0.4-0.4-1.1-0.6-2-0.6c-1,0-2,0.1-2.9,0.4V77h-1.7V65.6h-3.6v-1.4h9.9V65.6z"/>
		<path class="st1" d="M70.9,71.6l2.9-7.4h2l-4.5,10.7c-0.3,0.7-0.6,1.2-0.9,1.4s-0.6,0.5-0.9,0.7c-0.4,0.1-0.8,0.2-1.3,0.2
			c-0.5,0-0.8,0-0.9-0.1l0.1-1.3l0.8,0c0.6,0,1.1-0.3,1.4-0.9l0.2-0.5l0.3-0.8l-4.4-9.5h1.9L70.9,71.6z"/>
		<path class="st1" d="M91.2,71.6l2.9-7.4h2l-4.5,10.7c-0.3,0.7-0.6,1.2-0.9,1.4s-0.6,0.5-0.9,0.7c-0.4,0.1-0.8,0.2-1.3,0.2
			c-0.5,0-0.8,0-0.9-0.1l0.1-1.3l0.8,0c0.6,0,1.1-0.3,1.4-0.9l0.2-0.5l0.3-0.8L86,64.2h1.9L91.2,71.6z M93.6,61
			c0,0.7-0.2,1.3-0.7,1.7s-1.1,0.6-1.9,0.6s-1.4-0.2-1.9-0.7c-0.5-0.4-0.7-1-0.7-1.7h1.3c0,0.4,0.1,0.7,0.3,1c0.2,0.2,0.5,0.3,1,0.3
			c0.4,0,0.7-0.1,1-0.3s0.3-0.6,0.3-1H93.6z"/>
		<path class="st1" d="M113.4,65.5h0.3c1,0,1.8,0.2,2.6,0.7s1.4,1.1,1.9,1.8c0.4,0.8,0.7,1.7,0.7,2.6c0,1-0.2,1.9-0.7,2.6
			s-1.1,1.4-1.8,1.8c-0.8,0.4-1.7,0.7-2.6,0.7h-0.3v1.7h-1.6v-1.7h-0.2c-1,0-1.9-0.2-2.7-0.7s-1.4-1.1-1.9-1.8s-0.7-1.7-0.7-2.6
			s0.2-1.9,0.7-2.6s1.1-1.4,1.9-1.8s1.7-0.7,2.7-0.7h0.2v-1.8h1.6V65.5z M111.5,66.8c-1.1,0-2,0.3-2.6,1c-0.6,0.7-1,1.6-1,2.8
			c0,1.2,0.3,2.1,1,2.8s1.5,1,2.6,1h0.2v-7.7H111.5z M113.4,66.8v7.7h0.2c1.1,0,2-0.3,2.6-1c0.6-0.7,0.9-1.6,0.9-2.8
			c0-1.2-0.3-2.1-0.9-2.8s-1.5-1-2.7-1H113.4z"/>
		<path class="st1" d="M134.2,69.1l3.1-4.9h2l-4,6.3l4.1,6.5h-2l-3.1-5l-3.2,5h-2l4.1-6.5l-4.1-6.3h2L134.2,69.1z"/>
		<path class="st1" d="M150.3,64.2h1.7v11.4h6.3V64.2h1.7v11.4h1.3l-0.2,4.5h-1.5V77h-9.4V64.2z"/>
		<path class="st1" d="M181.4,64.2V77h-1.7v-5.3c-0.6,0.2-1.2,0.3-1.7,0.4s-1.1,0.1-1.7,0.1c-1.5,0-2.5-0.3-3.3-0.9
			s-1.1-1.6-1.1-2.9v-4.1h1.7v4.1c0,0.9,0.2,1.5,0.6,1.9s1.1,0.6,2,0.6c1.1,0,2.2-0.2,3.4-0.5v-6.1H181.4z"/>
		<path class="st1" d="M193.6,64.2h1.7v11.4h6.3V64.2h1.7V77h-3.9v3.2h-1.7V77h-4.1V64.2z"/>
		<path class="st1" d="M217.1,64.2v11.4h4.4V64.2h1.7v11.4h4.4V64.2h1.7V77h-13.8V64.2H217.1z"/>
		<path class="st1" d="M243,64.2v11.4h4.4V64.2h1.7v11.4h4.4V64.2h1.7v11.5h1.3l-0.2,4.4h-1.5V77h-13.5V64.2H243z"/>
		<path class="st1" d="M266.4,64.2h5.3v5.2h3c1.4,0,2.5,0.3,3.2,1c0.8,0.7,1.1,1.6,1.1,2.7c0,1.2-0.4,2.1-1.1,2.8s-1.8,1-3.1,1.1
			H270V65.5h-3.6V64.2z M271.7,70.8v4.8h3.1c0.8,0,1.5-0.2,1.9-0.7s0.7-1,0.7-1.8c0-0.7-0.2-1.3-0.7-1.7s-1.1-0.6-1.9-0.6H271.7z"/>
		<path class="st1" d="M292.1,69.4h3.2c1.3,0,2.4,0.4,3.1,1s1.1,1.6,1.1,2.7c0,1.2-0.4,2.1-1.1,2.8s-1.8,1-3.1,1.1h-4.9V64.2h1.7
			V69.4z M292.1,70.8v4.8h3.1c0.8,0,1.5-0.2,2-0.7s0.7-1,0.7-1.8c0-0.7-0.2-1.3-0.7-1.7s-1.1-0.6-1.9-0.6H292.1z M302.8,77h-1.7
			V64.2h1.7V77z"/>
		<path class="st1" d="M316.6,69.4h3.2c1.3,0,2.4,0.4,3.1,1s1.1,1.6,1.1,2.7c0,1.2-0.4,2.1-1.1,2.8s-1.8,1-3.1,1.1h-4.9V64.2h1.7
			V69.4z M316.6,70.8v4.8h3.1c0.8,0,1.5-0.2,2-0.7c0.5-0.4,0.7-1,0.7-1.8c0-0.7-0.2-1.3-0.7-1.7c-0.4-0.4-1.1-0.6-1.9-0.6H316.6z"/>
		<path class="st1" d="M336.7,72.9c0.2,1.1,0.5,1.8,1,2.2c0.5,0.4,1.2,0.6,2.2,0.6c1,0,1.8-0.4,2.4-1.2c0.6-0.8,0.9-1.9,0.9-3.3h-5
			v-1.4h5c0-1.4-0.3-2.5-0.9-3.3c-0.6-0.8-1.5-1.2-2.5-1.2c-0.9,0-1.6,0.2-2.1,0.7c-0.5,0.5-0.8,1.2-1,2.2H335
			c0.1-1.3,0.6-2.4,1.4-3.2s1.9-1.1,3.3-1.1c1,0,1.9,0.2,2.7,0.7c0.8,0.5,1.4,1.2,1.8,2.1c0.4,0.9,0.6,1.9,0.6,3.1v1.3
			c0,1.2-0.2,2.2-0.6,3.1s-1,1.6-1.8,2.1c-0.8,0.5-1.6,0.7-2.6,0.7c-1.4,0-2.5-0.4-3.4-1.1c-0.8-0.7-1.3-1.8-1.5-3.1H336.7z"/>
		<path class="st1" d="M370.3,71c0,1.3-0.2,2.3-0.6,3.3c-0.4,0.9-1,1.6-1.8,2.1s-1.7,0.7-2.7,0.7c-1,0-1.8-0.2-2.6-0.7
			c-0.8-0.5-1.4-1.1-1.8-2c-0.4-0.9-0.7-1.9-0.7-3.1h-1.8V77h-1.7V64.2h1.7v5.9h1.8c0-1.2,0.2-2.3,0.7-3.2c0.4-0.9,1-1.6,1.8-2.1
			c0.8-0.5,1.7-0.8,2.7-0.8c1,0,1.9,0.2,2.7,0.7c0.8,0.5,1.4,1.2,1.8,2.2c0.4,0.9,0.6,2,0.6,3.3V71z M368.6,70.2
			c0-1.5-0.3-2.7-0.9-3.5s-1.5-1.2-2.6-1.2c-1.1,0-1.9,0.4-2.5,1.2c-0.6,0.8-0.9,1.9-0.9,3.4V71c0,1.5,0.3,2.6,0.9,3.5
			c0.6,0.8,1.5,1.3,2.6,1.3c1.1,0,1.9-0.4,2.5-1.2s0.9-1.9,0.9-3.4V70.2z"/>
		<path class="st1" d="M388.1,77v-5h-3l-2.6,5h-1.8l3-5.4c-1.7-0.7-2.5-1.8-2.5-3.5c0-1.2,0.4-2.2,1.2-2.8c0.8-0.7,1.9-1,3.3-1h4.1
			V77H388.1z M382.9,68.1c0,0.8,0.2,1.4,0.7,1.9c0.5,0.5,1.2,0.7,2,0.7h2.5v-5.1h-2.4c-0.9,0-1.6,0.2-2.1,0.7
			C383.2,66.7,382.9,67.3,382.9,68.1z"/>
		<path class="st1" d="M409,73.7h-5.4l-1.2,3.3h-1.7l4.9-12.8h1.5l4.9,12.8h-1.7L409,73.7z M404.1,72.3h4.4l-2.2-6L404.1,72.3z"/>
		<path class="st1" d="M422.6,77V64.2h4.2c1.4,0,2.4,0.3,3.1,0.9c0.7,0.6,1,1.4,1,2.5c0,0.6-0.2,1.1-0.5,1.6
			c-0.3,0.5-0.8,0.8-1.4,1.1c0.7,0.2,1.2,0.6,1.6,1.1c0.4,0.5,0.6,1.2,0.6,1.9c0,1.1-0.4,2.1-1.1,2.7s-1.8,1-3.2,1H422.6z
			 M424.3,69.7h2.5c0.7,0,1.3-0.2,1.8-0.6s0.7-0.9,0.7-1.5c0-0.7-0.2-1.2-0.6-1.5c-0.4-0.3-1-0.5-1.9-0.5h-2.5V69.7z M424.3,71v4.6
			h2.8c0.8,0,1.4-0.2,1.9-0.6c0.5-0.4,0.7-1,0.7-1.7c0-1.5-0.8-2.3-2.5-2.3H424.3z"/>
		<path class="st1" d="M450.8,65.6h-6.2V77h-1.7V64.2h7.9V65.6z"/>
		<path class="st1" d="M464.4,64.2h1.5l5.1,12.8h-12L464.4,64.2z M461.2,75.6h7.4l-3.6-9.4L461.2,75.6z"/>
		<path class="st1" d="M489.1,71.1h-5.5v4.5h6.4V77h-8.1V64.2h8v1.4h-6.4v4.1h5.5V71.1z"/>
		<path class="st1" d="M502.3,75.6h7.3V77h-9.3v-1.3l7-10.2h-6.9v-1.4h8.9v1.2L502.3,75.6z"/>
		<path class="st1" d="M530.7,77H529v-5.9h-6.5V77h-1.7V64.2h1.7v5.5h6.5v-5.5h1.7V77z"/>
		<path class="st1" d="M552.4,71c0,1.2-0.2,2.3-0.6,3.3s-1,1.6-1.8,2.1s-1.7,0.7-2.7,0.7c-1,0-1.9-0.2-2.7-0.7s-1.4-1.2-1.8-2.1
			c-0.4-0.9-0.7-2-0.7-3.2v-0.9c0-1.2,0.2-2.3,0.6-3.3s1-1.7,1.8-2.2c0.8-0.5,1.7-0.8,2.7-0.8c1,0,1.9,0.2,2.7,0.7s1.4,1.2,1.8,2.1
			c0.4,0.9,0.6,2,0.7,3.2V71z M550.7,70.2c0-1.5-0.3-2.7-0.9-3.5s-1.5-1.2-2.6-1.2c-1.1,0-1.9,0.4-2.5,1.2c-0.6,0.8-0.9,1.9-0.9,3.4
			V71c0,1.5,0.3,2.6,0.9,3.5s1.5,1.3,2.6,1.3c1.1,0,1.9-0.4,2.5-1.2s0.9-1.9,0.9-3.4V70.2z M549.6,71.2h-4.5v-1.3h4.5V71.2z"/>
		<path class="st1" d="M565.7,77h-1.7V64.2h1.7V77z"/>
		<path class="st1" d="M581.1,71.1l-1.6,1.6V77h-1.7V64.2h1.7v6.3l5.7-6.3h2l-5,5.7l5.4,7.1h-2L581.1,71.1z"/>
	</g>
	<g class="st0">
		<path class="st1" d="M6.9,96.8L3.3,107H1.4l4.7-12.8h1.5l4.7,12.8h-1.8L6.9,96.8z"/>
		<path class="st1" d="M25.5,94.2l4.2,10.4l4.2-10.4H36V107h-1.7v-5l0.2-5.4L30.3,107H29l-4.2-10.3L25,102v5h-1.7V94.2H25.5z"/>
		<path class="st1" d="M57.8,107h-1.7l-6.4-9.9v9.9H48V94.2h1.7l6.5,9.9v-9.9h1.7V107z"/>
		<path class="st1" d="M69.4,105.6h8.2v1.4h-8.2V105.6z M69.4,94.2h8.1v1.4h-8.1V94.2z M70.2,99.7h6.6v1.4h-6.6V99.7z"/>
		<path class="st1" d="M98.8,101c0,1.3-0.2,2.3-0.6,3.3c-0.4,0.9-1,1.6-1.8,2.1s-1.7,0.7-2.7,0.7c-1,0-1.9-0.2-2.7-0.7
			s-1.4-1.2-1.8-2.1c-0.4-0.9-0.7-2-0.7-3.2v-0.9c0-1.2,0.2-2.3,0.6-3.3s1-1.7,1.8-2.2c0.8-0.5,1.7-0.8,2.7-0.8c1,0,1.9,0.2,2.7,0.7
			c0.8,0.5,1.4,1.2,1.8,2.2c0.4,0.9,0.6,2,0.6,3.3V101z M97.2,100.2c0-1.5-0.3-2.7-0.9-3.5s-1.5-1.2-2.6-1.2c-1.1,0-1.9,0.4-2.5,1.2
			s-0.9,1.9-0.9,3.4v0.9c0,1.5,0.3,2.6,0.9,3.5s1.5,1.3,2.6,1.3c1.1,0,1.9-0.4,2.5-1.2s0.9-1.9,0.9-3.4V100.2z"/>
		<path class="st1" d="M120.1,107h-1.7V95.6h-6.3V107h-1.7V94.2h9.7V107z"/>
		<path class="st1" d="M133.9,102v5h-1.7V94.2h4.7c1.4,0,2.5,0.4,3.3,1.1s1.2,1.7,1.2,2.8c0,1.2-0.4,2.2-1.2,2.9s-1.9,1-3.3,1H133.9
			z M133.9,100.6h3c0.9,0,1.6-0.2,2.1-0.6c0.5-0.4,0.7-1,0.7-1.8c0-0.8-0.2-1.4-0.7-1.8s-1.1-0.7-2-0.7h-3.1V100.6z"/>
		<path class="st1" d="M157.7,100.7l-3.9,4.9h6.9v1.4h-9v-1.3l4.2-5.2l-4.2-5.1v-1.3h8.6v1.4h-6.4l3.9,4.9V100.7z"/>
		<path class="st1" d="M180.7,95.6h-4.1V107h-1.7V95.6h-4.1v-1.4h9.9V95.6z"/>
		<path class="st1" d="M195.6,100.6l3.3-6.4h1.9l-4.4,8v4.8h-1.7v-4.8l-4.4-8h1.9L195.6,100.6z"/>
		<path class="st1" d="M216.9,95.8c0.9,0,1.8,0.2,2.5,0.6s1.3,1,1.8,1.7s0.6,1.6,0.6,2.5c0,0.9-0.2,1.8-0.6,2.5s-1,1.3-1.7,1.7
			c-0.7,0.4-1.6,0.6-2.6,0.6v1.5h-1.7v-1.5c-1.5,0-2.7-0.5-3.6-1.4c-0.9-0.9-1.4-2-1.4-3.4c0-0.9,0.2-1.6,0.5-2.3s0.9-1.3,1.6-1.7
			c0.8-0.5,1.8-0.8,2.8-0.8v-1.6h1.7V95.8z M212,100.7c0,1.1,0.3,1.9,0.9,2.5c0.6,0.6,1.4,0.9,2.4,0.9v-6.8c-1.1,0-1.9,0.3-2.4,0.9
			C212.3,98.8,212,99.6,212,100.7z M220.2,100.6c0-1.1-0.3-1.9-0.8-2.5c-0.6-0.6-1.4-0.9-2.4-0.9v6.8c1.1,0,1.9-0.3,2.4-0.9
			C219.9,102.6,220.2,101.7,220.2,100.6z"/>
		<path class="st1" d="M236.8,99.1l3.1-4.9h2l-4,6.3l4.1,6.5h-2l-3.1-5l-3.2,5h-2l4.1-6.5l-4.1-6.3h2L236.8,99.1z"/>
		<path class="st1" d="M258.3,102.4c0.9-0.1,1.6-0.5,2.1-1.1c0.5-0.6,0.8-1.4,0.8-2.4v-4.6h1.7v4.6c0,0.9-0.2,1.8-0.6,2.5
			s-0.9,1.3-1.6,1.7c-0.7,0.4-1.5,0.7-2.4,0.8v3.2h-1.7v-3.2c-1.4-0.1-2.4-0.6-3.2-1.5s-1.2-2-1.2-3.4v-4.7h1.7v4.6
			c0,1,0.3,1.7,0.7,2.4s1.2,1,2,1.2v-8.2h1.7V102.4z"/>
		<path class="st1" d="M279.3,105.6c0.8-0.2,1.4-0.7,1.9-1.5c0.5-0.8,0.7-1.9,0.7-3.3v-1.2c0-1.4-0.3-2.4-0.9-3.1s-1.3-1.1-2.3-1.1
			s-1.8,0.4-2.3,1.1s-0.8,1.8-0.8,3.1v1c0,1.4,0.2,2.5,0.7,3.4c0.5,0.9,1.1,1.4,2,1.5v1.4h-4.3v-1.4h1.9c-0.6-0.6-1.1-1.3-1.5-2.2
			s-0.5-1.8-0.5-2.8v-1c0-1.1,0.2-2.1,0.6-2.9s1-1.5,1.7-2c0.7-0.5,1.6-0.7,2.5-0.7c0.9,0,1.8,0.2,2.5,0.7s1.3,1.1,1.7,1.9
			s0.6,1.8,0.7,2.8v1.1c0,0.9-0.2,1.9-0.5,2.8s-0.8,1.6-1.5,2.2h1.9v1.4h-4.3V105.6z"/>
		<path class="st1" d="M302.4,103.7H297l-1.2,3.3h-1.7l4.9-12.8h1.5l4.9,12.8h-1.7L302.4,103.7z M295.9,92.9h1.5l-1,3l-1,0
			L295.9,92.9z M297.5,102.3h4.4l-2.2-6L297.5,102.3z"/>
		<path class="st1" d="M313.1,92.9h1.5l-1,3l-1,0L313.1,92.9z M323.3,101.1h-5.5v4.5h6.4v1.4H316V94.2h8v1.4h-6.4v4.1h5.5V101.1z"/>
		<path class="st1" d="M332.5,92.9h1.5l-1,3l-1,0L332.5,92.9z M345.1,107h-1.7v-5.9H337v5.9h-1.7V94.2h1.7v5.5h6.5v-5.5h1.7V107z"/>
		<path class="st1" d="M355.9,92.9h1.5l-1,3l-1,0L355.9,92.9z M367.1,101c0,1.3-0.2,2.3-0.6,3.3c-0.4,0.9-1,1.6-1.8,2.1
			s-1.7,0.7-2.7,0.7c-1,0-1.9-0.2-2.7-0.7s-1.4-1.2-1.8-2.1c-0.4-0.9-0.7-2-0.7-3.2v-0.9c0-1.2,0.2-2.3,0.6-3.3s1-1.7,1.8-2.2
			c0.8-0.5,1.7-0.8,2.7-0.8c1,0,1.9,0.2,2.7,0.7c0.8,0.5,1.4,1.2,1.8,2.2c0.4,0.9,0.6,2,0.6,3.3V101z M365.4,100.2
			c0-1.5-0.3-2.7-0.9-3.5s-1.5-1.2-2.6-1.2c-1.1,0-1.9,0.4-2.5,1.2c-0.6,0.8-0.9,1.9-0.9,3.4v0.9c0,1.5,0.3,2.6,0.9,3.5
			c0.6,0.8,1.5,1.3,2.6,1.3c1.1,0,1.9-0.4,2.5-1.2s0.9-1.9,0.9-3.4V100.2z"/>
		<path class="st1" d="M375.2,92.9h1.5l-1,3l-1,0L375.2,92.9z M383.1,100.6l3.3-6.4h1.9l-4.4,8v4.8h-1.7v-4.8l-4.4-8h1.9
			L383.1,100.6z"/>
		<path class="st1" d="M403,100.6l3.3-6.4h1.9l-4.4,8v4.8h-1.7v-4.8l-4.4-8h1.9L403,100.6z M400.2,92.2c0-0.3,0.1-0.5,0.2-0.7
			c0.2-0.2,0.4-0.3,0.7-0.3s0.6,0.1,0.7,0.3s0.2,0.4,0.2,0.7c0,0.3-0.1,0.5-0.2,0.7s-0.4,0.3-0.7,0.3s-0.6-0.1-0.7-0.3
			C400.3,92.7,400.2,92.5,400.2,92.2z M404,92.2c0-0.3,0.1-0.5,0.2-0.7c0.2-0.2,0.4-0.3,0.7-0.3s0.6,0.1,0.7,0.3
			c0.2,0.2,0.2,0.4,0.2,0.7c0,0.3-0.1,0.5-0.2,0.7s-0.4,0.3-0.7,0.3s-0.6-0.1-0.7-0.3C404.1,92.7,404,92.5,404,92.2z"/>
		<path class="st1" d="M422.6,94c1.1,0,2,0.3,2.7,1c0.7,0.6,1,1.5,1,2.5c0,0.5-0.1,1-0.4,1.5s-0.7,0.8-1.2,1.1
			c0.7,0.3,1.3,0.7,1.7,1.3c0.4,0.6,0.6,1.2,0.6,2c0,1.2-0.4,2.2-1.1,2.9c-0.7,0.7-1.7,1.1-2.9,1.1c-1.1,0-1.9-0.3-2.6-0.8v4h-1.6
			V97.6c0-0.6,0.2-1.2,0.5-1.8s0.8-1,1.4-1.3C421.3,94.2,421.9,94,422.6,94z M424.7,97.4c0-0.6-0.2-1.1-0.6-1.5
			c-0.4-0.4-0.9-0.6-1.5-0.6c-0.6,0-1.2,0.2-1.6,0.6s-0.7,0.9-0.7,1.6v7.3c0.3,0.3,0.6,0.5,1,0.7c0.4,0.2,0.9,0.3,1.5,0.3
			c0.8,0,1.4-0.2,1.9-0.7s0.7-1.1,0.7-1.8c0-0.7-0.2-1.3-0.6-1.8c-0.4-0.5-0.9-0.7-1.6-0.8h-1.3v-1.3h0.7c0.7,0,1.2-0.2,1.6-0.5
			C424.5,98.6,424.7,98.1,424.7,97.4z"/>
		<path class="st1" d="M437.2,92.9h1.5l-1,3l-1,0L437.2,92.9z M443.6,105.6c0.8-0.2,1.4-0.7,1.9-1.5c0.5-0.8,0.7-1.9,0.7-3.3v-1.2
			c0-1.4-0.3-2.4-0.9-3.1s-1.3-1.1-2.3-1.1s-1.8,0.4-2.3,1.1s-0.8,1.8-0.8,3.1v1c0,1.4,0.2,2.5,0.7,3.4c0.5,0.9,1.1,1.4,2,1.5v1.4
			h-4.3v-1.4h1.9c-0.6-0.6-1.1-1.3-1.5-2.2s-0.5-1.8-0.5-2.8v-1c0-1.1,0.2-2.1,0.6-2.9c0.4-0.9,1-1.5,1.7-2c0.7-0.5,1.6-0.7,2.5-0.7
			c0.9,0,1.8,0.2,2.5,0.7c0.7,0.5,1.3,1.1,1.7,1.9s0.6,1.8,0.7,2.8v1.1c0,0.9-0.2,1.9-0.5,2.8s-0.8,1.6-1.5,2.2h1.9v1.4h-4.3V105.6z
			"/>
		<path class="st1" d="M466.6,103.7h-5.4l-1.2,3.3h-1.7l4.9-12.8h1.5l4.9,12.8h-1.7L466.6,103.7z M466.6,91.1c0,0.7-0.2,1.3-0.7,1.7
			c-0.5,0.4-1.1,0.6-1.9,0.6s-1.4-0.2-1.9-0.7c-0.5-0.4-0.7-1-0.7-1.7h1.3c0,0.4,0.1,0.7,0.3,1c0.2,0.2,0.5,0.3,1,0.3
			c0.4,0,0.7-0.1,1-0.3s0.3-0.6,0.3-1H466.6z M461.8,102.3h4.4l-2.2-6L461.8,102.3z"/>
		<path class="st1" d="M487.4,103.7H482l-1.2,3.3h-1.7l4.9-12.8h1.5l4.9,12.8h-1.7L487.4,103.7z M487.4,93.2L487.4,93.2l-1.3,0.1
			l-1.3-1.5l-1.3,1.5l-1.3,0v-0.1l2.2-2.4h1L487.4,93.2z M482.5,102.3h4.4l-2.2-6L482.5,102.3z"/>
		<path class="st1" d="M508.3,101.1h-5.5v4.5h6.4v1.4H501V94.2h8v1.4h-6.4v4.1h5.5V101.1z M507.7,93.1L507.7,93.1l-1.3,0.1l-1.3-1.5
			l-1.3,1.5l-1.3,0v-0.1l2.2-2.4h1L507.7,93.1z"/>
		<path class="st1" d="M530.1,101c0,1.3-0.2,2.3-0.6,3.3c-0.4,0.9-1,1.6-1.8,2.1s-1.7,0.7-2.7,0.7c-1,0-1.9-0.2-2.7-0.7
			s-1.4-1.2-1.8-2.1c-0.4-0.9-0.7-2-0.7-3.2v-0.9c0-1.2,0.2-2.3,0.6-3.3s1-1.7,1.8-2.2c0.8-0.5,1.7-0.8,2.7-0.8c1,0,1.9,0.2,2.7,0.7
			c0.8,0.5,1.4,1.2,1.8,2.2c0.4,0.9,0.6,2,0.6,3.3V101z M528.4,100.2c0-1.5-0.3-2.7-0.9-3.5s-1.5-1.2-2.6-1.2
			c-1.1,0-1.9,0.4-2.5,1.2s-0.9,1.9-0.9,3.4v0.9c0,1.5,0.3,2.6,0.9,3.5s1.5,1.3,2.6,1.3c1.1,0,1.9-0.4,2.5-1.2s0.9-1.9,0.9-3.4
			V100.2z M527.6,93.2L527.6,93.2l-1.3,0.1l-1.3-1.5l-1.3,1.5l-1.3,0v-0.1l2.2-2.4h1L527.6,93.2z"/>
		<path class="st1" d="M551.3,101c0,1.3-0.2,2.3-0.6,3.3c-0.4,0.9-1,1.6-1.8,2.1s-1.7,0.7-2.7,0.7c-1,0-1.9-0.2-2.7-0.7
			s-1.4-1.2-1.8-2.1s-0.7-2-0.7-3.2v-0.9c0-1.2,0.2-2.3,0.6-3.3c0.4-0.9,1-1.7,1.8-2.2c0.8-0.5,1.7-0.8,2.7-0.8
			c1.4,0,2.6,0.5,3.5,1.4c0.6,0,1-0.3,1.3-0.6c0.3-0.4,0.4-1,0.4-1.7h1.5c0,2-0.8,3.1-2.3,3.5c0.6,1,0.9,2.2,0.9,3.7V101z
			 M549.7,100.2c0-1.5-0.3-2.7-0.9-3.5c-0.6-0.8-1.5-1.2-2.6-1.2c-1.1,0-1.9,0.4-2.5,1.2c-0.6,0.8-0.9,1.9-0.9,3.4v0.9
			c0,1.5,0.3,2.6,0.9,3.5c0.6,0.8,1.5,1.3,2.6,1.3c1.1,0,2-0.4,2.6-1.2s0.9-2,0.9-3.5V100.2z"/>
		<path class="st1" d="M572,94.2v1.9c0.7-0.1,1.2-0.3,1.4-0.7c0.3-0.4,0.4-1,0.4-1.9h1.4c0,1.2-0.3,2.2-0.8,2.8
			c-0.5,0.6-1.3,1-2.5,1v5.6c0,1.2-0.4,2.1-1.1,2.9s-1.7,1.2-2.9,1.3l-0.6,0c-1.4,0-2.5-0.4-3.3-1.1s-1.3-1.8-1.3-3.1v-8.7h1.7v8.7
			c0,0.9,0.3,1.6,0.8,2.2s1.2,0.8,2.2,0.8c1,0,1.7-0.3,2.2-0.8s0.8-1.2,0.8-2.2v-8.7H572z"/>
	</g>
	<g class="st0">
		<path class="st1" d="M8.1,197c-0.1-0.2-0.2-0.5-0.2-1c-0.8,0.8-1.7,1.2-2.7,1.2c-0.9,0-1.7-0.3-2.3-0.8s-0.9-1.2-0.9-2
			c0-1,0.4-1.8,1.1-2.3s1.8-0.8,3.2-0.8h1.6v-0.7c0-0.6-0.2-1-0.5-1.4c-0.3-0.3-0.8-0.5-1.5-0.5c-0.6,0-1.1,0.1-1.5,0.4
			s-0.6,0.6-0.6,1.1H2.2c0-0.5,0.2-0.9,0.5-1.4s0.8-0.8,1.4-1.1s1.2-0.4,1.9-0.4c1.1,0,2,0.3,2.6,0.8s0.9,1.3,1,2.3v4.4
			c0,0.9,0.1,1.6,0.3,2.1v0.1H8.1z M5.4,195.8c0.5,0,1-0.1,1.5-0.4s0.8-0.6,1-1v-2H6.6c-2,0-3,0.6-3,1.7c0,0.5,0.2,0.9,0.5,1.2
			S4.9,195.8,5.4,195.8z"/>
		<path class="st1" d="M29.1,192.4c0,1.5-0.3,2.6-1,3.5s-1.6,1.3-2.7,1.3c-1.2,0-2.1-0.4-2.8-1.3l-0.1,1.1H21v-13.5h1.6v5
			c0.7-0.8,1.6-1.2,2.7-1.2s2.1,0.4,2.7,1.3s1,2.1,1,3.6V192.4z M27.4,192.2c0-1.1-0.2-2-0.6-2.6s-1-0.9-1.8-0.9
			c-1.1,0-1.8,0.5-2.3,1.5v4.1c0.5,1,1.3,1.5,2.3,1.5c0.8,0,1.4-0.3,1.8-0.9S27.4,193.4,27.4,192.2z"/>
		<path class="st1" d="M43.9,195.8c0.6,0,1.1-0.2,1.5-0.5s0.7-0.8,0.7-1.3h1.5c0,0.5-0.2,1.1-0.6,1.6s-0.8,0.9-1.4,1.2
			s-1.2,0.4-1.8,0.4c-1.3,0-2.3-0.4-3.1-1.3c-0.8-0.9-1.1-2-1.1-3.5v-0.3c0-0.9,0.2-1.7,0.5-2.5s0.8-1.3,1.5-1.7s1.4-0.6,2.3-0.6
			c1.1,0,2,0.3,2.7,1s1.1,1.5,1.1,2.5h-1.5c0-0.6-0.3-1.1-0.7-1.5c-0.4-0.4-0.9-0.6-1.6-0.6c-0.8,0-1.5,0.3-1.9,0.9
			s-0.7,1.5-0.7,2.6v0.3c0,1.1,0.2,1.9,0.7,2.5S43.1,195.8,43.9,195.8z"/>
		<path class="st1" d="M62.4,195.8c0.6,0,1.1-0.2,1.5-0.5s0.7-0.8,0.7-1.3h1.5c0,0.5-0.2,1.1-0.6,1.6s-0.8,0.9-1.4,1.2
			s-1.2,0.4-1.8,0.4c-1.3,0-2.3-0.4-3.1-1.3c-0.8-0.9-1.1-2-1.1-3.5v-0.3c0-0.9,0.2-1.7,0.5-2.5s0.8-1.3,1.5-1.7s1.4-0.6,2.3-0.6
			c1.1,0,2,0.3,2.7,1s1.1,1.5,1.1,2.5h-1.5c0-0.6-0.3-1.1-0.7-1.5c-0.4-0.4-0.9-0.6-1.6-0.6c-0.8,0-1.5,0.3-1.9,0.9
			s-0.7,1.5-0.7,2.6v0.3c0,1.1,0.2,1.9,0.7,2.5S61.5,195.8,62.4,195.8z M62,185l1.3-1.5h1.4v0.1l-2.2,2.4h-1l-2.2-2.4v-0.1h1.4
			L62,185z"/>
		<path class="st1" d="M80.8,195.8c0.6,0,1.1-0.2,1.5-0.5s0.7-0.8,0.7-1.3h1.5c0,0.5-0.2,1.1-0.6,1.6s-0.8,0.9-1.4,1.2
			s-1.2,0.4-1.8,0.4c-1.3,0-2.3-0.4-3.1-1.3c-0.8-0.9-1.1-2-1.1-3.5v-0.3c0-0.9,0.2-1.7,0.5-2.5s0.8-1.3,1.5-1.7s1.4-0.6,2.3-0.6
			c1.1,0,2,0.3,2.7,1s1.1,1.5,1.1,2.5H83c0-0.6-0.3-1.1-0.7-1.5c-0.4-0.4-0.9-0.6-1.6-0.6c-0.8,0-1.5,0.3-1.9,0.9s-0.7,1.5-0.7,2.6
			v0.3c0,1.1,0.2,1.9,0.7,2.5S79.9,195.8,80.8,195.8z M81.2,183.5h2l-2.4,2.6l-1.3,0L81.2,183.5z"/>
		<path class="st1" d="M95,192.2c0-1.5,0.3-2.6,1-3.5c0.7-0.9,1.6-1.3,2.7-1.3c1.1,0,2,0.4,2.6,1.1v-5h1.6V197h-1.5l-0.1-1
			c-0.7,0.8-1.6,1.2-2.7,1.2c-1.1,0-2-0.5-2.7-1.4s-1-2.1-1-3.5V192.2z M96.6,192.4c0,1.1,0.2,1.9,0.7,2.5s1.1,0.9,1.8,0.9
			c1,0,1.8-0.5,2.3-1.4V190c-0.5-0.9-1.2-1.3-2.2-1.3c-0.8,0-1.4,0.3-1.9,0.9S96.6,191.1,96.6,192.4z"/>
		<path class="st1" d="M123.8,186.2h-1.7V197h-1.5l-0.1-1c-0.7,0.8-1.6,1.2-2.7,1.2c-1.1,0-2-0.5-2.7-1.4s-1-2.1-1-3.5v-0.1
			c0-1.5,0.3-2.6,1-3.5c0.7-0.9,1.6-1.3,2.7-1.3c1.1,0,2,0.4,2.6,1.1v-2.3h-2.3v-1.3h2.3v-1.3h1.6v1.3h1.7V186.2z M115.8,192.4
			c0,1.1,0.2,1.9,0.7,2.5s1.1,0.9,1.8,0.9c1,0,1.8-0.5,2.3-1.4V190c-0.5-0.9-1.2-1.3-2.2-1.3c-0.8,0-1.4,0.3-1.9,0.9
			S115.8,191.1,115.8,192.4z"/>
		<path class="st1" d="M138.2,197.2c-1.3,0-2.3-0.4-3.1-1.3s-1.2-2-1.2-3.4v-0.3c0-0.9,0.2-1.8,0.5-2.5s0.9-1.3,1.5-1.7
			s1.3-0.6,2.1-0.6c1.2,0,2.2,0.4,2.9,1.2s1,2,1,3.5v0.7h-6.4c0,0.9,0.3,1.7,0.8,2.3c0.5,0.6,1.2,0.9,2,0.9c0.6,0,1.1-0.1,1.5-0.4
			s0.7-0.5,1-0.9l1,0.8C141,196.6,139.8,197.2,138.2,197.2z M138,188.7c-0.7,0-1.2,0.2-1.7,0.7s-0.7,1.1-0.8,2h4.8v-0.1
			c0-0.8-0.3-1.5-0.7-1.9S138.7,188.7,138,188.7z"/>
		<path class="st1" d="M153.6,197v-8.3h-1.5v-1.3h1.5v-1c0-1,0.3-1.8,0.8-2.4s1.3-0.8,2.3-0.8c0.4,0,0.7,0,1.1,0.1l-0.1,1.3
			c-0.3-0.1-0.6-0.1-0.9-0.1c-0.5,0-0.9,0.2-1.2,0.5s-0.4,0.8-0.4,1.3v1h2v1.3h-2v8.3H153.6z"/>
		<path class="st1" d="M167.5,192.2c0-1.5,0.3-2.7,1-3.5s1.6-1.3,2.7-1.3c1.2,0,2.1,0.4,2.7,1.2l0.1-1.1h1.5v9.3
			c0,1.2-0.4,2.2-1.1,2.9s-1.7,1.1-2.9,1.1c-0.7,0-1.4-0.1-2-0.4s-1.2-0.7-1.5-1.2l0.8-1c0.7,0.9,1.5,1.3,2.6,1.3
			c0.8,0,1.4-0.2,1.9-0.7s0.7-1.1,0.7-1.9v-0.8c-0.7,0.8-1.5,1.1-2.7,1.1c-1.1,0-2-0.4-2.7-1.3S167.5,193.7,167.5,192.2z
			 M169.1,192.4c0,1.1,0.2,1.9,0.7,2.5c0.4,0.6,1.1,0.9,1.8,0.9c1,0,1.8-0.5,2.3-1.4v-4.3c-0.5-0.9-1.2-1.4-2.2-1.4
			c-0.8,0-1.4,0.3-1.9,0.9S169.1,191.1,169.1,192.4z"/>
		<path class="st1" d="M188.6,188.6c0.7-0.9,1.7-1.3,2.8-1.3c2,0,3,1.1,3,3.4v6.3h-1.6v-6.3c0-0.7-0.2-1.2-0.5-1.5s-0.8-0.5-1.4-0.5
			c-0.5,0-1,0.1-1.4,0.4s-0.7,0.7-0.9,1.1v6.8H187v-13.5h1.6V188.6z"/>
		<path class="st1" d="M205.9,185c0-0.3,0.1-0.5,0.2-0.7s0.4-0.3,0.7-0.3s0.6,0.1,0.7,0.3s0.2,0.4,0.2,0.7s-0.1,0.5-0.2,0.7
			s-0.4,0.3-0.7,0.3s-0.6-0.1-0.7-0.3S205.9,185.2,205.9,185z M207.6,197H206v-9.5h1.6V197z"/>
		<path class="st1" d="M220.9,187.5v10.6c0,1.8-0.8,2.7-2.5,2.7c-0.4,0-0.7-0.1-1-0.2v-1.3c0.2,0,0.4,0.1,0.7,0.1
			c0.4,0,0.6-0.1,0.8-0.3s0.3-0.5,0.3-1v-10.7H220.9z M219.1,185c0-0.3,0.1-0.5,0.2-0.7c0.2-0.2,0.4-0.3,0.7-0.3
			c0.3,0,0.6,0.1,0.7,0.3s0.2,0.4,0.2,0.7s-0.1,0.5-0.2,0.7s-0.4,0.3-0.7,0.3s-0.6-0.1-0.7-0.3S219.1,185.2,219.1,185z"/>
		<path class="st1" d="M235.2,192.6l-1,1.1v3.3h-1.6v-13.5h1.6v8.2l0.9-1l3-3.1h2l-3.7,4l4.1,5.5h-1.9L235.2,192.6z"/>
		<path class="st1" d="M252.4,197h-1.6v-13.5h1.6V197z"/>
		<path class="st1" d="M265.6,187.5l0,1.1c0.7-0.8,1.6-1.2,2.8-1.2c1.3,0,2.2,0.5,2.7,1.5c0.3-0.5,0.7-0.8,1.2-1.1s1.1-0.4,1.8-0.4
			c2.1,0,3.1,1.1,3.2,3.3v6.4h-1.6v-6.3c0-0.7-0.2-1.2-0.5-1.5c-0.3-0.3-0.8-0.5-1.6-0.5c-0.6,0-1.1,0.2-1.5,0.5
			c-0.4,0.4-0.6,0.8-0.7,1.5v6.3h-1.6v-6.2c0-1.4-0.7-2.1-2-2.1c-1.1,0-1.8,0.5-2.2,1.4v6.9H264v-9.5H265.6z"/>
		<path class="st1" d="M290.3,187.5l0.1,1.2c0.7-0.9,1.7-1.4,2.8-1.4c2,0,3,1.1,3,3.4v6.3h-1.6v-6.3c0-0.7-0.2-1.2-0.5-1.5
			s-0.8-0.5-1.4-0.5c-0.5,0-1,0.1-1.4,0.4s-0.7,0.7-0.9,1.1v6.8h-1.6v-9.5H290.3z"/>
		<path class="st1" d="M307.3,192.2c0-0.9,0.2-1.8,0.5-2.5s0.9-1.3,1.5-1.7s1.4-0.6,2.2-0.6c1.3,0,2.3,0.4,3.1,1.3
			c0.8,0.9,1.2,2.1,1.2,3.6v0.1c0,0.9-0.2,1.8-0.5,2.5c-0.4,0.7-0.9,1.3-1.5,1.7c-0.7,0.4-1.4,0.6-2.3,0.6c-1.3,0-2.3-0.4-3.1-1.3
			s-1.2-2.1-1.2-3.6V192.2z M308.9,192.4c0,1.1,0.2,1.9,0.7,2.5s1.1,1,2,1c0.8,0,1.5-0.3,2-1c0.5-0.6,0.7-1.6,0.7-2.7
			c0-1-0.2-1.9-0.7-2.5c-0.5-0.6-1.2-1-2-1c-0.8,0-1.5,0.3-1.9,1S308.9,191.2,308.9,192.4z"/>
		<path class="st1" d="M335,192.4c0,1.4-0.3,2.6-1,3.5s-1.6,1.3-2.7,1.3c-1.2,0-2.1-0.4-2.7-1.1v4.6H327v-13.2h1.5l0.1,1.1
			c0.7-0.8,1.6-1.2,2.8-1.2c1.1,0,2,0.4,2.7,1.3c0.7,0.9,1,2.1,1,3.6V192.4z M333.4,192.2c0-1.1-0.2-1.9-0.7-2.5s-1.1-0.9-1.9-0.9
			c-1,0-1.7,0.4-2.2,1.3v4.5c0.5,0.9,1.2,1.3,2.2,1.3c0.8,0,1.4-0.3,1.9-0.9C333.2,194.3,333.4,193.4,333.4,192.2z"/>
		<path class="st1" d="M345.7,192.2c0-1.5,0.3-2.7,1-3.5c0.7-0.9,1.6-1.3,2.8-1.3c1.1,0,2,0.4,2.7,1.1l0.1-1h1.5v13.2h-1.6v-4.5
			c-0.7,0.7-1.5,1.1-2.6,1.1c-1.1,0-2.1-0.4-2.7-1.3c-0.7-0.9-1-2.1-1-3.6V192.2z M347.3,192.4c0,1.1,0.2,1.9,0.7,2.6
			c0.5,0.6,1.1,0.9,1.9,0.9c1,0,1.7-0.4,2.2-1.3v-4.7c-0.5-0.8-1.2-1.3-2.2-1.3c-0.8,0-1.4,0.3-1.9,0.9
			C347.6,190.2,347.3,191.1,347.3,192.4z"/>
		<path class="st1" d="M369.9,188.9c-0.2,0-0.5-0.1-0.8-0.1c-1.1,0-1.8,0.5-2.2,1.4v6.8h-1.6v-9.5h1.6l0,1.1
			c0.5-0.8,1.3-1.3,2.3-1.3c0.3,0,0.6,0,0.7,0.1V188.9z"/>
		<path class="st1" d="M386,194.5c0-0.4-0.2-0.8-0.5-1c-0.3-0.2-0.9-0.5-1.7-0.6c-0.8-0.2-1.5-0.4-2-0.6c-0.5-0.2-0.8-0.5-1.1-0.9
			c-0.2-0.3-0.3-0.7-0.3-1.2c0-0.8,0.3-1.4,1-2c0.7-0.5,1.5-0.8,2.5-0.8c1.1,0,2,0.3,2.6,0.8c0.7,0.6,1,1.3,1,2.1h-1.6
			c0-0.4-0.2-0.8-0.6-1.2c-0.4-0.3-0.9-0.5-1.4-0.5c-0.6,0-1.1,0.1-1.4,0.4s-0.5,0.6-0.5,1c0,0.4,0.2,0.7,0.5,0.9s0.9,0.4,1.7,0.6
			c0.8,0.2,1.5,0.4,2,0.7s0.9,0.6,1.1,0.9c0.2,0.4,0.4,0.8,0.4,1.3c0,0.8-0.3,1.5-1,2c-0.7,0.5-1.6,0.8-2.6,0.8
			c-0.8,0-1.4-0.1-2-0.4s-1-0.6-1.4-1.1c-0.3-0.5-0.5-1-0.5-1.6h1.6c0,0.5,0.2,1,0.7,1.3c0.4,0.3,0.9,0.5,1.6,0.5
			c0.6,0,1.1-0.1,1.5-0.4C385.8,195.2,386,194.9,386,194.5z"/>
		<path class="st1" d="M404.2,194.5c0-0.4-0.2-0.8-0.5-1c-0.3-0.2-0.9-0.5-1.7-0.6c-0.8-0.2-1.5-0.4-2-0.6c-0.5-0.2-0.8-0.5-1.1-0.9
			c-0.2-0.3-0.3-0.7-0.3-1.2c0-0.8,0.3-1.4,1-2c0.7-0.5,1.5-0.8,2.5-0.8c1.1,0,2,0.3,2.6,0.8c0.7,0.6,1,1.3,1,2.1h-1.6
			c0-0.4-0.2-0.8-0.6-1.2c-0.4-0.3-0.9-0.5-1.4-0.5c-0.6,0-1.1,0.1-1.4,0.4s-0.5,0.6-0.5,1c0,0.4,0.2,0.7,0.5,0.9s0.9,0.4,1.7,0.6
			c0.8,0.2,1.5,0.4,2,0.7s0.9,0.6,1.1,0.9c0.2,0.4,0.4,0.8,0.4,1.3c0,0.8-0.3,1.5-1,2c-0.7,0.5-1.6,0.8-2.6,0.8
			c-0.8,0-1.4-0.1-2-0.4s-1-0.6-1.4-1.1c-0.3-0.5-0.5-1-0.5-1.6h1.6c0,0.5,0.2,1,0.7,1.3c0.4,0.3,0.9,0.5,1.6,0.5
			c0.6,0,1.1-0.1,1.5-0.4C404.1,195.2,404.2,194.9,404.2,194.5z M402.4,185l1.3-1.5h1.4v0.1l-2.2,2.4h-1l-2.2-2.4v-0.1h1.4
			L402.4,185z"/>
		<path class="st1" d="M419.2,185.2v2.3h1.8v1.3h-1.8v5.9c0,0.4,0.1,0.7,0.2,0.9s0.4,0.3,0.8,0.3c0.2,0,0.4,0,0.8-0.1v1.3
			c-0.4,0.1-0.8,0.2-1.2,0.2c-0.7,0-1.3-0.2-1.6-0.7s-0.6-1.1-0.6-1.9v-5.9h-1.7v-1.3h1.7v-2.3H419.2z"/>
		<path class="st1" d="M437.7,196.1c-0.6,0.7-1.6,1.1-2.8,1.1c-1,0-1.8-0.3-2.3-0.9c-0.5-0.6-0.8-1.5-0.8-2.6v-6.2h1.6v6.1
			c0,1.4,0.6,2.2,1.8,2.2c1.2,0,2.1-0.5,2.5-1.4v-6.9h1.6v9.5h-1.5L437.7,196.1z"/>
		<path class="st1" d="M453.9,194.8l2.4-7.3h1.7l-3.4,9.5h-1.2l-3.4-9.5h1.7L453.9,194.8z"/>
		<path class="st1" d="M476.9,194.8l1.8-7.3h1.6l-2.8,9.5h-1.3l-2.3-7.2l-2.3,7.2h-1.3l-2.8-9.5h1.6l1.9,7.1l2.2-7.1h1.3
			L476.9,194.8z"/>
		<path class="st1" d="M494.2,191l2.1-3.5h1.9l-3.1,4.7l3.2,4.8h-1.9l-2.2-3.6l-2.2,3.6h-1.9l3.2-4.8l-3.1-4.7h1.9L494.2,191z"/>
		<path class="st1" d="M512.1,194.6l2.2-7.1h1.7l-3.8,11c-0.6,1.6-1.5,2.4-2.8,2.4l-0.3,0l-0.6-0.1v-1.3l0.4,0c0.6,0,1-0.1,1.3-0.3
			c0.3-0.2,0.6-0.6,0.8-1.2l0.4-1l-3.4-9.4h1.8L512.1,194.6z"/>
		<path class="st1" d="M528,195.7h5.6v1.3H526v-1.2l5.2-7h-5.2v-1.3h7.2v1.2L528,195.7z"/>
		<path class="st1" d="M545.9,195.7h5.6v1.3h-7.5v-1.2l5.2-7H544v-1.3h7.2v1.2L545.9,195.7z M547.7,185l1.3-1.5h1.4v0.1l-2.2,2.4h-1
			l-2.2-2.4v-0.1h1.4L547.7,185z"/>
		<path class="st1" d="M568.2,197c-0.1-0.2-0.2-0.5-0.2-1c-0.8,0.8-1.7,1.2-2.7,1.2c-0.9,0-1.7-0.3-2.3-0.8c-0.6-0.5-0.9-1.2-0.9-2
			c0-1,0.4-1.8,1.1-2.3c0.8-0.5,1.8-0.8,3.2-0.8h1.6v-0.7c0-0.6-0.2-1-0.5-1.4c-0.3-0.3-0.8-0.5-1.5-0.5c-0.6,0-1.1,0.1-1.5,0.4
			s-0.6,0.6-0.6,1.1h-1.6c0-0.5,0.2-0.9,0.5-1.4s0.8-0.8,1.4-1.1s1.2-0.4,1.9-0.4c1.1,0,2,0.3,2.6,0.8s0.9,1.3,1,2.3v4.4
			c0,0.9,0.1,1.6,0.3,2.1v0.1H568.2z M565.5,195.8c0.5,0,1-0.1,1.5-0.4s0.8-0.6,1-1v-2h-1.3c-2,0-3,0.6-3,1.7c0,0.5,0.2,0.9,0.5,1.2
			S565,195.8,565.5,195.8z"/>
		<path class="st1" d="M585.3,188c1.2,0,2.2,0.4,2.9,1.2c0.7,0.8,1.1,1.9,1.1,3.2v0.1c0,0.9-0.2,1.7-0.5,2.4
			c-0.3,0.7-0.8,1.3-1.5,1.6c-0.6,0.4-1.4,0.6-2.2,0.6c-1.3,0-2.3-0.4-3.1-1.3c-0.8-0.9-1.2-2-1.2-3.4v-0.8c0-2,0.4-3.6,1.1-4.8
			c0.7-1.2,1.8-1.9,3.3-2.2c0.8-0.1,1.4-0.3,1.7-0.5s0.4-0.5,0.4-0.9h1.3c0,0.7-0.2,1.3-0.5,1.7s-0.9,0.7-1.6,0.9l-1.2,0.3
			c-1,0.2-1.7,0.6-2.2,1.2c-0.5,0.5-0.8,1.3-0.9,2.2C583,188.5,584,188,585.3,188z M585,189.4c-0.8,0-1.4,0.3-1.9,0.8
			c-0.5,0.5-0.7,1.3-0.7,2.2v0.1c0,1,0.2,1.8,0.7,2.4c0.5,0.6,1.1,0.9,1.9,0.9c0.8,0,1.4-0.3,1.9-0.9s0.7-1.5,0.7-2.6
			c0-0.9-0.2-1.6-0.7-2.2C586.4,189.6,585.8,189.4,585,189.4z"/>
		<path class="st1" d="M600.2,197v-9.5h3.7c1.3,0,2.2,0.2,2.9,0.7c0.7,0.4,1,1.1,1,1.9c0,0.4-0.1,0.8-0.4,1.2
			c-0.3,0.4-0.7,0.6-1.2,0.8c0.6,0.1,1,0.4,1.4,0.8c0.3,0.4,0.5,0.9,0.5,1.4c0,0.9-0.3,1.5-1,2c-0.6,0.5-1.5,0.7-2.7,0.7H600.2z
			 M601.8,191.5h2.1c1.5,0,2.3-0.4,2.3-1.3s-0.7-1.4-2.2-1.4h-2.2V191.5z M601.8,192.8v2.9h2.7c0.7,0,1.2-0.1,1.5-0.4
			c0.3-0.3,0.5-0.6,0.5-1.1c0-0.9-0.7-1.4-2.1-1.4H601.8z"/>
	</g>
	<g class="st0">
		<path class="st1" d="M8.4,218.8H4v8.2H2.4v-9.5h6V218.8z"/>
		<path class="st1" d="M24.9,218.8h-4.4v8.2h-1.6v-9.5h4.4v-2.8h1.6V218.8z"/>
		<path class="st1" d="M35.2,225.7l0.6-0.7c0.6-0.8,1-2.1,1.1-3.7l0.1-3.8h6.1v8.2h1.2v4.1h-1.6V227h-6.6v2.8h-1.6l0-4.1H35.2z
			 M37.2,225.7h4.4V219h-2.9l-0.1,2.3C38.4,223.2,38,224.6,37.2,225.7z"/>
		<path class="st1" d="M59.3,216.4h-2.5v2.3c0.7-0.9,1.7-1.3,2.8-1.3c2,0,3,1.1,3,3.4v7.1c0,1-0.2,1.8-0.7,2.3s-1.2,0.8-2.1,0.8
			c-0.4,0-0.7-0.1-1-0.2l0.1-1.3c0.2,0.1,0.5,0.1,0.9,0.1s0.7-0.2,0.9-0.5s0.3-0.7,0.3-1.3v-7c0-0.7-0.2-1.2-0.5-1.6
			s-0.8-0.5-1.4-0.5c-0.5,0-1,0.1-1.4,0.4s-0.7,0.7-0.9,1.1v6.8h-1.6v-10.6h-1.4V215h1.4v-1.5h1.6v1.5h2.5V216.4z"/>
		<path class="st1" d="M78,227.2c-1.3,0-2.3-0.4-3.1-1.3s-1.2-2-1.2-3.4v-0.3c0-0.9,0.2-1.8,0.5-2.5s0.9-1.3,1.5-1.7
			s1.3-0.6,2.1-0.6c1.2,0,2.2,0.4,2.9,1.2s1,2,1,3.5v0.7h-6.4c0,0.9,0.3,1.7,0.8,2.3c0.5,0.6,1.2,0.9,2,0.9c0.6,0,1.1-0.1,1.5-0.4
			s0.7-0.5,1-0.9l1,0.8C80.8,226.6,79.6,227.2,78,227.2z M77.8,218.7c-0.7,0-1.2,0.2-1.7,0.7s-0.7,1.1-0.8,2h4.8v-0.1
			c0-0.8-0.3-1.5-0.7-1.9S78.5,218.7,77.8,218.7z"/>
		<path class="st1" d="M96.6,227.2c-1.3,0-2.3-0.4-3.1-1.3s-1.2-2-1.2-3.4v-0.3c0-0.9,0.2-1.8,0.5-2.5s0.9-1.3,1.5-1.7
			s1.3-0.6,2.1-0.6c1.2,0,2.2,0.4,2.9,1.2s1,2,1,3.5v0.7h-6.4c0,0.9,0.3,1.7,0.8,2.3c0.5,0.6,1.2,0.9,2,0.9c0.6,0,1.1-0.1,1.5-0.4
			s0.7-0.5,1-0.9l1,0.8C99.4,226.6,98.2,227.2,96.6,227.2z M93.5,214.9c0-0.3,0.1-0.5,0.2-0.7s0.4-0.3,0.7-0.3s0.6,0.1,0.7,0.3
			s0.2,0.4,0.2,0.7c0,0.3-0.1,0.5-0.2,0.7s-0.4,0.3-0.7,0.3s-0.6-0.1-0.7-0.3S93.5,215.2,93.5,214.9z M96.4,218.7
			c-0.7,0-1.2,0.2-1.7,0.7s-0.7,1.1-0.8,2h4.8v-0.1c0-0.8-0.3-1.5-0.7-1.9S97,218.7,96.4,218.7z M97.3,215c0-0.3,0.1-0.5,0.2-0.7
			c0.2-0.2,0.4-0.3,0.7-0.3s0.6,0.1,0.7,0.3c0.2,0.2,0.2,0.4,0.2,0.7c0,0.3-0.1,0.5-0.2,0.7s-0.4,0.3-0.7,0.3s-0.6-0.1-0.7-0.3
			S97.3,215.2,97.3,215z"/>
		<path class="st1" d="M115.1,225.8c0.6,0,1.1-0.2,1.5-0.5s0.7-0.8,0.7-1.3h1.5c0,0.6-0.2,1.1-0.6,1.6s-0.8,0.9-1.4,1.2
			c-0.6,0.3-1.2,0.4-1.8,0.4c-1.3,0-2.3-0.4-3.1-1.3s-1.1-2.1-1.1-3.6v-0.3c0-0.9,0.2-1.8,0.5-2.5s0.8-1.3,1.5-1.7s1.4-0.6,2.3-0.6
			c1.1,0,2,0.3,2.7,1s1.1,1.5,1.1,2.5h-1.5c0-0.6-0.3-1.1-0.7-1.5c-0.4-0.4-0.9-0.6-1.5-0.6c-0.8,0-1.4,0.3-1.8,0.8
			c-0.5,0.5-0.7,1.2-0.8,2.2h3.6v1.3h-3.6c0.1,0.9,0.3,1.7,0.8,2.2C113.7,225.6,114.3,225.8,115.1,225.8z"/>
		<path class="st1" d="M137.4,222.9h-1.1v4.1h-1.6v-4.1h-1.1l-2.7,4.1h-2.1l3.4-4.9l-3.1-4.6h2l2.5,3.9h1.1v-3.9h1.6v3.9h1.1
			l2.5-3.9h2l-3.1,4.6l3.4,4.9h-2.1L137.4,222.9z"/>
		<path class="st1" d="M157.8,220.1c0-0.4-0.2-0.8-0.5-1.1s-0.8-0.4-1.4-0.4c-0.6,0-1.1,0.1-1.4,0.4s-0.6,0.7-0.6,1.1h-1.6
			c0-0.8,0.3-1.5,1-2s1.6-0.8,2.6-0.8c1.1,0,2,0.2,2.6,0.7c0.6,0.5,0.9,1.2,0.9,2c0,0.4-0.1,0.8-0.4,1.2c-0.3,0.4-0.6,0.6-1.1,0.9
			c1.1,0.4,1.7,1.1,1.7,2.2c0,0.9-0.3,1.6-1,2.1c-0.7,0.5-1.6,0.8-2.7,0.8c-1.1,0-2-0.3-2.7-0.8c-0.7-0.5-1.1-1.3-1.1-2.2h1.6
			c0,0.5,0.2,0.9,0.6,1.2s0.9,0.5,1.5,0.5c0.6,0,1.1-0.1,1.5-0.4s0.6-0.7,0.6-1.1c0-0.5-0.2-0.9-0.5-1.1c-0.3-0.2-0.8-0.3-1.5-0.3
			h-1.6v-1.4h1.8C157.3,221.4,157.8,221,157.8,220.1z"/>
		<path class="st1" d="M176.3,224.5c0-0.4-0.2-0.8-0.5-1c-0.3-0.2-0.9-0.5-1.7-0.6s-1.5-0.4-2-0.6s-0.8-0.5-1.1-0.9
			s-0.3-0.7-0.3-1.2c0-0.8,0.3-1.4,1-2s1.5-0.8,2.5-0.8c1.1,0,2,0.3,2.6,0.8s1,1.3,1,2.1h-1.6c0-0.4-0.2-0.8-0.6-1.2
			s-0.9-0.5-1.4-0.5c-0.6,0-1.1,0.1-1.4,0.4s-0.5,0.6-0.5,1c0,0.4,0.2,0.7,0.5,0.9s0.9,0.4,1.7,0.6s1.5,0.4,2,0.7s0.9,0.6,1.1,0.9
			c0.2,0.4,0.4,0.8,0.4,1.3c0,0.8-0.3,1.5-1,2c-0.7,0.5-1.6,0.8-2.6,0.8c-0.8,0-1.4-0.1-2-0.4s-1-0.6-1.4-1.1
			c-0.3-0.5-0.5-1-0.5-1.6h1.6c0,0.5,0.2,1,0.7,1.3c0.4,0.3,0.9,0.5,1.6,0.5c0.6,0,1.1-0.1,1.5-0.4
			C176.1,225.2,176.3,224.9,176.3,224.5z"/>
		<path class="st1" d="M195.2,217.5h1.6v9.5h-1.6v-6.9l-4.4,6.9h-1.6v-9.5h1.6v6.9L195.2,217.5z"/>
		<path class="st1" d="M208.4,215c0-0.3,0.1-0.5,0.2-0.7s0.4-0.3,0.7-0.3s0.6,0.1,0.7,0.3s0.2,0.4,0.2,0.7s-0.1,0.5-0.2,0.7
			s-0.4,0.3-0.7,0.3s-0.6-0.1-0.7-0.3S208.4,215.2,208.4,215z M210.2,227h-1.6v-9.5h1.6V227z"/>
		<path class="st1" d="M220,215c0-0.3,0.1-0.5,0.2-0.7s0.4-0.3,0.7-0.3s0.6,0.1,0.7,0.3s0.2,0.4,0.2,0.7c0,0.3-0.1,0.5-0.2,0.7
			s-0.4,0.3-0.7,0.3s-0.6-0.1-0.7-0.3S220,215.2,220,215z M223.6,227h-1.6v-9.5h1.6V227z M223.7,215c0-0.3,0.1-0.5,0.2-0.7
			c0.2-0.2,0.4-0.3,0.7-0.3s0.6,0.1,0.7,0.3c0.2,0.2,0.2,0.4,0.2,0.7c0,0.3-0.1,0.5-0.2,0.7s-0.4,0.3-0.7,0.3s-0.6-0.1-0.7-0.3
			S223.7,215.2,223.7,215z"/>
		<path class="st1" d="M241.4,217.5h1.6v9.5h-1.6v-6.9L237,227h-1.6v-9.5h1.6v6.9L241.4,217.5z M241.8,214c0,0.7-0.2,1.3-0.7,1.7
			s-1.1,0.6-1.9,0.6s-1.4-0.2-1.9-0.7c-0.5-0.4-0.7-1-0.7-1.7h1.3c0,0.4,0.1,0.7,0.3,1c0.2,0.2,0.5,0.3,1,0.3c0.4,0,0.7-0.1,1-0.3
			s0.3-0.6,0.3-1H241.8z"/>
		<path class="st1" d="M256.3,217.5v10.6c0,1.8-0.8,2.7-2.5,2.7c-0.4,0-0.7-0.1-1-0.2v-1.3c0.2,0,0.4,0.1,0.7,0.1
			c0.4,0,0.6-0.1,0.8-0.3s0.3-0.5,0.3-1v-10.7H256.3z M254.5,215c0-0.3,0.1-0.5,0.2-0.7c0.2-0.2,0.4-0.3,0.7-0.3
			c0.3,0,0.6,0.1,0.7,0.3s0.2,0.4,0.2,0.7s-0.1,0.5-0.2,0.7s-0.4,0.3-0.7,0.3s-0.6-0.1-0.7-0.3S254.5,215.2,254.5,215z"/>
		<path class="st1" d="M270.9,222.9h-1.2v4.1h-1.6v-9.5h1.6v4h1.1l3.2-4h2l-3.8,4.6l4.1,4.9h-2.1L270.9,222.9z"/>
		<path class="st1" d="M294.4,217.5v9.5h-1.6v-8.2h-3.2l-0.2,3.6c-0.1,1.6-0.4,2.8-0.8,3.5s-1.1,1.1-2.1,1.1h-0.7v-1.4l0.5,0
			c0.5-0.1,0.9-0.4,1.1-0.9s0.4-1.6,0.4-3.1l0.2-4.1H294.4z"/>
		<path class="st1" d="M313.5,217.5v3.6h2.5c1.1,0,1.9,0.3,2.5,0.8c0.6,0.5,0.9,1.2,0.9,2.1c0,0.9-0.3,1.6-0.9,2.1
			c-0.6,0.6-1.5,0.8-2.5,0.9h-4.1v-8.2h-3l-0.2,3.7c-0.1,1.6-0.4,2.8-0.9,3.4s-1.2,1-2.1,1h-0.6v-1.4l0.5,0c0.5-0.1,0.9-0.3,1.1-0.8
			s0.4-1.4,0.5-2.6l0.2-4.6H313.5z M313.5,222.4v3.2h2.4c0.6,0,1.1-0.2,1.4-0.5c0.3-0.3,0.5-0.7,0.5-1.2c0-0.5-0.2-0.9-0.5-1.1
			s-0.8-0.4-1.4-0.4H313.5z"/>
		<path class="st1" d="M335.8,224.8l3.2-7.4h2v9.5h-1.6v-6.9l-3.1,6.9h-1.1l-3.1-7.1v7.1h-1.6v-9.5h2.1L335.8,224.8z"/>
		<path class="st1" d="M360.4,227h-1.6v-4.1h-4.4v4.1h-1.6v-9.5h1.6v4.1h4.4v-4.1h1.6V227z"/>
		<path class="st1" d="M373.8,221.1h4.4v-3.6h1.6v3.6h2.5c1.1,0,1.9,0.3,2.5,0.8c0.6,0.5,0.9,1.2,0.9,2.1c0,0.9-0.3,1.6-1,2.1
			c-0.6,0.5-1.5,0.8-2.6,0.8h-4v-4.6h-4.4v4.6h-1.6v-9.5h1.6V221.1z M379.8,222.4v3.2h2.4c0.6,0,1.1-0.2,1.4-0.5
			c0.3-0.3,0.5-0.7,0.5-1.2c0-0.5-0.2-0.9-0.5-1.1s-0.8-0.4-1.4-0.4H379.8z"/>
		<path class="st1" d="M396.1,222.2c0-0.9,0.2-1.8,0.5-2.5c0.4-0.7,0.9-1.3,1.5-1.7c0.7-0.4,1.4-0.6,2.2-0.6c1.3,0,2.3,0.4,3.1,1.3
			c0.8,0.9,1.2,2.1,1.2,3.6v0.1c0,0.9-0.2,1.8-0.5,2.5c-0.4,0.7-0.9,1.3-1.5,1.7c-0.7,0.4-1.4,0.6-2.3,0.6c-1.3,0-2.3-0.4-3.1-1.3
			c-0.8-0.9-1.2-2.1-1.2-3.6V222.2z M397.8,222.4c0,1.1,0.2,1.9,0.7,2.5c0.5,0.6,1.1,1,2,1c0.8,0,1.5-0.3,2-1
			c0.5-0.6,0.7-1.6,0.7-2.7c0-1-0.2-1.9-0.7-2.5c-0.5-0.6-1.2-1-2-1c-0.8,0-1.5,0.3-1.9,1S397.8,221.2,397.8,222.4z"/>
		<path class="st1" d="M423.6,227H422v-8.2h-4.4v8.2H416v-9.5h7.6V227z"/>
		<path class="st1" d="M443.2,222.4c0,1.4-0.3,2.6-1,3.5s-1.6,1.3-2.7,1.3c-1.2,0-2.1-0.4-2.7-1.1v4.6h-1.6v-13.2h1.5l0.1,1.1
			c0.7-0.8,1.6-1.2,2.8-1.2c1.1,0,2,0.4,2.7,1.3s1,2.1,1,3.6V222.4z M441.6,222.2c0-1.1-0.2-1.9-0.7-2.5s-1.1-0.9-1.9-0.9
			c-1,0-1.7,0.4-2.2,1.3v4.5c0.5,0.9,1.2,1.3,2.2,1.3c0.8,0,1.4-0.3,1.9-0.9S441.6,223.4,441.6,222.2z"/>
		<path class="st1" d="M458.1,225.8c0.6,0,1.1-0.2,1.5-0.5s0.7-0.8,0.7-1.3h1.5c0,0.5-0.2,1.1-0.6,1.6s-0.8,0.9-1.4,1.2
			s-1.2,0.4-1.8,0.4c-1.3,0-2.3-0.4-3.1-1.3c-0.8-0.9-1.1-2-1.1-3.5v-0.3c0-0.9,0.2-1.7,0.5-2.5s0.8-1.3,1.5-1.7s1.4-0.6,2.3-0.6
			c1.1,0,2,0.3,2.7,1c0.7,0.6,1.1,1.5,1.1,2.5h-1.5c0-0.6-0.3-1.1-0.7-1.5c-0.4-0.4-0.9-0.6-1.6-0.6c-0.8,0-1.5,0.3-1.9,0.9
			s-0.7,1.5-0.7,2.6v0.3c0,1.1,0.2,1.9,0.7,2.5S457.3,225.8,458.1,225.8z"/>
		<path class="st1" d="M479.8,218.8h-3.2v8.2H475v-8.2h-3.1v-1.3h7.9V218.8z"/>
		<path class="st1" d="M494.7,216.3H492v2.3c0.7-0.9,1.7-1.3,2.8-1.3c2,0,3,1.1,3,3.4v6.3h-1.6v-6.3c0-0.7-0.2-1.2-0.5-1.5
			c-0.3-0.3-0.8-0.5-1.4-0.5c-0.5,0-1,0.1-1.4,0.4s-0.7,0.7-0.9,1.1v6.8h-1.6v-10.7h-1.3V215h1.3v-1.5h1.6v1.5h2.7V216.3z"/>
		<path class="st1" d="M512.7,224.6l2.2-7.1h1.7l-3.8,11c-0.6,1.6-1.5,2.4-2.8,2.4l-0.3,0l-0.6-0.1v-1.3l0.4,0c0.6,0,1-0.1,1.3-0.3
			c0.3-0.2,0.6-0.6,0.8-1.2l0.4-1l-3.4-9.4h1.8L512.7,224.6z"/>
		<path class="st1" d="M530.2,224.6l2.2-7.1h1.7l-3.8,11c-0.6,1.6-1.5,2.4-2.8,2.4l-0.3,0l-0.6-0.1v-1.3l0.4,0c0.6,0,1-0.1,1.3-0.3
			c0.3-0.2,0.6-0.6,0.8-1.2l0.4-1l-3.4-9.4h1.8L530.2,224.6z M533,213.8c0,0.7-0.2,1.3-0.7,1.7c-0.5,0.4-1.1,0.6-1.9,0.6
			s-1.4-0.2-1.9-0.7c-0.5-0.4-0.7-1-0.7-1.7h1.3c0,0.4,0.1,0.7,0.3,1c0.2,0.2,0.5,0.3,1,0.3c0.4,0,0.7-0.1,1-0.3s0.3-0.6,0.3-1H533z
			"/>
		<path class="st1" d="M544.2,222.4c0-1.6,0.3-2.8,0.9-3.7s1.5-1.4,2.5-1.4c0.5,0,0.9,0.1,1.3,0.3v-4.1h1.6v4.1
			c0.4-0.2,0.9-0.3,1.4-0.3c1.1,0,1.9,0.5,2.5,1.4s0.9,2.2,0.9,3.9c0,1.4-0.3,2.5-0.9,3.3s-1.5,1.2-2.5,1.2c-0.6,0-1.1-0.1-1.5-0.3
			v3.8h-1.6v-3.7c-0.4,0.2-0.8,0.3-1.3,0.3c-1.1,0-1.9-0.4-2.5-1.2s-0.9-2-0.9-3.4V222.4z M545.8,222.6c0,1.1,0.2,1.9,0.6,2.4
			s0.9,0.8,1.6,0.8c0.3,0,0.6-0.1,0.9-0.2v-6.9c-0.2-0.1-0.5-0.1-0.9-0.1c-0.7,0-1.3,0.3-1.7,1S545.8,221.2,545.8,222.6z
			 M553.8,222.4c0-1.2-0.2-2.1-0.6-2.8c-0.4-0.7-1-1-1.7-1c-0.4,0-0.7,0.1-1,0.2v6.9c0.3,0.1,0.6,0.1,1,0.1c0.7,0,1.3-0.3,1.7-0.8
			C553.6,224.5,553.8,223.6,553.8,222.4z"/>
		<path class="st1" d="M569.6,221l2.1-3.5h1.9l-3.1,4.7l3.2,4.8h-1.9l-2.2-3.6l-2.2,3.6h-1.9l3.2-4.8l-3.1-4.7h1.9L569.6,221z"/>
		<path class="st1" d="M584.5,217.5h1.6v8.2h4.4v-8.2h1.6v8.2h1.1l-0.2,4.1h-1.5V227h-7.2V217.5z"/>
		<path class="st1" d="M611,227h-1.6v-3.4c-0.7,0.2-1.4,0.3-2.2,0.3c-1.2,0-2.1-0.3-2.7-0.9c-0.6-0.6-0.9-1.5-1-2.6v-2.8h1.6v2.9
			c0,1.4,0.7,2.1,2,2.1c0.8,0,1.5-0.1,2.2-0.3v-4.7h1.6V227z"/>
	</g>
	<g class="st0">
		<path class="st1" d="M4,247.5v8.2h4.4v-8.2H10v9.5H7v3.1H5.4V257h-3v-9.5H4z"/>
		<path class="st1" d="M23.4,247.5v8.2h3.5v-8.2h1.6v8.2H32v-8.2h1.6v9.5H21.8v-9.5H23.4z"/>
		<path class="st1" d="M46.9,247.5v8.2h3.5v-8.2H52v8.2h3.5v-8.2h1.6v8.2h1.3l-0.2,4.1h-1.5V257H45.2v-9.5H46.9z"/>
		<path class="st1" d="M68.1,247.5h4.4v3.3H75c1.1,0,1.9,0.3,2.6,0.8s0.9,1.3,0.9,2.2c0,0.9-0.3,1.7-1,2.3c-0.6,0.6-1.5,0.9-2.6,0.9
			h-4v-8.2h-2.8V247.5z M72.5,252.1v3.6H75c0.6,0,1.1-0.2,1.4-0.5s0.5-0.7,0.5-1.3c0-0.5-0.2-1-0.5-1.3s-0.8-0.5-1.4-0.5H72.5z"/>
		<path class="st1" d="M91,250.8h2.5c1.1,0,1.9,0.3,2.6,0.8s0.9,1.3,0.9,2.2c0,0.9-0.3,1.7-1,2.3c-0.6,0.6-1.5,0.9-2.6,0.9h-4v-9.5
			H91V250.8z M91,252.1v3.6h2.4c0.6,0,1.1-0.2,1.4-0.5s0.5-0.7,0.5-1.3c0-0.5-0.2-1-0.5-1.3s-0.8-0.5-1.4-0.5H91z M100.4,257h-1.6
			v-9.5h1.6V257z"/>
		<path class="st1" d="M114,250.8h2.5c1.1,0,1.9,0.3,2.6,0.8s0.9,1.3,0.9,2.2c0,0.9-0.3,1.7-1,2.3c-0.6,0.6-1.5,0.9-2.6,0.9h-4v-9.5
			h1.6V250.8z M114,252.1v3.6h2.4c0.6,0,1.1-0.2,1.4-0.5s0.5-0.7,0.5-1.3c0-0.5-0.2-1-0.5-1.3s-0.8-0.5-1.4-0.5H114z"/>
		<path class="st1" d="M134.3,248.7c-0.6,0-1.1,0.2-1.5,0.6s-0.6,0.8-0.6,1.3h-1.5c0-0.5,0.2-1.1,0.5-1.6s0.8-0.9,1.4-1.2
			c0.6-0.3,1.2-0.4,1.8-0.4c1.2,0,2.2,0.4,3,1.3c0.8,0.9,1.1,2.1,1.1,3.5v0.3c0,0.9-0.2,1.7-0.5,2.4s-0.8,1.3-1.5,1.7
			s-1.3,0.6-2.2,0.6c-1.1,0-1.9-0.3-2.6-1c-0.7-0.7-1.1-1.5-1.1-2.5h1.5c0,0.6,0.2,1.1,0.6,1.5c0.4,0.4,0.9,0.6,1.5,0.6
			c0.7,0,1.3-0.3,1.7-0.8s0.7-1.3,0.8-2.2h-3.6v-1.3h3.6c-0.1-0.9-0.3-1.5-0.8-2.1C135.6,248.9,135,248.7,134.3,248.7z"/>
		<path class="st1" d="M151.4,251.5h2.3c0.1-1.3,0.6-2.3,1.3-3.1s1.8-1.2,2.9-1.2c1.2,0,2.3,0.4,3,1.3s1.2,1.9,1.3,3.3l0,0.5
			c0,0.9-0.2,1.8-0.5,2.5s-0.9,1.3-1.5,1.7s-1.4,0.6-2.3,0.6c-1.2,0-2.2-0.4-3-1.2c-0.8-0.8-1.2-1.8-1.3-3.1h-2.3v4.1h-1.6v-9.5h1.6
			V251.5z M155.3,252.4c0,1.1,0.2,1.9,0.7,2.5s1.1,1,2,1s1.5-0.3,2-1s0.7-1.6,0.7-2.7c0-1-0.2-1.9-0.7-2.5s-1.1-1-2-1
			c-0.8,0-1.5,0.3-2,1S155.3,251.2,155.3,252.4z"/>
		<path class="st1" d="M180.6,247.5v9.5H179v-3.7h-2.5l-2.2,3.7h-1.8l2.4-3.9c-0.6-0.2-1.1-0.6-1.4-1c-0.3-0.5-0.5-1-0.5-1.6
			c0-0.9,0.3-1.6,1-2.1s1.5-0.8,2.6-0.8H180.6z M174.7,250.4c0,0.5,0.2,0.8,0.5,1.1s0.7,0.4,1.3,0.4h2.6v-3.2h-2.3
			c-0.6,0-1.1,0.1-1.4,0.4C174.8,249.5,174.7,249.9,174.7,250.4z"/>
		<path class="st1" d="M199.8,247.5v7c0,0.8,0.2,1.2,0.7,1.2c0.1,0,0.2,0,0.3,0l0.2,1.2c-0.3,0.2-0.6,0.3-1.1,0.3
			c-0.9,0-1.4-0.5-1.6-1.5c-0.6,1-1.6,1.5-2.8,1.5c-1.1,0-2-0.4-2.7-1.2c-0.7-0.8-1-2-1-3.4v-0.1c0-1.5,0.3-2.8,1-3.7
			c0.7-0.9,1.6-1.4,2.7-1.4c1.2,0,2.1,0.5,2.7,1.4l0.1-1.2H199.8z M193.5,252.6c0,1,0.2,1.8,0.6,2.4c0.4,0.6,1,0.9,1.8,0.9
			c1,0,1.8-0.5,2.2-1.6v-3.9c-0.5-1.1-1.2-1.7-2.2-1.7c-0.8,0-1.4,0.3-1.8,1S193.5,251.3,193.5,252.6z"/>
		<path class="st1" d="M214.8,254.6l2.5-7.1h1.7l-3.3,9v4.2h-1.6v-4.2l-3.3-8.9h1.7L214.8,254.6z"/>
		<path class="st1" d="M230,245.8c0-0.8,0.3-1.4,0.9-1.9c0.6-0.5,1.4-0.7,2.4-0.7c0.8,0,1.6,0.2,2.4,0.5l0,1.4
			c-0.9-0.3-1.7-0.5-2.4-0.5c-0.5,0-0.9,0.1-1.2,0.3c-0.3,0.2-0.4,0.5-0.4,0.9c0,0.6,0.6,1.2,1.9,1.6c1.3,0.4,2.3,1.1,2.9,1.9
			c0.6,0.8,0.9,1.8,1,2.9v0.3c0,0.9-0.2,1.7-0.5,2.4c-0.3,0.7-0.8,1.3-1.5,1.6c-0.6,0.4-1.4,0.6-2.2,0.6c-1.3,0-2.3-0.4-3.1-1.3
			c-0.8-0.9-1.2-2-1.2-3.4v-0.1c0-1,0.3-1.8,0.8-2.6s1.2-1.3,2.1-1.5l0,0c-0.6-0.2-1-0.5-1.3-1S230,246.4,230,245.8z M230.6,252.5
			c0,1,0.2,1.8,0.7,2.4c0.5,0.6,1.1,0.9,1.9,0.9c0.8,0,1.4-0.3,1.9-0.9c0.5-0.6,0.7-1.5,0.7-2.6c0-0.8-0.2-1.5-0.7-2.2
			c-0.5-0.6-1.1-1-1.8-1.2c-0.8,0-1.4,0.3-1.9,0.9C230.8,250.5,230.6,251.4,230.6,252.5z"/>
		<path class="st1" d="M249.8,254.3c0,0.5,0.2,0.8,0.6,1.1s1,0.4,1.7,0.4c0.7,0,1.2-0.2,1.7-0.5s0.7-0.7,0.7-1.2h1.6
			c0,0.9-0.4,1.6-1.1,2.2c-0.7,0.5-1.7,0.8-2.9,0.8c-1.2,0-2.2-0.3-2.9-0.8c-0.7-0.5-1.1-1.2-1.1-2.1c0-1.1,0.6-1.8,1.8-2.2
			c-0.5-0.2-0.9-0.5-1.2-0.9s-0.4-0.8-0.4-1.2c0-0.9,0.3-1.5,1-2s1.6-0.7,2.8-0.7c1.1,0,2,0.3,2.7,0.8c0.7,0.5,1.1,1.2,1.1,2h-1.6
			c0-0.4-0.2-0.8-0.6-1.1s-0.9-0.4-1.6-0.4c-0.7,0-1.2,0.1-1.6,0.4c-0.4,0.3-0.6,0.6-0.6,1.1c0,0.9,0.7,1.4,2.1,1.4h1.7v1.3h-2
			C250.5,252.8,249.8,253.3,249.8,254.3z"/>
		<path class="st1" d="M274.4,244.2v1.1l-3.1,3.8c-0.8,0.9-1.4,1.8-1.7,2.4c-0.3,0.7-0.4,1.4-0.4,2.2c0,0.5,0.1,0.9,0.3,1.2
			c0.2,0.3,0.5,0.5,1,0.6l2.2,0.6c0.5,0.1,0.8,0.3,1,0.6s0.3,0.6,0.3,1.1c0,0.4-0.2,0.9-0.5,1.4s-0.7,0.9-1.1,1.2l-0.9-0.7
			c0.3-0.3,0.5-0.6,0.6-0.8c0.1-0.3,0.2-0.5,0.2-0.8c0-0.4-0.5-0.7-1.4-0.9s-1.5-0.4-1.8-0.6c-0.6-0.3-1-0.6-1.3-1.1
			c-0.3-0.4-0.4-1-0.4-1.8c0-0.8,0.2-1.6,0.6-2.5s1-1.8,1.8-2.7l2.5-2.8h-5.6v-1.3H274.4z"/>
		<path class="st1" d="M286.9,247.5l0.1,1.2c0.7-0.9,1.6-1.4,2.8-1.4c1.1,0,1.9,0.3,2.4,0.9c0.5,0.6,0.8,1.5,0.8,2.7v9.8h-1.6v-9.7
			c0-0.8-0.2-1.4-0.5-1.7s-0.8-0.5-1.6-0.5c-0.5,0-1,0.1-1.4,0.4c-0.4,0.3-0.7,0.6-0.9,1.1v6.9h-1.6v-9.5H286.9z"/>
		<path class="st1" d="M312.5,251.4c0,1.9-0.3,3.3-1,4.3c-0.7,1-1.7,1.5-3,1.5c-1.3,0-2.3-0.5-3-1.5c-0.7-1-1.1-2.4-1.1-4.2v-1.8
			c0-1.9,0.3-3.3,1-4.3s1.7-1.5,3-1.5c1.3,0,2.3,0.5,3,1.4c0.7,0.9,1,2.3,1.1,4.1V251.4z M306.1,250h4.8v-0.5c0-1.3-0.2-2.3-0.6-3.1
			c-0.4-0.7-1-1.1-1.8-1.1c-0.8,0-1.4,0.4-1.8,1.1c-0.4,0.7-0.6,1.7-0.6,3.1V250z M310.9,251.3h-4.8v0.3c0,1.3,0.2,2.4,0.6,3.1
			s1,1.1,1.8,1.1s1.3-0.4,1.8-1.1s0.6-1.7,0.6-3V251.3z"/>
		<path class="st1" d="M326,247.5v7.1c0,0.4,0.1,0.6,0.2,0.8c0.2,0.2,0.4,0.3,0.8,0.3c0.3,0,0.5,0,0.8-0.1l0,1.3
			c-0.4,0.1-0.8,0.2-1.3,0.2c-1.5,0-2.2-0.9-2.2-2.6v-7H326z"/>
		<path class="st1" d="M341.4,252.9h-0.9v4.1h-1.6v-9.5h1.6v4h0.8l3.5-4h2l-4,4.6l4.3,4.9h-2L341.4,252.9z"/>
		<path class="st1" d="M358.8,243.7c0.6,0,1,0.1,1.4,0.4s0.6,0.6,0.8,1.2l3.8,9.7c0.1,0.3,0.2,0.5,0.4,0.6c0.1,0.1,0.3,0.2,0.5,0.2
			l0.3,0l0.1,1.3c-0.2,0.1-0.4,0.1-0.7,0.1c-0.5,0-0.8-0.1-1-0.2c-0.2-0.1-0.4-0.3-0.6-0.5s-0.4-0.6-0.5-1.1l-2-5.2l-2.5,6.8h-1.8
			l3.5-9l-0.8-2.1c-0.1-0.3-0.3-0.6-0.4-0.7c-0.2-0.1-0.4-0.2-0.6-0.2l-0.4,0l0-1.2C358.2,243.7,358.5,243.7,358.8,243.7z"/>
		<path class="st1" d="M378.4,247.5v5.6c0,1,0.2,1.7,0.5,2.1c0.3,0.5,0.8,0.7,1.5,0.7c1.2,0,1.9-0.4,2.3-1.3v-7h1.6v9.5h-1.5l-0.1-1
			c-0.5,0.8-1.3,1.2-2.3,1.2c-0.9,0-1.5-0.2-2-0.6v4.1h-1.6v-13.2H378.4z"/>
		<path class="st1" d="M399,254.8l2.4-7.3h1.7l-3.4,9.5h-1.2l-3.4-9.5h1.7L399,254.8z"/>
		<path class="st1" d="M420.1,245.7c-0.8-0.2-1.4-0.3-2-0.3c-0.8,0-1.5,0.2-1.9,0.5s-0.7,0.7-0.7,1.2c0,1.3,1,1.9,2.9,1.9h1.2v1.3
			h-1.3c-1.1,0-1.9,0.2-2.5,0.7c-0.6,0.5-0.9,1.2-0.9,2.1c0,0.7,0.2,1.2,0.6,1.7c0.4,0.5,1,0.8,1.8,1c0.8,0.2,1.4,0.3,1.7,0.4
			c0.4,0.1,0.6,0.2,0.8,0.3c0.5,0.3,0.7,0.7,0.7,1.4c0,0.4-0.2,0.8-0.5,1.3s-0.7,0.9-1.1,1.3l-0.9-0.7l0.5-0.6
			c0.3-0.4,0.4-0.7,0.4-1.1c0-0.2-0.1-0.4-0.3-0.5s-0.7-0.3-1.3-0.4c-0.7-0.1-1.3-0.3-1.8-0.5c-0.5-0.2-0.9-0.4-1.3-0.8
			c-0.3-0.3-0.6-0.7-0.8-1.1c-0.2-0.4-0.3-1-0.3-1.6c0-0.8,0.2-1.6,0.7-2.2s1.2-1,2-1.3c-0.7-0.2-1.2-0.6-1.6-1
			c-0.4-0.4-0.6-0.9-0.6-1.5c0-0.9,0.4-1.7,1.1-2.2c0.8-0.5,1.8-0.8,3.1-0.8c0.8,0,1.6,0.1,2.3,0.3L420.1,245.7z"/>
		<path class="st1" d="M431,252.2c0-0.9,0.2-1.8,0.5-2.5c0.4-0.7,0.9-1.3,1.5-1.7c0.7-0.4,1.4-0.6,2.2-0.6c1.3,0,2.3,0.4,3.1,1.3
			c0.8,0.9,1.2,2.1,1.2,3.6v0.1c0,0.9-0.2,1.8-0.5,2.5c-0.4,0.7-0.9,1.3-1.5,1.7c-0.7,0.4-1.4,0.6-2.3,0.6c-1.3,0-2.3-0.4-3.1-1.3
			c-0.8-0.9-1.2-2.1-1.2-3.6V252.2z M432.6,252.4c0,1.1,0.2,1.9,0.7,2.5s1.1,1,2,1c0.8,0,1.5-0.3,2-1c0.5-0.6,0.7-1.6,0.7-2.7
			c0-1-0.2-1.9-0.7-2.5c-0.5-0.6-1.2-1-2-1c-0.8,0-1.5,0.3-1.9,1S432.6,251.2,432.6,252.4z"/>
		<path class="st1" d="M459.4,248.8h-1.4v5.8c0,0.4,0.1,0.7,0.2,0.8s0.4,0.3,0.8,0.3c0.3,0,0.5,0,0.8-0.1l0,1.3
			c-0.4,0.1-0.8,0.2-1.3,0.2c-1.5,0-2.2-0.9-2.2-2.6v-5.7h-3.5v8.2h-1.6v-8.2h-1.5v-1.3h9.6V248.8z"/>
		<path class="st1" d="M474.4,247.3c1.2,0,2.2,0.4,2.9,1.2s1.1,2,1.2,3.5l0,0.6c0,1.4-0.3,2.5-1,3.3c-0.7,0.8-1.5,1.2-2.7,1.2
			c-1.1,0-2-0.4-2.7-1.1v4.6h-1.6v-8.8c0-0.9,0.2-1.7,0.5-2.4c0.3-0.7,0.8-1.2,1.4-1.6S473.6,247.3,474.4,247.3z M472.1,254.6
			c0.5,0.9,1.2,1.3,2.2,1.3c0.8,0,1.4-0.3,1.8-0.9c0.4-0.6,0.7-1.4,0.7-2.6c0-1.2-0.2-2.1-0.6-2.8c-0.4-0.7-1-1-1.8-1
			c-0.7,0-1.2,0.3-1.7,0.9s-0.6,1.4-0.6,2.4V254.6z"/>
		<path class="st1" d="M498.4,248.8h-2.5c1.2,0.9,1.8,2.1,1.8,3.7v0.1c0,0.8-0.2,1.6-0.5,2.3c-0.4,0.7-0.9,1.2-1.5,1.6
			s-1.4,0.6-2.2,0.6c-1.3,0-2.3-0.4-3.1-1.3c-0.8-0.9-1.2-2.1-1.2-3.6v-0.1c0-0.9,0.2-1.7,0.5-2.4s0.8-1.3,1.5-1.7s1.4-0.6,2.2-0.6
			h5.1V248.8z M490.8,252.4c0,1.1,0.2,1.9,0.7,2.6s1.1,0.9,1.9,0.9c0.8,0,1.5-0.3,1.9-1c0.5-0.6,0.7-1.5,0.7-2.7
			c0-1-0.2-1.8-0.7-2.4c-0.5-0.6-1.1-0.9-1.9-0.9c-0.8,0-1.4,0.3-1.9,0.9C491.1,250.3,490.8,251.2,490.8,252.4z"/>
		<path class="st1" d="M516.3,248.8h-3.3v5.8c0,0.8,0.3,1.2,0.9,1.2c0.3,0,0.5-0.1,0.8-0.2l0.4,1.1c-0.4,0.3-1,0.5-1.6,0.5
			c-0.7,0-1.3-0.2-1.6-0.6c-0.3-0.4-0.5-1.1-0.5-1.9v-5.8h-3v-1.3h7.9V248.8z"/>
		<path class="st1" d="M528.9,247.5v5.7c0,1.8,0.6,2.7,1.8,2.7c0.8,0,1.4-0.4,1.9-1.1s0.7-1.6,0.7-2.7c0-1.4-0.4-2.9-1.1-4.6h1.7
			c0.7,1.4,1,2.9,1,4.6c0,1.5-0.4,2.8-1.1,3.7c-0.8,0.9-1.8,1.4-3,1.4c-1.1,0-2-0.3-2.6-1c-0.6-0.7-0.9-1.6-0.9-2.9v-5.8H528.9z"/>
		<path class="st1" d="M550.3,257.1c-1.5-0.1-2.7-0.7-3.5-1.6c-0.8-0.9-1.2-2.1-1.2-3.6c0-1,0.2-1.9,0.6-2.6
			c0.4-0.8,0.9-1.4,1.7-1.9l0.9,1.2c-0.9,0.8-1.4,1.9-1.5,3.4c0,1,0.3,1.9,0.8,2.5c0.5,0.7,1.3,1.1,2.3,1.2v-6.3
			c0-0.6,0.2-1.1,0.6-1.5c0.4-0.4,0.9-0.5,1.6-0.5c0.8,0,1.5,0.2,2.1,0.6c0.7,0.4,1.2,1,1.6,1.7s0.6,1.5,0.6,2.4
			c0,1.4-0.4,2.6-1.3,3.4c-0.8,0.9-2,1.4-3.6,1.5v4.1h-1.6V257.1z M551.9,255.8c1-0.1,1.8-0.5,2.4-1.2s0.9-1.5,0.9-2.4
			c0-1-0.3-1.8-0.8-2.4c-0.5-0.6-1.1-0.9-1.9-0.9c-0.4,0-0.6,0.2-0.6,0.7V255.8z"/>
		<path class="st1" d="M567.8,247.4c1,0,1.8,0.6,2.3,1.7l1.3,3l2.2-4.5h1.6l-3.1,6.3l1.9,4.4c0.4,0.8,0.7,1.1,1.1,1.2h0.2l0.6,0
			l-0.4,1.4c-0.1,0.1-0.3,0.1-0.5,0.1c-0.5,0-1-0.1-1.3-0.4s-0.7-0.8-1.1-1.6l-1.4-3.3l-2.5,5.1h-1.7l3.4-6.9l-1.5-3.4
			c-0.4-1.1-1-1.6-1.6-1.6l-0.6,0l0-1.3C567.3,247.4,567.6,247.4,567.8,247.4z"/>
		<path class="st1" d="M591.5,247.5v8.3c1-0.1,1.8-0.5,2.4-1.2c0.6-0.7,0.9-1.5,0.9-2.6c0-1.4-0.4-2.9-1.1-4.5h1.7
			c0.7,1.4,1,2.9,1,4.5c0,1.5-0.4,2.7-1.3,3.6c-0.8,0.9-2,1.4-3.6,1.5v4h-1.6v-4c-1.5-0.2-2.6-0.7-3.4-1.6c-0.8-0.9-1.1-2.2-1.1-3.8
			v-4.3h1.6v4.4c0,1.1,0.3,2,0.7,2.7s1.2,1.1,2.2,1.2v-8.3H591.5z"/>
		<path class="st1" d="M610,247.5c-0.8,1.7-1.2,3.2-1.3,4.6c0,1.2,0.2,2.1,0.5,2.8c0.3,0.7,0.8,1,1.4,1c0.6,0,1.1-0.3,1.4-0.8
			c0.3-0.5,0.5-1.2,0.5-2.2v-2.6h1.6v2.7c0,1,0.2,1.7,0.5,2.2s0.8,0.7,1.4,0.7c0.6,0,1.1-0.3,1.4-1s0.5-1.6,0.5-2.8
			c0-1.4-0.5-2.9-1.3-4.6h1.7c0.8,1.4,1.2,3,1.2,4.6c0,1.6-0.3,2.9-0.9,3.8c-0.6,0.9-1.5,1.3-2.6,1.3c-1.4,0-2.4-0.7-2.9-2.1
			c-0.2,0.7-0.6,1.2-1.1,1.6s-1.1,0.5-1.8,0.5c-1.1,0-2-0.4-2.6-1.3c-0.6-0.9-0.9-2.1-0.9-3.8c0-1.7,0.4-3.2,1.2-4.6H610z"/>
	</g>
	<g class="st0">
		<path class="st1" d="M9.8,277.5v7c0,0.8,0.2,1.2,0.7,1.2c0.1,0,0.2,0,0.3,0l0.2,1.2c-0.3,0.2-0.6,0.3-1.1,0.3
			c-0.9,0-1.4-0.5-1.6-1.5c-0.6,1-1.6,1.5-2.8,1.5c-1.1,0-2-0.4-2.7-1.2s-1-2-1-3.4v-0.1c0-1.5,0.3-2.8,1-3.7
			c0.7-0.9,1.6-1.4,2.7-1.4c1.2,0,2.1,0.5,2.7,1.4l0.1-1.2H9.8z M3.5,282.6c0,1,0.2,1.8,0.6,2.4c0.4,0.6,1,0.9,1.8,0.9
			c1,0,1.8-0.5,2.2-1.6v-3.9c-0.5-1.1-1.2-1.7-2.2-1.7c-0.8,0-1.4,0.3-1.8,1S3.5,281.3,3.5,282.6z M6.4,273h1.5l-1,3l-1,0L6.4,273z"
			/>
		<path class="st1" d="M22.7,284.3c0,0.5,0.2,0.8,0.6,1.1s1,0.4,1.7,0.4c0.7,0,1.2-0.2,1.7-0.5s0.7-0.7,0.7-1.2H29
			c0,0.9-0.4,1.6-1.1,2.2s-1.7,0.8-2.9,0.8c-1.2,0-2.2-0.3-2.9-0.8c-0.7-0.5-1.1-1.2-1.1-2.1c0-1.1,0.6-1.8,1.8-2.2
			c-0.5-0.2-0.9-0.5-1.2-0.9s-0.4-0.8-0.4-1.2c0-0.9,0.3-1.5,1-2s1.6-0.7,2.8-0.7c1.1,0,2,0.3,2.7,0.8c0.7,0.5,1.1,1.2,1.1,2h-1.6
			c0-0.4-0.2-0.8-0.6-1.1s-0.9-0.4-1.6-0.4c-0.7,0-1.2,0.1-1.6,0.4c-0.4,0.3-0.6,0.6-0.6,1.1c0,0.9,0.7,1.4,2.1,1.4h1.7v1.3h-2
			C23.4,282.8,22.7,283.3,22.7,284.3z M24.9,273h1.5l-1,3l-1,0L24.9,273z"/>
		<path class="st1" d="M41.4,284.3c0,0.5,0.2,0.8,0.6,1.1s1,0.4,1.7,0.4c0.7,0,1.2-0.2,1.7-0.5s0.7-0.7,0.7-1.2h1.6
			c0,0.9-0.4,1.6-1.1,2.2s-1.7,0.8-2.9,0.8c-1.2,0-2.2-0.3-2.9-0.8c-0.7-0.5-1.1-1.2-1.1-2.1c0-1.1,0.6-1.8,1.8-2.2
			c-0.5-0.2-0.9-0.5-1.2-0.9s-0.4-0.8-0.4-1.2c0-0.9,0.3-1.5,1-2s1.6-0.7,2.8-0.7c1.1,0,2,0.3,2.7,0.8c0.7,0.5,1.1,1.2,1.1,2h-1.6
			c0-0.4-0.2-0.8-0.6-1.1s-0.9-0.4-1.6-0.4c-0.7,0-1.2,0.1-1.6,0.4c-0.4,0.3-0.6,0.6-0.6,1.1c0,0.9,0.7,1.4,2.1,1.4h1.7v1.3h-2
			C42.1,282.8,41.4,283.3,41.4,284.3z M43.6,273h1.5l-1,3l-1,0L43.6,273z"/>
		<path class="st1" d="M60.9,277.5v7.1c0,0.4,0.1,0.6,0.2,0.8s0.4,0.3,0.8,0.3c0.3,0,0.5,0,0.8-0.1l0,1.3c-0.4,0.1-0.8,0.2-1.3,0.2
			c-1.5,0-2.2-0.9-2.2-2.6v-7H60.9z M60,273.2h1.5l-1,3l-1,0L60,273.2z"/>
		<path class="st1" d="M72.2,275.1c0-0.3,0.1-0.5,0.2-0.7s0.4-0.3,0.7-0.3s0.6,0.1,0.7,0.3s0.2,0.4,0.2,0.7c0,0.3-0.1,0.5-0.2,0.7
			s-0.4,0.3-0.7,0.3s-0.6-0.1-0.7-0.3S72.2,275.4,72.2,275.1z M75.7,277.5v7.1c0,0.4,0.1,0.6,0.2,0.8s0.4,0.3,0.8,0.3
			c0.3,0,0.5,0,0.8-0.1l0,1.3c-0.4,0.1-0.8,0.2-1.3,0.2c-1.5,0-2.2-0.9-2.2-2.6v-7H75.7z M75.9,275.1c0-0.3,0.1-0.5,0.2-0.7
			c0.2-0.2,0.4-0.3,0.7-0.3s0.6,0.1,0.7,0.3c0.2,0.2,0.2,0.4,0.2,0.7c0,0.3-0.1,0.5-0.2,0.7s-0.4,0.3-0.7,0.3s-0.6-0.1-0.7-0.3
			S75.9,275.4,75.9,275.1z"/>
		<path class="st1" d="M86.3,275.1c0-0.3,0.1-0.5,0.2-0.7s0.4-0.3,0.7-0.3s0.6,0.1,0.7,0.3s0.2,0.4,0.2,0.7c0,0.3-0.1,0.5-0.2,0.7
			s-0.4,0.3-0.7,0.3s-0.6-0.1-0.7-0.3S86.3,275.4,86.3,275.1z M90.6,277.5v7.1c0,0.4,0.1,0.6,0.2,0.8s0.4,0.3,0.8,0.3
			c0.3,0,0.5,0,0.8-0.1l0,1.3c-0.4,0.1-0.8,0.2-1.3,0.2c-1.5,0-2.2-0.9-2.2-2.6v-7H90.6z M89.6,272.5h1.7l-0.9,2.3l-1.2,0
			L89.6,272.5z M91.3,275.1c0-0.3,0.1-0.5,0.2-0.7c0.2-0.2,0.4-0.3,0.7-0.3s0.6,0.1,0.7,0.3c0.2,0.2,0.2,0.4,0.2,0.7
			c0,0.3-0.1,0.5-0.2,0.7s-0.4,0.3-0.7,0.3s-0.6-0.1-0.7-0.3S91.3,275.4,91.3,275.1z"/>
		<path class="st1" d="M100.8,272.9h1.5l-1,3l-1,0L100.8,272.9z M105.4,287h-1.7v-12.8h1.7V287z"/>
		<path class="st1" d="M116.8,282.2c0-0.9,0.2-1.8,0.5-2.5s0.9-1.3,1.5-1.7s1.4-0.6,2.2-0.6c1.3,0,2.3,0.4,3.1,1.3s1.2,2.1,1.2,3.6
			v0.1c0,0.9-0.2,1.8-0.5,2.5c-0.4,0.7-0.9,1.3-1.5,1.7s-1.4,0.6-2.3,0.6c-1.3,0-2.3-0.4-3.1-1.3s-1.2-2.1-1.2-3.6V282.2z
			 M118.4,282.4c0,1.1,0.2,1.9,0.7,2.5s1.1,1,2,1c0.8,0,1.5-0.3,2-1c0.5-0.6,0.7-1.6,0.7-2.7c0-1-0.2-1.9-0.7-2.5
			c-0.5-0.6-1.2-1-2-1c-0.8,0-1.5,0.3-1.9,1S118.4,281.2,118.4,282.4z M120.9,273h1.5l-1,3l-1,0L120.9,273z"/>
		<path class="st1" d="M138.1,277.5v5.7c0,1.8,0.6,2.7,1.8,2.7c0.8,0,1.4-0.4,1.9-1.1s0.7-1.6,0.7-2.7c0-1.4-0.4-2.9-1.1-4.6h1.7
			c0.7,1.4,1,2.9,1,4.6c0,1.5-0.4,2.8-1.1,3.7c-0.8,0.9-1.8,1.4-3,1.4c-1.1,0-2-0.3-2.6-1s-0.9-1.6-0.9-2.9v-5.8H138.1z
			 M139.8,273.2h1.5l-1,3l-1,0L139.8,273.2z"/>
		<path class="st1" d="M156.9,277.5v5.7c0,1.8,0.6,2.7,1.8,2.7c0.8,0,1.4-0.4,1.9-1.1s0.7-1.6,0.7-2.7c0-1.4-0.4-2.9-1.1-4.6h1.7
			c0.7,1.4,1,2.9,1,4.6c0,1.5-0.4,2.8-1.1,3.7c-0.8,0.9-1.8,1.4-3,1.4c-1.1,0-2-0.3-2.6-1s-0.9-1.6-0.9-2.9v-5.8H156.9z
			 M155.3,275.1c0-0.3,0.1-0.5,0.2-0.7s0.4-0.3,0.7-0.3s0.6,0.1,0.7,0.3s0.2,0.4,0.2,0.7c0,0.3-0.1,0.5-0.2,0.7s-0.4,0.3-0.7,0.3
			s-0.6-0.1-0.7-0.3S155.3,275.4,155.3,275.1z M158.6,272.5h1.7l-0.9,2.3l-1.2,0L158.6,272.5z M160.3,275.1c0-0.3,0.1-0.5,0.2-0.7
			c0.2-0.2,0.4-0.3,0.7-0.3s0.6,0.1,0.7,0.3c0.2,0.2,0.2,0.4,0.2,0.7c0,0.3-0.1,0.5-0.2,0.7s-0.4,0.3-0.7,0.3s-0.6-0.1-0.7-0.3
			S160.3,275.4,160.3,275.1z"/>
		<path class="st1" d="M175.7,277.5v5.7c0,1.8,0.6,2.7,1.8,2.7c0.8,0,1.4-0.4,1.9-1.1s0.7-1.6,0.7-2.7c0-1.4-0.4-2.9-1.1-4.6h1.7
			c0.7,1.4,1,2.9,1,4.6c0,1.5-0.4,2.8-1.1,3.7c-0.8,0.9-1.8,1.4-3,1.4c-1.1,0-2-0.3-2.6-1s-0.9-1.6-0.9-2.9v-5.8H175.7z
			 M174.8,275.1c0-0.3,0.1-0.5,0.2-0.7s0.4-0.3,0.7-0.3s0.6,0.1,0.7,0.3s0.2,0.4,0.2,0.7c0,0.3-0.1,0.5-0.2,0.7s-0.4,0.3-0.7,0.3
			s-0.6-0.1-0.7-0.3S174.8,275.4,174.8,275.1z M178.6,275.1c0-0.3,0.1-0.5,0.2-0.7c0.2-0.2,0.4-0.3,0.7-0.3s0.6,0.1,0.7,0.3
			c0.2,0.2,0.2,0.4,0.2,0.7c0,0.3-0.1,0.5-0.2,0.7s-0.4,0.3-0.7,0.3s-0.6-0.1-0.7-0.3S178.6,275.4,178.6,275.1z"/>
		<path class="st1" d="M198.8,287c-0.1-0.2-0.2-0.5-0.2-1c-0.8,0.8-1.7,1.2-2.7,1.2c-0.9,0-1.7-0.3-2.3-0.8s-0.9-1.2-0.9-2
			c0-1,0.4-1.8,1.1-2.3s1.8-0.8,3.2-0.8h1.6v-0.7c0-0.6-0.2-1-0.5-1.4c-0.3-0.3-0.8-0.5-1.5-0.5c-0.6,0-1.1,0.1-1.5,0.4
			s-0.6,0.6-0.6,1.1h-1.6c0-0.5,0.2-0.9,0.5-1.4s0.8-0.8,1.4-1.1s1.2-0.4,1.9-0.4c1.1,0,2,0.3,2.6,0.8s0.9,1.3,1,2.3v4.4
			c0,0.9,0.1,1.6,0.3,2.1v0.1H198.8z M199.4,273.8c0,0.7-0.2,1.3-0.7,1.7s-1.1,0.6-1.9,0.6s-1.4-0.2-1.9-0.7c-0.5-0.4-0.7-1-0.7-1.7
			h1.3c0,0.4,0.1,0.7,0.3,1c0.2,0.2,0.5,0.3,1,0.3c0.4,0,0.7-0.1,1-0.3s0.3-0.6,0.3-1H199.4z M196.1,285.8c0.5,0,1-0.1,1.5-0.4
			s0.8-0.6,1-1v-2h-1.3c-2,0-3,0.6-3,1.7c0,0.5,0.2,0.9,0.5,1.2S195.5,285.8,196.1,285.8z"/>
		<path class="st1" d="M217.6,287c-0.1-0.2-0.2-0.5-0.2-1c-0.8,0.8-1.7,1.2-2.7,1.2c-0.9,0-1.7-0.3-2.3-0.8s-0.9-1.2-0.9-2
			c0-1,0.4-1.8,1.1-2.3s1.8-0.8,3.2-0.8h1.6v-0.7c0-0.6-0.2-1-0.5-1.4c-0.3-0.3-0.8-0.5-1.5-0.5c-0.6,0-1.1,0.1-1.5,0.4
			s-0.6,0.6-0.6,1.1h-1.6c0-0.5,0.2-0.9,0.5-1.4s0.8-0.8,1.4-1.1s1.2-0.4,1.9-0.4c1.1,0,2,0.3,2.6,0.8s0.9,1.3,1,2.3v4.4
			c0,0.9,0.1,1.6,0.3,2.1v0.1H217.6z M218.2,275.9L218.2,275.9l-1.3,0.1l-1.3-1.5l-1.3,1.5l-1.3,0v-0.1l2.2-2.4h1L218.2,275.9z
			 M214.9,285.8c0.5,0,1-0.1,1.5-0.4s0.8-0.6,1-1v-2H216c-2,0-3,0.6-3,1.7c0,0.5,0.2,0.9,0.5,1.2S214.3,285.8,214.9,285.8z"/>
		<path class="st1" d="M234.4,287.2c-1.3,0-2.3-0.4-3.1-1.3s-1.2-2-1.2-3.4v-0.3c0-0.9,0.2-1.8,0.5-2.5s0.9-1.3,1.5-1.7
			s1.3-0.6,2.1-0.6c1.2,0,2.2,0.4,2.9,1.2s1,2,1,3.5v0.7h-6.4c0,0.9,0.3,1.7,0.8,2.3c0.5,0.6,1.2,0.9,2,0.9c0.6,0,1.1-0.1,1.5-0.4
			s0.7-0.5,1-0.9l1,0.8C237.2,286.6,236,287.2,234.4,287.2z M236.9,275.9L236.9,275.9l-1.3,0.1l-1.3-1.5l-1.3,1.5l-1.3,0v-0.1
			l2.2-2.4h1L236.9,275.9z M234.2,278.7c-0.7,0-1.2,0.2-1.7,0.7s-0.7,1.1-0.8,2h4.8v-0.1c0-0.8-0.3-1.5-0.7-1.9
			S234.9,278.7,234.2,278.7z"/>
		<path class="st1" d="M248.6,282.2c0-0.9,0.2-1.8,0.5-2.5s0.9-1.3,1.5-1.7s1.4-0.6,2.2-0.6c1.3,0,2.3,0.4,3.1,1.3s1.2,2.1,1.2,3.6
			v0.1c0,0.9-0.2,1.8-0.5,2.5c-0.4,0.7-0.9,1.3-1.5,1.7s-1.4,0.6-2.3,0.6c-1.3,0-2.3-0.4-3.1-1.3s-1.2-2.1-1.2-3.6V282.2z
			 M255.5,275.9L255.5,275.9l-1.3,0.1l-1.3-1.5l-1.3,1.5l-1.3,0v-0.1l2.2-2.4h1L255.5,275.9z M250.2,282.4c0,1.1,0.2,1.9,0.7,2.5
			s1.1,1,2,1c0.8,0,1.5-0.3,2-1c0.5-0.6,0.7-1.6,0.7-2.7c0-1-0.2-1.9-0.7-2.5c-0.5-0.6-1.2-1-2-1c-0.8,0-1.5,0.3-1.9,1
			S250.2,281.2,250.2,282.4z"/>
		<path class="st1" d="M267.9,282.2c0-0.9,0.2-1.8,0.5-2.5s0.9-1.3,1.5-1.7s1.4-0.6,2.2-0.6c1.2,0,2.2,0.4,3,1.2
			c0.4,0,0.7-0.2,0.9-0.5s0.3-0.8,0.3-1.6h1.3c0,1.7-0.6,2.7-1.8,3c0.4,0.8,0.6,1.7,0.6,2.7v0.2c0,0.9-0.2,1.8-0.5,2.5
			s-0.9,1.3-1.5,1.7s-1.4,0.6-2.3,0.6c-1.3,0-2.3-0.4-3.1-1.3c-0.8-0.9-1.2-2.1-1.2-3.6V282.2z M269.5,282.4c0,1.1,0.2,1.9,0.7,2.5
			s1.1,1,2,1c0.8,0,1.5-0.3,2-1c0.5-0.6,0.7-1.5,0.7-2.6v-0.1c0-1.1-0.2-1.9-0.7-2.5s-1.1-1-2-1c-0.8,0-1.5,0.3-2,1
			S269.5,281.2,269.5,282.4z"/>
		<path class="st1" d="M297.7,276.7c0,1.1-0.2,1.8-0.6,2.2c-0.4,0.4-1.1,0.7-2.1,0.7v7.4h-1.5l0-0.9c-0.6,0.7-1.6,1.1-2.8,1.1
			c-1,0-1.8-0.3-2.3-0.9c-0.5-0.6-0.8-1.5-0.8-2.6v-6.2h1.6v6.1c0,1.4,0.6,2.2,1.8,2.2c1.2,0,2.1-0.5,2.5-1.4v-6.9h1.6v1.2
			c0.4,0,0.7-0.1,0.9-0.2s0.3-0.3,0.4-0.5s0.1-0.6,0.1-1.3H297.7z"/>
	</g>
	<g class="st0">
		<path class="st1" d="M7.4,379H5.8v-10.8l-3.3,1.2v-1.5l4.7-1.7h0.3V379z"/>
		<path class="st1" d="M29.6,379h-8.4v-1.2l4.4-4.9c0.7-0.7,1.1-1.3,1.4-1.8c0.2-0.5,0.4-0.9,0.4-1.4c0-0.7-0.2-1.2-0.6-1.6
			s-0.9-0.6-1.6-0.6c-0.8,0-1.4,0.2-1.9,0.7c-0.4,0.5-0.7,1.1-0.7,1.9h-1.6c0-1.2,0.4-2.1,1.1-2.9s1.8-1.1,3-1.1
			c1.2,0,2.1,0.3,2.8,0.9c0.7,0.6,1,1.5,1,2.5c0,1.3-0.8,2.8-2.4,4.5l-3.4,3.7h6.4V379z"/>
		<path class="st1" d="M42.6,371.8h1.2c0.8,0,1.4-0.2,1.8-0.6s0.7-0.9,0.7-1.6c0-1.5-0.7-2.3-2.2-2.3c-0.7,0-1.3,0.2-1.7,0.6
			c-0.4,0.4-0.6,0.9-0.6,1.6h-1.6c0-1,0.4-1.9,1.1-2.5c0.7-0.7,1.7-1,2.8-1c1.2,0,2.2,0.3,2.8,1s1,1.5,1,2.7c0,0.6-0.2,1.1-0.5,1.6
			s-0.9,0.9-1.5,1.2c0.7,0.2,1.2,0.6,1.6,1.1s0.6,1.1,0.6,1.9c0,1.1-0.4,2.1-1.1,2.7s-1.7,1-2.9,1s-2.2-0.3-2.9-1s-1.1-1.5-1.1-2.6
			h1.6c0,0.7,0.2,1.2,0.7,1.6s1,0.6,1.8,0.6c0.8,0,1.4-0.2,1.8-0.6s0.6-1,0.6-1.8c0-0.7-0.2-1.3-0.7-1.7s-1.1-0.6-2-0.6h-1.2V371.8z
			"/>
		<path class="st1" d="M66.3,374.7H68v1.3h-1.8v3h-1.6v-3h-5.8v-1l5.7-8.9h1.7V374.7z M60.6,374.7h4v-6.3l-0.2,0.4L60.6,374.7z"/>
		<path class="st1" d="M79.2,372.6l0.7-6.4h6.6v1.5h-5.2l-0.4,3.5c0.6-0.4,1.3-0.6,2.1-0.6c1.2,0,2.1,0.4,2.8,1.2
			c0.7,0.8,1,1.8,1,3.1c0,1.3-0.4,2.4-1.1,3.1c-0.7,0.8-1.7,1.1-3,1.1c-1.1,0-2.1-0.3-2.8-0.9s-1.1-1.5-1.2-2.6h1.5
			c0.1,0.7,0.4,1.3,0.8,1.7s1,0.6,1.7,0.6c0.8,0,1.3-0.3,1.8-0.8s0.6-1.2,0.6-2.1c0-0.9-0.2-1.5-0.7-2.1c-0.5-0.5-1.1-0.8-1.9-0.8
			c-0.7,0-1.3,0.2-1.7,0.5l-0.4,0.4L79.2,372.6z"/>
		<path class="st1" d="M104,366.2v1.4h-0.3c-1.3,0-2.3,0.4-3,1.1s-1.2,1.7-1.3,3.1c0.7-0.8,1.6-1.2,2.8-1.2c1.1,0,2,0.4,2.7,1.2
			s1,1.8,1,3c0,1.3-0.4,2.4-1.1,3.2s-1.7,1.2-2.9,1.2c-1.2,0-2.2-0.5-3-1.4c-0.8-0.9-1.1-2.2-1.1-3.6v-0.6c0-2.4,0.5-4.2,1.5-5.4
			c1-1.2,2.5-1.9,4.5-1.9H104z M101.8,372c-0.6,0-1.1,0.2-1.5,0.5s-0.8,0.8-1,1.3v0.6c0,1.1,0.2,1.9,0.7,2.5s1.1,1,1.8,1
			c0.7,0,1.3-0.3,1.7-0.8s0.6-1.2,0.6-2.1c0-0.9-0.2-1.6-0.6-2.1S102.5,372,101.8,372z"/>
		<path class="st1" d="M125,367.1l-5.3,11.9H118l5.3-11.5h-6.9v-1.3h8.6V367.1z"/>
		<path class="st1" d="M143.6,369.5c0,0.6-0.2,1.2-0.5,1.7s-0.8,0.9-1.4,1.2c0.7,0.3,1.2,0.7,1.6,1.3s0.6,1.2,0.6,1.9
			c0,1.1-0.4,2-1.1,2.6s-1.7,1-2.9,1c-1.2,0-2.2-0.3-3-1c-0.7-0.7-1.1-1.5-1.1-2.6c0-0.7,0.2-1.3,0.6-1.9s0.9-1,1.6-1.3
			c-0.6-0.3-1-0.7-1.3-1.2s-0.5-1.1-0.5-1.7c0-1.1,0.3-1.9,1-2.6s1.6-0.9,2.7-0.9c1.1,0,2,0.3,2.7,0.9S143.6,368.5,143.6,369.5z
			 M142.2,375.5c0-0.7-0.2-1.3-0.7-1.7s-1-0.7-1.8-0.7s-1.3,0.2-1.8,0.7s-0.7,1-0.7,1.8s0.2,1.3,0.6,1.7s1,0.6,1.8,0.6
			c0.8,0,1.4-0.2,1.8-0.6S142.2,376.2,142.2,375.5z M139.8,367.4c-0.6,0-1.2,0.2-1.6,0.6c-0.4,0.4-0.6,0.9-0.6,1.6
			c0,0.7,0.2,1.2,0.6,1.6c0.4,0.4,0.9,0.6,1.6,0.6s1.2-0.2,1.6-0.6c0.4-0.4,0.6-0.9,0.6-1.6s-0.2-1.2-0.6-1.6
			S140.4,367.4,139.8,367.4z"/>
		<path class="st1" d="M161.2,373.4c-0.3,0.4-0.7,0.7-1.2,1s-1,0.4-1.6,0.4c-0.7,0-1.4-0.2-1.9-0.5s-1-0.9-1.3-1.5
			c-0.3-0.7-0.4-1.4-0.4-2.2c0-0.9,0.2-1.6,0.5-2.3s0.8-1.2,1.4-1.6s1.3-0.5,2.1-0.5c1.3,0,2.3,0.5,3,1.4s1.1,2.2,1.1,3.9v0.5
			c0,2.5-0.5,4.3-1.5,5.5c-1,1.1-2.5,1.7-4.5,1.8h-0.3v-1.4h0.3c1.3,0,2.4-0.4,3.1-1C160.7,375.9,161.1,374.8,161.2,373.4z
			 M158.6,373.4c0.5,0,1-0.2,1.5-0.5s0.8-0.7,1-1.2V371c0-1.1-0.2-1.9-0.7-2.6s-1-1-1.8-1c-0.7,0-1.3,0.3-1.7,0.8s-0.7,1.3-0.7,2.2
			c0,0.9,0.2,1.6,0.6,2.2S157.9,373.4,158.6,373.4z"/>
		<path class="st1" d="M182.1,373.5c0,1.9-0.3,3.3-1,4.2s-1.7,1.4-3,1.4c-1.4,0-2.4-0.5-3-1.4c-0.7-0.9-1-2.3-1-4.1v-2.2
			c0-1.9,0.3-3.3,1-4.2s1.7-1.4,3.1-1.4c1.4,0,2.4,0.4,3,1.3c0.7,0.9,1,2.2,1,4.1V373.5z M180.4,371.3c0-1.4-0.2-2.4-0.6-3
			s-1-0.9-1.8-0.9c-0.8,0-1.4,0.3-1.8,0.9s-0.6,1.6-0.6,2.9v2.6c0,1.4,0.2,2.4,0.6,3.1c0.4,0.7,1,1,1.8,1c0.8,0,1.4-0.3,1.8-0.9
			s0.6-1.6,0.6-2.9V371.3z"/>
		<path class="st1" d="M194.4,365.3l0.9,0.6c-0.5,0.7-0.8,1.5-0.8,2.4v1.2h-1.6v-1c0-0.6,0.1-1.2,0.4-1.8S194,365.7,194.4,365.3z"/>
		<path class="st1" d="M207.8,375.4c0-0.7,0.1-1.2,0.2-1.6c0.1-0.4,0.4-0.9,0.9-1.3l1.2-1.2c0.5-0.6,0.7-1.2,0.7-1.8
			c0-0.6-0.2-1.1-0.5-1.4c-0.3-0.3-0.8-0.5-1.4-0.5c-0.6,0-1.1,0.2-1.4,0.5s-0.5,0.7-0.5,1.3h-1.6c0-0.9,0.4-1.7,1-2.3
			s1.5-0.9,2.6-0.9c1.1,0,2,0.3,2.6,0.9s0.9,1.4,0.9,2.4c0,1-0.5,2-1.4,3l-1,0.9c-0.4,0.5-0.6,1.2-0.6,2H207.8z M207.7,378.2
			c0-0.3,0.1-0.5,0.2-0.7s0.4-0.3,0.7-0.3s0.6,0.1,0.7,0.3s0.2,0.4,0.2,0.7c0,0.3-0.1,0.5-0.2,0.7s-0.4,0.3-0.7,0.3
			s-0.6-0.1-0.7-0.3S207.7,378.4,207.7,378.2z"/>
		<path class="st1" d="M223.5,369.8l-0.9-0.6c0.5-0.8,0.8-1.6,0.8-2.4v-1.3h1.6v1.1c0,0.6-0.2,1.2-0.4,1.8S224,369.4,223.5,369.8z"
			/>
		<path class="st1" d="M236.3,365.3l0.9,0.6c-0.5,0.7-0.8,1.5-0.8,2.4v1.2h-1.6v-1c0-0.6,0.1-1.2,0.4-1.8S235.8,365.7,236.3,365.3z
			 M239,365.3l0.9,0.6c-0.5,0.7-0.8,1.5-0.8,2.4v1.2h-1.6v-1c0-0.6,0.1-1.2,0.4-1.8S238.6,365.7,239,365.3z"/>
		<path class="st1" d="M250.6,378.2c0-0.3,0.1-0.5,0.2-0.7s0.4-0.3,0.7-0.3s0.6,0.1,0.7,0.3s0.2,0.4,0.2,0.7c0,0.3-0.1,0.5-0.2,0.7
			s-0.4,0.3-0.7,0.3s-0.6-0.1-0.7-0.3S250.6,378.4,250.6,378.2z M252.2,375.4h-1.5l-0.1-9.2h1.7L252.2,375.4z"/>
		<path class="st1" d="M264.3,369.8l-0.9-0.6c0.5-0.8,0.8-1.6,0.8-2.4v-1.3h1.6v1.1c0,0.6-0.2,1.2-0.4,1.8S264.7,369.4,264.3,369.8z
			 M267,369.8l-0.9-0.6c0.5-0.8,0.8-1.6,0.8-2.4v-1.3h1.6v1.1c0,0.6-0.2,1.2-0.4,1.8S267.4,369.4,267,369.8z"/>
		<path class="st1" d="M279.4,373.8c0-1.3,0.2-2.6,0.5-3.8s0.9-2.3,1.6-3.3s1.4-1.7,2.2-2.1l0.3,1.1c-0.9,0.7-1.6,1.7-2.1,3
			s-0.8,2.9-0.9,4.5l0,0.7c0,2.3,0.4,4.2,1.2,5.9c0.5,1,1.1,1.8,1.8,2.3l-0.3,1c-0.8-0.4-1.5-1.2-2.2-2.2
			C280.1,379,279.4,376.6,279.4,373.8z"/>
		<path class="st1" d="M294.3,368.7c0-0.8,0.2-1.4,0.7-1.9s1.1-0.7,1.9-0.7c0.8,0,1.4,0.3,1.9,0.8c0.5,0.5,0.7,1.2,0.7,1.9v0.6
			c0,0.8-0.2,1.4-0.7,1.9c-0.5,0.5-1.1,0.7-1.9,0.7c-0.8,0-1.4-0.2-1.9-0.7c-0.5-0.5-0.7-1.1-0.7-2V368.7z M295.5,369.3
			c0,0.5,0.1,0.8,0.4,1.1c0.3,0.3,0.6,0.4,1,0.4c0.4,0,0.8-0.1,1-0.4s0.4-0.7,0.4-1.2v-0.6c0-0.5-0.1-0.8-0.4-1.1s-0.6-0.4-1-0.4
			s-0.8,0.1-1,0.4s-0.4,0.7-0.4,1.2V369.3z M297.3,378l-0.9-0.6l6.2-10l0.9,0.6L297.3,378z M300.5,375.9c0-0.8,0.2-1.4,0.7-1.9
			s1.1-0.7,1.9-0.7s1.4,0.2,1.9,0.7s0.7,1.1,0.7,2v0.6c0,0.8-0.2,1.4-0.7,1.9c-0.5,0.5-1.1,0.7-1.9,0.7s-1.4-0.2-1.9-0.7
			s-0.7-1.1-0.7-2V375.9z M301.8,376.5c0,0.5,0.1,0.8,0.4,1.1c0.3,0.3,0.6,0.4,1,0.4c0.4,0,0.8-0.1,1-0.4c0.3-0.3,0.4-0.7,0.4-1.2
			v-0.7c0-0.5-0.1-0.8-0.4-1.1s-0.6-0.4-1-0.4c-0.4,0-0.8,0.1-1,0.4c-0.3,0.3-0.4,0.7-0.4,1.2V376.5z"/>
		<path class="st1" d="M320.6,373.9c0,1.3-0.2,2.6-0.5,3.8c-0.3,1.2-0.9,2.3-1.6,3.3c-0.7,1-1.4,1.7-2.2,2.2l-0.3-1
			c0.9-0.7,1.6-1.8,2.2-3.2c0.5-1.5,0.8-3.1,0.8-4.8v-0.3c0-1.2-0.1-2.4-0.4-3.4c-0.3-1.1-0.6-2-1.1-2.8c-0.5-0.8-1-1.5-1.6-2l0.3-1
			c0.8,0.4,1.5,1.1,2.2,2.1c0.7,1,1.2,2.1,1.6,3.3C320.4,371.2,320.6,372.5,320.6,373.9z"/>
		<path class="st1" d="M335.4,365.7h-1.7v14.7h1.7v1.3h-3.3v-17.4h3.3V365.7z"/>
		<path class="st1" d="M351.3,375.4H349l-0.7,3.6h-1.3l0.7-3.6h-2.1v-1.2h2.3l0.6-3.1h-2.3v-1.2h2.5l0.7-3.7h1.3l-0.7,3.7h2.3
			l0.7-3.7h1.3l-0.7,3.7h1.8v1.2h-2l-0.6,3.1h2v1.2h-2.2l-0.7,3.6h-1.3L351.3,375.4z M349.2,374.2h2.3l0.6-3.1h-2.3L349.2,374.2z"/>
		<path class="st1" d="M364.8,364.4h3.3v17.4h-3.3v-1.3h1.7v-14.7h-1.7V364.4z"/>
		<path class="st1" d="M384,382.2c-1-0.3-1.8-0.8-2.3-1.4c-0.5-0.7-0.8-1.6-0.8-2.7v-1.7c0-1.4-0.6-2.1-1.9-2.1V373
			c1.2,0,1.9-0.7,1.9-2.1V369c0-1.1,0.3-1.9,0.8-2.6c0.5-0.7,1.3-1.1,2.3-1.4l0.3,1c-1.2,0.4-1.8,1.4-1.8,3.1v1.8
			c0,1.3-0.5,2.3-1.5,2.8c1,0.5,1.5,1.5,1.5,2.8v1.8c0,1.6,0.6,2.6,1.8,3L384,382.2z"/>
		<path class="st1" d="M408.8,374.6c-0.1,1.4-0.4,2.5-1.1,3.4s-1.5,1.2-2.5,1.2c-1.1,0-1.8-0.5-2.1-1.5c-0.3,0.5-0.7,0.9-1.1,1.1
			c-0.4,0.2-0.8,0.4-1.3,0.4c-0.8,0-1.5-0.3-1.9-1s-0.6-1.6-0.5-2.8c0.1-1,0.3-1.8,0.7-2.6c0.4-0.8,0.8-1.4,1.4-1.8
			c0.6-0.4,1.1-0.7,1.8-0.7c0.5,0,0.9,0.1,1.3,0.2c0.4,0.1,0.8,0.4,1.3,0.7l-0.5,4.9c-0.1,1.4,0.3,2,1.1,2c0.7,0,1.2-0.3,1.6-1
			s0.6-1.5,0.7-2.6c0.1-2.3-0.3-4-1.3-5.2c-1-1.2-2.4-1.8-4.4-1.8c-1.2,0-2.2,0.3-3.1,0.9c-0.9,0.6-1.6,1.4-2.2,2.5
			s-0.8,2.4-0.9,3.8c-0.1,1.5,0.1,2.7,0.5,3.8c0.4,1.1,1.1,1.9,1.9,2.5c0.9,0.6,1.9,0.8,3.1,0.8c0.5,0,1.1-0.1,1.6-0.2
			c0.5-0.1,1-0.3,1.3-0.5l0.3,1c-0.4,0.2-0.8,0.4-1.4,0.6c-0.6,0.1-1.2,0.2-1.8,0.2c-1.5,0-2.7-0.3-3.8-1c-1.1-0.7-1.8-1.6-2.4-2.8
			c-0.5-1.2-0.8-2.7-0.7-4.3c0.1-1.6,0.4-3.1,1.1-4.3s1.5-2.3,2.6-3c1.1-0.7,2.4-1,3.8-1c1.5,0,2.7,0.3,3.8,1s1.8,1.6,2.3,2.8
			S408.9,372.9,408.8,374.6z M399.8,375.3c-0.1,0.8,0,1.5,0.2,1.9c0.2,0.4,0.6,0.7,1.1,0.7c0.4,0,0.7-0.1,1-0.4
			c0.3-0.3,0.6-0.7,0.8-1.3l0-0.1l0.4-4.4c-0.3-0.2-0.7-0.3-1.1-0.3c-0.7,0-1.3,0.3-1.7,1C400.2,373.2,399.9,374.1,399.8,375.3z"/>
		<path class="st1" d="M418.9,381.2c1.2-0.4,1.8-1.4,1.8-2.9v-1.9c0-1.4,0.5-2.3,1.6-2.8c-1.1-0.5-1.6-1.4-1.6-2.8V369
			c0-1.7-0.6-2.7-1.8-3.1l0.3-1c1,0.3,1.8,0.8,2.3,1.4c0.5,0.7,0.8,1.5,0.8,2.6v1.8c0,1.4,0.6,2.1,1.9,2.1v1.3
			c-1.2,0-1.9,0.7-1.9,2.1v1.8c0,1.1-0.3,2-0.8,2.6c-0.5,0.7-1.3,1.1-2.3,1.4L418.9,381.2z"/>
		<path class="st1" d="M435.4,380.1H434l5.3-13.9h1.4L435.4,380.1z"/>
		<path class="st1" d="M451.1,375.6c0-0.6,0.2-1.2,0.5-1.7c0.3-0.5,1-1.1,2-1.8c-0.6-0.7-0.9-1.2-1.1-1.7s-0.3-0.8-0.3-1.3
			c0-1,0.3-1.7,0.9-2.3s1.4-0.8,2.3-0.8c0.9,0,1.6,0.3,2.2,0.8s0.9,1.2,0.9,1.9c0,0.5-0.1,1-0.4,1.4c-0.3,0.4-0.7,0.9-1.4,1.4
			l-0.9,0.7l2.8,3.4c0.4-0.8,0.6-1.6,0.6-2.5h1.5c0,1.5-0.4,2.7-1.1,3.7l1.8,2.2h-2l-0.9-1c-0.4,0.4-0.9,0.7-1.5,0.9
			c-0.6,0.2-1.2,0.3-1.8,0.3c-1.2,0-2.3-0.3-3-1S451.1,376.6,451.1,375.6z M455.3,377.8c0.9,0,1.6-0.3,2.4-1l-3.1-3.7l-0.3,0.2
			c-1,0.7-1.5,1.5-1.5,2.2c0,0.7,0.2,1.2,0.7,1.7C453.9,377.6,454.5,377.8,455.3,377.8z M453.8,369.1c0,0.6,0.3,1.3,1,2.1l1-0.7
			c0.4-0.3,0.7-0.5,0.8-0.8c0.1-0.3,0.2-0.6,0.2-0.9c0-0.4-0.1-0.7-0.4-1c-0.3-0.3-0.7-0.4-1.1-0.4c-0.5,0-0.9,0.2-1.1,0.5
			C453.9,368.2,453.8,368.6,453.8,369.1z"/>
		<path class="st1" d="M470.8,366.2h1.5l5.3,13.9h-1.5L470.8,366.2z"/>
		<path class="st1" d="M489.1,373.3l5.5,2.2v1.7l-7.2-3.3v-1.3l7.2-3.3v1.7L489.1,373.3z"/>
		<path class="st1" d="M509.6,374.2h-4.3v-1.3h4.3V374.2z"/>
		<path class="st1" d="M524.8,372.1h3.6v1.5h-3.6v4h-1.6v-4h-3.6v-1.5h3.6v-3.7h1.6V372.1z"/>
		<path class="st1" d="M547.5,373.7h-8.8v-1.6h8.8V373.7z M542.2,369.3c0-0.3,0.1-0.5,0.3-0.7c0.2-0.2,0.4-0.3,0.8-0.3
			s0.6,0.1,0.8,0.3c0.2,0.2,0.3,0.4,0.3,0.7c0,0.3-0.1,0.5-0.3,0.7c-0.2,0.2-0.4,0.3-0.8,0.3s-0.6-0.1-0.8-0.3
			C542.3,369.9,542.2,369.6,542.2,369.3z M542.2,376.5c0-0.3,0.1-0.5,0.3-0.7c0.2-0.2,0.4-0.3,0.8-0.3s0.6,0.1,0.8,0.3
			c0.2,0.2,0.3,0.4,0.3,0.7c0,0.3-0.1,0.5-0.3,0.7c-0.2,0.2-0.4,0.3-0.8,0.3s-0.6-0.1-0.8-0.3C542.3,377,542.2,376.8,542.2,376.5z"
			/>
		<path class="st1" d="M558.2,376.1l2.9-3l-2.9-2.9l1-1.1l2.9,2.9l2.9-2.9l1,1.1l-2.9,2.9l2.9,3l-1,1.1l-2.9-3l-2.9,3L558.2,376.1z"
			/>
		<path class="st1" d="M584.7,371.8h-7.3v-1.4h7.3V371.8z M584.7,375.5h-7.3v-1.4h7.3V375.5z"/>
		<path class="st1" d="M601.9,373.3L596,371v-1.7l7.5,3.3v1.3l-7.5,3.3v-1.7L601.9,373.3z"/>
	</g>
	<g class="st0">
		<path class="st1" d="M1.8,402.6c0-1.2,0.3-2.3,0.8-3.3s1.3-1.8,2.3-2.4s2-0.9,3.1-0.9s2.2,0.3,3.1,0.9s1.7,1.4,2.3,2.4
			s0.8,2.1,0.8,3.3c0,1.2-0.3,2.2-0.8,3.2s-1.3,1.8-2.2,2.4c-1,0.6-2,0.9-3.2,0.9c-1.2,0-2.2-0.3-3.2-0.9c-1-0.6-1.7-1.4-2.3-2.4
			S1.8,403.8,1.8,402.6z M2.8,402.6c0,1,0.2,1.9,0.7,2.8c0.5,0.9,1.1,1.5,1.9,2c0.8,0.5,1.7,0.7,2.6,0.7c0.9,0,1.8-0.2,2.6-0.7
			c0.8-0.5,1.4-1.2,1.9-2c0.5-0.8,0.7-1.8,0.7-2.8c0-1-0.2-1.9-0.7-2.8c-0.5-0.8-1.1-1.5-1.9-2S9,397.1,8,397.1
			c-0.9,0-1.8,0.2-2.6,0.7s-1.4,1.2-1.9,2S2.8,401.6,2.8,402.6z M6.7,403.3v3H5.5v-7.5h2.4c0.9,0,1.6,0.2,2.1,0.6
			c0.5,0.4,0.7,0.9,0.7,1.7c0,0.7-0.4,1.3-1.1,1.7c0.7,0.3,1.1,0.9,1.1,1.8v0.5c0,0.5,0,0.9,0.1,1.1v0.1H9.6
			c-0.1-0.2-0.1-0.6-0.1-1.1s0-0.9,0-1c-0.1-0.6-0.5-0.9-1.2-0.9H6.7z M6.7,402.1h1.4c0.4,0,0.8-0.1,1-0.3s0.4-0.4,0.4-0.8
			c0-0.4-0.1-0.7-0.3-0.9c-0.2-0.2-0.6-0.3-1.2-0.3H6.7V402.1z"/>
		<path class="st1" d="M25,402.6c0-1.2,0.3-2.3,0.8-3.3s1.3-1.8,2.3-2.4s2-0.9,3.1-0.9s2.2,0.3,3.1,0.9s1.7,1.4,2.3,2.4
			s0.8,2.1,0.8,3.3c0,1.2-0.3,2.2-0.8,3.2s-1.3,1.8-2.2,2.4c-1,0.6-2,0.9-3.2,0.9c-1.2,0-2.2-0.3-3.2-0.9c-1-0.6-1.7-1.4-2.3-2.4
			S25,403.8,25,402.6z M26,402.6c0,1,0.2,1.9,0.7,2.8c0.5,0.9,1.1,1.5,1.9,2c0.8,0.5,1.7,0.7,2.6,0.7s1.8-0.2,2.6-0.7
			c0.8-0.5,1.4-1.2,1.9-2c0.5-0.9,0.7-1.8,0.7-2.8c0-1-0.2-1.9-0.7-2.8s-1.1-1.5-1.9-2s-1.7-0.7-2.6-0.7c-0.9,0-1.8,0.2-2.6,0.7
			s-1.4,1.2-1.9,2S26,401.6,26,402.6z M34,403.8c0,0.9-0.3,1.6-0.8,2.1c-0.5,0.5-1.2,0.7-2.1,0.7c-0.9,0-1.7-0.3-2.2-0.9
			s-0.8-1.5-0.8-2.5v-1c0-1,0.3-1.9,0.8-2.5c0.6-0.6,1.3-0.9,2.2-0.9c0.9,0,1.7,0.2,2.2,0.7s0.8,1.2,0.8,2h-1.3c0-0.6-0.1-1-0.4-1.3
			c-0.3-0.3-0.7-0.4-1.2-0.4c-0.6,0-1,0.2-1.3,0.6s-0.5,1-0.5,1.7v1c0,0.7,0.2,1.3,0.5,1.7s0.8,0.6,1.3,0.6c0.5,0,0.9-0.1,1.2-0.4
			s0.4-0.7,0.4-1.3H34z"/>
		<path class="st1" d="M54.8,405.7c0-0.5-0.2-1-0.6-1.4s-1-0.7-1.9-1c-1.2-0.4-2.2-0.9-2.7-1.5c-0.6-0.6-0.9-1.4-0.9-2.3
			c0-1,0.3-1.7,0.8-2.4s1.3-1,2.3-1.1v-1.9h1.3v1.9c1,0.1,1.8,0.5,2.3,1.2s0.8,1.6,0.8,2.8h-1.6c0-0.8-0.2-1.5-0.6-2
			c-0.4-0.5-0.9-0.7-1.6-0.7c-0.7,0-1.2,0.2-1.6,0.5c-0.4,0.4-0.6,0.9-0.6,1.5c0,0.6,0.2,1.1,0.6,1.4s1,0.7,1.9,1
			c0.9,0.3,1.6,0.6,2.1,1s0.9,0.8,1.1,1.2s0.4,1,0.4,1.6c0,1-0.3,1.8-0.9,2.4s-1.4,1-2.5,1.1v1.7h-1.3v-1.7
			c-1.1-0.1-1.9-0.5-2.6-1.2c-0.6-0.7-0.9-1.6-0.9-2.8h1.6c0,0.8,0.2,1.4,0.6,1.9s1,0.7,1.8,0.7c0.8,0,1.4-0.2,1.8-0.6
			S54.8,406.3,54.8,405.7z"/>
		<path class="st1" d="M73.9,404.2h-3.4c0,1.1,0.3,2,0.8,2.6c0.5,0.6,1.3,0.9,2.2,0.9c0.7,0,1.3-0.1,1.9-0.3l0.2,1.4
			c-0.7,0.2-1.4,0.3-2.1,0.3c-1.5,0-2.6-0.4-3.4-1.3s-1.3-2.1-1.3-3.6h-1.6v-1.1h1.6V402h-1.6v-1.1h1.6c0.1-1.5,0.5-2.7,1.3-3.6
			s2-1.3,3.4-1.3c0.6,0,1.3,0.1,2.1,0.3l-0.2,1.4c-0.6-0.2-1.3-0.3-1.9-0.3c-1,0-1.7,0.3-2.2,0.9c-0.5,0.6-0.8,1.4-0.8,2.6h3.4v1.1
			h-3.4v1.2h3.4V404.2z"/>
		<path class="st1" d="M89.5,403.5l0.1,1.9c0,0.9-0.2,1.6-0.5,2.2h6.4l0,1.4h-9.1v-1.4H87c0.2-0.1,0.4-0.3,0.6-0.7
			c0.1-0.4,0.2-0.9,0.2-1.4v-0.1l-0.1-1.9h-1.5v-1.4h1.4l-0.1-2.3c0-1.2,0.4-2.1,1.1-2.8s1.7-1,2.8-1c1.1,0,2,0.3,2.6,0.9
			s1,1.5,1,2.5h-1.7c0-0.6-0.2-1.1-0.6-1.5c-0.4-0.4-0.9-0.5-1.5-0.5c-0.6,0-1.1,0.2-1.5,0.7s-0.6,1-0.6,1.8l0.1,2.3h2.8v1.4H89.5z"
			/>
		<path class="st1" d="M109.7,402l2.7-5.8h1.9l-3.2,6.3h2.3v1.1h-2.8v1.5h2.8v1.1h-2.8v2.8h-1.7v-2.8H106v-1.1h2.8v-1.5H106v-1.1
			h2.3l-3.2-6.3h1.9L109.7,402z"/>
		<path class="st1" d="M128.6,407.8c0.6,0,1.1-0.2,1.5-0.5c0.4-0.4,0.7-0.8,0.7-1.3h1.5c0,0.7-0.3,1.4-0.9,2c-0.6,0.6-1.3,1-2.1,1.1
			v2h-1.6v-2.1c-1-0.2-1.9-0.7-2.5-1.5s-0.9-1.9-0.9-3.2v-0.3c0-1.2,0.3-2.3,0.9-3.1c0.6-0.8,1.4-1.3,2.4-1.5v-2h1.6v2
			c0.9,0.1,1.6,0.5,2.2,1.1s0.9,1.4,0.9,2.3h-1.5c0-0.6-0.3-1.1-0.7-1.5c-0.4-0.4-0.9-0.6-1.6-0.6c-0.8,0-1.5,0.3-1.9,0.9
			s-0.7,1.5-0.7,2.6v0.3c0,1.1,0.2,1.9,0.7,2.5S127.7,407.8,128.6,407.8z"/>
		<path class="st1" d="M143.4,408.1c0-0.3,0.1-0.5,0.3-0.7s0.4-0.3,0.8-0.3s0.6,0.1,0.8,0.3s0.3,0.4,0.3,0.7c0,0.3-0.1,0.5-0.3,0.7
			s-0.4,0.3-0.8,0.3s-0.6-0.1-0.8-0.3S143.4,408.4,143.4,408.1z M143.4,400.4c0-0.3,0.1-0.5,0.3-0.7s0.4-0.3,0.8-0.3
			s0.6,0.1,0.8,0.3s0.3,0.4,0.3,0.7c0,0.3-0.1,0.5-0.3,0.7s-0.4,0.3-0.8,0.3s-0.6-0.1-0.8-0.3S143.4,400.7,143.4,400.4z"/>
		<path class="st1" d="M156.9,411.5l-0.9-0.6c0.6-0.8,0.8-1.6,0.9-2.4v-1.5h1.6v1.3c0,0.6-0.1,1.2-0.4,1.8S157.3,411.2,156.9,411.5z
			 M156.6,400.4c0-0.3,0.1-0.5,0.3-0.7s0.4-0.3,0.8-0.3s0.6,0.1,0.8,0.3s0.3,0.4,0.3,0.7c0,0.3-0.1,0.5-0.3,0.7s-0.4,0.3-0.8,0.3
			s-0.6-0.1-0.8-0.3S156.6,400.7,156.6,400.4z"/>
		<path class="st1" d="M169.6,411.5l-0.9-0.6c0.6-0.8,0.8-1.6,0.9-2.4v-1.5h1.6v1.3c0,0.6-0.1,1.2-0.4,1.8S170,411.2,169.6,411.5z"
			/>
		<path class="st1" d="M182.2,408.1c0-0.3,0.1-0.5,0.3-0.7s0.4-0.3,0.8-0.3s0.6,0.1,0.8,0.3s0.3,0.4,0.3,0.7c0,0.3-0.1,0.5-0.3,0.7
			s-0.4,0.3-0.8,0.3s-0.6-0.1-0.8-0.3S182.2,408.4,182.2,408.1z"/>
		<path class="st1" d="M197.6,400.4l-2.7-0.8l0.4-1.3l2.7,1l-0.1-3h1.3l-0.1,3.1l2.6-1l0.4,1.3l-2.7,0.8l1.7,2.4l-1.1,0.8l-1.6-2.5
			l-1.6,2.5l-1.1-0.8L197.6,400.4z"/>
	</g>
</g>
</svg>
