<?xml version="1.0" encoding="utf-8"?>
<!-- Generator: Adobe Illustrator 22.1.0, SVG Export Plug-In . SVG Version: 6.00 Build 0)  -->
<svg version="1.1" id="Layer_1" xmlns="http://www.w3.org/2000/svg" xmlns:xlink="http://www.w3.org/1999/xlink" x="0px" y="0px"
	 viewBox="0 0 427 213.9" style="enable-background:new 0 0 427 213.9;" xml:space="preserve">
<style type="text/css">
	.st0{enable-background:new    ;}
	.st1{fill:#003399;}
	.st2{fill:#F1F5FE;}
</style>
<g>
	<g class="st0">
		<path class="st1" d="M45.7,69.8H23.4V108H10.9V13.4h31.3c10.7,0,18.8,2.4,24.6,7.3c5.7,4.8,8.6,11.9,8.6,21.2
			c0,5.9-1.6,11-4.8,15.4c-3.2,4.4-7.6,7.6-13.3,9.8l22.2,40.1v0.8H66.2L45.7,69.8z M23.4,59.6h19.2c6.2,0,11.1-1.6,14.8-4.8
			c3.7-3.2,5.5-7.5,5.5-12.9c0-5.9-1.7-10.3-5.2-13.5c-3.5-3.1-8.5-4.7-15.1-4.8H23.4V59.6z"/>
		<path class="st1" d="M87.8,72.2c0-6.9,1.4-13.1,4.1-18.6c2.7-5.5,6.5-9.7,11.3-12.7c4.8-3,10.3-4.5,16.5-4.5
			c9.6,0,17.3,3.3,23.2,9.9c5.9,6.6,8.9,15.4,8.9,26.4v0.8c0,6.8-1.3,13-3.9,18.4c-2.6,5.4-6.4,9.7-11.2,12.7
			c-4.9,3-10.5,4.5-16.8,4.5c-9.5,0-17.2-3.3-23.2-9.9c-5.9-6.6-8.9-15.4-8.9-26.3V72.2z M99.9,73.6c0,7.8,1.8,14,5.4,18.8
			c3.6,4.7,8.5,7.1,14.5,7.1c6.1,0,11-2.4,14.5-7.2c3.6-4.8,5.4-11.5,5.4-20.1c0-7.7-1.8-14-5.5-18.7c-3.7-4.8-8.5-7.2-14.6-7.2
			c-5.9,0-10.7,2.4-14.4,7.1S99.9,64.9,99.9,73.6z"/>
		<path class="st1" d="M226.3,73.6c0,10.7-2.5,19.4-7.4,25.9c-4.9,6.5-11.6,9.8-19.9,9.8c-8.9,0-15.7-3.1-20.6-9.4l-0.6,8.1h-11V8.3
			h12v37.2c4.8-6,11.5-9,20.1-9c8.5,0,15.2,3.2,20.1,9.7c4.9,6.5,7.3,15.3,7.3,26.5V73.6z M214.3,72.3c0-8.2-1.6-14.5-4.7-19
			c-3.2-4.5-7.7-6.7-13.6-6.7c-7.9,0-13.6,3.7-17.1,11v30.4c3.7,7.4,9.4,11,17.2,11c5.8,0,10.2-2.2,13.4-6.7
			C212.7,88,214.3,81.2,214.3,72.3z"/>
		<path class="st1" d="M238.3,72.2c0-6.9,1.4-13.1,4.1-18.6c2.7-5.5,6.5-9.7,11.3-12.7c4.8-3,10.3-4.5,16.5-4.5
			c9.6,0,17.3,3.3,23.2,9.9c5.9,6.6,8.9,15.4,8.9,26.4v0.8c0,6.8-1.3,13-3.9,18.4c-2.6,5.4-6.4,9.7-11.2,12.7
			c-4.9,3-10.5,4.5-16.8,4.5c-9.5,0-17.2-3.3-23.2-9.9c-5.9-6.6-8.9-15.4-8.9-26.3V72.2z M250.3,73.6c0,7.8,1.8,14,5.4,18.8
			c3.6,4.7,8.5,7.1,14.5,7.1c6.1,0,11-2.4,14.5-7.2c3.6-4.8,5.4-11.5,5.4-20.1c0-7.7-1.8-14-5.5-18.7c-3.7-4.8-8.5-7.2-14.6-7.2
			c-5.9,0-10.7,2.4-14.4,7.1S250.3,64.9,250.3,73.6z"/>
		<path class="st1" d="M333.6,20.7v17h13.1V47h-13.1v43.6c0,2.8,0.6,4.9,1.8,6.3s3.2,2.1,6,2.1c1.4,0,3.3-0.3,5.7-0.8v9.7
			c-3.2,0.9-6.2,1.3-9.2,1.3c-5.4,0-9.4-1.6-12.1-4.9c-2.7-3.2-4.1-7.9-4.1-13.8V47h-12.8v-9.3h12.8v-17H333.6z"/>
		<path class="st1" d="M356.3,72.2c0-6.9,1.4-13.1,4.1-18.6c2.7-5.5,6.5-9.7,11.3-12.7c4.8-3,10.3-4.5,16.5-4.5
			c9.6,0,17.3,3.3,23.2,9.9c5.9,6.6,8.9,15.4,8.9,26.4v0.8c0,6.8-1.3,13-3.9,18.4c-2.6,5.4-6.4,9.7-11.2,12.7
			c-4.9,3-10.5,4.5-16.8,4.5c-9.5,0-17.2-3.3-23.2-9.9c-5.9-6.6-8.9-15.4-8.9-26.3V72.2z M368.3,73.6c0,7.8,1.8,14,5.4,18.8
			c3.6,4.7,8.5,7.1,14.5,7.1c6.1,0,11-2.4,14.5-7.2c3.6-4.8,5.4-11.5,5.4-20.1c0-7.7-1.8-14-5.5-18.7c-3.7-4.8-8.5-7.2-14.6-7.2
			c-5.9,0-10.7,2.4-14.4,7.1S368.3,64.9,368.3,73.6z"/>
	</g>
	<g class="st0">
		<path class="st2" d="M33,181.4v-5.5l20,0v17.5c-3.1,2.4-6.2,4.3-9.5,5.5c-3.3,1.2-6.6,1.9-10.1,1.9c-4.6,0-8.9-1-12.6-3
			c-3.8-2-6.7-4.9-8.6-8.6s-2.9-8-2.9-12.6c0-4.6,1-8.9,2.9-12.9c1.9-4,4.7-6.9,8.3-8.9s7.8-2.9,12.5-2.9c3.4,0,6.5,0.6,9.3,1.7
			c2.8,1.1,4.9,2.6,6.5,4.6c1.6,2,2.8,4.6,3.6,7.7l-5.6,1.5c-0.7-2.4-1.6-4.3-2.6-5.7c-1.1-1.4-2.6-2.5-4.5-3.3
			c-2-0.8-4.1-1.2-6.5-1.2c-2.9,0-5.3,0.4-7.4,1.3c-2.1,0.9-3.8,2-5,3.4c-1.3,1.4-2.3,3-3,4.7c-1.2,2.9-1.8,6.1-1.8,9.5
			c0,4.2,0.7,7.7,2.2,10.6s3.6,4.9,6.3,6.3s5.7,2.1,8.8,2.1c2.7,0,5.3-0.5,7.9-1.6s4.5-2.2,5.9-3.3v-8.8H33z"/>
		<path class="st2" d="M59.3,182.8c0-6.3,1.8-11,5.3-14.1c2.9-2.5,6.5-3.8,10.8-3.8c4.7,0,8.6,1.5,11.5,4.6c3,3.1,4.5,7.3,4.5,12.8
			c0,4.4-0.7,7.9-2,10.4c-1.3,2.5-3.2,4.5-5.8,5.9c-2.5,1.4-5.3,2.1-8.3,2.1c-4.8,0-8.7-1.5-11.6-4.6
			C60.8,193,59.3,188.6,59.3,182.8z M65.3,182.8c0,4.4,1,7.7,2.9,9.8c1.9,2.2,4.3,3.3,7.2,3.3c2.9,0,5.3-1.1,7.2-3.3
			c1.9-2.2,2.9-5.5,2.9-10c0-4.2-1-7.4-2.9-9.6c-1.9-2.2-4.3-3.3-7.2-3.3c-2.9,0-5.3,1.1-7.2,3.3C66.2,175.2,65.3,178.4,65.3,182.8z
			"/>
		<path class="st2" d="M96,182.8c0-6.3,1.8-11,5.3-14.1c2.9-2.5,6.5-3.8,10.8-3.8c4.7,0,8.6,1.5,11.5,4.6c3,3.1,4.5,7.3,4.5,12.8
			c0,4.4-0.7,7.9-2,10.4c-1.3,2.5-3.2,4.5-5.8,5.9c-2.5,1.4-5.3,2.1-8.3,2.1c-4.8,0-8.7-1.5-11.6-4.6C97.5,193,96,188.6,96,182.8z
			 M102,182.8c0,4.4,1,7.7,2.9,9.8c1.9,2.2,4.3,3.3,7.2,3.3c2.9,0,5.3-1.1,7.2-3.3c1.9-2.2,2.9-5.5,2.9-10c0-4.2-1-7.4-2.9-9.6
			c-1.9-2.2-4.3-3.3-7.2-3.3c-2.9,0-5.3,1.1-7.2,3.3C102.9,175.2,102,178.4,102,182.8z"/>
		<path class="st2" d="M133.8,202.8l5.6,0.8c0.2,1.7,0.9,3,2,3.8c1.4,1.1,3.4,1.6,5.9,1.6c2.7,0,4.8-0.5,6.2-1.6
			c1.5-1.1,2.4-2.6,3-4.5c0.3-1.2,0.4-3.7,0.4-7.4c-2.5,3-5.7,4.5-9.5,4.5c-4.7,0-8.3-1.7-10.9-5.1s-3.9-7.5-3.9-12.2
			c0-3.3,0.6-6.3,1.8-9c1.2-2.8,2.9-4.9,5.1-6.4c2.2-1.5,4.9-2.3,7.9-2.3c4,0,7.4,1.6,10,4.9v-4.1h5.3v29.6c0,5.3-0.5,9.1-1.6,11.3
			c-1.1,2.2-2.8,4-5.2,5.3s-5.2,1.9-8.7,1.9c-4.1,0-7.4-0.9-9.9-2.8C135,209.2,133.7,206.5,133.8,202.8z M138.6,182.2
			c0,4.5,0.9,7.8,2.7,9.8c1.8,2.1,4,3.1,6.7,3.1c2.7,0,4.9-1,6.7-3.1s2.7-5.3,2.7-9.7c0-4.2-0.9-7.3-2.8-9.5
			c-1.9-2.1-4.1-3.2-6.7-3.2c-2.6,0-4.8,1-6.6,3.1C139.5,175,138.6,178.1,138.6,182.2z"/>
		<path class="st2" d="M171.5,199.9v-47.2h5.8v47.2H171.5z"/>
		<path class="st2" d="M209.7,188.9l6,0.7c-0.9,3.5-2.7,6.2-5.3,8.2c-2.6,1.9-5.8,2.9-9.8,2.9c-5,0-9-1.5-11.9-4.6
			c-2.9-3.1-4.4-7.4-4.4-13c0-5.8,1.5-10.2,4.4-13.4s6.8-4.8,11.5-4.8c4.6,0,8.3,1.6,11.2,4.7s4.4,7.5,4.4,13.1c0,0.3,0,0.9,0,1.5
			h-25.5c0.2,3.8,1.3,6.6,3.2,8.6c1.9,2,4.3,3,7.2,3c2.1,0,3.9-0.6,5.4-1.7C207.6,193.1,208.8,191.4,209.7,188.9z M190.6,179.5h19.1
			c-0.3-2.9-1-5-2.2-6.5c-1.8-2.2-4.2-3.4-7.2-3.4c-2.7,0-4.9,0.9-6.7,2.7C191.8,174.2,190.8,176.6,190.6,179.5z"/>
		<path class="st2" d="M242.7,199.9v-29.7h-5.1v-4.5h5.1v-3.6c0-2.3,0.2-4,0.6-5.1c0.6-1.5,1.5-2.7,2.9-3.7c1.4-0.9,3.4-1.4,5.9-1.4
			c1.6,0,3.4,0.2,5.4,0.6l-0.9,5.1c-1.2-0.2-2.3-0.3-3.4-0.3c-1.8,0-3,0.4-3.7,1.1s-1.1,2.2-1.1,4.2v3.2h6.7v4.5h-6.7v29.7H242.7z"
			/>
		<path class="st2" d="M257.5,182.8c0-6.3,1.8-11,5.3-14.1c2.9-2.5,6.5-3.8,10.8-3.8c4.7,0,8.6,1.5,11.5,4.6s4.5,7.3,4.5,12.8
			c0,4.4-0.7,7.9-2,10.4c-1.3,2.5-3.2,4.5-5.8,5.9c-2.5,1.4-5.3,2.1-8.3,2.1c-4.8,0-8.7-1.5-11.6-4.6
			C259,193,257.5,188.6,257.5,182.8z M263.4,182.8c0,4.4,1,7.7,2.9,9.8c1.9,2.2,4.3,3.3,7.2,3.3c2.9,0,5.3-1.1,7.2-3.3
			s2.9-5.5,2.9-10c0-4.2-1-7.4-2.9-9.6c-1.9-2.2-4.3-3.3-7.2-3.3c-2.9,0-5.3,1.1-7.2,3.3S263.4,178.4,263.4,182.8z"/>
		<path class="st2" d="M296.4,199.9v-34.2h5.2v4.9c2.5-3.8,6.1-5.6,10.9-5.6c2.1,0,4,0.4,5.7,1.1c1.7,0.7,3,1.7,3.9,2.9
			s1.5,2.6,1.8,4.3c0.2,1.1,0.3,3,0.3,5.6v21h-5.8v-20.8c0-2.4-0.2-4.1-0.7-5.3s-1.3-2.1-2.4-2.8c-1.1-0.7-2.5-1-4-1
			c-2.5,0-4.6,0.8-6.4,2.4c-1.8,1.6-2.7,4.5-2.7,8.9v18.7H296.4z"/>
		<path class="st2" d="M345.7,194.8l0.8,5.1c-1.6,0.3-3.1,0.5-4.4,0.5c-2.1,0-3.7-0.3-4.9-1s-2-1.5-2.4-2.6s-0.7-3.4-0.7-6.8v-19.7
			h-4.3v-4.5h4.3v-8.5l5.8-3.5v12h5.8v4.5h-5.8v20c0,1.7,0.1,2.7,0.3,3.2c0.2,0.5,0.5,0.8,1,1.1c0.5,0.3,1.1,0.4,2,0.4
			C343.8,195,344.7,194.9,345.7,194.8z"/>
		<path class="st2" d="M349.1,189.7l5.7-0.9c0.3,2.3,1.2,4.1,2.7,5.3c1.5,1.2,3.5,1.8,6.2,1.8c2.7,0,4.6-0.5,5.9-1.6
			s1.9-2.4,1.9-3.8c0-1.3-0.6-2.3-1.7-3.1c-0.8-0.5-2.8-1.2-5.9-2c-4.3-1.1-7.2-2-8.8-2.8s-2.9-1.9-3.7-3.3
			c-0.8-1.4-1.3-2.9-1.3-4.6c0-1.5,0.3-2.9,1-4.2c0.7-1.3,1.6-2.4,2.9-3.2c0.9-0.7,2.1-1.2,3.7-1.7c1.6-0.5,3.2-0.7,5-0.7
			c2.7,0,5,0.4,7.1,1.2s3.5,1.8,4.5,3.1c1,1.3,1.6,3.1,2,5.3l-5.7,0.8c-0.3-1.8-1-3.1-2.2-4.1c-1.2-1-3-1.5-5.2-1.5
			c-2.7,0-4.6,0.4-5.7,1.3s-1.7,1.9-1.7,3.1c0,0.8,0.2,1.4,0.7,2c0.5,0.6,1.2,1.1,2.2,1.5c0.6,0.2,2.3,0.7,5.1,1.5
			c4.1,1.1,7,2,8.6,2.7c1.6,0.7,2.9,1.7,3.8,3s1.4,3,1.4,5c0,1.9-0.6,3.8-1.7,5.5c-1.1,1.7-2.8,3-4.9,4c-2.1,0.9-4.5,1.4-7.2,1.4
			c-4.4,0-7.8-0.9-10.2-2.8C351.2,196.1,349.7,193.4,349.1,189.7z"/>
	</g>
</g>
</svg>
