<svg xmlns="http://www.w3.org/2000/svg" width="735" height="700" viewBox="0 0 735 700">
  <path id="pexels-photo-756453" d="M731.887,305.5A363.8,363.8,0,0,0,585.9,58.7,312.427,312.427,0,0,0,453.4,4.263,348.009,348.009,0,0,0,383.54.344c-5.758.218-11.515.823-17.225,1.161s-11.371,1.307-17.008,1.96-11.226,1.742-16.863,2.613L315.87,9.344A426.251,426.251,0,0,0,193.659,57.736,441.213,441.213,0,0,0,91.54,140.34L80.458,152.946c-3.517,4.379-7.227,8.783-10.6,13.259s-6.89,9.1-10.142,13.816-6.528,9.461-9.636,14.372a342.608,342.608,0,0,0-31.173,62.739A299.958,299.958,0,0,0,2.261,398.677,313.711,313.711,0,0,0,52.369,533.035c26.5,39.947,62.033,72.95,101.011,97.992a451.611,451.611,0,0,0,190.483,66.635,402.044,402.044,0,0,0,67.188,1.621A373.757,373.757,0,0,0,543.669,666.5a318.131,318.131,0,0,0,112.839-85.653c3.734-4.839,7.54-9.461,11.226-14.3s6.986-9.9,10.335-14.953,6.529-10.259,9.636-15.534,5.9-10.646,8.576-16.114a361.935,361.935,0,0,0,25.8-68.353,376.35,376.35,0,0,0,9.8-146.094Z" transform="translate(-0.003 0.003)" fill="#039"/>
</svg>
