<svg xmlns="http://www.w3.org/2000/svg" width="709" height="679" viewBox="0 0 709 679"><defs><mask id="uzhkb" width="2" height="2" x="-1" y="-1"><path fill="#fff" d="M4 1h701v671H4z"/><path d="M701.333 294.168C689.055 199.509 638.784 114.1 562.296 57.949 524.783 30.98 481.592 13.144 436.11 5.842a329.813 329.813 0 0 0-66.536-3.752c-5.483.209-10.967.788-16.404 1.112-5.438.324-10.83 1.25-16.198 1.876-5.369.625-10.692 1.667-16.06 2.5l-15.786 3.127a404.775 404.775 0 0 0-116.39 46.318 420.607 420.607 0 0 0-97.257 79.063l-10.554 12.066c-3.35 4.192-6.883 8.407-10.095 12.691-3.212 4.285-6.562 8.708-9.66 13.224-3.096 4.516-6.217 9.055-9.176 13.756a328.588 328.588 0 0 0-29.689 60.05A288.44 288.44 0 0 0 6.45 383.354c5.824 46.018 22.16 90.043 47.722 128.6 25.238 38.234 59.079 69.823 96.201 93.792 54.952 34.755 116.96 56.555 181.412 63.78a380.995 380.995 0 0 0 63.99 1.55 354.523 354.523 0 0 0 126.302-31.38c41.465-18.836 78.196-46.857 107.466-81.981 3.556-4.632 7.181-9.055 10.692-13.687 3.51-4.632 6.653-9.472 9.842-14.312 3.19-4.84 6.218-9.82 9.178-14.868 2.96-5.048 5.62-10.19 8.167-15.423A347.497 347.497 0 0 0 691.995 434a361.962 361.962 0 0 0 9.338-139.832z"/></mask><filter id="uzhka" width="733" height="706" x="-12" y="-15" filterUnits="userSpaceOnUse"><feOffset dy="3" in="SourceGraphic" result="FeOffset1023Out"/><feGaussianBlur in="FeOffset1023Out" result="FeGaussianBlur1024Out" stdDeviation="2.4 2.4"/></filter><mask id="uzhkd" width="2" height="2" x="-1" y="-1"><path fill="#fff" d="M75 81h529v519H75z"/><path d="M558.863 199.43c-40.03-60.648-103.097-102.224-174.428-114.99a227.636 227.636 0 0 0-104.156 6.668 253.56 253.56 0 0 0-47.003 19.747c-3.7 1.982-7.278 4.217-10.909 6.262-3.63 2.046-7.029 4.488-10.512 6.716-3.482 2.228-6.795 4.726-10.208 7.097l-9.81 7.433a310.568 310.568 0 0 0-64.576 70.724 321.47 321.47 0 0 0-40.49 86.711l-3.232 11.795c-.904 3.991-1.927 8.06-2.706 12.069-.779 4.008-1.606 8.158-2.229 12.286-.623 4.129-1.254 8.28-1.72 12.49a249.626 249.626 0 0 0-.375 51.042 218.551 218.551 0 0 0 34.308 98.01 228.571 228.571 0 0 0 75.728 71.982c30.113 17.696 63.923 27.96 97.448 31.91a329.047 329.047 0 0 0 146.023-17.204 292.928 292.928 0 0 0 44.517-20.398 272.32 272.32 0 0 0 76.376-63.828 231.791 231.791 0 0 0 46.537-92.132c.9-4.361 1.916-8.603 2.784-12.95.868-4.346 1.415-8.712 1.992-13.093.578-4.38.999-8.803 1.35-13.25.35-4.447.464-8.857.469-13.292a263.707 263.707 0 0 0-4.936-53.003 274.21 274.21 0 0 0-40.242-98.803z"/></mask><filter id="uzhkc" width="561" height="554" x="59" y="65" filterUnits="userSpaceOnUse"><feOffset dy="3" in="SourceGraphic" result="FeOffset1039Out"/><feGaussianBlur in="FeOffset1039Out" result="FeGaussianBlur1040Out" stdDeviation="2.4 2.4"/></filter><mask id="uzhkf" width="2" height="2" x="-1" y="-1"><path fill="#fff" d="M265 167h379v369H265z"/><path d="M618.622 440.458c25.582-45.083 31.584-98.632 16.597-148.104a162.381 162.381 0 0 0-37.97-64.041 180.875 180.875 0 0 0-27.772-23.48c-2.458-1.71-5.037-3.26-7.513-4.905-2.476-1.645-5.128-3.014-7.672-4.506-2.545-1.492-5.205-2.788-7.817-4.19l-7.902-3.828a221.54 221.54 0 0 0-65.864-18.14 229.317 229.317 0 0 0-68.225 2.346l-8.543 1.766c-2.83.718-5.747 1.385-8.547 2.188-2.8.803-5.706 1.622-8.532 2.563-2.825.94-5.669 1.885-8.495 2.951a178.069 178.069 0 0 0-32.563 16.292 155.9 155.9 0 0 0-51.184 53.546 163.049 163.049 0 0 0-21.226 71.443c-1.496 24.87 2.93 49.684 11.277 72.27a234.722 234.722 0 0 0 58.224 87.24 208.956 208.956 0 0 0 27.381 21.69 194.257 194.257 0 0 0 65.303 27.872 165.345 165.345 0 0 0 73.629-.258c3.063-.841 6.089-1.569 9.132-2.425 3.044-.855 5.995-1.922 8.967-2.974 2.972-1.051 5.919-2.216 8.859-3.433 2.94-1.218 5.78-2.573 8.6-4.006a188.112 188.112 0 0 0 32.09-20.302 195.604 195.604 0 0 0 49.766-57.575z"/></mask><filter id="uzhke" width="411" height="404" x="249" y="151" filterUnits="userSpaceOnUse"><feOffset dy="3" in="SourceGraphic" result="FeOffset1055Out"/><feGaussianBlur in="FeOffset1055Out" result="FeGaussianBlur1056Out" stdDeviation="2.4 2.4"/></filter><mask id="uzhkh" width="2" height="2" x="-1" y="-1"><path fill="#fff" d="M209 249h222v214H209z"/><path d="M423.191 318.21c-11.026-28.096-33.058-50.433-60.935-61.78a94.548 94.548 0 0 0-42.892-6.285c-7.05.62-14.018 1.947-20.8 3.964-1.675.485-3.321 1.085-4.973 1.602-1.652.517-3.243 1.216-4.85 1.82-1.608.605-3.17 1.334-4.761 2.003l-4.628 2.172a128.994 128.994 0 0 0-32.342 23.157 133.522 133.522 0 0 0-23.938 31.731l-2.331 4.513c-.713 1.544-1.48 3.108-2.142 4.67-.663 1.56-1.357 3.175-1.967 4.799-.61 1.623-1.224 3.256-1.777 4.925a103.682 103.682 0 0 0-4.56 20.705 90.774 90.774 0 0 0 5.474 42.781 94.936 94.936 0 0 0 24.55 35.784c10.706 9.79 23.556 16.879 36.835 21.379a136.668 136.668 0 0 0 60.81 5.62 121.664 121.664 0 0 0 19.848-4.442 113.107 113.107 0 0 0 36.541-19.336 96.274 96.274 0 0 0 26.863-33.412c.742-1.694 1.521-3.33 2.25-5.02.727-1.692 1.326-3.418 1.94-5.148.612-1.73 1.165-3.49 1.691-5.267a70.973 70.973 0 0 0 1.339-5.36 109.53 109.53 0 0 0 2.572-21.959 113.892 113.892 0 0 0-7.817-43.616z"/></mask><filter id="uzhkg" width="254" height="249" x="193" y="233" filterUnits="userSpaceOnUse"><feOffset dy="3" in="SourceGraphic" result="FeOffset1071Out"/><feGaussianBlur in="FeOffset1071Out" result="FeGaussianBlur1072Out" stdDeviation="2.4 2.4"/></filter></defs><g><g><g filter="url(#uzhka)"><path fill="none" d="M701.333 294.168C689.055 199.509 638.784 114.1 562.296 57.949 524.783 30.98 481.592 13.144 436.11 5.842a329.813 329.813 0 0 0-66.536-3.752c-5.483.209-10.967.788-16.404 1.112-5.438.324-10.83 1.25-16.198 1.876-5.369.625-10.692 1.667-16.06 2.5l-15.786 3.127a404.775 404.775 0 0 0-116.39 46.318 420.607 420.607 0 0 0-97.257 79.063l-10.554 12.066c-3.35 4.192-6.883 8.407-10.095 12.691-3.212 4.285-6.562 8.708-9.66 13.224-3.096 4.516-6.217 9.055-9.176 13.756a328.588 328.588 0 0 0-29.689 60.05A288.44 288.44 0 0 0 6.45 383.354c5.824 46.018 22.16 90.043 47.722 128.6 25.238 38.234 59.079 69.823 96.201 93.792 54.952 34.755 116.96 56.555 181.412 63.78a380.995 380.995 0 0 0 63.99 1.55 354.523 354.523 0 0 0 126.302-31.38c41.465-18.836 78.196-46.857 107.466-81.981 3.556-4.632 7.181-9.055 10.692-13.687 3.51-4.632 6.653-9.472 9.842-14.312 3.19-4.84 6.218-9.82 9.178-14.868 2.96-5.048 5.62-10.19 8.167-15.423A347.497 347.497 0 0 0 691.995 434a361.962 361.962 0 0 0 9.338-139.832z" mask="url(&quot;#uzhkb&quot;)"/><path fill="#93b3d6" fill-opacity=".08" d="M701.333 294.168C689.055 199.509 638.784 114.1 562.296 57.949 524.783 30.98 481.592 13.144 436.11 5.842a329.813 329.813 0 0 0-66.536-3.752c-5.483.209-10.967.788-16.404 1.112-5.438.324-10.83 1.25-16.198 1.876-5.369.625-10.692 1.667-16.06 2.5l-15.786 3.127a404.775 404.775 0 0 0-116.39 46.318 420.607 420.607 0 0 0-97.257 79.063l-10.554 12.066c-3.35 4.192-6.883 8.407-10.095 12.691-3.212 4.285-6.562 8.708-9.66 13.224-3.096 4.516-6.217 9.055-9.176 13.756a328.588 328.588 0 0 0-29.689 60.05A288.44 288.44 0 0 0 6.45 383.354c5.824 46.018 22.16 90.043 47.722 128.6 25.238 38.234 59.079 69.823 96.201 93.792 54.952 34.755 116.96 56.555 181.412 63.78a380.995 380.995 0 0 0 63.99 1.55 354.523 354.523 0 0 0 126.302-31.38c41.465-18.836 78.196-46.857 107.466-81.981 3.556-4.632 7.181-9.055 10.692-13.687 3.51-4.632 6.653-9.472 9.842-14.312 3.19-4.84 6.218-9.82 9.178-14.868 2.96-5.048 5.62-10.19 8.167-15.423A347.497 347.497 0 0 0 691.995 434a361.962 361.962 0 0 0 9.338-139.832z"/></g><path fill="#eaebf2" d="M701.333 294.168C689.055 199.509 638.784 114.1 562.296 57.949 524.783 30.98 481.592 13.144 436.11 5.842a329.813 329.813 0 0 0-66.536-3.752c-5.483.209-10.967.788-16.404 1.112-5.438.324-10.83 1.25-16.198 1.876-5.369.625-10.692 1.667-16.06 2.5l-15.786 3.127a404.775 404.775 0 0 0-116.39 46.318 420.607 420.607 0 0 0-97.257 79.063l-10.554 12.066c-3.35 4.192-6.883 8.407-10.095 12.691-3.212 4.285-6.562 8.708-9.66 13.224-3.096 4.516-6.217 9.055-9.176 13.756a328.588 328.588 0 0 0-29.689 60.05A288.44 288.44 0 0 0 6.45 383.354c5.824 46.018 22.16 90.043 47.722 128.6 25.238 38.234 59.079 69.823 96.201 93.792 54.952 34.755 116.96 56.555 181.412 63.78a380.995 380.995 0 0 0 63.99 1.55 354.523 354.523 0 0 0 126.302-31.38c41.465-18.836 78.196-46.857 107.466-81.981 3.556-4.632 7.181-9.055 10.692-13.687 3.51-4.632 6.653-9.472 9.842-14.312 3.19-4.84 6.218-9.82 9.178-14.868 2.96-5.048 5.62-10.19 8.167-15.423A347.497 347.497 0 0 0 691.995 434a361.962 361.962 0 0 0 9.338-139.832z"/></g><g><g filter="url(#uzhkc)"><path fill="none" d="M558.863 199.43c-40.03-60.648-103.097-102.224-174.428-114.99a227.636 227.636 0 0 0-104.156 6.668 253.56 253.56 0 0 0-47.003 19.747c-3.7 1.982-7.278 4.217-10.909 6.262-3.63 2.046-7.029 4.488-10.512 6.716-3.482 2.228-6.795 4.726-10.208 7.097l-9.81 7.433a310.568 310.568 0 0 0-64.576 70.724 321.47 321.47 0 0 0-40.49 86.711l-3.232 11.795c-.904 3.991-1.927 8.06-2.706 12.069-.779 4.008-1.606 8.158-2.229 12.286-.623 4.129-1.254 8.28-1.72 12.49a249.626 249.626 0 0 0-.375 51.042 218.551 218.551 0 0 0 34.308 98.01 228.571 228.571 0 0 0 75.728 71.982c30.113 17.696 63.923 27.96 97.448 31.91a329.047 329.047 0 0 0 146.023-17.204 292.928 292.928 0 0 0 44.517-20.398 272.32 272.32 0 0 0 76.376-63.828 231.791 231.791 0 0 0 46.537-92.132c.9-4.361 1.916-8.603 2.784-12.95.868-4.346 1.415-8.712 1.992-13.093.578-4.38.999-8.803 1.35-13.25.35-4.447.464-8.857.469-13.292a263.707 263.707 0 0 0-4.936-53.003 274.21 274.21 0 0 0-40.242-98.803z" mask="url(&quot;#uzhkd&quot;)"/><path fill="#93b3d6" fill-opacity=".08" d="M558.863 199.43c-40.03-60.648-103.097-102.224-174.428-114.99a227.636 227.636 0 0 0-104.156 6.668 253.56 253.56 0 0 0-47.003 19.747c-3.7 1.982-7.278 4.217-10.909 6.262-3.63 2.046-7.029 4.488-10.512 6.716-3.482 2.228-6.795 4.726-10.208 7.097l-9.81 7.433a310.568 310.568 0 0 0-64.576 70.724 321.47 321.47 0 0 0-40.49 86.711l-3.232 11.795c-.904 3.991-1.927 8.06-2.706 12.069-.779 4.008-1.606 8.158-2.229 12.286-.623 4.129-1.254 8.28-1.72 12.49a249.626 249.626 0 0 0-.375 51.042 218.551 218.551 0 0 0 34.308 98.01 228.571 228.571 0 0 0 75.728 71.982c30.113 17.696 63.923 27.96 97.448 31.91a329.047 329.047 0 0 0 146.023-17.204 292.928 292.928 0 0 0 44.517-20.398 272.32 272.32 0 0 0 76.376-63.828 231.791 231.791 0 0 0 46.537-92.132c.9-4.361 1.916-8.603 2.784-12.95.868-4.346 1.415-8.712 1.992-13.093.578-4.38.999-8.803 1.35-13.25.35-4.447.464-8.857.469-13.292a263.707 263.707 0 0 0-4.936-53.003 274.21 274.21 0 0 0-40.242-98.803z"/></g><path fill="#fff" d="M558.863 199.43c-40.03-60.648-103.097-102.224-174.428-114.99a227.636 227.636 0 0 0-104.156 6.668 253.56 253.56 0 0 0-47.003 19.747c-3.7 1.982-7.278 4.217-10.909 6.262-3.63 2.046-7.029 4.488-10.512 6.716-3.482 2.228-6.795 4.726-10.208 7.097l-9.81 7.433a310.568 310.568 0 0 0-64.576 70.724 321.47 321.47 0 0 0-40.49 86.711l-3.232 11.795c-.904 3.991-1.927 8.06-2.706 12.069-.779 4.008-1.606 8.158-2.229 12.286-.623 4.129-1.254 8.28-1.72 12.49a249.626 249.626 0 0 0-.375 51.042 218.551 218.551 0 0 0 34.308 98.01 228.571 228.571 0 0 0 75.728 71.982c30.113 17.696 63.923 27.96 97.448 31.91a329.047 329.047 0 0 0 146.023-17.204 292.928 292.928 0 0 0 44.517-20.398 272.32 272.32 0 0 0 76.376-63.828 231.791 231.791 0 0 0 46.537-92.132c.9-4.361 1.916-8.603 2.784-12.95.868-4.346 1.415-8.712 1.992-13.093.578-4.38.999-8.803 1.35-13.25.35-4.447.464-8.857.469-13.292a263.707 263.707 0 0 0-4.936-53.003 274.21 274.21 0 0 0-40.242-98.803z"/></g><g><g filter="url(#uzhke)"><path fill="none" d="M618.622 440.458c25.582-45.083 31.584-98.632 16.597-148.104a162.381 162.381 0 0 0-37.97-64.041 180.875 180.875 0 0 0-27.772-23.48c-2.458-1.71-5.037-3.26-7.513-4.905-2.476-1.645-5.128-3.014-7.672-4.506-2.545-1.492-5.205-2.788-7.817-4.19l-7.902-3.828a221.54 221.54 0 0 0-65.864-18.14 229.317 229.317 0 0 0-68.225 2.346l-8.543 1.766c-2.83.718-5.747 1.385-8.547 2.188-2.8.803-5.706 1.622-8.532 2.563-2.825.94-5.669 1.885-8.495 2.951a178.069 178.069 0 0 0-32.563 16.292 155.9 155.9 0 0 0-51.184 53.546 163.049 163.049 0 0 0-21.226 71.443c-1.496 24.87 2.93 49.684 11.277 72.27a234.722 234.722 0 0 0 58.224 87.24 208.956 208.956 0 0 0 27.381 21.69 194.257 194.257 0 0 0 65.303 27.872 165.345 165.345 0 0 0 73.629-.258c3.063-.841 6.089-1.569 9.132-2.425 3.044-.855 5.995-1.922 8.967-2.974 2.972-1.051 5.919-2.216 8.859-3.433 2.94-1.218 5.78-2.573 8.6-4.006a188.112 188.112 0 0 0 32.09-20.302 195.604 195.604 0 0 0 49.766-57.575z" mask="url(&quot;#uzhkf&quot;)"/><path fill="#93b3d6" fill-opacity=".08" d="M618.622 440.458c25.582-45.083 31.584-98.632 16.597-148.104a162.381 162.381 0 0 0-37.97-64.041 180.875 180.875 0 0 0-27.772-23.48c-2.458-1.71-5.037-3.26-7.513-4.905-2.476-1.645-5.128-3.014-7.672-4.506-2.545-1.492-5.205-2.788-7.817-4.19l-7.902-3.828a221.54 221.54 0 0 0-65.864-18.14 229.317 229.317 0 0 0-68.225 2.346l-8.543 1.766c-2.83.718-5.747 1.385-8.547 2.188-2.8.803-5.706 1.622-8.532 2.563-2.825.94-5.669 1.885-8.495 2.951a178.069 178.069 0 0 0-32.563 16.292 155.9 155.9 0 0 0-51.184 53.546 163.049 163.049 0 0 0-21.226 71.443c-1.496 24.87 2.93 49.684 11.277 72.27a234.722 234.722 0 0 0 58.224 87.24 208.956 208.956 0 0 0 27.381 21.69 194.257 194.257 0 0 0 65.303 27.872 165.345 165.345 0 0 0 73.629-.258c3.063-.841 6.089-1.569 9.132-2.425 3.044-.855 5.995-1.922 8.967-2.974 2.972-1.051 5.919-2.216 8.859-3.433 2.94-1.218 5.78-2.573 8.6-4.006a188.112 188.112 0 0 0 32.09-20.302 195.604 195.604 0 0 0 49.766-57.575z"/></g><path fill="#039" d="M618.622 440.458c25.582-45.083 31.584-98.632 16.597-148.104a162.381 162.381 0 0 0-37.97-64.041 180.875 180.875 0 0 0-27.772-23.48c-2.458-1.71-5.037-3.26-7.513-4.905-2.476-1.645-5.128-3.014-7.672-4.506-2.545-1.492-5.205-2.788-7.817-4.19l-7.902-3.828a221.54 221.54 0 0 0-65.864-18.14 229.317 229.317 0 0 0-68.225 2.346l-8.543 1.766c-2.83.718-5.747 1.385-8.547 2.188-2.8.803-5.706 1.622-8.532 2.563-2.825.94-5.669 1.885-8.495 2.951a178.069 178.069 0 0 0-32.563 16.292 155.9 155.9 0 0 0-51.184 53.546 163.049 163.049 0 0 0-21.226 71.443c-1.496 24.87 2.93 49.684 11.277 72.27a234.722 234.722 0 0 0 58.224 87.24 208.956 208.956 0 0 0 27.381 21.69 194.257 194.257 0 0 0 65.303 27.872 165.345 165.345 0 0 0 73.629-.258c3.063-.841 6.089-1.569 9.132-2.425 3.044-.855 5.995-1.922 8.967-2.974 2.972-1.051 5.919-2.216 8.859-3.433 2.94-1.218 5.78-2.573 8.6-4.006a188.112 188.112 0 0 0 32.09-20.302 195.604 195.604 0 0 0 49.766-57.575z"/></g><g><g filter="url(#uzhkg)"><path fill="none" d="M423.191 318.21c-11.026-28.096-33.058-50.433-60.935-61.78a94.548 94.548 0 0 0-42.892-6.285c-7.05.62-14.018 1.947-20.8 3.964-1.675.485-3.321 1.085-4.973 1.602-1.652.517-3.243 1.216-4.85 1.82-1.608.605-3.17 1.334-4.761 2.003l-4.628 2.172a128.994 128.994 0 0 0-32.342 23.157 133.522 133.522 0 0 0-23.938 31.731l-2.331 4.513c-.713 1.544-1.48 3.108-2.142 4.67-.663 1.56-1.357 3.175-1.967 4.799-.61 1.623-1.224 3.256-1.777 4.925a103.682 103.682 0 0 0-4.56 20.705 90.774 90.774 0 0 0 5.474 42.781 94.936 94.936 0 0 0 24.55 35.784c10.706 9.79 23.556 16.879 36.835 21.379a136.668 136.668 0 0 0 60.81 5.62 121.664 121.664 0 0 0 19.848-4.442 113.107 113.107 0 0 0 36.541-19.336 96.274 96.274 0 0 0 26.863-33.412c.742-1.694 1.521-3.33 2.25-5.02.727-1.692 1.326-3.418 1.94-5.148.612-1.73 1.165-3.49 1.691-5.267a70.973 70.973 0 0 0 1.339-5.36 109.53 109.53 0 0 0 2.572-21.959 113.892 113.892 0 0 0-7.817-43.616z" mask="url(&quot;#uzhkh&quot;)"/><path fill="#93b3d6" fill-opacity=".08" d="M423.191 318.21c-11.026-28.096-33.058-50.433-60.935-61.78a94.548 94.548 0 0 0-42.892-6.285c-7.05.62-14.018 1.947-20.8 3.964-1.675.485-3.321 1.085-4.973 1.602-1.652.517-3.243 1.216-4.85 1.82-1.608.605-3.17 1.334-4.761 2.003l-4.628 2.172a128.994 128.994 0 0 0-32.342 23.157 133.522 133.522 0 0 0-23.938 31.731l-2.331 4.513c-.713 1.544-1.48 3.108-2.142 4.67-.663 1.56-1.357 3.175-1.967 4.799-.61 1.623-1.224 3.256-1.777 4.925a103.682 103.682 0 0 0-4.56 20.705 90.774 90.774 0 0 0 5.474 42.781 94.936 94.936 0 0 0 24.55 35.784c10.706 9.79 23.556 16.879 36.835 21.379a136.668 136.668 0 0 0 60.81 5.62 121.664 121.664 0 0 0 19.848-4.442 113.107 113.107 0 0 0 36.541-19.336 96.274 96.274 0 0 0 26.863-33.412c.742-1.694 1.521-3.33 2.25-5.02.727-1.692 1.326-3.418 1.94-5.148.612-1.73 1.165-3.49 1.691-5.267a70.973 70.973 0 0 0 1.339-5.36 109.53 109.53 0 0 0 2.572-21.959 113.892 113.892 0 0 0-7.817-43.616z"/></g><path fill="#323232" d="M423.191 318.21c-11.026-28.096-33.058-50.433-60.935-61.78a94.548 94.548 0 0 0-42.892-6.285c-7.05.62-14.018 1.947-20.8 3.964-1.675.485-3.321 1.085-4.973 1.602-1.652.517-3.243 1.216-4.85 1.82-1.608.605-3.17 1.334-4.761 2.003l-4.628 2.172a128.994 128.994 0 0 0-32.342 23.157 133.522 133.522 0 0 0-23.938 31.731l-2.331 4.513c-.713 1.544-1.48 3.108-2.142 4.67-.663 1.56-1.357 3.175-1.967 4.799-.61 1.623-1.224 3.256-1.777 4.925a103.682 103.682 0 0 0-4.56 20.705 90.774 90.774 0 0 0 5.474 42.781 94.936 94.936 0 0 0 24.55 35.784c10.706 9.79 23.556 16.879 36.835 21.379a136.668 136.668 0 0 0 60.81 5.62 121.664 121.664 0 0 0 19.848-4.442 113.107 113.107 0 0 0 36.541-19.336 96.274 96.274 0 0 0 26.863-33.412c.742-1.694 1.521-3.33 2.25-5.02.727-1.692 1.326-3.418 1.94-5.148.612-1.73 1.165-3.49 1.691-5.267a70.973 70.973 0 0 0 1.339-5.36 109.53 109.53 0 0 0 2.572-21.959 113.892 113.892 0 0 0-7.817-43.616z"/></g></g></svg>