<svg xmlns="http://www.w3.org/2000/svg" width="350" height="312.542" viewBox="0 0 350 312.542">
  <g id="Logo_w_name" data-name="Logo w name" transform="translate(-508 -255.458)">
    <g id="ASG_logo" data-name="ASG logo" transform="translate(556 255.458)">
      <g id="Layer_1" data-name="Layer 1" transform="translate(0 0)">
        <path id="Path_24" data-name="Path 24" d="M313.358,104.809A124.635,124.635,0,0,0,263.073,20.17,107.823,107.823,0,0,0,217.435,1.5,120.46,120.46,0,0,0,193.371.156c-1.983.075-3.966.282-5.933.4s-3.917.448-5.858.672-3.867.6-5.808.9l-5.709,1.12a146.93,146.93,0,0,0-42.1,16.6,151.735,151.735,0,0,0-35.158,28.3L88.975,52.49c-1.212,1.5-2.489,3.012-3.651,4.547s-2.373,3.12-3.493,4.738S79.582,65.02,78.511,66.7A117.3,117.3,0,0,0,67.774,88.221a102.362,102.362,0,0,0-5.734,48.543A107.25,107.25,0,0,0,79.3,182.842a118.311,118.311,0,0,0,34.793,33.606A156.05,156.05,0,0,0,179.7,239.3a139.83,139.83,0,0,0,23.143.556,129.322,129.322,0,0,0,45.68-11.244,109.59,109.59,0,0,0,38.867-29.375c1.286-1.66,2.6-3.244,3.867-4.9s2.406-3.394,3.56-5.128,2.249-3.518,3.319-5.327,2.033-3.651,2.954-5.526a123.95,123.95,0,0,0,8.887-23.442A128.51,128.51,0,0,0,313.358,104.809Zm-100,50.02a14.488,14.488,0,0,1-12.679,6.638H102.418q-10.281,0-16.148-7.227t-5.875-18.073a23.192,23.192,0,0,1,6.34-16.6,20.745,20.745,0,0,1,15.683-6.7H134.9q-3.195-6.414-8.68-6.406H94.684l-4.39-12.679h35.847a19.832,19.832,0,0,1,15.517,6.8,24.357,24.357,0,0,1,6.066,16.82V142.6h-12v-17H102.418q-4.979,0-7.468,3.419a14.438,14.438,0,0,0-2.489,8.8,11.211,11.211,0,0,0,2.937,7.717,9.128,9.128,0,0,0,7.07,3.319h96.322q6,0,6.008-8.14,0-7.219-5.344-7.211H170.776a15.052,15.052,0,0,1-12.281-6.008,20.952,20.952,0,0,1-4.514-13.642,21.641,21.641,0,0,1,4.672-13.882A14.8,14.8,0,0,1,170.8,94.088H285.436l-4.39,12.679h-108.4q-6,0-6.008,6.813,0,7.211,5.211,7.2h28.835a14.936,14.936,0,0,1,12.148,5.809,21.392,21.392,0,0,1,4.672,13.816,24.827,24.827,0,0,1-4.141,14.422Zm63.794,6.8H247.788q-9.742,0-15.55-6.456t-5.809-16.72v-25.5h12.015v25.085a11.941,11.941,0,0,0,2.489,7.651,8.538,8.538,0,0,0,6.763,3.261l27.856.664q6.422.133,7.095-8.8.539-8.555-6.68-8.547H254.476L259,119.587h18.172a16.617,16.617,0,0,1,13.617,6.273q4.539,5.875,4.539,14.679Q295.31,161.641,277.154,161.633Z" transform="translate(-61.26 -0.037)" fill="#fff"/>
      </g>
    </g>
    <text id="Accounting_Service_Group" data-name="Accounting Service Group" transform="translate(509 561)" fill="#fff" font-size="30" font-family="ArialMT, Arial"><tspan x="0" y="0">Accounting Service Group</tspan></text>
  </g>
</svg>
