<svg xmlns="http://www.w3.org/2000/svg" width="709" height="679" viewBox="0 0 709 679"><defs><mask id="pkurb" width="2" height="2" x="-1" y="-1"><path fill="#fff" d="M4 1h701v671H4z"/><path d="M701.333 294.168C689.055 199.509 638.784 114.1 562.296 57.949 524.783 30.98 481.592 13.144 436.11 5.842a329.813 329.813 0 0 0-66.536-3.752c-5.483.209-10.967.788-16.404 1.112-5.438.324-10.83 1.25-16.198 1.876-5.369.625-10.692 1.667-16.06 2.5l-15.786 3.127a404.775 404.775 0 0 0-116.39 46.318 420.607 420.607 0 0 0-97.257 79.063l-10.554 12.066c-3.35 4.192-6.883 8.407-10.095 12.691-3.212 4.285-6.562 8.708-9.66 13.224-3.096 4.516-6.217 9.055-9.176 13.756a328.588 328.588 0 0 0-29.689 60.05A288.44 288.44 0 0 0 6.45 383.354c5.824 46.018 22.16 90.043 47.722 128.6 25.238 38.234 59.079 69.823 96.201 93.792 54.952 34.755 116.96 56.555 181.412 63.78a380.995 380.995 0 0 0 63.99 1.55 354.523 354.523 0 0 0 126.302-31.38c41.465-18.836 78.196-46.857 107.466-81.981 3.556-4.632 7.181-9.055 10.692-13.687 3.51-4.632 6.653-9.472 9.842-14.312 3.19-4.84 6.218-9.82 9.178-14.868 2.96-5.048 5.62-10.19 8.167-15.423A347.497 347.497 0 0 0 691.995 434a361.962 361.962 0 0 0 9.338-139.832z"/></mask><filter id="pkura" width="733" height="706" x="-12" y="-15" filterUnits="userSpaceOnUse"><feOffset dy="3" in="SourceGraphic" result="FeOffset1023Out"/><feGaussianBlur in="FeOffset1023Out" result="FeGaussianBlur1024Out" stdDeviation="2.4 2.4"/></filter></defs><g><g><g filter="url(#pkura)"><path fill="none" d="M701.333 294.168C689.055 199.509 638.784 114.1 562.296 57.949 524.783 30.98 481.592 13.144 436.11 5.842a329.813 329.813 0 0 0-66.536-3.752c-5.483.209-10.967.788-16.404 1.112-5.438.324-10.83 1.25-16.198 1.876-5.369.625-10.692 1.667-16.06 2.5l-15.786 3.127a404.775 404.775 0 0 0-116.39 46.318 420.607 420.607 0 0 0-97.257 79.063l-10.554 12.066c-3.35 4.192-6.883 8.407-10.095 12.691-3.212 4.285-6.562 8.708-9.66 13.224-3.096 4.516-6.217 9.055-9.176 13.756a328.588 328.588 0 0 0-29.689 60.05A288.44 288.44 0 0 0 6.45 383.354c5.824 46.018 22.16 90.043 47.722 128.6 25.238 38.234 59.079 69.823 96.201 93.792 54.952 34.755 116.96 56.555 181.412 63.78a380.995 380.995 0 0 0 63.99 1.55 354.523 354.523 0 0 0 126.302-31.38c41.465-18.836 78.196-46.857 107.466-81.981 3.556-4.632 7.181-9.055 10.692-13.687 3.51-4.632 6.653-9.472 9.842-14.312 3.19-4.84 6.218-9.82 9.178-14.868 2.96-5.048 5.62-10.19 8.167-15.423A347.497 347.497 0 0 0 691.995 434a361.962 361.962 0 0 0 9.338-139.832z" mask="url(&quot;#pkurb&quot;)"/><path fill="#93b3d6" fill-opacity=".08" d="M701.333 294.168C689.055 199.509 638.784 114.1 562.296 57.949 524.783 30.98 481.592 13.144 436.11 5.842a329.813 329.813 0 0 0-66.536-3.752c-5.483.209-10.967.788-16.404 1.112-5.438.324-10.83 1.25-16.198 1.876-5.369.625-10.692 1.667-16.06 2.5l-15.786 3.127a404.775 404.775 0 0 0-116.39 46.318 420.607 420.607 0 0 0-97.257 79.063l-10.554 12.066c-3.35 4.192-6.883 8.407-10.095 12.691-3.212 4.285-6.562 8.708-9.66 13.224-3.096 4.516-6.217 9.055-9.176 13.756a328.588 328.588 0 0 0-29.689 60.05A288.44 288.44 0 0 0 6.45 383.354c5.824 46.018 22.16 90.043 47.722 128.6 25.238 38.234 59.079 69.823 96.201 93.792 54.952 34.755 116.96 56.555 181.412 63.78a380.995 380.995 0 0 0 63.99 1.55 354.523 354.523 0 0 0 126.302-31.38c41.465-18.836 78.196-46.857 107.466-81.981 3.556-4.632 7.181-9.055 10.692-13.687 3.51-4.632 6.653-9.472 9.842-14.312 3.19-4.84 6.218-9.82 9.178-14.868 2.96-5.048 5.62-10.19 8.167-15.423A347.497 347.497 0 0 0 691.995 434a361.962 361.962 0 0 0 9.338-139.832z"/></g><path fill="#eaebf2" d="M701.333 294.168C689.055 199.509 638.784 114.1 562.296 57.949 524.783 30.98 481.592 13.144 436.11 5.842a329.813 329.813 0 0 0-66.536-3.752c-5.483.209-10.967.788-16.404 1.112-5.438.324-10.83 1.25-16.198 1.876-5.369.625-10.692 1.667-16.06 2.5l-15.786 3.127a404.775 404.775 0 0 0-116.39 46.318 420.607 420.607 0 0 0-97.257 79.063l-10.554 12.066c-3.35 4.192-6.883 8.407-10.095 12.691-3.212 4.285-6.562 8.708-9.66 13.224-3.096 4.516-6.217 9.055-9.176 13.756a328.588 328.588 0 0 0-29.689 60.05A288.44 288.44 0 0 0 6.45 383.354c5.824 46.018 22.16 90.043 47.722 128.6 25.238 38.234 59.079 69.823 96.201 93.792 54.952 34.755 116.96 56.555 181.412 63.78a380.995 380.995 0 0 0 63.99 1.55 354.523 354.523 0 0 0 126.302-31.38c41.465-18.836 78.196-46.857 107.466-81.981 3.556-4.632 7.181-9.055 10.692-13.687 3.51-4.632 6.653-9.472 9.842-14.312 3.19-4.84 6.218-9.82 9.178-14.868 2.96-5.048 5.62-10.19 8.167-15.423A347.497 347.497 0 0 0 691.995 434a361.962 361.962 0 0 0 9.338-139.832z"/></g></g></svg>