<svg xmlns="http://www.w3.org/2000/svg" width="230" height="222" viewBox="0 0 230 222"><defs><mask id="fk7sb" width="2" height="2" x="-1" y="-1"><path fill="#fff" d="M4 1h222v214H4z"/><path d="M218.191 70.21c-11.026-28.096-33.058-50.433-60.935-61.78a94.548 94.548 0 0 0-42.892-6.285c-7.05.62-14.018 1.947-20.8 3.964-1.675.485-3.321 1.085-4.973 1.602-1.652.517-3.243 1.216-4.85 1.82-1.608.605-3.17 1.334-4.761 2.003l-4.628 2.172A128.994 128.994 0 0 0 42.01 36.863a133.522 133.522 0 0 0-23.938 31.731l-2.331 4.513c-.713 1.544-1.48 3.108-2.142 4.67-.663 1.56-1.357 3.175-1.967 4.799-.61 1.623-1.224 3.256-1.777 4.925a103.682 103.682 0 0 0-4.56 20.705 90.774 90.774 0 0 0 5.474 42.781 94.936 94.936 0 0 0 24.55 35.784c10.706 9.79 23.556 16.879 36.835 21.379a136.668 136.668 0 0 0 60.81 5.62 121.664 121.664 0 0 0 19.848-4.442 113.107 113.107 0 0 0 36.541-19.336 96.274 96.274 0 0 0 26.863-33.412c.742-1.694 1.521-3.33 2.25-5.02.727-1.692 1.326-3.418 1.94-5.148.612-1.73 1.165-3.49 1.691-5.267a70.973 70.973 0 0 0 1.339-5.36 109.53 109.53 0 0 0 2.572-21.959 113.892 113.892 0 0 0-7.817-43.616z"/></mask><filter id="fk7sa" width="254" height="249" x="-12" y="-15" filterUnits="userSpaceOnUse"><feOffset dy="3" in="SourceGraphic" result="FeOffset1103Out"/><feGaussianBlur in="FeOffset1103Out" result="FeGaussianBlur1104Out" stdDeviation="2.4 2.4"/></filter></defs><g><g><g filter="url(#fk7sa)"><path fill="none" d="M218.191 70.21c-11.026-28.096-33.058-50.433-60.935-61.78a94.548 94.548 0 0 0-42.892-6.285c-7.05.62-14.018 1.947-20.8 3.964-1.675.485-3.321 1.085-4.973 1.602-1.652.517-3.243 1.216-4.85 1.82-1.608.605-3.17 1.334-4.761 2.003l-4.628 2.172A128.994 128.994 0 0 0 42.01 36.863a133.522 133.522 0 0 0-23.938 31.731l-2.331 4.513c-.713 1.544-1.48 3.108-2.142 4.67-.663 1.56-1.357 3.175-1.967 4.799-.61 1.623-1.224 3.256-1.777 4.925a103.682 103.682 0 0 0-4.56 20.705 90.774 90.774 0 0 0 5.474 42.781 94.936 94.936 0 0 0 24.55 35.784c10.706 9.79 23.556 16.879 36.835 21.379a136.668 136.668 0 0 0 60.81 5.62 121.664 121.664 0 0 0 19.848-4.442 113.107 113.107 0 0 0 36.541-19.336 96.274 96.274 0 0 0 26.863-33.412c.742-1.694 1.521-3.33 2.25-5.02.727-1.692 1.326-3.418 1.94-5.148.612-1.73 1.165-3.49 1.691-5.267a70.973 70.973 0 0 0 1.339-5.36 109.53 109.53 0 0 0 2.572-21.959 113.892 113.892 0 0 0-7.817-43.616z" mask="url(&quot;#fk7sb&quot;)"/><path fill="#93b3d6" fill-opacity=".08" d="M218.191 70.21c-11.026-28.096-33.058-50.433-60.935-61.78a94.548 94.548 0 0 0-42.892-6.285c-7.05.62-14.018 1.947-20.8 3.964-1.675.485-3.321 1.085-4.973 1.602-1.652.517-3.243 1.216-4.85 1.82-1.608.605-3.17 1.334-4.761 2.003l-4.628 2.172A128.994 128.994 0 0 0 42.01 36.863a133.522 133.522 0 0 0-23.938 31.731l-2.331 4.513c-.713 1.544-1.48 3.108-2.142 4.67-.663 1.56-1.357 3.175-1.967 4.799-.61 1.623-1.224 3.256-1.777 4.925a103.682 103.682 0 0 0-4.56 20.705 90.774 90.774 0 0 0 5.474 42.781 94.936 94.936 0 0 0 24.55 35.784c10.706 9.79 23.556 16.879 36.835 21.379a136.668 136.668 0 0 0 60.81 5.62 121.664 121.664 0 0 0 19.848-4.442 113.107 113.107 0 0 0 36.541-19.336 96.274 96.274 0 0 0 26.863-33.412c.742-1.694 1.521-3.33 2.25-5.02.727-1.692 1.326-3.418 1.94-5.148.612-1.73 1.165-3.49 1.691-5.267a70.973 70.973 0 0 0 1.339-5.36 109.53 109.53 0 0 0 2.572-21.959 113.892 113.892 0 0 0-7.817-43.616z"/></g><path fill="#323232" d="M218.191 70.21c-11.026-28.096-33.058-50.433-60.935-61.78a94.548 94.548 0 0 0-42.892-6.285c-7.05.62-14.018 1.947-20.8 3.964-1.675.485-3.321 1.085-4.973 1.602-1.652.517-3.243 1.216-4.85 1.82-1.608.605-3.17 1.334-4.761 2.003l-4.628 2.172A128.994 128.994 0 0 0 42.01 36.863a133.522 133.522 0 0 0-23.938 31.731l-2.331 4.513c-.713 1.544-1.48 3.108-2.142 4.67-.663 1.56-1.357 3.175-1.967 4.799-.61 1.623-1.224 3.256-1.777 4.925a103.682 103.682 0 0 0-4.56 20.705 90.774 90.774 0 0 0 5.474 42.781 94.936 94.936 0 0 0 24.55 35.784c10.706 9.79 23.556 16.879 36.835 21.379a136.668 136.668 0 0 0 60.81 5.62 121.664 121.664 0 0 0 19.848-4.442 113.107 113.107 0 0 0 36.541-19.336 96.274 96.274 0 0 0 26.863-33.412c.742-1.694 1.521-3.33 2.25-5.02.727-1.692 1.326-3.418 1.94-5.148.612-1.73 1.165-3.49 1.691-5.267a70.973 70.973 0 0 0 1.339-5.36 109.53 109.53 0 0 0 2.572-21.959 113.892 113.892 0 0 0-7.817-43.616z"/></g></g></svg>