<svg xmlns="http://www.w3.org/2000/svg" width="387" height="377" viewBox="0 0 387 377"><defs><mask id="bupmb" width="2" height="2" x="-1" y="-1"><path fill="#fff" d="M4 1h379v369H4z"/><path d="M357.622 274.458c25.582-45.083 31.584-98.632 16.597-148.104a162.381 162.381 0 0 0-37.97-64.041 180.875 180.875 0 0 0-27.772-23.48c-2.458-1.71-5.037-3.26-7.513-4.905-2.476-1.645-5.128-3.014-7.672-4.506-2.545-1.492-5.205-2.788-7.817-4.19l-7.902-3.828a221.54 221.54 0 0 0-65.864-18.14 229.317 229.317 0 0 0-68.225 2.346l-8.543 1.766c-2.83.718-5.747 1.385-8.547 2.188-2.8.803-5.706 1.622-8.532 2.563-2.825.94-5.669 1.885-8.495 2.951A178.069 178.069 0 0 0 76.804 31.37 155.9 155.9 0 0 0 25.62 84.916a163.049 163.049 0 0 0-21.226 71.443c-1.496 24.87 2.93 49.684 11.277 72.27a234.722 234.722 0 0 0 58.224 87.24 208.956 208.956 0 0 0 27.381 21.69 194.257 194.257 0 0 0 65.303 27.872 165.345 165.345 0 0 0 73.629-.258c3.063-.841 6.089-1.569 9.132-2.425 3.044-.855 5.995-1.922 8.967-2.974 2.972-1.051 5.919-2.216 8.859-3.433 2.94-1.218 5.78-2.573 8.6-4.006a188.112 188.112 0 0 0 32.09-20.302 195.604 195.604 0 0 0 49.766-57.575z"/></mask><filter id="bupma" width="411" height="404" x="-12" y="-15" filterUnits="userSpaceOnUse"><feOffset dy="3" in="SourceGraphic" result="FeOffset1083Out"/><feGaussianBlur in="FeOffset1083Out" result="FeGaussianBlur1084Out" stdDeviation="2.4 2.4"/></filter></defs><g><g><g filter="url(#bupma)"><path fill="none" d="M357.622 274.458c25.582-45.083 31.584-98.632 16.597-148.104a162.381 162.381 0 0 0-37.97-64.041 180.875 180.875 0 0 0-27.772-23.48c-2.458-1.71-5.037-3.26-7.513-4.905-2.476-1.645-5.128-3.014-7.672-4.506-2.545-1.492-5.205-2.788-7.817-4.19l-7.902-3.828a221.54 221.54 0 0 0-65.864-18.14 229.317 229.317 0 0 0-68.225 2.346l-8.543 1.766c-2.83.718-5.747 1.385-8.547 2.188-2.8.803-5.706 1.622-8.532 2.563-2.825.94-5.669 1.885-8.495 2.951A178.069 178.069 0 0 0 76.804 31.37 155.9 155.9 0 0 0 25.62 84.916a163.049 163.049 0 0 0-21.226 71.443c-1.496 24.87 2.93 49.684 11.277 72.27a234.722 234.722 0 0 0 58.224 87.24 208.956 208.956 0 0 0 27.381 21.69 194.257 194.257 0 0 0 65.303 27.872 165.345 165.345 0 0 0 73.629-.258c3.063-.841 6.089-1.569 9.132-2.425 3.044-.855 5.995-1.922 8.967-2.974 2.972-1.051 5.919-2.216 8.859-3.433 2.94-1.218 5.78-2.573 8.6-4.006a188.112 188.112 0 0 0 32.09-20.302 195.604 195.604 0 0 0 49.766-57.575z" mask="url(&quot;#bupmb&quot;)"/><path fill="#93b3d6" fill-opacity=".08" d="M357.622 274.458c25.582-45.083 31.584-98.632 16.597-148.104a162.381 162.381 0 0 0-37.97-64.041 180.875 180.875 0 0 0-27.772-23.48c-2.458-1.71-5.037-3.26-7.513-4.905-2.476-1.645-5.128-3.014-7.672-4.506-2.545-1.492-5.205-2.788-7.817-4.19l-7.902-3.828a221.54 221.54 0 0 0-65.864-18.14 229.317 229.317 0 0 0-68.225 2.346l-8.543 1.766c-2.83.718-5.747 1.385-8.547 2.188-2.8.803-5.706 1.622-8.532 2.563-2.825.94-5.669 1.885-8.495 2.951A178.069 178.069 0 0 0 76.804 31.37 155.9 155.9 0 0 0 25.62 84.916a163.049 163.049 0 0 0-21.226 71.443c-1.496 24.87 2.93 49.684 11.277 72.27a234.722 234.722 0 0 0 58.224 87.24 208.956 208.956 0 0 0 27.381 21.69 194.257 194.257 0 0 0 65.303 27.872 165.345 165.345 0 0 0 73.629-.258c3.063-.841 6.089-1.569 9.132-2.425 3.044-.855 5.995-1.922 8.967-2.974 2.972-1.051 5.919-2.216 8.859-3.433 2.94-1.218 5.78-2.573 8.6-4.006a188.112 188.112 0 0 0 32.09-20.302 195.604 195.604 0 0 0 49.766-57.575z"/></g><path fill="#039" d="M357.622 274.458c25.582-45.083 31.584-98.632 16.597-148.104a162.381 162.381 0 0 0-37.97-64.041 180.875 180.875 0 0 0-27.772-23.48c-2.458-1.71-5.037-3.26-7.513-4.905-2.476-1.645-5.128-3.014-7.672-4.506-2.545-1.492-5.205-2.788-7.817-4.19l-7.902-3.828a221.54 221.54 0 0 0-65.864-18.14 229.317 229.317 0 0 0-68.225 2.346l-8.543 1.766c-2.83.718-5.747 1.385-8.547 2.188-2.8.803-5.706 1.622-8.532 2.563-2.825.94-5.669 1.885-8.495 2.951A178.069 178.069 0 0 0 76.804 31.37 155.9 155.9 0 0 0 25.62 84.916a163.049 163.049 0 0 0-21.226 71.443c-1.496 24.87 2.93 49.684 11.277 72.27a234.722 234.722 0 0 0 58.224 87.24 208.956 208.956 0 0 0 27.381 21.69 194.257 194.257 0 0 0 65.303 27.872 165.345 165.345 0 0 0 73.629-.258c3.063-.841 6.089-1.569 9.132-2.425 3.044-.855 5.995-1.922 8.967-2.974 2.972-1.051 5.919-2.216 8.859-3.433 2.94-1.218 5.78-2.573 8.6-4.006a188.112 188.112 0 0 0 32.09-20.302 195.604 195.604 0 0 0 49.766-57.575z"/></g></g></svg>