<svg xmlns="http://www.w3.org/2000/svg" width="537" height="527" viewBox="0 0 537 527"><defs><mask id="h35lb" width="2" height="2" x="-1" y="-1"><path fill="#fff" d="M4 1h529v519H4z"/><path d="M487.863 119.43C447.833 58.781 384.766 17.205 313.435 4.44a227.636 227.636 0 0 0-104.156 6.668 253.56 253.56 0 0 0-47.003 19.747c-3.7 1.982-7.278 4.217-10.909 6.262-3.63 2.046-7.029 4.488-10.512 6.716-3.482 2.228-6.795 4.726-10.208 7.097l-9.81 7.433a310.568 310.568 0 0 0-64.576 70.724 321.47 321.47 0 0 0-40.49 86.711l-3.232 11.795c-.904 3.991-1.927 8.06-2.706 12.069-.779 4.008-1.606 8.158-2.229 12.286-.623 4.129-1.254 8.28-1.72 12.49a249.626 249.626 0 0 0-.375 51.042 218.551 218.551 0 0 0 34.308 98.01 228.571 228.571 0 0 0 75.728 71.982c30.113 17.696 63.923 27.96 97.448 31.91a329.047 329.047 0 0 0 146.023-17.204 292.928 292.928 0 0 0 44.517-20.398 272.32 272.32 0 0 0 76.376-63.828 231.791 231.791 0 0 0 46.537-92.132c.9-4.361 1.916-8.603 2.784-12.95.868-4.346 1.415-8.712 1.992-13.093.578-4.38.999-8.803 1.35-13.25.35-4.447.464-8.857.469-13.292a263.707 263.707 0 0 0-4.936-53.003 274.21 274.21 0 0 0-40.242-98.803z"/></mask><filter id="h35la" width="561" height="554" x="-12" y="-15" filterUnits="userSpaceOnUse"><feOffset dy="3" in="SourceGraphic" result="FeOffset1043Out"/><feGaussianBlur in="FeOffset1043Out" result="FeGaussianBlur1044Out" stdDeviation="2.4 2.4"/></filter></defs><g><g><g filter="url(#h35la)"><path fill="none" d="M487.863 119.43C447.833 58.781 384.766 17.205 313.435 4.44a227.636 227.636 0 0 0-104.156 6.668 253.56 253.56 0 0 0-47.003 19.747c-3.7 1.982-7.278 4.217-10.909 6.262-3.63 2.046-7.029 4.488-10.512 6.716-3.482 2.228-6.795 4.726-10.208 7.097l-9.81 7.433a310.568 310.568 0 0 0-64.576 70.724 321.47 321.47 0 0 0-40.49 86.711l-3.232 11.795c-.904 3.991-1.927 8.06-2.706 12.069-.779 4.008-1.606 8.158-2.229 12.286-.623 4.129-1.254 8.28-1.72 12.49a249.626 249.626 0 0 0-.375 51.042 218.551 218.551 0 0 0 34.308 98.01 228.571 228.571 0 0 0 75.728 71.982c30.113 17.696 63.923 27.96 97.448 31.91a329.047 329.047 0 0 0 146.023-17.204 292.928 292.928 0 0 0 44.517-20.398 272.32 272.32 0 0 0 76.376-63.828 231.791 231.791 0 0 0 46.537-92.132c.9-4.361 1.916-8.603 2.784-12.95.868-4.346 1.415-8.712 1.992-13.093.578-4.38.999-8.803 1.35-13.25.35-4.447.464-8.857.469-13.292a263.707 263.707 0 0 0-4.936-53.003 274.21 274.21 0 0 0-40.242-98.803z" mask="url(&quot;#h35lb&quot;)"/><path fill="#93b3d6" fill-opacity=".08" d="M487.863 119.43C447.833 58.781 384.766 17.205 313.435 4.44a227.636 227.636 0 0 0-104.156 6.668 253.56 253.56 0 0 0-47.003 19.747c-3.7 1.982-7.278 4.217-10.909 6.262-3.63 2.046-7.029 4.488-10.512 6.716-3.482 2.228-6.795 4.726-10.208 7.097l-9.81 7.433a310.568 310.568 0 0 0-64.576 70.724 321.47 321.47 0 0 0-40.49 86.711l-3.232 11.795c-.904 3.991-1.927 8.06-2.706 12.069-.779 4.008-1.606 8.158-2.229 12.286-.623 4.129-1.254 8.28-1.72 12.49a249.626 249.626 0 0 0-.375 51.042 218.551 218.551 0 0 0 34.308 98.01 228.571 228.571 0 0 0 75.728 71.982c30.113 17.696 63.923 27.96 97.448 31.91a329.047 329.047 0 0 0 146.023-17.204 292.928 292.928 0 0 0 44.517-20.398 272.32 272.32 0 0 0 76.376-63.828 231.791 231.791 0 0 0 46.537-92.132c.9-4.361 1.916-8.603 2.784-12.95.868-4.346 1.415-8.712 1.992-13.093.578-4.38.999-8.803 1.35-13.25.35-4.447.464-8.857.469-13.292a263.707 263.707 0 0 0-4.936-53.003 274.21 274.21 0 0 0-40.242-98.803z"/></g><path fill="#fff" d="M487.863 119.43C447.833 58.781 384.766 17.205 313.435 4.44a227.636 227.636 0 0 0-104.156 6.668 253.56 253.56 0 0 0-47.003 19.747c-3.7 1.982-7.278 4.217-10.909 6.262-3.63 2.046-7.029 4.488-10.512 6.716-3.482 2.228-6.795 4.726-10.208 7.097l-9.81 7.433a310.568 310.568 0 0 0-64.576 70.724 321.47 321.47 0 0 0-40.49 86.711l-3.232 11.795c-.904 3.991-1.927 8.06-2.706 12.069-.779 4.008-1.606 8.158-2.229 12.286-.623 4.129-1.254 8.28-1.72 12.49a249.626 249.626 0 0 0-.375 51.042 218.551 218.551 0 0 0 34.308 98.01 228.571 228.571 0 0 0 75.728 71.982c30.113 17.696 63.923 27.96 97.448 31.91a329.047 329.047 0 0 0 146.023-17.204 292.928 292.928 0 0 0 44.517-20.398 272.32 272.32 0 0 0 76.376-63.828 231.791 231.791 0 0 0 46.537-92.132c.9-4.361 1.916-8.603 2.784-12.95.868-4.346 1.415-8.712 1.992-13.093.578-4.38.999-8.803 1.35-13.25.35-4.447.464-8.857.469-13.292a263.707 263.707 0 0 0-4.936-53.003 274.21 274.21 0 0 0-40.242-98.803z"/></g></g></svg>