<?xml version="1.0" encoding="utf-8"?><svg xmlns="http://www.w3.org/2000/svg" xmlns:xlink="http://www.w3.org/1999/xlink"><symbol viewBox="0 0 1179.321 1118.256" id="ASG_logo_bg" xmlns="http://www.w3.org/2000/svg"><path data-name="Path 1036" d="M1174.32 488.047A580.571 580.571 0 0 0 940.083 93.784 502.259 502.259 0 0 0 727.49 6.815 561.124 561.124 0 0 0 615.396.553c-9.238.348-18.476 1.31-27.637 1.855s-18.244 2.088-27.289 3.131-18.012 2.783-27.057 4.175l-26.594 5.218a684.428 684.428 0 0 0-196.087 77.306 706.814 706.814 0 0 0-163.773 131.808l-17.858 20.293c-5.644 7-11.6 14.031-17.008 21.182s-11.055 14.534-16.273 22.071-10.475 15.113-15.461 22.96A546.424 546.424 0 0 0 30.34 410.779 476.824 476.824 0 0 0 3.633 636.9a499.591 499.591 0 0 0 80.4 214.641c42.518 63.816 99.532 116.539 162.072 156.545a726.911 726.911 0 0 0 305.63 106.451 651.343 651.343 0 0 0 107.8 2.59 602.4 602.4 0 0 0 212.786-52.375 510.49 510.49 0 0 0 181.051-136.832c5.991-7.731 12.1-15.113 18.012-22.844s11.209-15.809 16.582-23.888 10.475-16.389 15.461-24.815 9.47-17.007 13.76-25.743a577.383 577.383 0 0 0 41.4-109.2 598.623 598.623 0 0 0 15.733-233.383zm-465.809 233a67.489 67.489 0 0 1-59.062 30.923h-457.73q-47.891 0-75.219-33.667t-27.367-84.187q0-46.152 29.531-77.306a96.633 96.633 0 0 1 73.055-31.193h151.289q-14.881-29.879-40.431-29.84H155.694l-20.447-59.062h166.982a92.381 92.381 0 0 1 72.281 31.7q28.255 31.7 28.255 78.35v117.309h-55.892v-79.2H191.719q-23.192 0-34.788 15.925a67.256 67.256 0 0 0-11.6 40.973 52.221 52.221 0 0 0 13.683 35.948 42.519 42.519 0 0 0 32.932 15.461H640.64q27.946 0 27.985-37.919 0-33.628-24.893-33.59H510.14a70.117 70.117 0 0 1-57.2-27.986 97.6 97.6 0 0 1-21.027-63.546 100.807 100.807 0 0 1 21.762-64.667 68.919 68.919 0 0 1 56.588-27.367h533.993l-20.448 59.062H518.84q-27.947 0-27.985 31.734 0 33.59 24.274 33.551H649.45a69.576 69.576 0 0 1 56.59 27.059 99.648 99.648 0 0 1 21.762 64.358 115.65 115.65 0 0 1-19.288 67.179zm297.165 31.7H868.883q-45.379 0-72.436-30.072t-27.057-77.889V526.005h55.97v116.848a55.622 55.622 0 0 0 11.6 35.638 39.773 39.773 0 0 0 31.5 15.191l129.759 3.092q29.917.618 33.048-41.011 2.512-39.852-31.116-39.813H900.04l21.066-59.062h84.65q39.774 0 63.43 29.222 21.143 27.366 21.143 68.378-.079 98.295-84.652 98.256z" opacity=".03"/></symbol><symbol id="Rosymbols" viewBox="0 0 624 414" xmlns="http://www.w3.org/2000/svg"><style>.bst0{enable-background:new}.bst1{fill:#039}</style><g class="bst0"><path class="bst1" d="M9.6 13.7H4.2L3 17H1.2L6.1 4.2h1.5L12.5 17h-1.7l-1.2-3.3zm-4.9-1.4h4.4l-2.2-6-2.2 6zM23.2 17V4.2h4.2c1.4 0 2.4.3 3.1.9s1.1 1.4 1.1 2.5c0 .6-.2 1.1-.5 1.6s-.8.8-1.4 1.1c.7.2 1.2.6 1.6 1.1s.6 1.2.6 1.9c0 1.1-.4 2.1-1.1 2.7s-1.8 1-3.2 1h-4.4zm1.7-7.3h2.5c.7 0 1.3-.2 1.8-.6s.7-.9.7-1.5c0-.7-.2-1.2-.6-1.5-.4-.3-1-.5-1.9-.5h-2.5v4.1zm0 1.3v4.6h2.8c.8 0 1.4-.2 1.9-.6s.7-1 .7-1.7c0-1.5-.8-2.3-2.5-2.3h-2.9zm27.9 1.9c-.2 1.4-.7 2.4-1.5 3.1-.8.7-2 1.1-3.4 1.1-1.5 0-2.7-.5-3.6-1.6S43 13 43 11.2V10c0-1.2.2-2.2.6-3.1s1-1.6 1.8-2.1 1.7-.8 2.7-.8c1.4 0 2.4.4 3.3 1.1s1.3 1.8 1.4 3.2h-1.7c-.1-1-.5-1.8-1-2.2-.5-.5-1.2-.7-2.1-.7-1.1 0-1.9.4-2.5 1.2s-.9 1.9-.9 3.4v1.2c0 1.4.3 2.5.9 3.3s1.4 1.2 2.4 1.2c.9 0 1.7-.2 2.2-.6.5-.4.8-1.2 1-2.2h1.7zm20.8 0c-.2 1.4-.7 2.4-1.5 3.1-.8.7-2 1.1-3.4 1.1-1.5 0-2.7-.5-3.6-1.6s-1.4-2.5-1.4-4.4V10c0-1.2.2-2.2.6-3.1s1-1.6 1.8-2.1 1.7-.8 2.8-.8c1.4 0 2.4.4 3.3 1.1s1.3 1.8 1.4 3.2h-1.7c-.1-1-.5-1.8-1-2.2-.5-.5-1.2-.7-2.1-.7-1.1 0-1.9.4-2.5 1.2s-.9 1.9-.9 3.4v1.2c0 1.4.3 2.5.9 3.3s1.4 1.2 2.4 1.2c.9 0 1.7-.2 2.2-.6.5-.4.8-1.2 1-2.2h1.7zM68.6 2L69.9.5h1.4v.1L69.1 3h-1L65.9.6V.5h1.4L68.6 2zm25.7 10.9c-.2 1.4-.7 2.4-1.5 3.1-.8.7-2 1.1-3.4 1.1-1.5 0-2.7-.5-3.6-1.6s-1.4-2.5-1.4-4.4V10c0-1.2.2-2.2.6-3.1s1-1.6 1.8-2.1 1.8-.8 2.8-.8c1.4 0 2.4.4 3.3 1.1s1.3 1.8 1.4 3.2h-1.7c-.1-1-.5-1.8-1-2.2-.5-.5-1.2-.7-2.1-.7-1.1 0-1.9.4-2.5 1.2s-.9 1.9-.9 3.4v1.2c0 1.4.3 2.5.9 3.3s1.4 1.2 2.4 1.2c.9 0 1.7-.2 2.2-.6.5-.4.8-1.2 1-2.2h1.7zM90.1.5h2l-2.4 2.6h-1.3L90.1.5zM105.6 17V4.2h3.6c1.1 0 2.1.2 3 .7s1.5 1.2 2 2.1.7 2 .7 3.1v.9c0 1.2-.2 2.3-.7 3.2s-1.1 1.6-2 2.1-1.9.7-3 .7h-3.6zm1.7-11.4v10h1.8c1.3 0 2.3-.4 3-1.2s1.1-2 1.1-3.5v-.7c0-1.5-.3-2.6-1-3.4-.7-.8-1.7-1.2-2.9-1.2h-2zM126.6 17v-5.9H125V9.8h1.7V4.2h3.6c1.1 0 2.1.2 3 .7s1.5 1.2 2 2.1.7 2 .7 3.1v.9c0 1.2-.2 2.3-.7 3.2s-1.1 1.6-2 2.1-1.9.7-3 .7h-3.7zm4-5.9h-2.2v4.5h1.8c1.3 0 2.3-.4 3-1.2s1.1-1.9 1.1-3.4v-.8c0-1.5-.3-2.6-1-3.4-.7-.8-1.7-1.2-2.9-1.2h-2v4.2h2.2v1.3zm24.1 0h-5.5v4.5h6.4V17h-8.1V4.2h8v1.4h-6.4v4.1h5.5v1.4zm19 .2h-5.4V17h-1.7V4.2h7.9v1.4h-6.2V10h5.4v1.3zm21.4 4c-.4.6-1 1.1-1.8 1.4-.8.3-1.7.5-2.7.5-1 0-2-.2-2.8-.7-.8-.5-1.4-1.2-1.9-2.1s-.7-1.9-.7-3.1v-1.1c0-1.9.4-3.4 1.3-4.5s2.2-1.6 3.8-1.6c1.3 0 2.4.3 3.2 1 .8.7 1.3 1.7 1.5 2.9h-1.7c-.3-1.7-1.3-2.5-3-2.5-1.1 0-2 .4-2.6 1.2-.6.8-.9 1.9-.9 3.5v1c0 1.4.3 2.6 1 3.4.7.8 1.5 1.3 2.7 1.3.6 0 1.2-.1 1.7-.2s.9-.4 1.2-.7v-3h-3v-1.4h4.6v4.7zm21.6 1.7H215v-5.9h-6.5V17h-1.7V4.2h1.7v5.5h6.5V4.2h1.7V17zm13.8 0h-1.7V4.2h1.7V17zM248 4.2h1.7v9.1c0 1.2-.4 2.2-1.1 2.9s-1.7 1-2.9 1c-1.3 0-2.3-.3-3-1s-1.1-1.6-1.1-2.7h1.7c0 .7.2 1.3.6 1.7s1 .6 1.7.6 1.3-.2 1.7-.7.6-1.1.7-1.8V4.2zm16.8 6.9l-1.6 1.6V17h-1.7V4.2h1.7v6.3l5.7-6.3h2l-5 5.7 5.4 7.1h-2l-4.5-5.9zm18.7 4.5h6.1V17h-7.8V4.2h1.7v11.4zm19.2-11.4l4.2 10.4 4.2-10.4h2.2V17h-1.7v-5l.2-5.4-4.3 10.4h-1.3L302 6.7l.2 5.4v5h-1.7V4.2h2.2zM335.1 17h-1.7L327 7.1V17h-1.7V4.2h1.7l6.5 9.9V4.2h1.7V17zm21.8-6c0 1.3-.2 2.3-.6 3.3-.4.9-1 1.6-1.8 2.1s-1.7.7-2.7.7c-1 0-1.9-.2-2.7-.7s-1.4-1.2-1.8-2.1c-.4-.9-.7-2-.7-3.2v-.9c0-1.2.2-2.3.6-3.3s1-1.7 1.8-2.2c.8-.5 1.7-.8 2.7-.8 1 0 1.9.2 2.7.7.8.5 1.4 1.2 1.8 2.2.4.9.6 2 .6 3.3v.9zm-1.7-.8c0-1.5-.3-2.7-.9-3.5s-1.5-1.2-2.6-1.2-1.9.4-2.5 1.2c-.6.8-.9 1.9-.9 3.4v.9c0 1.5.3 2.6.9 3.5.6.8 1.5 1.3 2.6 1.3s1.9-.4 2.5-1.2.9-1.9.9-3.4v-1zm14.9 1.8v5h-1.7V4.2h4.7c1.4 0 2.5.4 3.3 1.1.8.7 1.2 1.7 1.2 2.8 0 1.2-.4 2.2-1.2 2.9-.8.7-1.9 1-3.3 1h-3zm0-1.4h3c.9 0 1.6-.2 2.1-.6.5-.4.7-1 .7-1.8s-.2-1.4-.7-1.8-1.1-.7-2-.7h-3.1v4.9zm28.5.4c0 1.2-.2 2.3-.6 3.2-.4.9-.9 1.6-1.7 2.1l2.3 1.8-1.2 1.1-2.7-2.1c-.4.1-.9.2-1.3.2-1 0-1.9-.2-2.7-.7s-1.4-1.2-1.8-2.1c-.4-.9-.7-2-.7-3.2v-.9c0-1.2.2-2.3.6-3.3s1-1.7 1.8-2.2c.8-.5 1.7-.8 2.7-.8 1 0 1.9.2 2.7.7.8.5 1.4 1.2 1.8 2.1s.6 2 .6 3.3v.8zm-1.7-.8c0-1.5-.3-2.7-.9-3.5-.6-.8-1.5-1.2-2.6-1.2s-1.9.4-2.5 1.2c-.6.8-.9 1.9-.9 3.4v.9c0 1.5.3 2.6.9 3.5.6.8 1.5 1.3 2.6 1.3s1.9-.4 2.5-1.2.9-1.9.9-3.4v-1zm18 1.6h-3V17h-1.7V4.2h4.2c1.4 0 2.6.3 3.3 1 .8.7 1.2 1.6 1.2 2.9 0 .8-.2 1.5-.6 2.1-.4.6-1 1-1.8 1.3l3 5.4v.1h-1.8l-2.8-5.2zm-3-1.4h2.6c.8 0 1.5-.2 2-.7.5-.4.7-1 .7-1.7 0-.8-.2-1.4-.7-1.8-.5-.4-1.2-.6-2-.6h-2.6v4.8zm22.1.9c-1.4-.4-2.5-.9-3.2-1.5-.7-.6-1-1.4-1-2.2 0-1 .4-1.8 1.2-2.5.8-.7 1.9-1 3.1-1 .9 0 1.7.2 2.4.5s1.2.8 1.6 1.4c.4.6.6 1.3.6 2H437c0-.8-.2-1.4-.7-1.8s-1.2-.7-2.1-.7c-.8 0-1.5.2-1.9.6-.5.4-.7.9-.7 1.5 0 .5.2 1 .7 1.3.4.4 1.2.7 2.3 1 1.1.3 1.9.6 2.5 1 .6.4 1 .8 1.3 1.3.3.5.4 1 .4 1.7 0 1-.4 1.9-1.2 2.5-.8.6-1.9.9-3.2.9-.9 0-1.7-.2-2.5-.5s-1.3-.8-1.8-1.4c-.4-.6-.6-1.3-.6-2h1.7c0 .8.3 1.4.9 1.8.6.4 1.3.7 2.3.7.9 0 1.6-.2 2-.5s.7-.9.7-1.5-.2-1.1-.7-1.5c-.4-.4-1.2-.8-2.4-1.1zm19.7 0c-1.4-.4-2.5-.9-3.2-1.5-.7-.6-1-1.4-1-2.2 0-1 .4-1.8 1.2-2.5.8-.7 1.9-1 3.1-1 .9 0 1.7.2 2.4.5s1.2.8 1.6 1.4c.4.6.6 1.3.6 2h-1.7c0-.8-.2-1.4-.7-1.8s-1.2-.7-2.1-.7c-.8 0-1.5.2-1.9.6-.5.4-.7.9-.7 1.5 0 .5.2 1 .7 1.3.4.4 1.2.7 2.3 1 1.1.3 1.9.6 2.5 1 .6.4 1 .8 1.3 1.3.3.5.4 1 .4 1.7 0 1-.4 1.9-1.2 2.5-.8.6-1.9.9-3.2.9-.9 0-1.7-.2-2.5-.5s-1.3-.8-1.8-1.4c-.4-.6-.6-1.3-.6-2h1.7c0 .8.3 1.4.9 1.8.6.4 1.3.7 2.3.7.9 0 1.6-.2 2-.5s.7-.9.7-1.5-.2-1.1-.7-1.5c-.4-.4-1.2-.8-2.4-1.1zm.2-9l1.3-1.5h1.4v.1l-2.2 2.4h-1L451.2.9V.8h1.4l1.3 1.5zm24.6 3.3h-4.1V17h-1.7V5.6h-4.1V4.2h9.9v1.4zm19.9-1.4v8.7c0 1.2-.4 2.2-1.1 3s-1.8 1.2-3.1 1.3h-.4c-1.4 0-2.5-.4-3.3-1.1s-1.3-1.8-1.3-3.1V4.2h1.7v8.7c0 .9.3 1.6.8 2.2s1.2.8 2.2.8c1 0 1.7-.3 2.2-.8s.8-1.2.8-2.2V4.2h1.5zm15.9 10.6L518 4.2h1.8L515 17h-1.5l-4.7-12.8h1.8l3.7 10.6zm18.9-1.8l.2 1.7.4-1.5 2.5-8.9h1.4l2.5 8.9.4 1.5.3-1.7 2-8.8h1.7L541.5 17H540l-2.6-9.3-.2-1-.2 1-2.7 9.3h-1.5l-3.1-12.8h1.7l1.8 8.8zm26.4-3.9l3.1-4.9h2l-4 6.3 4.1 6.5h-2l-3.1-5-3.2 5h-2l4.1-6.5-4.1-6.3h2l3.1 4.9zm20 1.5l3.3-6.4h1.9l-4.4 8V17h-1.7v-4.8l-4.4-8h1.9l3.4 6.4z"/></g><g class="bst0"><path class="bst1" d="M3.8 45.6h7.3V47H1.8v-1.3l7-10.2H1.9v-1.4h8.9v1.2l-7 10.3zm19.7 0h7.3V47h-9.3v-1.3l7-10.2h-6.9v-1.4h8.9v1.2l-7 10.3zm2.7-13.3l1.3-1.5h1.4v.1l-2.2 2.4h-1l-2.2-2.4v-.1h1.4l1.3 1.5zm23 11.4h-5.4L42.7 47H41l4.9-12.8h1.5L52.2 47h-1.7l-1.3-3.3zm-4.8-1.4h4.4l-2.2-6-2.2 6zm26.3-6.7h-6.2v3.8h3.2c1.3 0 2.4.4 3.1 1S72 42 72 43.2c0 1.2-.4 2.1-1.1 2.8s-1.9 1-3.2 1h-4.9V34.2h7.9v1.4zm-6.2 5.2v4.8h3.1c.8 0 1.5-.2 2-.7s.7-1 .7-1.8c0-.7-.2-1.3-.7-1.7s-1.1-.6-1.9-.6h-3.2zM83.2 47V34.2h4.2c1.4 0 2.4.3 3.1.9s1.1 1.4 1.1 2.5c0 .6-.2 1.1-.5 1.6s-.8.8-1.4 1.1c.7.2 1.2.6 1.6 1.1s.6 1.2.6 1.9c0 1.1-.4 2.1-1.1 2.7s-1.8 1-3.2 1h-4.4zm1.7-7.3h2.5c.7 0 1.3-.2 1.8-.6s.7-.9.7-1.5c0-.7-.2-1.2-.6-1.5-.4-.3-1-.5-1.9-.5h-2.5v4.1zm0 1.3v4.6h2.8c.8 0 1.4-.2 1.9-.6s.7-1 .7-1.7c0-1.5-.8-2.3-2.5-2.3h-2.9zm26.5-5.4h-6.2V47h-1.7V34.2h7.9v1.4zm18.9-.1l-6.2.1V47h-1.7V34.2h6.3v-3h1.6v4.3zm21 14.6h-1.7V47h-9.2v3.1h-1.7v-4.5h1c.6-.6 1-1.5 1.3-2.5.3-1 .5-2.2.6-3.4l.3-5.5h7.7v11.4h1.7v4.5zm-9.6-4.5h6.2v-10h-4.3l-.2 3.8c-.1 1.5-.3 2.7-.6 3.8s-.6 1.8-1.1 2.4zm29.2-10h-4.6v4c.9-.3 1.8-.4 2.5-.4 1.4 0 2.5.4 3.3 1.1s1.2 1.7 1.2 3-.4 2.2-1.1 2.9-1.8 1-3.2 1v-1.3c.9 0 1.6-.2 2-.6.4-.4.7-1.1.7-1.9 0-.8-.3-1.5-.7-1.9s-1.2-.7-2.1-.7c-.9 0-1.7.1-2.5.4v6h-1.7V35.6h-3.6v-1.4h9.9v1.4zm20.9 5.5h-5.5v4.5h6.4V47h-8.1V34.2h8v1.4h-6.4v4.1h5.5v1.4zm19.2 0h-5.5v4.5h6.4V47h-8.1V34.2h8v1.4h-6.4v4.1h5.5v1.4zm-6.1-9c0-.3.1-.5.2-.7s.4-.3.7-.3.6.1.7.3.2.4.2.7c0 .3-.1.5-.2.7s-.4.3-.7.3-.6-.1-.7-.3-.2-.4-.2-.7zm3.8 0c0-.3.1-.5.2-.7.2-.2.4-.3.7-.3s.6.1.7.3c.2.2.2.4.2.7 0 .3-.1.5-.2.7s-.4.3-.7.3-.6-.1-.7-.3-.2-.4-.2-.7zm23.8 10.8c-.2 1.4-.7 2.4-1.5 3.1-.8.7-2 1.1-3.4 1.1-1.5 0-2.7-.5-3.6-1.6s-1.4-2.5-1.4-4.4V40c0-1.2.2-2.2.6-3.1.4-.9 1-1.6 1.8-2.1s1.7-.7 2.7-.7c1.4 0 2.4.4 3.3 1.1s1.3 1.8 1.4 3.2h-1.7c-.1-1-.5-1.7-1-2.2-.5-.5-1.2-.7-2.1-.7-1.1 0-1.9.4-2.5 1.2s-.9 1.9-.9 3.3h5v1.4h-5c0 1.4.3 2.5.9 3.3s1.4 1.2 2.4 1.2c.9 0 1.7-.2 2.2-.6.5-.4.8-1.2 1-2.2h1.8zm20.6-1.7h-1.4V47H250v-5.8h-1.5L245 47h-2.1l4.3-6.8-4-6h2l3.4 5.6h1.5v-5.6h1.7v5.6h1.4l3.4-5.6h2l-4 6 4.3 6.8h-2.1l-3.7-5.8zm22.9-3.6c0-.7-.2-1.2-.7-1.6s-1.2-.6-2.1-.6c-.8 0-1.4.2-1.9.6s-.8.9-.8 1.5h-1.7c0-.7.2-1.3.6-1.8s.9-1 1.6-1.3 1.4-.5 2.2-.5c1.4 0 2.5.3 3.3 1s1.2 1.5 1.2 2.7c0 .6-.2 1.1-.5 1.6-.4.5-.9.9-1.5 1.2 1.5.5 2.3 1.5 2.3 3 0 1.1-.4 2.1-1.3 2.7-.9.7-2 1-3.4 1-.8 0-1.6-.2-2.3-.5-.7-.3-1.2-.7-1.6-1.3s-.6-1.2-.6-2h1.7c0 .7.3 1.2.8 1.7s1.2.7 2 .7c.9 0 1.7-.2 2.2-.6s.8-1 .8-1.7c0-1.5-.9-2.3-2.8-2.3h-1.6v-1.4h1.6c.9 0 1.5-.2 1.9-.6s.6-.8.6-1.5zm16.9 3.7c-1.4-.4-2.5-.9-3.2-1.5-.7-.6-1-1.4-1-2.2 0-1 .4-1.8 1.2-2.5.8-.7 1.9-1 3.1-1 .9 0 1.7.2 2.4.5s1.2.8 1.6 1.4.6 1.3.6 2h-1.7c0-.8-.2-1.4-.7-1.8s-1.2-.7-2.1-.7c-.8 0-1.5.2-1.9.6-.5.4-.7.9-.7 1.5 0 .5.2 1 .7 1.3s1.2.7 2.3 1c1.1.3 1.9.6 2.5 1 .6.4 1 .8 1.3 1.3s.4 1 .4 1.7c0 1-.4 1.9-1.2 2.5-.8.6-1.9.9-3.2.9-.9 0-1.7-.2-2.5-.5s-1.3-.8-1.8-1.4-.6-1.3-.6-2h1.7c0 .8.3 1.4.9 1.8.6.4 1.3.7 2.3.7.9 0 1.6-.2 2-.5s.7-.9.7-1.5-.2-1.1-.7-1.5c-.4-.4-1.2-.8-2.4-1.1zm24-7.1h1.7V47h-1.7v-9.9l-6.3 9.9h-1.7V34.2h1.7v9.9l6.3-9.9zM332.5 47h-1.7V34.2h1.7V47zm10.2-14.9c0-.3.1-.5.2-.7.2-.2.4-.3.7-.3s.6.1.7.3.2.4.2.7c0 .3-.1.5-.2.7s-.3.2-.6.2-.6-.1-.7-.3c-.2-.1-.3-.3-.3-.6zm3.7 14.9h-1.7V34.2h1.7V47zm.1-14.9c0-.3.1-.5.2-.7.2-.2.4-.3.7-.3s.6.1.7.3c.2.2.2.4.2.7 0 .3-.1.5-.2.7s-.4.3-.7.3-.6-.1-.7-.3c-.1-.2-.2-.4-.2-.7zm20 2.1h1.7V47h-1.7v-9.9l-6.3 9.9h-1.7V34.2h1.7v9.9l6.3-9.9zM366 31c0 .7-.2 1.3-.7 1.7-.5.4-1.1.6-1.9.6s-1.4-.2-1.9-.7c-.5-.4-.7-1-.7-1.7h1.3c0 .4.1.7.3 1 .2.2.5.3 1 .3.4 0 .7-.1 1-.3.2-.2.3-.6.3-1h1.3zm19.6 3.2h1.7v9.1c0 1.2-.4 2.2-1.1 2.9-.7.7-1.7 1-2.9 1-1.3 0-2.3-.3-3-1s-1.1-1.6-1.1-2.7h1.7c0 .7.2 1.3.6 1.7.4.4 1 .6 1.7.6s1.3-.2 1.7-.7c.4-.4.6-1.1.7-1.8v-9.1zm16.9 7.1H401V47h-1.7V34.2h1.7v5.6h1.3l4.5-5.6h2.1l-4.9 6.2 5.2 6.6h-2.1l-4.6-5.7zm27-7.1V47h-1.7V35.6h-4.6l-.2 5.1c-.1 1.7-.3 3-.5 3.8s-.6 1.5-1.1 1.9-1.2.6-2 .6h-.6v-1.4h.4c.5 0 1-.2 1.3-.5.3-.3.5-.8.7-1.5s.3-1.7.3-3.2l.3-6.2h7.7zm21.8 0v5h3.2c1.3 0 2.3.4 3.1 1.1s1.2 1.6 1.2 2.8c0 1.2-.4 2.1-1.1 2.8-.8.7-1.8 1.1-3.1 1.1h-4.9V35.6h-4.5l-.2 5.1c-.1 1.7-.3 3-.5 3.8s-.6 1.5-1.1 1.9-1.2.6-2 .6h-.6v-1.4h.4c.5 0 1-.2 1.3-.5.3-.3.5-.8.7-1.5s.3-1.7.3-3.2l.3-6.2h7.5zm0 6.3v5.1h3.1c.8 0 1.5-.2 1.9-.7s.7-1.1.7-1.9c0-.8-.2-1.4-.7-1.8s-1.1-.7-1.9-.7h-3.1zm20.8-6.3l4.2 10.4 4.2-10.4h2.2V47H481v-5l.2-5.4-4.3 10.4h-1.3l-4.2-10.3.2 5.4v5h-1.7V34.2h2.2zM504.5 47h-1.7v-5.9h-6.5V47h-1.7V34.2h1.7v5.5h6.5v-5.5h1.7V47zm13.8-7.3h6.3v-5.5h1.7v5.4h3.2c1.3 0 2.4.4 3.1 1s1.1 1.5 1.1 2.7c0 1.1-.4 2-1.1 2.7s-1.8 1-3.1 1.1h-4.9v-5.9h-6.3V47h-1.7V34.2h1.7v5.5zm8 1.2v4.6h3.1c.8 0 1.5-.2 2-.6s.7-1 .7-1.7-.2-1.2-.7-1.6-1.1-.6-1.9-.6h-3.2zm28.5.1c0 1.3-.2 2.3-.6 3.3-.4.9-1 1.6-1.8 2.1s-1.7.7-2.7.7c-1 0-1.9-.2-2.7-.7s-1.4-1.2-1.8-2.1c-.4-.9-.7-2-.7-3.2v-.9c0-1.2.2-2.3.6-3.3s1-1.7 1.8-2.2c.8-.5 1.7-.8 2.7-.8 1 0 1.9.2 2.7.7.8.5 1.4 1.2 1.8 2.2.4.9.6 2 .6 3.3v.9zm-1.7-.8c0-1.5-.3-2.7-.9-3.5s-1.5-1.2-2.6-1.2-1.9.4-2.5 1.2-.9 1.9-.9 3.4v.9c0 1.5.3 2.6.9 3.5s1.5 1.3 2.6 1.3 1.9-.4 2.5-1.2.9-1.9.9-3.4v-1zm23 6.8h-1.7V35.6h-6.3V47h-1.7V34.2h9.7V47zm13.7-5v5h-1.7V34.2h4.7c1.4 0 2.5.4 3.3 1.1s1.2 1.7 1.2 2.8c0 1.2-.4 2.2-1.2 2.9-.8.7-1.9 1-3.3 1h-3zm0-1.4h3c.9 0 1.6-.2 2.1-.6.5-.4.7-1 .7-1.8s-.2-1.4-.7-1.8-1.1-.7-2-.7h-3.1v4.9z"/></g><g class="bst0"><path class="bst1" d="M11.9 72.9c-.2 1.4-.7 2.4-1.5 3.1-.8.7-2 1.1-3.4 1.1-1.5 0-2.7-.5-3.6-1.6S2 73 2 71.2V70c0-1.2.2-2.2.6-3.1s1-1.6 1.8-2.1c.9-.5 1.8-.8 2.8-.8 1.4 0 2.4.4 3.3 1.1s1.3 1.8 1.4 3.2h-1.7c-.1-1-.5-1.8-1-2.2-.5-.5-1.2-.7-2.1-.7-1.1 0-1.9.4-2.5 1.2s-.9 1.9-.9 3.4v1.2c0 1.4.3 2.5.9 3.3S6 75.8 7 75.8c.9 0 1.7-.2 2.2-.6.5-.4.8-1.2 1-2.2h1.7zm19.9-7.3h-4.1V77H26V65.6h-4.1v-1.4h9.9v1.4zm20 0h-4.6v3.8c.9-.2 1.9-.4 2.9-.4 1.5 0 2.6.3 3.3 1s1.1 1.6 1.1 2.9V77h-1.7v-4.1c0-.9-.2-1.5-.6-1.9-.4-.4-1.1-.6-2-.6-1 0-2 .1-2.9.4V77h-1.7V65.6H42v-1.4h9.9v1.4zm19.1 6l2.9-7.4h2l-4.5 10.7c-.3.7-.6 1.2-.9 1.4s-.6.5-.9.7c-.4.1-.8.2-1.3.2s-.8 0-.9-.1l.1-1.3h.8c.6 0 1.1-.3 1.4-.9l.2-.5.3-.8-4.4-9.5h1.9l3.3 7.5zm20.3 0l2.9-7.4h2l-4.5 10.7c-.3.7-.6 1.2-.9 1.4s-.6.5-.9.7c-.4.1-.8.2-1.3.2s-.8 0-.9-.1l.1-1.3h.8c.6 0 1.1-.3 1.4-.9l.2-.5.3-.8-4.4-9.4h1.9l3.3 7.4zM93.6 61c0 .7-.2 1.3-.7 1.7s-1.1.6-1.9.6-1.4-.2-1.9-.7c-.5-.4-.7-1-.7-1.7h1.3c0 .4.1.7.3 1 .2.2.5.3 1 .3.4 0 .7-.1 1-.3s.3-.6.3-1h1.3zm19.8 4.5h.3c1 0 1.8.2 2.6.7s1.4 1.1 1.9 1.8c.4.8.7 1.7.7 2.6 0 1-.2 1.9-.7 2.6s-1.1 1.4-1.8 1.8c-.8.4-1.7.7-2.6.7h-.3v1.7h-1.6v-1.7h-.2c-1 0-1.9-.2-2.7-.7s-1.4-1.1-1.9-1.8-.7-1.7-.7-2.6.2-1.9.7-2.6 1.1-1.4 1.9-1.8 1.7-.7 2.7-.7h.2v-1.8h1.6v1.8zm-1.9 1.3c-1.1 0-2 .3-2.6 1-.6.7-1 1.6-1 2.8 0 1.2.3 2.1 1 2.8s1.5 1 2.6 1h.2v-7.7h-.2zm1.9 0v7.7h.2c1.1 0 2-.3 2.6-1 .6-.7.9-1.6.9-2.8 0-1.2-.3-2.1-.9-2.8s-1.5-1-2.7-1h-.1zm20.8 2.3l3.1-4.9h2l-4 6.3 4.1 6.5h-2l-3.1-5-3.2 5h-2l4.1-6.5-4.1-6.3h2l3.1 4.9zm16.1-4.9h1.7v11.4h6.3V64.2h1.7v11.4h1.3l-.2 4.5h-1.5V77h-9.4V64.2zm31.1 0V77h-1.7v-5.3c-.6.2-1.2.3-1.7.4s-1.1.1-1.7.1c-1.5 0-2.5-.3-3.3-.9s-1.1-1.6-1.1-2.9v-4.1h1.7v4.1c0 .9.2 1.5.6 1.9s1.1.6 2 .6c1.1 0 2.2-.2 3.4-.5v-6.1h1.8zm12.2 0h1.7v11.4h6.3V64.2h1.7V77h-3.9v3.2h-1.7V77h-4.1V64.2zm23.5 0v11.4h4.4V64.2h1.7v11.4h4.4V64.2h1.7V77h-13.8V64.2h1.6zm25.9 0v11.4h4.4V64.2h1.7v11.4h4.4V64.2h1.7v11.5h1.3l-.2 4.4h-1.5V77h-13.5V64.2h1.7zm23.4 0h5.3v5.2h3c1.4 0 2.5.3 3.2 1 .8.7 1.1 1.6 1.1 2.7 0 1.2-.4 2.1-1.1 2.8s-1.8 1-3.1 1.1H270V65.5h-3.6v-1.3zm5.3 6.6v4.8h3.1c.8 0 1.5-.2 1.9-.7s.7-1 .7-1.8c0-.7-.2-1.3-.7-1.7s-1.1-.6-1.9-.6h-3.1zm20.4-1.4h3.2c1.3 0 2.4.4 3.1 1s1.1 1.6 1.1 2.7c0 1.2-.4 2.1-1.1 2.8s-1.8 1-3.1 1.1h-4.9V64.2h1.7v5.2zm0 1.4v4.8h3.1c.8 0 1.5-.2 2-.7s.7-1 .7-1.8c0-.7-.2-1.3-.7-1.7s-1.1-.6-1.9-.6h-3.2zm10.7 6.2h-1.7V64.2h1.7V77zm13.8-7.6h3.2c1.3 0 2.4.4 3.1 1s1.1 1.6 1.1 2.7c0 1.2-.4 2.1-1.1 2.8s-1.8 1-3.1 1.1h-4.9V64.2h1.7v5.2zm0 1.4v4.8h3.1c.8 0 1.5-.2 2-.7.5-.4.7-1 .7-1.8 0-.7-.2-1.3-.7-1.7-.4-.4-1.1-.6-1.9-.6h-3.2zm20.1 2.1c.2 1.1.5 1.8 1 2.2.5.4 1.2.6 2.2.6 1 0 1.8-.4 2.4-1.2.6-.8.9-1.9.9-3.3h-5v-1.4h5c0-1.4-.3-2.5-.9-3.3-.6-.8-1.5-1.2-2.5-1.2-.9 0-1.6.2-2.1.7-.5.5-.8 1.2-1 2.2H335c.1-1.3.6-2.4 1.4-3.2s1.9-1.1 3.3-1.1c1 0 1.9.2 2.7.7.8.5 1.4 1.2 1.8 2.1.4.9.6 1.9.6 3.1v1.3c0 1.2-.2 2.2-.6 3.1s-1 1.6-1.8 2.1-1.6.7-2.6.7c-1.4 0-2.5-.4-3.4-1.1-.8-.7-1.3-1.8-1.5-3.1h1.8zm33.6-1.9c0 1.3-.2 2.3-.6 3.3-.4.9-1 1.6-1.8 2.1s-1.7.7-2.7.7c-1 0-1.8-.2-2.6-.7-.8-.5-1.4-1.1-1.8-2-.4-.9-.7-1.9-.7-3.1h-1.8V77h-1.7V64.2h1.7v5.9h1.8c0-1.2.2-2.3.7-3.2.4-.9 1-1.6 1.8-2.1s1.7-.8 2.7-.8c1 0 1.9.2 2.7.7.8.5 1.4 1.2 1.8 2.2.4.9.6 2 .6 3.3v.8zm-1.7-.8c0-1.5-.3-2.7-.9-3.5s-1.5-1.2-2.6-1.2-1.9.4-2.5 1.2c-.6.8-.9 1.9-.9 3.4v.9c0 1.5.3 2.6.9 3.5.6.8 1.5 1.3 2.6 1.3s1.9-.4 2.5-1.2.9-1.9.9-3.4v-1zm19.5 6.8v-5h-3l-2.6 5h-1.8l3-5.4c-1.7-.7-2.5-1.8-2.5-3.5 0-1.2.4-2.2 1.2-2.8.8-.7 1.9-1 3.3-1h4.1V77h-1.7zm-5.2-8.9c0 .8.2 1.4.7 1.9.5.5 1.2.7 2 .7h2.5v-5.1h-2.4c-.9 0-1.6.2-2.1.7-.4.4-.7 1-.7 1.8zm26.1 5.6h-5.4l-1.2 3.3h-1.7l4.9-12.8h1.5L412 77h-1.7l-1.3-3.3zm-4.9-1.4h4.4l-2.2-6-2.2 6zm18.5 4.7V64.2h4.2c1.4 0 2.4.3 3.1.9.7.6 1 1.4 1 2.5 0 .6-.2 1.1-.5 1.6s-.8.8-1.4 1.1c.7.2 1.2.6 1.6 1.1.4.5.6 1.2.6 1.9 0 1.1-.4 2.1-1.1 2.7s-1.8 1-3.2 1h-4.3zm1.7-7.3h2.5c.7 0 1.3-.2 1.8-.6s.7-.9.7-1.5c0-.7-.2-1.2-.6-1.5-.4-.3-1-.5-1.9-.5h-2.5v4.1zm0 1.3v4.6h2.8c.8 0 1.4-.2 1.9-.6.5-.4.7-1 .7-1.7 0-1.5-.8-2.3-2.5-2.3h-2.9zm26.5-5.4h-6.2V77h-1.7V64.2h7.9v1.4zm13.6-1.4h1.5L471 77h-12l5.4-12.8zm-3.2 11.4h7.4l-3.6-9.4-3.8 9.4zm27.9-4.5h-5.5v4.5h6.4V77h-8.1V64.2h8v1.4h-6.4v4.1h5.5v1.4zm13.2 4.5h7.3V77h-9.3v-1.3l7-10.2h-6.9v-1.4h8.9v1.2l-7 10.3zm28.4 1.4H529v-5.9h-6.5V77h-1.7V64.2h1.7v5.5h6.5v-5.5h1.7V77zm21.7-6c0 1.2-.2 2.3-.6 3.3s-1 1.6-1.8 2.1-1.7.7-2.7.7c-1 0-1.9-.2-2.7-.7s-1.4-1.2-1.8-2.1c-.4-.9-.7-2-.7-3.2v-.9c0-1.2.2-2.3.6-3.3s1-1.7 1.8-2.2c.8-.5 1.7-.8 2.7-.8 1 0 1.9.2 2.7.7s1.4 1.2 1.8 2.1c.4.9.6 2 .7 3.2V71zm-1.7-.8c0-1.5-.3-2.7-.9-3.5s-1.5-1.2-2.6-1.2-1.9.4-2.5 1.2c-.6.8-.9 1.9-.9 3.4v.9c0 1.5.3 2.6.9 3.5s1.5 1.3 2.6 1.3 1.9-.4 2.5-1.2.9-1.9.9-3.4v-1zm-1.1 1h-4.5v-1.3h4.5v1.3zm16.1 5.8H564V64.2h1.7V77zm15.4-5.9l-1.6 1.6V77h-1.7V64.2h1.7v6.3l5.7-6.3h2l-5 5.7 5.4 7.1h-2l-4.5-5.9z"/></g><g class="bst0"><path class="bst1" d="M6.9 96.8L3.3 107H1.4l4.7-12.8h1.5l4.7 12.8h-1.8L6.9 96.8zm18.6-2.6l4.2 10.4 4.2-10.4H36V107h-1.7v-5l.2-5.4-4.2 10.4H29l-4.2-10.3.2 5.3v5h-1.7V94.2h2.2zM57.8 107h-1.7l-6.4-9.9v9.9H48V94.2h1.7l6.5 9.9v-9.9h1.7V107zm11.6-1.4h8.2v1.4h-8.2v-1.4zm0-11.4h8.1v1.4h-8.1v-1.4zm.8 5.5h6.6v1.4h-6.6v-1.4zm28.6 1.3c0 1.3-.2 2.3-.6 3.3-.4.9-1 1.6-1.8 2.1s-1.7.7-2.7.7c-1 0-1.9-.2-2.7-.7s-1.4-1.2-1.8-2.1c-.4-.9-.7-2-.7-3.2v-.9c0-1.2.2-2.3.6-3.3s1-1.7 1.8-2.2c.8-.5 1.7-.8 2.7-.8 1 0 1.9.2 2.7.7.8.5 1.4 1.2 1.8 2.2.4.9.6 2 .6 3.3v.9zm-1.6-.8c0-1.5-.3-2.7-.9-3.5s-1.5-1.2-2.6-1.2-1.9.4-2.5 1.2-.9 1.9-.9 3.4v.9c0 1.5.3 2.6.9 3.5s1.5 1.3 2.6 1.3 1.9-.4 2.5-1.2.9-1.9.9-3.4v-1zm22.9 6.8h-1.7V95.6h-6.3V107h-1.7V94.2h9.7V107zm13.8-5v5h-1.7V94.2h4.7c1.4 0 2.5.4 3.3 1.1s1.2 1.7 1.2 2.8c0 1.2-.4 2.2-1.2 2.9s-1.9 1-3.3 1h-3zm0-1.4h3c.9 0 1.6-.2 2.1-.6.5-.4.7-1 .7-1.8s-.2-1.4-.7-1.8-1.1-.7-2-.7h-3.1v4.9zm23.8.1l-3.9 4.9h6.9v1.4h-9v-1.3l4.2-5.2-4.2-5.1v-1.3h8.6v1.4h-6.4l3.9 4.9v.3zm23-5.1h-4.1V107h-1.7V95.6h-4.1v-1.4h9.9v1.4zm14.9 5l3.3-6.4h1.9l-4.4 8v4.8h-1.7v-4.8l-4.4-8h1.9l3.4 6.4zm21.3-4.8c.9 0 1.8.2 2.5.6s1.3 1 1.8 1.7.6 1.6.6 2.5c0 .9-.2 1.8-.6 2.5s-1 1.3-1.7 1.7c-.7.4-1.6.6-2.6.6v1.5h-1.7v-1.5c-1.5 0-2.7-.5-3.6-1.4-.9-.9-1.4-2-1.4-3.4 0-.9.2-1.6.5-2.3s.9-1.3 1.6-1.7c.8-.5 1.8-.8 2.8-.8v-1.6h1.7v1.6zm-4.9 4.9c0 1.1.3 1.9.9 2.5.6.6 1.4.9 2.4.9v-6.8c-1.1 0-1.9.3-2.4.9-.6.6-.9 1.4-.9 2.5zm8.2-.1c0-1.1-.3-1.9-.8-2.5-.6-.6-1.4-.9-2.4-.9v6.8c1.1 0 1.9-.3 2.4-.9.5-.5.8-1.4.8-2.5zm16.6-1.5l3.1-4.9h2l-4 6.3 4.1 6.5h-2l-3.1-5-3.2 5h-2l4.1-6.5-4.1-6.3h2l3.1 4.9zm21.5 3.3c.9-.1 1.6-.5 2.1-1.1.5-.6.8-1.4.8-2.4v-4.6h1.7v4.6c0 .9-.2 1.8-.6 2.5s-.9 1.3-1.6 1.7c-.7.4-1.5.7-2.4.8v3.2h-1.7v-3.2c-1.4-.1-2.4-.6-3.2-1.5s-1.2-2-1.2-3.4v-4.7h1.7v4.6c0 1 .3 1.7.7 2.4s1.2 1 2 1.2v-8.2h1.7v8.1zm21 3.2c.8-.2 1.4-.7 1.9-1.5s.7-1.9.7-3.3v-1.2c0-1.4-.3-2.4-.9-3.1s-1.3-1.1-2.3-1.1-1.8.4-2.3 1.1-.8 1.8-.8 3.1v1c0 1.4.2 2.5.7 3.4.5.9 1.1 1.4 2 1.5v1.4H274v-1.4h1.9c-.6-.6-1.1-1.3-1.5-2.2s-.5-1.8-.5-2.8v-1c0-1.1.2-2.1.6-2.9s1-1.5 1.7-2 1.6-.7 2.5-.7c.9 0 1.8.2 2.5.7s1.3 1.1 1.7 1.9.6 1.8.7 2.8v1.1c0 .9-.2 1.9-.5 2.8s-.8 1.6-1.5 2.2h1.9v1.4h-4.3v-1.2zm23.1-1.9H297l-1.2 3.3h-1.7l4.9-12.8h1.5l4.9 12.8h-1.7l-1.3-3.3zm-6.5-10.8h1.5l-1 3h-1l.5-3zm1.6 9.4h4.4l-2.2-6-2.2 6zm15.6-9.4h1.5l-1 3h-1l.5-3zm10.2 8.2h-5.5v4.5h6.4v1.4H316V94.2h8v1.4h-6.4v4.1h5.5v1.4zm9.2-8.2h1.5l-1 3h-1l.5-3zm12.6 14.1h-1.7v-5.9H337v5.9h-1.7V94.2h1.7v5.5h6.5v-5.5h1.7V107zm10.8-14.1h1.5l-1 3h-1l.5-3zm11.2 8.1c0 1.3-.2 2.3-.6 3.3-.4.9-1 1.6-1.8 2.1s-1.7.7-2.7.7c-1 0-1.9-.2-2.7-.7s-1.4-1.2-1.8-2.1c-.4-.9-.7-2-.7-3.2v-.9c0-1.2.2-2.3.6-3.3s1-1.7 1.8-2.2c.8-.5 1.7-.8 2.7-.8 1 0 1.9.2 2.7.7.8.5 1.4 1.2 1.8 2.2.4.9.6 2 .6 3.3v.9zm-1.7-.8c0-1.5-.3-2.7-.9-3.5s-1.5-1.2-2.6-1.2-1.9.4-2.5 1.2c-.6.8-.9 1.9-.9 3.4v.9c0 1.5.3 2.6.9 3.5.6.8 1.5 1.3 2.6 1.3s1.9-.4 2.5-1.2.9-1.9.9-3.4v-1zm9.8-7.3h1.5l-1 3h-1l.5-3zm7.9 7.7l3.3-6.4h1.9l-4.4 8v4.8h-1.7v-4.8l-4.4-8h1.9l3.4 6.4zm19.9 0l3.3-6.4h1.9l-4.4 8v4.8h-1.7v-4.8l-4.4-8h1.9l3.4 6.4zm-2.8-8.4c0-.3.1-.5.2-.7.2-.2.4-.3.7-.3s.6.1.7.3.2.4.2.7c0 .3-.1.5-.2.7s-.4.3-.7.3-.6-.1-.7-.3c-.1-.2-.2-.4-.2-.7zm3.8 0c0-.3.1-.5.2-.7.2-.2.4-.3.7-.3s.6.1.7.3c.2.2.2.4.2.7 0 .3-.1.5-.2.7s-.4.3-.7.3-.6-.1-.7-.3c-.1-.2-.2-.4-.2-.7zm18.6 1.8c1.1 0 2 .3 2.7 1 .7.6 1 1.5 1 2.5 0 .5-.1 1-.4 1.5s-.7.8-1.2 1.1c.7.3 1.3.7 1.7 1.3.4.6.6 1.2.6 2 0 1.2-.4 2.2-1.1 2.9-.7.7-1.7 1.1-2.9 1.1-1.1 0-1.9-.3-2.6-.8v4h-1.6v-13c0-.6.2-1.2.5-1.8s.8-1 1.4-1.3c.6-.3 1.2-.5 1.9-.5zm2.1 3.4c0-.6-.2-1.1-.6-1.5-.4-.4-.9-.6-1.5-.6s-1.2.2-1.6.6-.7.9-.7 1.6v7.3c.3.3.6.5 1 .7.4.2.9.3 1.5.3.8 0 1.4-.2 1.9-.7s.7-1.1.7-1.8-.2-1.3-.6-1.8c-.4-.5-.9-.7-1.6-.8h-1.3v-1.3h.7c.7 0 1.2-.2 1.6-.5.3-.3.5-.8.5-1.5zm12.5-4.5h1.5l-1 3h-1l.5-3zm6.4 12.7c.8-.2 1.4-.7 1.9-1.5s.7-1.9.7-3.3v-1.2c0-1.4-.3-2.4-.9-3.1s-1.3-1.1-2.3-1.1-1.8.4-2.3 1.1-.8 1.8-.8 3.1v1c0 1.4.2 2.5.7 3.4.5.9 1.1 1.4 2 1.5v1.4h-4.3v-1.4h1.9c-.6-.6-1.1-1.3-1.5-2.2s-.5-1.8-.5-2.8v-1c0-1.1.2-2.1.6-2.9.4-.9 1-1.5 1.7-2s1.6-.7 2.5-.7c.9 0 1.8.2 2.5.7.7.5 1.3 1.1 1.7 1.9s.6 1.8.7 2.8v1.1c0 .9-.2 1.9-.5 2.8s-.8 1.6-1.5 2.2h1.9v1.4h-4.3v-1.2zm23-1.9h-5.4L460 107h-1.7l4.9-12.8h1.5l4.9 12.8h-1.7l-1.3-3.3zm0-12.6c0 .7-.2 1.3-.7 1.7-.5.4-1.1.6-1.9.6s-1.4-.2-1.9-.7c-.5-.4-.7-1-.7-1.7h1.3c0 .4.1.7.3 1 .2.2.5.3 1 .3.4 0 .7-.1 1-.3s.3-.6.3-1h1.3zm-4.8 11.2h4.4l-2.2-6-2.2 6zm25.6 1.4H482l-1.2 3.3h-1.7l4.9-12.8h1.5l4.9 12.8h-1.7l-1.3-3.3zm0-10.5l-1.3.1-1.3-1.5-1.3 1.5h-1.3v-.1l2.2-2.4h1l2 2.4zm-4.9 9.1h4.4l-2.2-6-2.2 6zm25.8-1.2h-5.5v4.5h6.4v1.4H501V94.2h8v1.4h-6.4v4.1h5.5v1.4zm-.6-8l-1.3.1-1.3-1.5-1.3 1.5h-1.3v-.1l2.2-2.4h1l2 2.4zm22.4 7.9c0 1.3-.2 2.3-.6 3.3-.4.9-1 1.6-1.8 2.1s-1.7.7-2.7.7c-1 0-1.9-.2-2.7-.7s-1.4-1.2-1.8-2.1c-.4-.9-.7-2-.7-3.2v-.9c0-1.2.2-2.3.6-3.3s1-1.7 1.8-2.2c.8-.5 1.7-.8 2.7-.8 1 0 1.9.2 2.7.7.8.5 1.4 1.2 1.8 2.2.4.9.6 2 .6 3.3v.9zm-1.7-.8c0-1.5-.3-2.7-.9-3.5s-1.5-1.2-2.6-1.2-1.9.4-2.5 1.2-.9 1.9-.9 3.4v.9c0 1.5.3 2.6.9 3.5s1.5 1.3 2.6 1.3 1.9-.4 2.5-1.2.9-1.9.9-3.4v-1zm-.8-7l-1.3.1-1.3-1.5-1.3 1.5h-1.3v-.1l2.2-2.4h1l2 2.4zm23.7 7.8c0 1.3-.2 2.3-.6 3.3-.4.9-1 1.6-1.8 2.1s-1.7.7-2.7.7c-1 0-1.9-.2-2.7-.7s-1.4-1.2-1.8-2.1-.7-2-.7-3.2v-.9c0-1.2.2-2.3.6-3.3.4-.9 1-1.7 1.8-2.2.8-.5 1.7-.8 2.7-.8 1.4 0 2.6.5 3.5 1.4.6 0 1-.3 1.3-.6.3-.4.4-1 .4-1.7h1.5c0 2-.8 3.1-2.3 3.5.6 1 .9 2.2.9 3.7v.8zm-1.6-.8c0-1.5-.3-2.7-.9-3.5-.6-.8-1.5-1.2-2.6-1.2s-1.9.4-2.5 1.2c-.6.8-.9 1.9-.9 3.4v.9c0 1.5.3 2.6.9 3.5.6.8 1.5 1.3 2.6 1.3s2-.4 2.6-1.2.9-2 .9-3.5v-.9zm22.3-6v1.9c.7-.1 1.2-.3 1.4-.7.3-.4.4-1 .4-1.9h1.4c0 1.2-.3 2.2-.8 2.8-.5.6-1.3 1-2.5 1v5.6c0 1.2-.4 2.1-1.1 2.9s-1.7 1.2-2.9 1.3h-.6c-1.4 0-2.5-.4-3.3-1.1s-1.3-1.8-1.3-3.1v-8.7h1.7v8.7c0 .9.3 1.6.8 2.2s1.2.8 2.2.8c1 0 1.7-.3 2.2-.8s.8-1.2.8-2.2v-8.7h1.6z"/></g><g class="bst0"><path class="bst1" d="M8.1 197c-.1-.2-.2-.5-.2-1-.8.8-1.7 1.2-2.7 1.2-.9 0-1.7-.3-2.3-.8s-.9-1.2-.9-2c0-1 .4-1.8 1.1-2.3s1.8-.8 3.2-.8h1.6v-.7c0-.6-.2-1-.5-1.4-.3-.3-.8-.5-1.5-.5-.6 0-1.1.1-1.5.4s-.6.6-.6 1.1H2.2c0-.5.2-.9.5-1.4s.8-.8 1.4-1.1 1.2-.4 1.9-.4c1.1 0 2 .3 2.6.8s.9 1.3 1 2.3v4.4c0 .9.1 1.6.3 2.1v.1H8.1zm-2.7-1.2c.5 0 1-.1 1.5-.4s.8-.6 1-1v-2H6.6c-2 0-3 .6-3 1.7 0 .5.2.9.5 1.2s.8.5 1.3.5zm23.7-3.4c0 1.5-.3 2.6-1 3.5s-1.6 1.3-2.7 1.3c-1.2 0-2.1-.4-2.8-1.3l-.1 1.1H21v-13.5h1.6v5c.7-.8 1.6-1.2 2.7-1.2s2.1.4 2.7 1.3 1 2.1 1 3.6v.2zm-1.7-.2c0-1.1-.2-2-.6-2.6s-1-.9-1.8-.9c-1.1 0-1.8.5-2.3 1.5v4.1c.5 1 1.3 1.5 2.3 1.5.8 0 1.4-.3 1.8-.9s.6-1.5.6-2.7zm16.5 3.6c.6 0 1.1-.2 1.5-.5s.7-.8.7-1.3h1.5c0 .5-.2 1.1-.6 1.6s-.8.9-1.4 1.2-1.2.4-1.8.4c-1.3 0-2.3-.4-3.1-1.3-.8-.9-1.1-2-1.1-3.5v-.3c0-.9.2-1.7.5-2.5s.8-1.3 1.5-1.7 1.4-.6 2.3-.6c1.1 0 2 .3 2.7 1s1.1 1.5 1.1 2.5h-1.5c0-.6-.3-1.1-.7-1.5-.4-.4-.9-.6-1.6-.6-.8 0-1.5.3-1.9.9s-.7 1.5-.7 2.6v.3c0 1.1.2 1.9.7 2.5s1.1.8 1.9.8zm18.5 0c.6 0 1.1-.2 1.5-.5s.7-.8.7-1.3h1.5c0 .5-.2 1.1-.6 1.6s-.8.9-1.4 1.2-1.2.4-1.8.4c-1.3 0-2.3-.4-3.1-1.3-.8-.9-1.1-2-1.1-3.5v-.3c0-.9.2-1.7.5-2.5s.8-1.3 1.5-1.7 1.4-.6 2.3-.6c1.1 0 2 .3 2.7 1s1.1 1.5 1.1 2.5h-1.5c0-.6-.3-1.1-.7-1.5-.4-.4-.9-.6-1.6-.6-.8 0-1.5.3-1.9.9s-.7 1.5-.7 2.6v.3c0 1.1.2 1.9.7 2.5s1 .8 1.9.8zM62 185l1.3-1.5h1.4v.1l-2.2 2.4h-1l-2.2-2.4v-.1h1.4L62 185zm18.8 10.8c.6 0 1.1-.2 1.5-.5s.7-.8.7-1.3h1.5c0 .5-.2 1.1-.6 1.6s-.8.9-1.4 1.2-1.2.4-1.8.4c-1.3 0-2.3-.4-3.1-1.3-.8-.9-1.1-2-1.1-3.5v-.3c0-.9.2-1.7.5-2.5s.8-1.3 1.5-1.7 1.4-.6 2.3-.6c1.1 0 2 .3 2.7 1s1.1 1.5 1.1 2.5H83c0-.6-.3-1.1-.7-1.5-.4-.4-.9-.6-1.6-.6-.8 0-1.5.3-1.9.9s-.7 1.5-.7 2.6v.3c0 1.1.2 1.9.7 2.5s1.1.8 2 .8zm.4-12.3h2l-2.4 2.6h-1.3l1.7-2.6zm13.8 8.7c0-1.5.3-2.6 1-3.5.7-.9 1.6-1.3 2.7-1.3s2 .4 2.6 1.1v-5h1.6V197h-1.5l-.1-1c-.7.8-1.6 1.2-2.7 1.2s-2-.5-2.7-1.4-1-2.1-1-3.5v-.1zm1.6.2c0 1.1.2 1.9.7 2.5s1.1.9 1.8.9c1 0 1.8-.5 2.3-1.4V190c-.5-.9-1.2-1.3-2.2-1.3-.8 0-1.4.3-1.9.9s-.7 1.5-.7 2.8zm27.2-6.2h-1.7V197h-1.5l-.1-1c-.7.8-1.6 1.2-2.7 1.2s-2-.5-2.7-1.4-1-2.1-1-3.5v-.1c0-1.5.3-2.6 1-3.5.7-.9 1.6-1.3 2.7-1.3s2 .4 2.6 1.1v-2.3h-2.3v-1.3h2.3v-1.3h1.6v1.3h1.7v1.3zm-8 6.2c0 1.1.2 1.9.7 2.5s1.1.9 1.8.9c1 0 1.8-.5 2.3-1.4V190c-.5-.9-1.2-1.3-2.2-1.3-.8 0-1.4.3-1.9.9s-.7 1.5-.7 2.8zm22.4 4.8c-1.3 0-2.3-.4-3.1-1.3s-1.2-2-1.2-3.4v-.3c0-.9.2-1.8.5-2.5s.9-1.3 1.5-1.7 1.3-.6 2.1-.6c1.2 0 2.2.4 2.9 1.2s1 2 1 3.5v.7h-6.4c0 .9.3 1.7.8 2.3.5.6 1.2.9 2 .9.6 0 1.1-.1 1.5-.4s.7-.5 1-.9l1 .8c-.8 1.1-2 1.7-3.6 1.7zm-.2-8.5c-.7 0-1.2.2-1.7.7s-.7 1.1-.8 2h4.8v-.1c0-.8-.3-1.5-.7-1.9s-.9-.7-1.6-.7zm15.6 8.3v-8.3h-1.5v-1.3h1.5v-1c0-1 .3-1.8.8-2.4s1.3-.8 2.3-.8c.4 0 .7 0 1.1.1l-.1 1.3c-.3-.1-.6-.1-.9-.1-.5 0-.9.2-1.2.5s-.4.8-.4 1.3v1h2v1.3h-2v8.3h-1.6zm13.9-4.8c0-1.5.3-2.7 1-3.5s1.6-1.3 2.7-1.3c1.2 0 2.1.4 2.7 1.2l.1-1.1h1.5v9.3c0 1.2-.4 2.2-1.1 2.9s-1.7 1.1-2.9 1.1c-.7 0-1.4-.1-2-.4s-1.2-.7-1.5-1.2l.8-1c.7.9 1.5 1.3 2.6 1.3.8 0 1.4-.2 1.9-.7s.7-1.1.7-1.9v-.8c-.7.8-1.5 1.1-2.7 1.1-1.1 0-2-.4-2.7-1.3s-1.1-2.2-1.1-3.7zm1.6.2c0 1.1.2 1.9.7 2.5.4.6 1.1.9 1.8.9 1 0 1.8-.5 2.3-1.4v-4.3c-.5-.9-1.2-1.4-2.2-1.4-.8 0-1.4.3-1.9.9s-.7 1.5-.7 2.8zm19.5-3.8c.7-.9 1.7-1.3 2.8-1.3 2 0 3 1.1 3 3.4v6.3h-1.6v-6.3c0-.7-.2-1.2-.5-1.5s-.8-.5-1.4-.5c-.5 0-1 .1-1.4.4s-.7.7-.9 1.1v6.8H187v-13.5h1.6v5.1zm17.3-3.6c0-.3.1-.5.2-.7s.4-.3.7-.3.6.1.7.3.2.4.2.7-.1.5-.2.7-.4.3-.7.3-.6-.1-.7-.3-.2-.5-.2-.7zm1.7 12H206v-9.5h1.6v9.5zm13.3-9.5v10.6c0 1.8-.8 2.7-2.5 2.7-.4 0-.7-.1-1-.2v-1.3c.2 0 .4.1.7.1.4 0 .6-.1.8-.3s.3-.5.3-1v-10.7h1.7zm-1.8-2.5c0-.3.1-.5.2-.7.2-.2.4-.3.7-.3.3 0 .6.1.7.3s.2.4.2.7-.1.5-.2.7-.4.3-.7.3-.6-.1-.7-.3-.2-.5-.2-.7zm16.1 7.6l-1 1.1v3.3h-1.6v-13.5h1.6v8.2l.9-1 3-3.1h2l-3.7 4 4.1 5.5h-1.9l-3.4-4.5zm17.2 4.4h-1.6v-13.5h1.6V197zm13.2-9.5v1.1c.7-.8 1.6-1.2 2.8-1.2 1.3 0 2.2.5 2.7 1.5.3-.5.7-.8 1.2-1.1s1.1-.4 1.8-.4c2.1 0 3.1 1.1 3.2 3.3v6.4h-1.6v-6.3c0-.7-.2-1.2-.5-1.5-.3-.3-.8-.5-1.6-.5-.6 0-1.1.2-1.5.5-.4.4-.6.8-.7 1.5v6.3h-1.6v-6.2c0-1.4-.7-2.1-2-2.1-1.1 0-1.8.5-2.2 1.4v6.9H264v-9.5h1.6zm24.7 0l.1 1.2c.7-.9 1.7-1.4 2.8-1.4 2 0 3 1.1 3 3.4v6.3h-1.6v-6.3c0-.7-.2-1.2-.5-1.5s-.8-.5-1.4-.5c-.5 0-1 .1-1.4.4s-.7.7-.9 1.1v6.8h-1.6v-9.5h1.5zm17 4.7c0-.9.2-1.8.5-2.5s.9-1.3 1.5-1.7 1.4-.6 2.2-.6c1.3 0 2.3.4 3.1 1.3.8.9 1.2 2.1 1.2 3.6v.1c0 .9-.2 1.8-.5 2.5-.4.7-.9 1.3-1.5 1.7-.7.4-1.4.6-2.3.6-1.3 0-2.3-.4-3.1-1.3s-1.2-2.1-1.2-3.6v-.1zm1.6.2c0 1.1.2 1.9.7 2.5s1.1 1 2 1c.8 0 1.5-.3 2-1 .5-.6.7-1.6.7-2.7 0-1-.2-1.9-.7-2.5-.5-.6-1.2-1-2-1s-1.5.3-1.9 1-.8 1.5-.8 2.7zm26.1 0c0 1.4-.3 2.6-1 3.5s-1.6 1.3-2.7 1.3c-1.2 0-2.1-.4-2.7-1.1v4.6H327v-13.2h1.5l.1 1.1c.7-.8 1.6-1.2 2.8-1.2 1.1 0 2 .4 2.7 1.3.7.9 1 2.1 1 3.6v.1zm-1.6-.2c0-1.1-.2-1.9-.7-2.5s-1.1-.9-1.9-.9c-1 0-1.7.4-2.2 1.3v4.5c.5.9 1.2 1.3 2.2 1.3.8 0 1.4-.3 1.9-.9.5-.7.7-1.6.7-2.8zm12.3 0c0-1.5.3-2.7 1-3.5.7-.9 1.6-1.3 2.8-1.3 1.1 0 2 .4 2.7 1.1l.1-1h1.5v13.2h-1.6v-4.5c-.7.7-1.5 1.1-2.6 1.1s-2.1-.4-2.7-1.3c-.7-.9-1-2.1-1-3.6v-.2zm1.6.2c0 1.1.2 1.9.7 2.6.5.6 1.1.9 1.9.9 1 0 1.7-.4 2.2-1.3v-4.7c-.5-.8-1.2-1.3-2.2-1.3-.8 0-1.4.3-1.9.9-.4.7-.7 1.6-.7 2.9zm22.6-3.5c-.2 0-.5-.1-.8-.1-1.1 0-1.8.5-2.2 1.4v6.8h-1.6v-9.5h1.6v1.1c.5-.8 1.3-1.3 2.3-1.3.3 0 .6 0 .7.1v1.5zm16.1 5.6c0-.4-.2-.8-.5-1-.3-.2-.9-.5-1.7-.6-.8-.2-1.5-.4-2-.6-.5-.2-.8-.5-1.1-.9-.2-.3-.3-.7-.3-1.2 0-.8.3-1.4 1-2 .7-.5 1.5-.8 2.5-.8 1.1 0 2 .3 2.6.8.7.6 1 1.3 1 2.1h-1.6c0-.4-.2-.8-.6-1.2-.4-.3-.9-.5-1.4-.5-.6 0-1.1.1-1.4.4s-.5.6-.5 1 .2.7.5.9.9.4 1.7.6c.8.2 1.5.4 2 .7s.9.6 1.1.9c.2.4.4.8.4 1.3 0 .8-.3 1.5-1 2s-1.6.8-2.6.8c-.8 0-1.4-.1-2-.4s-1-.6-1.4-1.1c-.3-.5-.5-1-.5-1.6h1.6c0 .5.2 1 .7 1.3.4.3.9.5 1.6.5.6 0 1.1-.1 1.5-.4.2-.3.4-.6.4-1zm18.2 0c0-.4-.2-.8-.5-1-.3-.2-.9-.5-1.7-.6-.8-.2-1.5-.4-2-.6-.5-.2-.8-.5-1.1-.9-.2-.3-.3-.7-.3-1.2 0-.8.3-1.4 1-2 .7-.5 1.5-.8 2.5-.8 1.1 0 2 .3 2.6.8.7.6 1 1.3 1 2.1h-1.6c0-.4-.2-.8-.6-1.2-.4-.3-.9-.5-1.4-.5-.6 0-1.1.1-1.4.4s-.5.6-.5 1 .2.7.5.9.9.4 1.7.6c.8.2 1.5.4 2 .7s.9.6 1.1.9c.2.4.4.8.4 1.3 0 .8-.3 1.5-1 2s-1.6.8-2.6.8c-.8 0-1.4-.1-2-.4s-1-.6-1.4-1.1c-.3-.5-.5-1-.5-1.6h1.6c0 .5.2 1 .7 1.3.4.3.9.5 1.6.5.6 0 1.1-.1 1.5-.4.3-.3.4-.6.4-1zm-1.8-9.5l1.3-1.5h1.4v.1l-2.2 2.4h-1l-2.2-2.4v-.1h1.4l1.3 1.5zm16.8.2v2.3h1.8v1.3h-1.8v5.9c0 .4.1.7.2.9s.4.3.8.3c.2 0 .4 0 .8-.1v1.3c-.4.1-.8.2-1.2.2-.7 0-1.3-.2-1.6-.7s-.6-1.1-.6-1.9v-5.9h-1.7v-1.3h1.7v-2.3h1.6zm18.5 10.9c-.6.7-1.6 1.1-2.8 1.1-1 0-1.8-.3-2.3-.9-.5-.6-.8-1.5-.8-2.6v-6.2h1.6v6.1c0 1.4.6 2.2 1.8 2.2 1.2 0 2.1-.5 2.5-1.4v-6.9h1.6v9.5h-1.5l-.1-.9zm16.2-1.3l2.4-7.3h1.7l-3.4 9.5h-1.2l-3.4-9.5h1.7l2.2 7.3zm23 0l1.8-7.3h1.6l-2.8 9.5h-1.3l-2.3-7.2-2.3 7.2h-1.3l-2.8-9.5h1.6l1.9 7.1 2.2-7.1h1.3l2.4 7.3zm17.3-3.8l2.1-3.5h1.9l-3.1 4.7 3.2 4.8h-1.9l-2.2-3.6-2.2 3.6h-1.9l3.2-4.8-3.1-4.7h1.9l2.1 3.5zm17.9 3.6l2.2-7.1h1.7l-3.8 11c-.6 1.6-1.5 2.4-2.8 2.4h-.3l-.6-.1v-1.3h.4c.6 0 1-.1 1.3-.3.3-.2.6-.6.8-1.2l.4-1-3.4-9.4h1.8l2.3 7zm15.9 1.1h5.6v1.3H526v-1.2l5.2-7H526v-1.3h7.2v1.2l-5.2 7zm17.9 0h5.6v1.3H544v-1.2l5.2-7H544v-1.3h7.2v1.2l-5.3 7zm1.8-10.7l1.3-1.5h1.4v.1l-2.2 2.4h-1l-2.2-2.4v-.1h1.4l1.3 1.5zm20.5 12c-.1-.2-.2-.5-.2-1-.8.8-1.7 1.2-2.7 1.2-.9 0-1.7-.3-2.3-.8-.6-.5-.9-1.2-.9-2 0-1 .4-1.8 1.1-2.3.8-.5 1.8-.8 3.2-.8h1.6v-.7c0-.6-.2-1-.5-1.4-.3-.3-.8-.5-1.5-.5-.6 0-1.1.1-1.5.4s-.6.6-.6 1.1h-1.6c0-.5.2-.9.5-1.4s.8-.8 1.4-1.1 1.2-.4 1.9-.4c1.1 0 2 .3 2.6.8s.9 1.3 1 2.3v4.4c0 .9.1 1.6.3 2.1v.1h-1.8zm-2.7-1.2c.5 0 1-.1 1.5-.4s.8-.6 1-1v-2h-1.3c-2 0-3 .6-3 1.7 0 .5.2.9.5 1.2s.8.5 1.3.5zm19.8-7.8c1.2 0 2.2.4 2.9 1.2.7.8 1.1 1.9 1.1 3.2v.1c0 .9-.2 1.7-.5 2.4s-.8 1.3-1.5 1.6c-.6.4-1.4.6-2.2.6-1.3 0-2.3-.4-3.1-1.3-.8-.9-1.2-2-1.2-3.4v-.8c0-2 .4-3.6 1.1-4.8.7-1.2 1.8-1.9 3.3-2.2.8-.1 1.4-.3 1.7-.5s.4-.5.4-.9h1.3c0 .7-.2 1.3-.5 1.7s-.9.7-1.6.9l-1.2.3c-1 .2-1.7.6-2.2 1.2-.5.5-.8 1.3-.9 2.2.8-1 1.8-1.5 3.1-1.5zm-.3 1.4c-.8 0-1.4.3-1.9.8s-.7 1.3-.7 2.2v.1c0 1 .2 1.8.7 2.4.5.6 1.1.9 1.9.9.8 0 1.4-.3 1.9-.9s.7-1.5.7-2.6c0-.9-.2-1.6-.7-2.2-.5-.5-1.1-.7-1.9-.7zm15.2 7.6v-9.5h3.7c1.3 0 2.2.2 2.9.7.7.4 1 1.1 1 1.9 0 .4-.1.8-.4 1.2-.3.4-.7.6-1.2.8.6.1 1 .4 1.4.8.3.4.5.9.5 1.4 0 .9-.3 1.5-1 2-.6.5-1.5.7-2.7.7h-4.2zm1.6-5.5h2.1c1.5 0 2.3-.4 2.3-1.3s-.7-1.4-2.2-1.4h-2.2v2.7zm0 1.3v2.9h2.7c.7 0 1.2-.1 1.5-.4.3-.3.5-.6.5-1.1 0-.9-.7-1.4-2.1-1.4h-2.6z"/></g><g class="bst0"><path class="bst1" d="M8.4 218.8H4v8.2H2.4v-9.5h6v1.3zm16.5 0h-4.4v8.2h-1.6v-9.5h4.4v-2.8h1.6v4.1zm10.3 6.9l.6-.7c.6-.8 1-2.1 1.1-3.7l.1-3.8h6.1v8.2h1.2v4.1h-1.6V227h-6.6v2.8h-1.6v-4.1h.7zm2 0h4.4V219h-2.9l-.1 2.3c-.2 1.9-.6 3.3-1.4 4.4zm22.1-9.3h-2.5v2.3c.7-.9 1.7-1.3 2.8-1.3 2 0 3 1.1 3 3.4v7.1c0 1-.2 1.8-.7 2.3s-1.2.8-2.1.8c-.4 0-.7-.1-1-.2l.1-1.3c.2.1.5.1.9.1s.7-.2.9-.5.3-.7.3-1.3v-7c0-.7-.2-1.2-.5-1.6s-.8-.5-1.4-.5c-.5 0-1 .1-1.4.4s-.7.7-.9 1.1v6.8h-1.6v-10.6h-1.4V215h1.4v-1.5h1.6v1.5h2.5v1.4zM78 227.2c-1.3 0-2.3-.4-3.1-1.3s-1.2-2-1.2-3.4v-.3c0-.9.2-1.8.5-2.5s.9-1.3 1.5-1.7 1.3-.6 2.1-.6c1.2 0 2.2.4 2.9 1.2s1 2 1 3.5v.7h-6.4c0 .9.3 1.7.8 2.3.5.6 1.2.9 2 .9.6 0 1.1-.1 1.5-.4s.7-.5 1-.9l1 .8c-.8 1.1-2 1.7-3.6 1.7zm-.2-8.5c-.7 0-1.2.2-1.7.7s-.7 1.1-.8 2h4.8v-.1c0-.8-.3-1.5-.7-1.9s-.9-.7-1.6-.7zm18.8 8.5c-1.3 0-2.3-.4-3.1-1.3s-1.2-2-1.2-3.4v-.3c0-.9.2-1.8.5-2.5s.9-1.3 1.5-1.7 1.3-.6 2.1-.6c1.2 0 2.2.4 2.9 1.2s1 2 1 3.5v.7h-6.4c0 .9.3 1.7.8 2.3.5.6 1.2.9 2 .9.6 0 1.1-.1 1.5-.4s.7-.5 1-.9l1 .8c-.8 1.1-2 1.7-3.6 1.7zm-3.1-12.3c0-.3.1-.5.2-.7s.4-.3.7-.3.6.1.7.3.2.4.2.7c0 .3-.1.5-.2.7s-.4.3-.7.3-.6-.1-.7-.3-.2-.4-.2-.7zm2.9 3.8c-.7 0-1.2.2-1.7.7s-.7 1.1-.8 2h4.8v-.1c0-.8-.3-1.5-.7-1.9s-1-.7-1.6-.7zm.9-3.7c0-.3.1-.5.2-.7.2-.2.4-.3.7-.3s.6.1.7.3c.2.2.2.4.2.7 0 .3-.1.5-.2.7s-.4.3-.7.3-.6-.1-.7-.3-.2-.5-.2-.7zm17.8 10.8c.6 0 1.1-.2 1.5-.5s.7-.8.7-1.3h1.5c0 .6-.2 1.1-.6 1.6s-.8.9-1.4 1.2c-.6.3-1.2.4-1.8.4-1.3 0-2.3-.4-3.1-1.3s-1.1-2.1-1.1-3.6v-.3c0-.9.2-1.8.5-2.5s.8-1.3 1.5-1.7 1.4-.6 2.3-.6c1.1 0 2 .3 2.7 1s1.1 1.5 1.1 2.5h-1.5c0-.6-.3-1.1-.7-1.5-.4-.4-.9-.6-1.5-.6-.8 0-1.4.3-1.8.8-.5.5-.7 1.2-.8 2.2h3.6v1.3h-3.6c.1.9.3 1.7.8 2.2.3.5.9.7 1.7.7zm22.3-2.9h-1.1v4.1h-1.6v-4.1h-1.1l-2.7 4.1h-2.1l3.4-4.9-3.1-4.6h2l2.5 3.9h1.1v-3.9h1.6v3.9h1.1l2.5-3.9h2l-3.1 4.6 3.4 4.9h-2.1l-2.7-4.1zm20.4-2.8c0-.4-.2-.8-.5-1.1s-.8-.4-1.4-.4c-.6 0-1.1.1-1.4.4s-.6.7-.6 1.1h-1.6c0-.8.3-1.5 1-2s1.6-.8 2.6-.8c1.1 0 2 .2 2.6.7.6.5.9 1.2.9 2 0 .4-.1.8-.4 1.2-.3.4-.6.6-1.1.9 1.1.4 1.7 1.1 1.7 2.2 0 .9-.3 1.6-1 2.1s-1.6.8-2.7.8-2-.3-2.7-.8c-.7-.5-1.1-1.3-1.1-2.2h1.6c0 .5.2.9.6 1.2s.9.5 1.5.5 1.1-.1 1.5-.4.6-.7.6-1.1c0-.5-.2-.9-.5-1.1-.3-.2-.8-.3-1.5-.3h-1.6v-1.4h1.8c1.2-.2 1.7-.6 1.7-1.5zm18.5 4.4c0-.4-.2-.8-.5-1-.3-.2-.9-.5-1.7-.6s-1.5-.4-2-.6-.8-.5-1.1-.9-.3-.7-.3-1.2c0-.8.3-1.4 1-2s1.5-.8 2.5-.8c1.1 0 2 .3 2.6.8s1 1.3 1 2.1h-1.6c0-.4-.2-.8-.6-1.2s-.9-.5-1.4-.5c-.6 0-1.1.1-1.4.4s-.5.6-.5 1 .2.7.5.9.9.4 1.7.6 1.5.4 2 .7.9.6 1.1.9c.2.4.4.8.4 1.3 0 .8-.3 1.5-1 2s-1.6.8-2.6.8c-.8 0-1.4-.1-2-.4s-1-.6-1.4-1.1c-.3-.5-.5-1-.5-1.6h1.6c0 .5.2 1 .7 1.3.4.3.9.5 1.6.5.6 0 1.1-.1 1.5-.4.2-.3.4-.6.4-1zm18.9-7h1.6v9.5h-1.6v-6.9l-4.4 6.9h-1.6v-9.5h1.6v6.9l4.4-6.9zm13.2-2.5c0-.3.1-.5.2-.7s.4-.3.7-.3.6.1.7.3.2.4.2.7-.1.5-.2.7-.4.3-.7.3-.6-.1-.7-.3-.2-.5-.2-.7zm1.8 12h-1.6v-9.5h1.6v9.5zm9.8-12c0-.3.1-.5.2-.7s.4-.3.7-.3.6.1.7.3.2.4.2.7c0 .3-.1.5-.2.7s-.4.3-.7.3-.6-.1-.7-.3-.2-.5-.2-.7zm3.6 12H222v-9.5h1.6v9.5zm.1-12c0-.3.1-.5.2-.7.2-.2.4-.3.7-.3s.6.1.7.3c.2.2.2.4.2.7 0 .3-.1.5-.2.7s-.4.3-.7.3-.6-.1-.7-.3-.2-.5-.2-.7zm17.7 2.5h1.6v9.5h-1.6v-6.9L237 227h-1.6v-9.5h1.6v6.9l4.4-6.9zm.4-3.5c0 .7-.2 1.3-.7 1.7s-1.1.6-1.9.6-1.4-.2-1.9-.7c-.5-.4-.7-1-.7-1.7h1.3c0 .4.1.7.3 1 .2.2.5.3 1 .3.4 0 .7-.1 1-.3s.3-.6.3-1h1.3zm14.5 3.5v10.6c0 1.8-.8 2.7-2.5 2.7-.4 0-.7-.1-1-.2v-1.3c.2 0 .4.1.7.1.4 0 .6-.1.8-.3s.3-.5.3-1v-10.7h1.7zm-1.8-2.5c0-.3.1-.5.2-.7.2-.2.4-.3.7-.3.3 0 .6.1.7.3s.2.4.2.7-.1.5-.2.7-.4.3-.7.3-.6-.1-.7-.3-.2-.5-.2-.7zm16.4 7.9h-1.2v4.1h-1.6v-9.5h1.6v4h1.1l3.2-4h2l-3.8 4.6 4.1 4.9h-2.1l-3.3-4.1zm23.5-5.4v9.5h-1.6v-8.2h-3.2l-.2 3.6c-.1 1.6-.4 2.8-.8 3.5s-1.1 1.1-2.1 1.1h-.7v-1.4h.5c.5-.1.9-.4 1.1-.9s.4-1.6.4-3.1l.2-4.1h6.4zm19.1 0v3.6h2.5c1.1 0 1.9.3 2.5.8.6.5.9 1.2.9 2.1 0 .9-.3 1.6-.9 2.1-.6.6-1.5.8-2.5.9h-4.1v-8.2h-3l-.2 3.7c-.1 1.6-.4 2.8-.9 3.4s-1.2 1-2.1 1h-.6v-1.4h.5c.5-.1.9-.3 1.1-.8s.4-1.4.5-2.6l.2-4.6h6.1zm0 4.9v3.2h2.4c.6 0 1.1-.2 1.4-.5.3-.3.5-.7.5-1.2s-.2-.9-.5-1.1-.8-.4-1.4-.4h-2.4zm22.3 2.4l3.2-7.4h2v9.5h-1.6V220l-3.1 6.9h-1.1l-3.1-7.1v7.1h-1.6v-9.5h2.1l3.2 7.4zm24.6 2.2h-1.6v-4.1h-4.4v4.1h-1.6v-9.5h1.6v4.1h4.4v-4.1h1.6v9.5zm13.4-5.9h4.4v-3.6h1.6v3.6h2.5c1.1 0 1.9.3 2.5.8.6.5.9 1.2.9 2.1 0 .9-.3 1.6-1 2.1-.6.5-1.5.8-2.6.8h-4v-4.6h-4.4v4.6h-1.6v-9.5h1.6v3.7zm6 1.3v3.2h2.4c.6 0 1.1-.2 1.4-.5.3-.3.5-.7.5-1.2s-.2-.9-.5-1.1-.8-.4-1.4-.4h-2.4zm16.3-.2c0-.9.2-1.8.5-2.5.4-.7.9-1.3 1.5-1.7.7-.4 1.4-.6 2.2-.6 1.3 0 2.3.4 3.1 1.3.8.9 1.2 2.1 1.2 3.6v.1c0 .9-.2 1.8-.5 2.5-.4.7-.9 1.3-1.5 1.7-.7.4-1.4.6-2.3.6-1.3 0-2.3-.4-3.1-1.3-.8-.9-1.2-2.1-1.2-3.6v-.1zm1.7.2c0 1.1.2 1.9.7 2.5.5.6 1.1 1 2 1 .8 0 1.5-.3 2-1 .5-.6.7-1.6.7-2.7 0-1-.2-1.9-.7-2.5-.5-.6-1.2-1-2-1s-1.5.3-1.9 1-.8 1.5-.8 2.7zm25.8 4.6H422v-8.2h-4.4v8.2H416v-9.5h7.6v9.5zm19.6-4.6c0 1.4-.3 2.6-1 3.5s-1.6 1.3-2.7 1.3c-1.2 0-2.1-.4-2.7-1.1v4.6h-1.6v-13.2h1.5l.1 1.1c.7-.8 1.6-1.2 2.8-1.2 1.1 0 2 .4 2.7 1.3s1 2.1 1 3.6v.1zm-1.6-.2c0-1.1-.2-1.9-.7-2.5s-1.1-.9-1.9-.9c-1 0-1.7.4-2.2 1.3v4.5c.5.9 1.2 1.3 2.2 1.3.8 0 1.4-.3 1.9-.9s.7-1.6.7-2.8zm16.5 3.6c.6 0 1.1-.2 1.5-.5s.7-.8.7-1.3h1.5c0 .5-.2 1.1-.6 1.6s-.8.9-1.4 1.2-1.2.4-1.8.4c-1.3 0-2.3-.4-3.1-1.3-.8-.9-1.1-2-1.1-3.5v-.3c0-.9.2-1.7.5-2.5s.8-1.3 1.5-1.7 1.4-.6 2.3-.6c1.1 0 2 .3 2.7 1 .7.6 1.1 1.5 1.1 2.5h-1.5c0-.6-.3-1.1-.7-1.5-.4-.4-.9-.6-1.6-.6-.8 0-1.5.3-1.9.9s-.7 1.5-.7 2.6v.3c0 1.1.2 1.9.7 2.5s1.1.8 1.9.8zm21.7-7h-3.2v8.2H475v-8.2h-3.1v-1.3h7.9v1.3zm14.9-2.5H492v2.3c.7-.9 1.7-1.3 2.8-1.3 2 0 3 1.1 3 3.4v6.3h-1.6v-6.3c0-.7-.2-1.2-.5-1.5-.3-.3-.8-.5-1.4-.5-.5 0-1 .1-1.4.4s-.7.7-.9 1.1v6.8h-1.6v-10.7h-1.3V215h1.3v-1.5h1.6v1.5h2.7v1.3zm18 8.3l2.2-7.1h1.7l-3.8 11c-.6 1.6-1.5 2.4-2.8 2.4h-.3l-.6-.1v-1.3h.4c.6 0 1-.1 1.3-.3.3-.2.6-.6.8-1.2l.4-1-3.4-9.4h1.8l2.3 7zm17.5 0l2.2-7.1h1.7l-3.8 11c-.6 1.6-1.5 2.4-2.8 2.4h-.3l-.6-.1v-1.3h.4c.6 0 1-.1 1.3-.3.3-.2.6-.6.8-1.2l.4-1-3.4-9.4h1.8l2.3 7zm2.8-10.8c0 .7-.2 1.3-.7 1.7-.5.4-1.1.6-1.9.6s-1.4-.2-1.9-.7c-.5-.4-.7-1-.7-1.7h1.3c0 .4.1.7.3 1 .2.2.5.3 1 .3.4 0 .7-.1 1-.3s.3-.6.3-1h1.3zm11.2 8.6c0-1.6.3-2.8.9-3.7s1.5-1.4 2.5-1.4c.5 0 .9.1 1.3.3v-4.1h1.6v4.1c.4-.2.9-.3 1.4-.3 1.1 0 1.9.5 2.5 1.4s.9 2.2.9 3.9c0 1.4-.3 2.5-.9 3.3s-1.5 1.2-2.5 1.2c-.6 0-1.1-.1-1.5-.3v3.8h-1.6v-3.7c-.4.2-.8.3-1.3.3-1.1 0-1.9-.4-2.5-1.2s-.9-2-.9-3.4v-.2zm1.6.2c0 1.1.2 1.9.6 2.4s.9.8 1.6.8c.3 0 .6-.1.9-.2v-6.9c-.2-.1-.5-.1-.9-.1-.7 0-1.3.3-1.7 1s-.5 1.6-.5 3zm8-.2c0-1.2-.2-2.1-.6-2.8-.4-.7-1-1-1.7-1-.4 0-.7.1-1 .2v6.9c.3.1.6.1 1 .1.7 0 1.3-.3 1.7-.8.4-.5.6-1.4.6-2.6zm15.8-1.4l2.1-3.5h1.9l-3.1 4.7 3.2 4.8h-1.9l-2.2-3.6-2.2 3.6h-1.9l3.2-4.8-3.1-4.7h1.9l2.1 3.5zm14.9-3.5h1.6v8.2h4.4v-8.2h1.6v8.2h1.1l-.2 4.1h-1.5V227h-7.2v-9.5zM611 227h-1.6v-3.4c-.7.2-1.4.3-2.2.3-1.2 0-2.1-.3-2.7-.9-.6-.6-.9-1.5-1-2.6v-2.8h1.6v2.9c0 1.4.7 2.1 2 2.1.8 0 1.5-.1 2.2-.3v-4.7h1.6v9.4z"/></g><g class="bst0"><path class="bst1" d="M4 247.5v8.2h4.4v-8.2H10v9.5H7v3.1H5.4V257h-3v-9.5H4zm19.4 0v8.2h3.5v-8.2h1.6v8.2H32v-8.2h1.6v9.5H21.8v-9.5h1.6zm23.5 0v8.2h3.5v-8.2H52v8.2h3.5v-8.2h1.6v8.2h1.3l-.2 4.1h-1.5V257H45.2v-9.5h1.7zm21.2 0h4.4v3.3H75c1.1 0 1.9.3 2.6.8s.9 1.3.9 2.2c0 .9-.3 1.7-1 2.3-.6.6-1.5.9-2.6.9h-4v-8.2h-2.8v-1.3zm4.4 4.6v3.6H75c.6 0 1.1-.2 1.4-.5s.5-.7.5-1.3c0-.5-.2-1-.5-1.3s-.8-.5-1.4-.5h-2.5zm18.5-1.3h2.5c1.1 0 1.9.3 2.6.8s.9 1.3.9 2.2c0 .9-.3 1.7-1 2.3-.6.6-1.5.9-2.6.9h-4v-9.5H91v3.3zm0 1.3v3.6h2.4c.6 0 1.1-.2 1.4-.5s.5-.7.5-1.3c0-.5-.2-1-.5-1.3s-.8-.5-1.4-.5H91zm9.4 4.9h-1.6v-9.5h1.6v9.5zm13.6-6.2h2.5c1.1 0 1.9.3 2.6.8s.9 1.3.9 2.2c0 .9-.3 1.7-1 2.3-.6.6-1.5.9-2.6.9h-4v-9.5h1.6v3.3zm0 1.3v3.6h2.4c.6 0 1.1-.2 1.4-.5s.5-.7.5-1.3c0-.5-.2-1-.5-1.3s-.8-.5-1.4-.5H114zm20.3-3.4c-.6 0-1.1.2-1.5.6s-.6.8-.6 1.3h-1.5c0-.5.2-1.1.5-1.6s.8-.9 1.4-1.2c.6-.3 1.2-.4 1.8-.4 1.2 0 2.2.4 3 1.3.8.9 1.1 2.1 1.1 3.5v.3c0 .9-.2 1.7-.5 2.4s-.8 1.3-1.5 1.7-1.3.6-2.2.6c-1.1 0-1.9-.3-2.6-1-.7-.7-1.1-1.5-1.1-2.5h1.5c0 .6.2 1.1.6 1.5.4.4.9.6 1.5.6.7 0 1.3-.3 1.7-.8s.7-1.3.8-2.2h-3.6v-1.3h3.6c-.1-.9-.3-1.5-.8-2.1-.3-.5-.9-.7-1.6-.7zm17.1 2.8h2.3c.1-1.3.6-2.3 1.3-3.1s1.8-1.2 2.9-1.2c1.2 0 2.3.4 3 1.3s1.2 1.9 1.3 3.3v.5c0 .9-.2 1.8-.5 2.5s-.9 1.3-1.5 1.7-1.4.6-2.3.6c-1.2 0-2.2-.4-3-1.2-.8-.8-1.2-1.8-1.3-3.1h-2.3v4.1h-1.6v-9.5h1.6v4.1zm3.9.9c0 1.1.2 1.9.7 2.5s1.1 1 2 1 1.5-.3 2-1 .7-1.6.7-2.7c0-1-.2-1.9-.7-2.5s-1.1-1-2-1c-.8 0-1.5.3-2 1s-.7 1.5-.7 2.7zm25.3-4.9v9.5H179v-3.7h-2.5l-2.2 3.7h-1.8l2.4-3.9c-.6-.2-1.1-.6-1.4-1-.3-.5-.5-1-.5-1.6 0-.9.3-1.6 1-2.1s1.5-.8 2.6-.8h4zm-5.9 2.9c0 .5.2.8.5 1.1s.7.4 1.3.4h2.6v-3.2h-2.3c-.6 0-1.1.1-1.4.4-.6.4-.7.8-.7 1.3zm25.1-2.9v7c0 .8.2 1.2.7 1.2h.3l.2 1.2c-.3.2-.6.3-1.1.3-.9 0-1.4-.5-1.6-1.5-.6 1-1.6 1.5-2.8 1.5-1.1 0-2-.4-2.7-1.2-.7-.8-1-2-1-3.4v-.1c0-1.5.3-2.8 1-3.7.7-.9 1.6-1.4 2.7-1.4 1.2 0 2.1.5 2.7 1.4l.1-1.2h1.5zm-6.3 5.1c0 1 .2 1.8.6 2.4.4.6 1 .9 1.8.9 1 0 1.8-.5 2.2-1.6v-3.9c-.5-1.1-1.2-1.7-2.2-1.7-.8 0-1.4.3-1.8 1s-.6 1.6-.6 2.9zm21.3 2l2.5-7.1h1.7l-3.3 9v4.2h-1.6v-4.2l-3.3-8.9h1.7l2.3 7zm15.2-8.8c0-.8.3-1.4.9-1.9.6-.5 1.4-.7 2.4-.7.8 0 1.6.2 2.4.5v1.4c-.9-.3-1.7-.5-2.4-.5-.5 0-.9.1-1.2.3-.3.2-.4.5-.4.9 0 .6.6 1.2 1.9 1.6 1.3.4 2.3 1.1 2.9 1.9.6.8.9 1.8 1 2.9v.3c0 .9-.2 1.7-.5 2.4s-.8 1.3-1.5 1.6c-.6.4-1.4.6-2.2.6-1.3 0-2.3-.4-3.1-1.3-.8-.9-1.2-2-1.2-3.4v-.1c0-1 .3-1.8.8-2.6s1.2-1.3 2.1-1.5c-.6-.2-1-.5-1.3-1s-.6-.8-.6-1.4zm.6 6.7c0 1 .2 1.8.7 2.4.5.6 1.1.9 1.9.9.8 0 1.4-.3 1.9-.9.5-.6.7-1.5.7-2.6 0-.8-.2-1.5-.7-2.2-.5-.6-1.1-1-1.8-1.2-.8 0-1.4.3-1.9.9-.6.7-.8 1.6-.8 2.7zm19.2 1.8c0 .5.2.8.6 1.1s1 .4 1.7.4 1.2-.2 1.7-.5.7-.7.7-1.2h1.6c0 .9-.4 1.6-1.1 2.2-.7.5-1.7.8-2.9.8s-2.2-.3-2.9-.8c-.7-.5-1.1-1.2-1.1-2.1 0-1.1.6-1.8 1.8-2.2-.5-.2-.9-.5-1.2-.9s-.4-.8-.4-1.2c0-.9.3-1.5 1-2s1.6-.7 2.8-.7c1.1 0 2 .3 2.7.8.7.5 1.1 1.2 1.1 2h-1.6c0-.4-.2-.8-.6-1.1s-.9-.4-1.6-.4c-.7 0-1.2.1-1.6.4-.4.3-.6.6-.6 1.1 0 .9.7 1.4 2.1 1.4h1.7v1.3h-2c-1.2.1-1.9.6-1.9 1.6zm24.6-10.1v1.1l-3.1 3.8c-.8.9-1.4 1.8-1.7 2.4-.3.7-.4 1.4-.4 2.2 0 .5.1.9.3 1.2.2.3.5.5 1 .6l2.2.6c.5.1.8.3 1 .6s.3.6.3 1.1c0 .4-.2.9-.5 1.4s-.7.9-1.1 1.2l-.9-.7c.3-.3.5-.6.6-.8.1-.3.2-.5.2-.8 0-.4-.5-.7-1.4-.9s-1.5-.4-1.8-.6c-.6-.3-1-.6-1.3-1.1-.3-.4-.4-1-.4-1.8s.2-1.6.6-2.5 1-1.8 1.8-2.7l2.5-2.8h-5.6v-1.3h7.7zm12.5 3.3l.1 1.2c.7-.9 1.6-1.4 2.8-1.4 1.1 0 1.9.3 2.4.9.5.6.8 1.5.8 2.7v9.8h-1.6V251c0-.8-.2-1.4-.5-1.7s-.8-.5-1.6-.5c-.5 0-1 .1-1.4.4-.4.3-.7.6-.9 1.1v6.9h-1.6v-9.5h1.5zm25.6 3.9c0 1.9-.3 3.3-1 4.3s-1.7 1.5-3 1.5-2.3-.5-3-1.5c-.7-1-1.1-2.4-1.1-4.2v-1.8c0-1.9.3-3.3 1-4.3s1.7-1.5 3-1.5 2.3.5 3 1.4c.7.9 1 2.3 1.1 4.1v2zm-6.4-1.4h4.8v-.5c0-1.3-.2-2.3-.6-3.1-.4-.7-1-1.1-1.8-1.1s-1.4.4-1.8 1.1c-.4.7-.6 1.7-.6 3.1v.5zm4.8 1.3h-4.8v.3c0 1.3.2 2.4.6 3.1s1 1.1 1.8 1.1 1.3-.4 1.8-1.1.6-1.7.6-3v-.4zm15.1-3.8v7.1c0 .4.1.6.2.8.2.2.4.3.8.3.3 0 .5 0 .8-.1v1.3c-.4.1-.8.2-1.3.2-1.5 0-2.2-.9-2.2-2.6v-7h1.7zm15.4 5.4h-.9v4.1h-1.6v-9.5h1.6v4h.8l3.5-4h2l-4 4.6 4.3 4.9h-2l-3.7-4.1zm17.4-9.2c.6 0 1 .1 1.4.4s.6.6.8 1.2l3.8 9.7c.1.3.2.5.4.6.1.1.3.2.5.2h.3l.1 1.3c-.2.1-.4.1-.7.1-.5 0-.8-.1-1-.2-.2-.1-.4-.3-.6-.5s-.4-.6-.5-1.1l-2-5.2-2.5 6.8H357l3.5-9-.8-2.1c-.1-.3-.3-.6-.4-.7-.2-.1-.4-.2-.6-.2h-.4v-1.2c-.1-.1.2-.1.5-.1zm19.6 3.8v5.6c0 1 .2 1.7.5 2.1.3.5.8.7 1.5.7 1.2 0 1.9-.4 2.3-1.3v-7h1.6v9.5h-1.5l-.1-1c-.5.8-1.3 1.2-2.3 1.2-.9 0-1.5-.2-2-.6v4.1h-1.6v-13.2h1.6zm20.6 7.3l2.4-7.3h1.7l-3.4 9.5h-1.2l-3.4-9.5h1.7l2.2 7.3zm21.1-9.1c-.8-.2-1.4-.3-2-.3-.8 0-1.5.2-1.9.5s-.7.7-.7 1.2c0 1.3 1 1.9 2.9 1.9h1.2v1.3h-1.3c-1.1 0-1.9.2-2.5.7-.6.5-.9 1.2-.9 2.1 0 .7.2 1.2.6 1.7.4.5 1 .8 1.8 1 .8.2 1.4.3 1.7.4.4.1.6.2.8.3.5.3.7.7.7 1.4 0 .4-.2.8-.5 1.3s-.7.9-1.1 1.3l-.9-.7.5-.6c.3-.4.4-.7.4-1.1 0-.2-.1-.4-.3-.5s-.7-.3-1.3-.4c-.7-.1-1.3-.3-1.8-.5s-.9-.4-1.3-.8c-.3-.3-.6-.7-.8-1.1-.2-.4-.3-1-.3-1.6 0-.8.2-1.6.7-2.2s1.2-1 2-1.3c-.7-.2-1.2-.6-1.6-1-.4-.4-.6-.9-.6-1.5 0-.9.4-1.7 1.1-2.2.8-.5 1.8-.8 3.1-.8.8 0 1.6.1 2.3.3v1.2zm10.9 6.5c0-.9.2-1.8.5-2.5.4-.7.9-1.3 1.5-1.7.7-.4 1.4-.6 2.2-.6 1.3 0 2.3.4 3.1 1.3.8.9 1.2 2.1 1.2 3.6v.1c0 .9-.2 1.8-.5 2.5-.4.7-.9 1.3-1.5 1.7-.7.4-1.4.6-2.3.6-1.3 0-2.3-.4-3.1-1.3-.8-.9-1.2-2.1-1.2-3.6v-.1zm1.6.2c0 1.1.2 1.9.7 2.5s1.1 1 2 1c.8 0 1.5-.3 2-1 .5-.6.7-1.6.7-2.7 0-1-.2-1.9-.7-2.5-.5-.6-1.2-1-2-1s-1.5.3-1.9 1-.8 1.5-.8 2.7zm26.8-3.6H458v5.8c0 .4.1.7.2.8s.4.3.8.3c.3 0 .5 0 .8-.1v1.3c-.4.1-.8.2-1.3.2-1.5 0-2.2-.9-2.2-2.6v-5.7h-3.5v8.2h-1.6v-8.2h-1.5v-1.3h9.6v1.3zm15-1.5c1.2 0 2.2.4 2.9 1.2s1.1 2 1.2 3.5v.6c0 1.4-.3 2.5-1 3.3-.7.8-1.5 1.2-2.7 1.2-1.1 0-2-.4-2.7-1.1v4.6h-1.6v-8.8c0-.9.2-1.7.5-2.4s.8-1.2 1.4-1.6 1.2-.5 2-.5zm-2.3 7.3c.5.9 1.2 1.3 2.2 1.3.8 0 1.4-.3 1.8-.9.4-.6.7-1.4.7-2.6 0-1.2-.2-2.1-.6-2.8-.4-.7-1-1-1.8-1-.7 0-1.2.3-1.7.9s-.6 1.4-.6 2.4v2.7zm26.3-5.8h-2.5c1.2.9 1.8 2.1 1.8 3.7v.1c0 .8-.2 1.6-.5 2.3-.4.7-.9 1.2-1.5 1.6s-1.4.6-2.2.6c-1.3 0-2.3-.4-3.1-1.3-.8-.9-1.2-2.1-1.2-3.6v-.1c0-.9.2-1.7.5-2.4s.8-1.3 1.5-1.7 1.4-.6 2.2-.6h5.1v1.4zm-7.6 3.6c0 1.1.2 1.9.7 2.6s1.1.9 1.9.9c.8 0 1.5-.3 1.9-1 .5-.6.7-1.5.7-2.7 0-1-.2-1.8-.7-2.4-.5-.6-1.1-.9-1.9-.9-.8 0-1.4.3-1.9.9-.4.5-.7 1.4-.7 2.6zm25.5-3.6H513v5.8c0 .8.3 1.2.9 1.2.3 0 .5-.1.8-.2l.4 1.1c-.4.3-1 .5-1.6.5-.7 0-1.3-.2-1.6-.6-.3-.4-.5-1.1-.5-1.9v-5.8h-3v-1.3h7.9v1.2zm12.6-1.3v5.7c0 1.8.6 2.7 1.8 2.7.8 0 1.4-.4 1.9-1.1s.7-1.6.7-2.7c0-1.4-.4-2.9-1.1-4.6h1.7c.7 1.4 1 2.9 1 4.6 0 1.5-.4 2.8-1.1 3.7-.8.9-1.8 1.4-3 1.4-1.1 0-2-.3-2.6-1-.6-.7-.9-1.6-.9-2.9v-5.8h1.6zm21.4 9.6c-1.5-.1-2.7-.7-3.5-1.6-.8-.9-1.2-2.1-1.2-3.6 0-1 .2-1.9.6-2.6.4-.8.9-1.4 1.7-1.9l.9 1.2c-.9.8-1.4 1.9-1.5 3.4 0 1 .3 1.9.8 2.5.5.7 1.3 1.1 2.3 1.2v-6.3c0-.6.2-1.1.6-1.5.4-.4.9-.5 1.6-.5.8 0 1.5.2 2.1.6.7.4 1.2 1 1.6 1.7s.6 1.5.6 2.4c0 1.4-.4 2.6-1.3 3.4-.8.9-2 1.4-3.6 1.5v4.1h-1.6v-4zm1.6-1.3c1-.1 1.8-.5 2.4-1.2s.9-1.5.9-2.4c0-1-.3-1.8-.8-2.4-.5-.6-1.1-.9-1.9-.9-.4 0-.6.2-.6.7v6.2zm15.9-8.4c1 0 1.8.6 2.3 1.7l1.3 3 2.2-4.5h1.6l-3.1 6.3 1.9 4.4c.4.8.7 1.1 1.1 1.2h.8l-.4 1.4c-.1.1-.3.1-.5.1-.5 0-1-.1-1.3-.4s-.7-.8-1.1-1.6l-1.4-3.3-2.5 5.1H567l3.4-6.9-1.5-3.4c-.4-1.1-1-1.6-1.6-1.6h-.6v-1.3c.6-.2.9-.2 1.1-.2zm23.7.1v8.3c1-.1 1.8-.5 2.4-1.2.6-.7.9-1.5.9-2.6 0-1.4-.4-2.9-1.1-4.5h1.7c.7 1.4 1 2.9 1 4.5 0 1.5-.4 2.7-1.3 3.6-.8.9-2 1.4-3.6 1.5v4h-1.6v-4c-1.5-.2-2.6-.7-3.4-1.6-.8-.9-1.1-2.2-1.1-3.8v-4.3h1.6v4.4c0 1.1.3 2 .7 2.7s1.2 1.1 2.2 1.2v-8.3h1.6zm18.5 0c-.8 1.7-1.2 3.2-1.3 4.6 0 1.2.2 2.1.5 2.8.3.7.8 1 1.4 1 .6 0 1.1-.3 1.4-.8.3-.5.5-1.2.5-2.2v-2.6h1.6v2.7c0 1 .2 1.7.5 2.2s.8.7 1.4.7c.6 0 1.1-.3 1.4-1s.5-1.6.5-2.8c0-1.4-.5-2.9-1.3-4.6h1.7c.8 1.4 1.2 3 1.2 4.6 0 1.6-.3 2.9-.9 3.8-.6.9-1.5 1.3-2.6 1.3-1.4 0-2.4-.7-2.9-2.1-.2.7-.6 1.2-1.1 1.6s-1.1.5-1.8.5c-1.1 0-2-.4-2.6-1.3-.6-.9-.9-2.1-.9-3.8 0-1.7.4-3.2 1.2-4.6h2.1z"/></g><g class="bst0"><path class="bst1" d="M9.8 277.5v7c0 .8.2 1.2.7 1.2h.3l.2 1.2c-.3.2-.6.3-1.1.3-.9 0-1.4-.5-1.6-1.5-.6 1-1.6 1.5-2.8 1.5-1.1 0-2-.4-2.7-1.2s-1-2-1-3.4v-.1c0-1.5.3-2.8 1-3.7.7-.9 1.6-1.4 2.7-1.4 1.2 0 2.1.5 2.7 1.4l.1-1.2h1.5zm-6.3 5.1c0 1 .2 1.8.6 2.4.4.6 1 .9 1.8.9 1 0 1.8-.5 2.2-1.6v-3.9c-.5-1.1-1.2-1.7-2.2-1.7-.8 0-1.4.3-1.8 1s-.6 1.6-.6 2.9zm2.9-9.6h1.5l-1 3h-1l.5-3zm16.3 11.3c0 .5.2.8.6 1.1s1 .4 1.7.4 1.2-.2 1.7-.5.7-.7.7-1.2H29c0 .9-.4 1.6-1.1 2.2s-1.7.8-2.9.8-2.2-.3-2.9-.8c-.7-.5-1.1-1.2-1.1-2.1 0-1.1.6-1.8 1.8-2.2-.5-.2-.9-.5-1.2-.9s-.4-.8-.4-1.2c0-.9.3-1.5 1-2s1.6-.7 2.8-.7c1.1 0 2 .3 2.7.8.7.5 1.1 1.2 1.1 2h-1.6c0-.4-.2-.8-.6-1.1s-.9-.4-1.6-.4c-.7 0-1.2.1-1.6.4-.4.3-.6.6-.6 1.1 0 .9.7 1.4 2.1 1.4h1.7v1.3h-2c-1.2.1-1.9.6-1.9 1.6zm2.2-11.3h1.5l-1 3h-1l.5-3zm16.5 11.3c0 .5.2.8.6 1.1s1 .4 1.7.4 1.2-.2 1.7-.5.7-.7.7-1.2h1.6c0 .9-.4 1.6-1.1 2.2s-1.7.8-2.9.8-2.2-.3-2.9-.8c-.7-.5-1.1-1.2-1.1-2.1 0-1.1.6-1.8 1.8-2.2-.5-.2-.9-.5-1.2-.9s-.4-.8-.4-1.2c0-.9.3-1.5 1-2s1.6-.7 2.8-.7c1.1 0 2 .3 2.7.8.7.5 1.1 1.2 1.1 2h-1.6c0-.4-.2-.8-.6-1.1s-.9-.4-1.6-.4c-.7 0-1.2.1-1.6.4-.4.3-.6.6-.6 1.1 0 .9.7 1.4 2.1 1.4h1.7v1.3h-2c-1.2.1-1.9.6-1.9 1.6zm2.2-11.3h1.5l-1 3h-1l.5-3zm17.3 4.5v7.1c0 .4.1.6.2.8s.4.3.8.3c.3 0 .5 0 .8-.1v1.3c-.4.1-.8.2-1.3.2-1.5 0-2.2-.9-2.2-2.6v-7h1.7zm-.9-4.3h1.5l-1 3h-1l.5-3zm12.2 1.9c0-.3.1-.5.2-.7s.4-.3.7-.3.6.1.7.3.2.4.2.7c0 .3-.1.5-.2.7s-.4.3-.7.3-.6-.1-.7-.3-.2-.4-.2-.7zm3.5 2.4v7.1c0 .4.1.6.2.8s.4.3.8.3c.3 0 .5 0 .8-.1v1.3c-.4.1-.8.2-1.3.2-1.5 0-2.2-.9-2.2-2.6v-7h1.7zm.2-2.4c0-.3.1-.5.2-.7.2-.2.4-.3.7-.3s.6.1.7.3c.2.2.2.4.2.7 0 .3-.1.5-.2.7s-.4.3-.7.3-.6-.1-.7-.3-.2-.4-.2-.7zm10.4 0c0-.3.1-.5.2-.7s.4-.3.7-.3.6.1.7.3.2.4.2.7c0 .3-.1.5-.2.7s-.4.3-.7.3-.6-.1-.7-.3-.2-.4-.2-.7zm4.3 2.4v7.1c0 .4.1.6.2.8s.4.3.8.3c.3 0 .5 0 .8-.1v1.3c-.4.1-.8.2-1.3.2-1.5 0-2.2-.9-2.2-2.6v-7h1.7zm-1-5h1.7l-.9 2.3h-1.2l.4-2.3zm1.7 2.6c0-.3.1-.5.2-.7.2-.2.4-.3.7-.3s.6.1.7.3c.2.2.2.4.2.7 0 .3-.1.5-.2.7s-.4.3-.7.3-.6-.1-.7-.3-.2-.4-.2-.7zm9.5-2.2h1.5l-1 3h-1l.5-3zm4.6 14.1h-1.7v-12.8h1.7V287zm11.4-4.8c0-.9.2-1.8.5-2.5s.9-1.3 1.5-1.7 1.4-.6 2.2-.6c1.3 0 2.3.4 3.1 1.3s1.2 2.1 1.2 3.6v.1c0 .9-.2 1.8-.5 2.5-.4.7-.9 1.3-1.5 1.7s-1.4.6-2.3.6c-1.3 0-2.3-.4-3.1-1.3s-1.2-2.1-1.2-3.6v-.1zm1.6.2c0 1.1.2 1.9.7 2.5s1.1 1 2 1c.8 0 1.5-.3 2-1 .5-.6.7-1.6.7-2.7 0-1-.2-1.9-.7-2.5-.5-.6-1.2-1-2-1s-1.5.3-1.9 1-.8 1.5-.8 2.7zm2.5-9.4h1.5l-1 3h-1l.5-3zm17.2 4.5v5.7c0 1.8.6 2.7 1.8 2.7.8 0 1.4-.4 1.9-1.1s.7-1.6.7-2.7c0-1.4-.4-2.9-1.1-4.6h1.7c.7 1.4 1 2.9 1 4.6 0 1.5-.4 2.8-1.1 3.7-.8.9-1.8 1.4-3 1.4-1.1 0-2-.3-2.6-1s-.9-1.6-.9-2.9v-5.8h1.6zm1.7-4.3h1.5l-1 3h-1l.5-3zm17.1 4.3v5.7c0 1.8.6 2.7 1.8 2.7.8 0 1.4-.4 1.9-1.1s.7-1.6.7-2.7c0-1.4-.4-2.9-1.1-4.6h1.7c.7 1.4 1 2.9 1 4.6 0 1.5-.4 2.8-1.1 3.7-.8.9-1.8 1.4-3 1.4-1.1 0-2-.3-2.6-1s-.9-1.6-.9-2.9v-5.8h1.6zm-1.6-2.4c0-.3.1-.5.2-.7s.4-.3.7-.3.6.1.7.3.2.4.2.7c0 .3-.1.5-.2.7s-.4.3-.7.3-.6-.1-.7-.3-.2-.4-.2-.7zm3.3-2.6h1.7l-.9 2.3h-1.2l.4-2.3zm1.7 2.6c0-.3.1-.5.2-.7.2-.2.4-.3.7-.3s.6.1.7.3c.2.2.2.4.2.7 0 .3-.1.5-.2.7s-.4.3-.7.3-.6-.1-.7-.3-.2-.4-.2-.7zm15.4 2.4v5.7c0 1.8.6 2.7 1.8 2.7.8 0 1.4-.4 1.9-1.1s.7-1.6.7-2.7c0-1.4-.4-2.9-1.1-4.6h1.7c.7 1.4 1 2.9 1 4.6 0 1.5-.4 2.8-1.1 3.7-.8.9-1.8 1.4-3 1.4-1.1 0-2-.3-2.6-1s-.9-1.6-.9-2.9v-5.8h1.6zm-.9-2.4c0-.3.1-.5.2-.7s.4-.3.7-.3.6.1.7.3.2.4.2.7c0 .3-.1.5-.2.7s-.4.3-.7.3-.6-.1-.7-.3-.2-.4-.2-.7zm3.8 0c0-.3.1-.5.2-.7.2-.2.4-.3.7-.3s.6.1.7.3c.2.2.2.4.2.7 0 .3-.1.5-.2.7s-.4.3-.7.3-.6-.1-.7-.3-.2-.4-.2-.7zm20.2 11.9c-.1-.2-.2-.5-.2-1-.8.8-1.7 1.2-2.7 1.2-.9 0-1.7-.3-2.3-.8s-.9-1.2-.9-2c0-1 .4-1.8 1.1-2.3s1.8-.8 3.2-.8h1.6v-.7c0-.6-.2-1-.5-1.4-.3-.3-.8-.5-1.5-.5-.6 0-1.1.1-1.5.4s-.6.6-.6 1.1h-1.6c0-.5.2-.9.5-1.4s.8-.8 1.4-1.1 1.2-.4 1.9-.4c1.1 0 2 .3 2.6.8s.9 1.3 1 2.3v4.4c0 .9.1 1.6.3 2.1v.1h-1.8zm.6-13.2c0 .7-.2 1.3-.7 1.7s-1.1.6-1.9.6-1.4-.2-1.9-.7c-.5-.4-.7-1-.7-1.7h1.3c0 .4.1.7.3 1 .2.2.5.3 1 .3.4 0 .7-.1 1-.3s.3-.6.3-1h1.3zm-3.3 12c.5 0 1-.1 1.5-.4s.8-.6 1-1v-2h-1.3c-2 0-3 .6-3 1.7 0 .5.2.9.5 1.2s.7.5 1.3.5zm21.5 1.2c-.1-.2-.2-.5-.2-1-.8.8-1.7 1.2-2.7 1.2-.9 0-1.7-.3-2.3-.8s-.9-1.2-.9-2c0-1 .4-1.8 1.1-2.3s1.8-.8 3.2-.8h1.6v-.7c0-.6-.2-1-.5-1.4-.3-.3-.8-.5-1.5-.5-.6 0-1.1.1-1.5.4s-.6.6-.6 1.1h-1.6c0-.5.2-.9.5-1.4s.8-.8 1.4-1.1 1.2-.4 1.9-.4c1.1 0 2 .3 2.6.8s.9 1.3 1 2.3v4.4c0 .9.1 1.6.3 2.1v.1h-1.8zm.6-11.1l-1.3.1-1.3-1.5-1.3 1.5H213v-.1l2.2-2.4h1l2 2.4zm-3.3 9.9c.5 0 1-.1 1.5-.4s.8-.6 1-1v-2H216c-2 0-3 .6-3 1.7 0 .5.2.9.5 1.2s.8.5 1.4.5zm19.5 1.4c-1.3 0-2.3-.4-3.1-1.3s-1.2-2-1.2-3.4v-.3c0-.9.2-1.8.5-2.5s.9-1.3 1.5-1.7 1.3-.6 2.1-.6c1.2 0 2.2.4 2.9 1.2s1 2 1 3.5v.7h-6.4c0 .9.3 1.7.8 2.3.5.6 1.2.9 2 .9.6 0 1.1-.1 1.5-.4s.7-.5 1-.9l1 .8c-.8 1.1-2 1.7-3.6 1.7zm2.5-11.3l-1.3.1-1.3-1.5-1.3 1.5h-1.3v-.1l2.2-2.4h1l2 2.4zm-2.7 2.8c-.7 0-1.2.2-1.7.7s-.7 1.1-.8 2h4.8v-.1c0-.8-.3-1.5-.7-1.9s-.9-.7-1.6-.7zm14.4 3.5c0-.9.2-1.8.5-2.5s.9-1.3 1.5-1.7 1.4-.6 2.2-.6c1.3 0 2.3.4 3.1 1.3s1.2 2.1 1.2 3.6v.1c0 .9-.2 1.8-.5 2.5-.4.7-.9 1.3-1.5 1.7s-1.4.6-2.3.6c-1.3 0-2.3-.4-3.1-1.3s-1.2-2.1-1.2-3.6v-.1zm6.9-6.3l-1.3.1-1.3-1.5-1.3 1.5h-1.3v-.1l2.2-2.4h1l2 2.4zm-5.3 6.5c0 1.1.2 1.9.7 2.5s1.1 1 2 1c.8 0 1.5-.3 2-1 .5-.6.7-1.6.7-2.7 0-1-.2-1.9-.7-2.5-.5-.6-1.2-1-2-1s-1.5.3-1.9 1-.8 1.5-.8 2.7zm17.7-.2c0-.9.2-1.8.5-2.5s.9-1.3 1.5-1.7 1.4-.6 2.2-.6c1.2 0 2.2.4 3 1.2.4 0 .7-.2.9-.5s.3-.8.3-1.6h1.3c0 1.7-.6 2.7-1.8 3 .4.8.6 1.7.6 2.7v.2c0 .9-.2 1.8-.5 2.5s-.9 1.3-1.5 1.7-1.4.6-2.3.6c-1.3 0-2.3-.4-3.1-1.3-.8-.9-1.2-2.1-1.2-3.6v-.1zm1.6.2c0 1.1.2 1.9.7 2.5s1.1 1 2 1c.8 0 1.5-.3 2-1 .5-.6.7-1.5.7-2.6v-.1c0-1.1-.2-1.9-.7-2.5s-1.1-1-2-1c-.8 0-1.5.3-2 1s-.7 1.5-.7 2.7zm28.2-5.7c0 1.1-.2 1.8-.6 2.2-.4.4-1.1.7-2.1.7v7.4h-1.5v-.9c-.6.7-1.6 1.1-2.8 1.1-1 0-1.8-.3-2.3-.9-.5-.6-.8-1.5-.8-2.6v-6.2h1.6v6.1c0 1.4.6 2.2 1.8 2.2 1.2 0 2.1-.5 2.5-1.4v-6.9h1.6v1.2c.4 0 .7-.1.9-.2s.3-.3.4-.5.1-.6.1-1.3h1.2z"/></g><g class="bst0"><path class="bst1" d="M7.4 379H5.8v-10.8l-3.3 1.2v-1.5l4.7-1.7h.3V379zm22.2 0h-8.4v-1.2l4.4-4.9c.7-.7 1.1-1.3 1.4-1.8.2-.5.4-.9.4-1.4 0-.7-.2-1.2-.6-1.6s-.9-.6-1.6-.6c-.8 0-1.4.2-1.9.7-.4.5-.7 1.1-.7 1.9H21c0-1.2.4-2.1 1.1-2.9s1.8-1.1 3-1.1 2.1.3 2.8.9c.7.6 1 1.5 1 2.5 0 1.3-.8 2.8-2.4 4.5l-3.4 3.7h6.4v1.3zm13-7.2h1.2c.8 0 1.4-.2 1.8-.6s.7-.9.7-1.6c0-1.5-.7-2.3-2.2-2.3-.7 0-1.3.2-1.7.6-.4.4-.6.9-.6 1.6h-1.6c0-1 .4-1.9 1.1-2.5.7-.7 1.7-1 2.8-1 1.2 0 2.2.3 2.8 1s1 1.5 1 2.7c0 .6-.2 1.1-.5 1.6s-.9.9-1.5 1.2c.7.2 1.2.6 1.6 1.1s.6 1.1.6 1.9c0 1.1-.4 2.1-1.1 2.7s-1.7 1-2.9 1-2.2-.3-2.9-1-1.1-1.5-1.1-2.6h1.6c0 .7.2 1.2.7 1.6s1 .6 1.8.6 1.4-.2 1.8-.6.6-1 .6-1.8c0-.7-.2-1.3-.7-1.7s-1.1-.6-2-.6h-1.2v-1.3zm23.7 2.9H68v1.3h-1.8v3h-1.6v-3h-5.8v-1l5.7-8.9h1.7v8.6zm-5.7 0h4v-6.3l-.2.4-3.8 5.9zm18.6-2.1l.7-6.4h6.6v1.5h-5.2l-.4 3.5c.6-.4 1.3-.6 2.1-.6 1.2 0 2.1.4 2.8 1.2.7.8 1 1.8 1 3.1s-.4 2.4-1.1 3.1c-.7.8-1.7 1.1-3 1.1-1.1 0-2.1-.3-2.8-.9s-1.1-1.5-1.2-2.6h1.5c.1.7.4 1.3.8 1.7s1 .6 1.7.6c.8 0 1.3-.3 1.8-.8s.6-1.2.6-2.1c0-.9-.2-1.5-.7-2.1-.5-.5-1.1-.8-1.9-.8-.7 0-1.3.2-1.7.5l-.4.4-1.2-.4zm24.8-6.4v1.4h-.3c-1.3 0-2.3.4-3 1.1s-1.2 1.7-1.3 3.1c.7-.8 1.6-1.2 2.8-1.2 1.1 0 2 .4 2.7 1.2s1 1.8 1 3c0 1.3-.4 2.4-1.1 3.2s-1.7 1.2-2.9 1.2-2.2-.5-3-1.4c-.8-.9-1.1-2.2-1.1-3.6v-.6c0-2.4.5-4.2 1.5-5.4 1-1.2 2.5-1.9 4.5-1.9h.2zm-2.2 5.8c-.6 0-1.1.2-1.5.5s-.8.8-1 1.3v.6c0 1.1.2 1.9.7 2.5s1.1 1 1.8 1 1.3-.3 1.7-.8.6-1.2.6-2.1c0-.9-.2-1.6-.6-2.1s-1-.9-1.7-.9zm23.2-4.9l-5.3 11.9H118l5.3-11.5h-6.9v-1.3h8.6v.9zm18.6 2.4c0 .6-.2 1.2-.5 1.7s-.8.9-1.4 1.2c.7.3 1.2.7 1.6 1.3s.6 1.2.6 1.9c0 1.1-.4 2-1.1 2.6s-1.7 1-2.9 1-2.2-.3-3-1c-.7-.7-1.1-1.5-1.1-2.6 0-.7.2-1.3.6-1.9s.9-1 1.6-1.3c-.6-.3-1-.7-1.3-1.2s-.5-1.1-.5-1.7c0-1.1.3-1.9 1-2.6s1.6-.9 2.7-.9 2 .3 2.7.9 1 1.6 1 2.6zm-1.4 6c0-.7-.2-1.3-.7-1.7s-1-.7-1.8-.7-1.3.2-1.8.7-.7 1-.7 1.8.2 1.3.6 1.7 1 .6 1.8.6 1.4-.2 1.8-.6.8-1.1.8-1.8zm-2.4-8.1c-.6 0-1.2.2-1.6.6-.4.4-.6.9-.6 1.6 0 .7.2 1.2.6 1.6.4.4.9.6 1.6.6s1.2-.2 1.6-.6c.4-.4.6-.9.6-1.6s-.2-1.2-.6-1.6-1-.6-1.6-.6zm21.4 6c-.3.4-.7.7-1.2 1s-1 .4-1.6.4c-.7 0-1.4-.2-1.9-.5s-1-.9-1.3-1.5c-.3-.7-.4-1.4-.4-2.2 0-.9.2-1.6.5-2.3s.8-1.2 1.4-1.6 1.3-.5 2.1-.5c1.3 0 2.3.5 3 1.4s1.1 2.2 1.1 3.9v.5c0 2.5-.5 4.3-1.5 5.5-1 1.1-2.5 1.7-4.5 1.8h-.3v-1.4h.3c1.3 0 2.4-.4 3.1-1 .7-1 1.1-2.1 1.2-3.5zm-2.6 0c.5 0 1-.2 1.5-.5s.8-.7 1-1.2v-.7c0-1.1-.2-1.9-.7-2.6s-1-1-1.8-1c-.7 0-1.3.3-1.7.8s-.7 1.3-.7 2.2c0 .9.2 1.6.6 2.2s1.1.8 1.8.8zm23.5.1c0 1.9-.3 3.3-1 4.2s-1.7 1.4-3 1.4c-1.4 0-2.4-.5-3-1.4-.7-.9-1-2.3-1-4.1v-2.2c0-1.9.3-3.3 1-4.2s1.7-1.4 3.1-1.4c1.4 0 2.4.4 3 1.3.7.9 1 2.2 1 4.1v2.3zm-1.7-2.2c0-1.4-.2-2.4-.6-3s-1-.9-1.8-.9-1.4.3-1.8.9-.6 1.6-.6 2.9v2.6c0 1.4.2 2.4.6 3.1.4.7 1 1 1.8 1s1.4-.3 1.8-.9.6-1.6.6-2.9v-2.8zm14-6l.9.6c-.5.7-.8 1.5-.8 2.4v1.2h-1.6v-1c0-.6.1-1.2.4-1.8s.7-1 1.1-1.4zm13.4 10.1c0-.7.1-1.2.2-1.6.1-.4.4-.9.9-1.3l1.2-1.2c.5-.6.7-1.2.7-1.8 0-.6-.2-1.1-.5-1.4-.3-.3-.8-.5-1.4-.5-.6 0-1.1.2-1.4.5s-.5.7-.5 1.3h-1.6c0-.9.4-1.7 1-2.3s1.5-.9 2.6-.9 2 .3 2.6.9.9 1.4.9 2.4-.5 2-1.4 3l-1 .9c-.4.5-.6 1.2-.6 2h-1.7zm-.1 2.8c0-.3.1-.5.2-.7s.4-.3.7-.3.6.1.7.3.2.4.2.7c0 .3-.1.5-.2.7s-.4.3-.7.3-.6-.1-.7-.3-.2-.5-.2-.7zm15.8-8.4l-.9-.6c.5-.8.8-1.6.8-2.4v-1.3h1.6v1.1c0 .6-.2 1.2-.4 1.8s-.6 1-1.1 1.4zm12.8-4.5l.9.6c-.5.7-.8 1.5-.8 2.4v1.2h-1.6v-1c0-.6.1-1.2.4-1.8s.6-1 1.1-1.4zm2.7 0l.9.6c-.5.7-.8 1.5-.8 2.4v1.2h-1.6v-1c0-.6.1-1.2.4-1.8s.7-1 1.1-1.4zm11.6 12.9c0-.3.1-.5.2-.7s.4-.3.7-.3.6.1.7.3.2.4.2.7c0 .3-.1.5-.2.7s-.4.3-.7.3-.6-.1-.7-.3-.2-.5-.2-.7zm1.6-2.8h-1.5l-.1-9.2h1.7l-.1 9.2zm12.1-5.6l-.9-.6c.5-.8.8-1.6.8-2.4v-1.3h1.6v1.1c0 .6-.2 1.2-.4 1.8s-.7 1-1.1 1.4zm2.7 0l-.9-.6c.5-.8.8-1.6.8-2.4v-1.3h1.6v1.1c0 .6-.2 1.2-.4 1.8s-.7 1-1.1 1.4zm12.4 4c0-1.3.2-2.6.5-3.8s.9-2.3 1.6-3.3 1.4-1.7 2.2-2.1l.3 1.1c-.9.7-1.6 1.7-2.1 3s-.8 2.9-.9 4.5v.7c0 2.3.4 4.2 1.2 5.9.5 1 1.1 1.8 1.8 2.3l-.3 1c-.8-.4-1.5-1.2-2.2-2.2-1.4-1.9-2.1-4.3-2.1-7.1zm14.9-5.1c0-.8.2-1.4.7-1.9s1.1-.7 1.9-.7c.8 0 1.4.3 1.9.8s.7 1.2.7 1.9v.6c0 .8-.2 1.4-.7 1.9-.5.5-1.1.7-1.9.7-.8 0-1.4-.2-1.9-.7-.5-.5-.7-1.1-.7-2v-.6zm1.2.6c0 .5.1.8.4 1.1.3.3.6.4 1 .4s.8-.1 1-.4.4-.7.4-1.2v-.6c0-.5-.1-.8-.4-1.1s-.6-.4-1-.4-.8.1-1 .4-.4.7-.4 1.2v.6zm1.8 8.7l-.9-.6 6.2-10 .9.6-6.2 10zm3.2-2.1c0-.8.2-1.4.7-1.9s1.1-.7 1.9-.7 1.4.2 1.9.7.7 1.1.7 2v.6c0 .8-.2 1.4-.7 1.9-.5.5-1.1.7-1.9.7s-1.4-.2-1.9-.7-.7-1.1-.7-2v-.6zm1.3.6c0 .5.1.8.4 1.1.3.3.6.4 1 .4s.8-.1 1-.4c.3-.3.4-.7.4-1.2v-.7c0-.5-.1-.8-.4-1.1s-.6-.4-1-.4-.8.1-1 .4c-.3.3-.4.7-.4 1.2v.7zm18.8-2.6c0 1.3-.2 2.6-.5 3.8-.3 1.2-.9 2.3-1.6 3.3-.7 1-1.4 1.7-2.2 2.2l-.3-1c.9-.7 1.6-1.8 2.2-3.2.5-1.5.8-3.1.8-4.8v-.3c0-1.2-.1-2.4-.4-3.4-.3-1.1-.6-2-1.1-2.8-.5-.8-1-1.5-1.6-2l.3-1c.8.4 1.5 1.1 2.2 2.1.7 1 1.2 2.1 1.6 3.3.4 1.1.6 2.4.6 3.8zm14.8-8.2h-1.7v14.7h1.7v1.3h-3.3v-17.4h3.3v1.4zm15.9 9.7H349l-.7 3.6H347l.7-3.6h-2.1v-1.2h2.3l.6-3.1h-2.3v-1.2h2.5l.7-3.7h1.3l-.7 3.7h2.3l.7-3.7h1.3l-.7 3.7h1.8v1.2h-2l-.6 3.1h2v1.2h-2.2l-.7 3.6h-1.3l.7-3.6zm-2.1-1.2h2.3l.6-3.1h-2.3l-.6 3.1zm15.6-9.8h3.3v17.4h-3.3v-1.3h1.7v-14.7h-1.7v-1.4zm19.2 17.8c-1-.3-1.8-.8-2.3-1.4-.5-.7-.8-1.6-.8-2.7v-1.7c0-1.4-.6-2.1-1.9-2.1V373c1.2 0 1.9-.7 1.9-2.1V369c0-1.1.3-1.9.8-2.6.5-.7 1.3-1.1 2.3-1.4l.3 1c-1.2.4-1.8 1.4-1.8 3.1v1.8c0 1.3-.5 2.3-1.5 2.8 1 .5 1.5 1.5 1.5 2.8v1.8c0 1.6.6 2.6 1.8 3l-.3.9zm24.8-7.6c-.1 1.4-.4 2.5-1.1 3.4s-1.5 1.2-2.5 1.2c-1.1 0-1.8-.5-2.1-1.5-.3.5-.7.9-1.1 1.1-.4.2-.8.4-1.3.4-.8 0-1.5-.3-1.9-1s-.6-1.6-.5-2.8c.1-1 .3-1.8.7-2.6.4-.8.8-1.4 1.4-1.8.6-.4 1.1-.7 1.8-.7.5 0 .9.1 1.3.2s.8.4 1.3.7l-.5 4.9c-.1 1.4.3 2 1.1 2 .7 0 1.2-.3 1.6-1s.6-1.5.7-2.6c.1-2.3-.3-4-1.3-5.2-1-1.2-2.4-1.8-4.4-1.8-1.2 0-2.2.3-3.1.9-.9.6-1.6 1.4-2.2 2.5s-.8 2.4-.9 3.8c-.1 1.5.1 2.7.5 3.8.4 1.1 1.1 1.9 1.9 2.5.9.6 1.9.8 3.1.8.5 0 1.1-.1 1.6-.2s1-.3 1.3-.5l.3 1c-.4.2-.8.4-1.4.6-.6.1-1.2.2-1.8.2-1.5 0-2.7-.3-3.8-1-1.1-.7-1.8-1.6-2.4-2.8-.5-1.2-.8-2.7-.7-4.3.1-1.6.4-3.1 1.1-4.3s1.5-2.3 2.6-3c1.1-.7 2.4-1 3.8-1 1.5 0 2.7.3 3.8 1s1.8 1.6 2.3 2.8.9 2.6.8 4.3zm-9 .7c-.1.8 0 1.5.2 1.9.2.4.6.7 1.1.7.4 0 .7-.1 1-.4.3-.3.6-.7.8-1.3v-.1l.4-4.4c-.3-.2-.7-.3-1.1-.3-.7 0-1.3.3-1.7 1-.3.8-.6 1.7-.7 2.9zm19.1 5.9c1.2-.4 1.8-1.4 1.8-2.9v-1.9c0-1.4.5-2.3 1.6-2.8-1.1-.5-1.6-1.4-1.6-2.8V369c0-1.7-.6-2.7-1.8-3.1l.3-1c1 .3 1.8.8 2.3 1.4.5.7.8 1.5.8 2.6v1.8c0 1.4.6 2.1 1.9 2.1v1.3c-1.2 0-1.9.7-1.9 2.1v1.8c0 1.1-.3 2-.8 2.6-.5.7-1.3 1.1-2.3 1.4l-.3-.8zm16.5-1.1H434l5.3-13.9h1.4l-5.3 13.9zm15.7-4.5c0-.6.2-1.2.5-1.7s1-1.1 2-1.8c-.6-.7-.9-1.2-1.1-1.7s-.3-.8-.3-1.3c0-1 .3-1.7.9-2.3s1.4-.8 2.3-.8c.9 0 1.6.3 2.2.8s.9 1.2.9 1.9c0 .5-.1 1-.4 1.4-.3.4-.7.9-1.4 1.4l-.9.7 2.8 3.4c.4-.8.6-1.6.6-2.5h1.5c0 1.5-.4 2.7-1.1 3.7l1.8 2.2h-2l-.9-1c-.4.4-.9.7-1.5.9-.6.2-1.2.3-1.8.3-1.2 0-2.3-.3-3-1s-1.1-1.6-1.1-2.6zm4.2 2.2c.9 0 1.6-.3 2.4-1l-3.1-3.7-.3.2c-1 .7-1.5 1.5-1.5 2.2 0 .7.2 1.2.7 1.7.4.4 1 .6 1.8.6zm-1.5-8.7c0 .6.3 1.3 1 2.1l1-.7c.4-.3.7-.5.8-.8.1-.3.2-.6.2-.9 0-.4-.1-.7-.4-1-.3-.3-.7-.4-1.1-.4-.5 0-.9.2-1.1.5-.3.3-.4.7-.4 1.2zm17-2.9h1.5l5.3 13.9h-1.5l-5.3-13.9zm18.3 7.1l5.5 2.2v1.7l-7.2-3.3v-1.3l7.2-3.3v1.7l-5.5 2.3zm20.5.9h-4.3v-1.3h4.3v1.3zm15.2-2.1h3.6v1.5h-3.6v4h-1.6v-4h-3.6v-1.5h3.6v-3.7h1.6v3.7zm22.7 1.6h-8.8v-1.6h8.8v1.6zm-5.3-4.4c0-.3.1-.5.3-.7.2-.2.4-.3.8-.3s.6.1.8.3c.2.2.3.4.3.7 0 .3-.1.5-.3.7-.2.2-.4.3-.8.3s-.6-.1-.8-.3c-.2-.1-.3-.4-.3-.7zm0 7.2c0-.3.1-.5.3-.7.2-.2.4-.3.8-.3s.6.1.8.3c.2.2.3.4.3.7 0 .3-.1.5-.3.7-.2.2-.4.3-.8.3s-.6-.1-.8-.3c-.2-.2-.3-.4-.3-.7zm16-.4l2.9-3-2.9-2.9 1-1.1 2.9 2.9 2.9-2.9 1 1.1-2.9 2.9 2.9 3-1 1.1-2.9-3-2.9 3-1-1.1zm26.5-4.3h-7.3v-1.4h7.3v1.4zm0 3.7h-7.3v-1.4h7.3v1.4zm17.2-2.2L596 371v-1.7l7.5 3.3v1.3l-7.5 3.3v-1.7l5.9-2.2z"/></g><g class="bst0"><path class="bst1" d="M1.8 402.6c0-1.2.3-2.3.8-3.3s1.3-1.8 2.3-2.4 2-.9 3.1-.9 2.2.3 3.1.9 1.7 1.4 2.3 2.4.8 2.1.8 3.3c0 1.2-.3 2.2-.8 3.2s-1.3 1.8-2.2 2.4c-1 .6-2 .9-3.2.9-1.2 0-2.2-.3-3.2-.9-1-.6-1.7-1.4-2.3-2.4s-.7-2-.7-3.2zm1 0c0 1 .2 1.9.7 2.8.5.9 1.1 1.5 1.9 2 .8.5 1.7.7 2.6.7.9 0 1.8-.2 2.6-.7.8-.5 1.4-1.2 1.9-2s.7-1.8.7-2.8c0-1-.2-1.9-.7-2.8-.5-.8-1.1-1.5-1.9-2s-1.6-.7-2.6-.7c-.9 0-1.8.2-2.6.7s-1.4 1.2-1.9 2-.7 1.8-.7 2.8zm3.9.7v3H5.5v-7.5h2.4c.9 0 1.6.2 2.1.6.5.4.7.9.7 1.7 0 .7-.4 1.3-1.1 1.7.7.3 1.1.9 1.1 1.8v.5c0 .5 0 .9.1 1.1v.1H9.6c-.1-.2-.1-.6-.1-1.1v-1c-.1-.6-.5-.9-1.2-.9H6.7zm0-1.2h1.4c.4 0 .8-.1 1-.3s.4-.4.4-.8-.1-.7-.3-.9c-.2-.2-.6-.3-1.2-.3H6.7v2.3zm18.3.5c0-1.2.3-2.3.8-3.3s1.3-1.8 2.3-2.4 2-.9 3.1-.9 2.2.3 3.1.9 1.7 1.4 2.3 2.4.8 2.1.8 3.3c0 1.2-.3 2.2-.8 3.2s-1.3 1.8-2.2 2.4c-1 .6-2 .9-3.2.9-1.2 0-2.2-.3-3.2-.9-1-.6-1.7-1.4-2.3-2.4s-.7-2-.7-3.2zm1 0c0 1 .2 1.9.7 2.8.5.9 1.1 1.5 1.9 2 .8.5 1.7.7 2.6.7s1.8-.2 2.6-.7c.8-.5 1.4-1.2 1.9-2 .5-.9.7-1.8.7-2.8 0-1-.2-1.9-.7-2.8s-1.1-1.5-1.9-2-1.7-.7-2.6-.7c-.9 0-1.8.2-2.6.7s-1.4 1.2-1.9 2-.7 1.8-.7 2.8zm8 1.2c0 .9-.3 1.6-.8 2.1s-1.2.7-2.1.7c-.9 0-1.7-.3-2.2-.9s-.8-1.5-.8-2.5v-1c0-1 .3-1.9.8-2.5.6-.6 1.3-.9 2.2-.9.9 0 1.7.2 2.2.7s.8 1.2.8 2h-1.3c0-.6-.1-1-.4-1.3-.3-.3-.7-.4-1.2-.4-.6 0-1 .2-1.3.6s-.5 1-.5 1.7v1c0 .7.2 1.3.5 1.7s.8.6 1.3.6.9-.1 1.2-.4.4-.7.4-1.3H34zm20.8 1.9c0-.5-.2-1-.6-1.4s-1-.7-1.9-1c-1.2-.4-2.2-.9-2.7-1.5-.6-.6-.9-1.4-.9-2.3 0-1 .3-1.7.8-2.4s1.3-1 2.3-1.1v-1.9h1.3v1.9c1 .1 1.8.5 2.3 1.2s.8 1.6.8 2.8h-1.6c0-.8-.2-1.5-.6-2-.4-.5-.9-.7-1.6-.7-.7 0-1.2.2-1.6.5-.4.4-.6.9-.6 1.5s.2 1.1.6 1.4 1 .7 1.9 1c.9.3 1.6.6 2.1 1s.9.8 1.1 1.2.4 1 .4 1.6c0 1-.3 1.8-.9 2.4s-1.4 1-2.5 1.1v1.7h-1.3V409c-1.1-.1-1.9-.5-2.6-1.2-.6-.7-.9-1.6-.9-2.8h1.6c0 .8.2 1.4.6 1.9s1 .7 1.8.7 1.4-.2 1.8-.6.9-.7.9-1.3zm19.1-1.5h-3.4c0 1.1.3 2 .8 2.6.5.6 1.3.9 2.2.9.7 0 1.3-.1 1.9-.3l.2 1.4c-.7.2-1.4.3-2.1.3-1.5 0-2.6-.4-3.4-1.3s-1.3-2.1-1.3-3.6h-1.6v-1.1h1.6V402h-1.6v-1.1h1.6c.1-1.5.5-2.7 1.3-3.6s2-1.3 3.4-1.3c.6 0 1.3.1 2.1.3l-.2 1.4c-.6-.2-1.3-.3-1.9-.3-1 0-1.7.3-2.2.9-.5.6-.8 1.4-.8 2.6h3.4v1.1h-3.4v1.2h3.4v1zm15.6-.7l.1 1.9c0 .9-.2 1.6-.5 2.2h6.4v1.4h-9.1v-1.4h.6c.2-.1.4-.3.6-.7.1-.4.2-.9.2-1.4v-.1l-.1-1.9h-1.5v-1.4h1.4l-.1-2.3c0-1.2.4-2.1 1.1-2.8s1.7-1 2.8-1c1.1 0 2 .3 2.6.9s1 1.5 1 2.5h-1.7c0-.6-.2-1.1-.6-1.5-.4-.4-.9-.5-1.5-.5s-1.1.2-1.5.7-.6 1-.6 1.8l.1 2.3H92v1.4h-2.5zm20.2-1.5l2.7-5.8h1.9l-3.2 6.3h2.3v1.1h-2.8v1.5h2.8v1.1h-2.8v2.8h-1.7v-2.8H106v-1.1h2.8v-1.5H106v-1.1h2.3l-3.2-6.3h1.9l2.7 5.8zm18.9 5.8c.6 0 1.1-.2 1.5-.5.4-.4.7-.8.7-1.3h1.5c0 .7-.3 1.4-.9 2-.6.6-1.3 1-2.1 1.1v2h-1.6V409c-1-.2-1.9-.7-2.5-1.5s-.9-1.9-.9-3.2v-.3c0-1.2.3-2.3.9-3.1.6-.8 1.4-1.3 2.4-1.5v-2h1.6v2c.9.1 1.6.5 2.2 1.1s.9 1.4.9 2.3h-1.5c0-.6-.3-1.1-.7-1.5-.4-.4-.9-.6-1.6-.6-.8 0-1.5.3-1.9.9s-.7 1.5-.7 2.6v.3c0 1.1.2 1.9.7 2.5s1.1.8 2 .8zm14.8.3c0-.3.1-.5.3-.7s.4-.3.8-.3.6.1.8.3.3.4.3.7c0 .3-.1.5-.3.7s-.4.3-.8.3-.6-.1-.8-.3-.3-.4-.3-.7zm0-7.7c0-.3.1-.5.3-.7s.4-.3.8-.3.6.1.8.3.3.4.3.7c0 .3-.1.5-.3.7s-.4.3-.8.3-.6-.1-.8-.3-.3-.4-.3-.7zm13.5 11.1l-.9-.6c.6-.8.8-1.6.9-2.4V407h1.6v1.3c0 .6-.1 1.2-.4 1.8s-.8 1.1-1.2 1.4zm-.3-11.1c0-.3.1-.5.3-.7s.4-.3.8-.3.6.1.8.3.3.4.3.7c0 .3-.1.5-.3.7s-.4.3-.8.3-.6-.1-.8-.3-.3-.4-.3-.7zm13 11.1l-.9-.6c.6-.8.8-1.6.9-2.4V407h1.6v1.3c0 .6-.1 1.2-.4 1.8s-.8 1.1-1.2 1.4zm12.6-3.4c0-.3.1-.5.3-.7s.4-.3.8-.3.6.1.8.3.3.4.3.7c0 .3-.1.5-.3.7s-.4.3-.8.3-.6-.1-.8-.3-.3-.4-.3-.7zm15.4-7.7l-2.7-.8.4-1.3 2.7 1-.1-3h1.3l-.1 3.1 2.6-1 .4 1.3-2.7.8 1.7 2.4-1.1.8-1.6-2.5-1.6 2.5-1.1-.8 1.9-2.5z"/></g></symbol><symbol id="Rotitle" viewBox="0 0 427 213.9" xmlns="http://www.w3.org/2000/svg"><style>.cst0{enable-background:new}.cst1{fill:#039}.cst2{fill:#f1f5fe}</style><g class="cst0"><path class="cst1" d="M45.7 69.8H23.4V108H10.9V13.4h31.3c10.7 0 18.8 2.4 24.6 7.3 5.7 4.8 8.6 11.9 8.6 21.2 0 5.9-1.6 11-4.8 15.4-3.2 4.4-7.6 7.6-13.3 9.8l22.2 40.1v.8H66.2L45.7 69.8zM23.4 59.6h19.2c6.2 0 11.1-1.6 14.8-4.8 3.7-3.2 5.5-7.5 5.5-12.9 0-5.9-1.7-10.3-5.2-13.5-3.5-3.1-8.5-4.7-15.1-4.8H23.4v36zm64.4 12.6c0-6.9 1.4-13.1 4.1-18.6 2.7-5.5 6.5-9.7 11.3-12.7 4.8-3 10.3-4.5 16.5-4.5 9.6 0 17.3 3.3 23.2 9.9 5.9 6.6 8.9 15.4 8.9 26.4v.8c0 6.8-1.3 13-3.9 18.4-2.6 5.4-6.4 9.7-11.2 12.7-4.9 3-10.5 4.5-16.8 4.5-9.5 0-17.2-3.3-23.2-9.9-5.9-6.6-8.9-15.4-8.9-26.3v-.7zm12.1 1.4c0 7.8 1.8 14 5.4 18.8 3.6 4.7 8.5 7.1 14.5 7.1 6.1 0 11-2.4 14.5-7.2 3.6-4.8 5.4-11.5 5.4-20.1 0-7.7-1.8-14-5.5-18.7-3.7-4.8-8.5-7.2-14.6-7.2-5.9 0-10.7 2.4-14.4 7.1s-5.3 11.5-5.3 20.2zm126.4 0c0 10.7-2.5 19.4-7.4 25.9s-11.6 9.8-19.9 9.8c-8.9 0-15.7-3.1-20.6-9.4l-.6 8.1h-11V8.3h12v37.2c4.8-6 11.5-9 20.1-9 8.5 0 15.2 3.2 20.1 9.7 4.9 6.5 7.3 15.3 7.3 26.5v.9zm-12-1.3c0-8.2-1.6-14.5-4.7-19-3.2-4.5-7.7-6.7-13.6-6.7-7.9 0-13.6 3.7-17.1 11V88c3.7 7.4 9.4 11 17.2 11 5.8 0 10.2-2.2 13.4-6.7 3.2-4.3 4.8-11.1 4.8-20zm24-.1c0-6.9 1.4-13.1 4.1-18.6 2.7-5.5 6.5-9.7 11.3-12.7 4.8-3 10.3-4.5 16.5-4.5 9.6 0 17.3 3.3 23.2 9.9 5.9 6.6 8.9 15.4 8.9 26.4v.8c0 6.8-1.3 13-3.9 18.4-2.6 5.4-6.4 9.7-11.2 12.7-4.9 3-10.5 4.5-16.8 4.5-9.5 0-17.2-3.3-23.2-9.9-5.9-6.6-8.9-15.4-8.9-26.3v-.7zm12 1.4c0 7.8 1.8 14 5.4 18.8 3.6 4.7 8.5 7.1 14.5 7.1 6.1 0 11-2.4 14.5-7.2 3.6-4.8 5.4-11.5 5.4-20.1 0-7.7-1.8-14-5.5-18.7-3.7-4.8-8.5-7.2-14.6-7.2-5.9 0-10.7 2.4-14.4 7.1s-5.3 11.5-5.3 20.2zm83.3-52.9v17h13.1V47h-13.1v43.6c0 2.8.6 4.9 1.8 6.3s3.2 2.1 6 2.1c1.4 0 3.3-.3 5.7-.8v9.7c-3.2.9-6.2 1.3-9.2 1.3-5.4 0-9.4-1.6-12.1-4.9-2.7-3.2-4.1-7.9-4.1-13.8V47h-12.8v-9.3h12.8v-17h11.9zm22.7 51.5c0-6.9 1.4-13.1 4.1-18.6 2.7-5.5 6.5-9.7 11.3-12.7 4.8-3 10.3-4.5 16.5-4.5 9.6 0 17.3 3.3 23.2 9.9 5.9 6.6 8.9 15.4 8.9 26.4v.8c0 6.8-1.3 13-3.9 18.4-2.6 5.4-6.4 9.7-11.2 12.7-4.9 3-10.5 4.5-16.8 4.5-9.5 0-17.2-3.3-23.2-9.9-5.9-6.6-8.9-15.4-8.9-26.3v-.7zm12 1.4c0 7.8 1.8 14 5.4 18.8 3.6 4.7 8.5 7.1 14.5 7.1 6.1 0 11-2.4 14.5-7.2 3.6-4.8 5.4-11.5 5.4-20.1 0-7.7-1.8-14-5.5-18.7-3.7-4.8-8.5-7.2-14.6-7.2-5.9 0-10.7 2.4-14.4 7.1s-5.3 11.5-5.3 20.2z"/></g><g class="cst0"><path class="cst2" d="M33 181.4v-5.5h20v17.5c-3.1 2.4-6.2 4.3-9.5 5.5-3.3 1.2-6.6 1.9-10.1 1.9-4.6 0-8.9-1-12.6-3-3.8-2-6.7-4.9-8.6-8.6s-2.9-8-2.9-12.6 1-8.9 2.9-12.9 4.7-6.9 8.3-8.9 7.8-2.9 12.5-2.9c3.4 0 6.5.6 9.3 1.7 2.8 1.1 4.9 2.6 6.5 4.6 1.6 2 2.8 4.6 3.6 7.7l-5.6 1.5c-.7-2.4-1.6-4.3-2.6-5.7-1.1-1.4-2.6-2.5-4.5-3.3-2-.8-4.1-1.2-6.5-1.2-2.9 0-5.3.4-7.4 1.3-2.1.9-3.8 2-5 3.4-1.3 1.4-2.3 3-3 4.7-1.2 2.9-1.8 6.1-1.8 9.5 0 4.2.7 7.7 2.2 10.6s3.6 4.9 6.3 6.3 5.7 2.1 8.8 2.1c2.7 0 5.3-.5 7.9-1.6s4.5-2.2 5.9-3.3v-8.8H33zm26.3 1.4c0-6.3 1.8-11 5.3-14.1 2.9-2.5 6.5-3.8 10.8-3.8 4.7 0 8.6 1.5 11.5 4.6 3 3.1 4.5 7.3 4.5 12.8 0 4.4-.7 7.9-2 10.4s-3.2 4.5-5.8 5.9c-2.5 1.4-5.3 2.1-8.3 2.1-4.8 0-8.7-1.5-11.6-4.6-2.9-3.1-4.4-7.5-4.4-13.3zm6 0c0 4.4 1 7.7 2.9 9.8 1.9 2.2 4.3 3.3 7.2 3.3 2.9 0 5.3-1.1 7.2-3.3 1.9-2.2 2.9-5.5 2.9-10 0-4.2-1-7.4-2.9-9.6-1.9-2.2-4.3-3.3-7.2-3.3-2.9 0-5.3 1.1-7.2 3.3-2 2.2-2.9 5.4-2.9 9.8zm30.7 0c0-6.3 1.8-11 5.3-14.1 2.9-2.5 6.5-3.8 10.8-3.8 4.7 0 8.6 1.5 11.5 4.6 3 3.1 4.5 7.3 4.5 12.8 0 4.4-.7 7.9-2 10.4s-3.2 4.5-5.8 5.9c-2.5 1.4-5.3 2.1-8.3 2.1-4.8 0-8.7-1.5-11.6-4.6-2.9-3.1-4.4-7.5-4.4-13.3zm6 0c0 4.4 1 7.7 2.9 9.8 1.9 2.2 4.3 3.3 7.2 3.3 2.9 0 5.3-1.1 7.2-3.3 1.9-2.2 2.9-5.5 2.9-10 0-4.2-1-7.4-2.9-9.6-1.9-2.2-4.3-3.3-7.2-3.3-2.9 0-5.3 1.1-7.2 3.3-2 2.2-2.9 5.4-2.9 9.8zm31.8 20l5.6.8c.2 1.7.9 3 2 3.8 1.4 1.1 3.4 1.6 5.9 1.6 2.7 0 4.8-.5 6.2-1.6 1.5-1.1 2.4-2.6 3-4.5.3-1.2.4-3.7.4-7.4-2.5 3-5.7 4.5-9.5 4.5-4.7 0-8.3-1.7-10.9-5.1s-3.9-7.5-3.9-12.2c0-3.3.6-6.3 1.8-9 1.2-2.8 2.9-4.9 5.1-6.4 2.2-1.5 4.9-2.3 7.9-2.3 4 0 7.4 1.6 10 4.9v-4.1h5.3v29.6c0 5.3-.5 9.1-1.6 11.3-1.1 2.2-2.8 4-5.2 5.3s-5.2 1.9-8.7 1.9c-4.1 0-7.4-.9-9.9-2.8-2.3-1.9-3.6-4.6-3.5-8.3zm4.8-20.6c0 4.5.9 7.8 2.7 9.8 1.8 2.1 4 3.1 6.7 3.1s4.9-1 6.7-3.1 2.7-5.3 2.7-9.7c0-4.2-.9-7.3-2.8-9.5-1.9-2.1-4.1-3.2-6.7-3.2-2.6 0-4.8 1-6.6 3.1-1.8 2.3-2.7 5.4-2.7 9.5zm32.9 17.7v-47.2h5.8v47.2h-5.8zm38.2-11l6 .7c-.9 3.5-2.7 6.2-5.3 8.2-2.6 1.9-5.8 2.9-9.8 2.9-5 0-9-1.5-11.9-4.6-2.9-3.1-4.4-7.4-4.4-13 0-5.8 1.5-10.2 4.4-13.4s6.8-4.8 11.5-4.8c4.6 0 8.3 1.6 11.2 4.7s4.4 7.5 4.4 13.1v1.5h-25.5c.2 3.8 1.3 6.6 3.2 8.6 1.9 2 4.3 3 7.2 3 2.1 0 3.9-.6 5.4-1.7 1.5-1 2.7-2.7 3.6-5.2zm-19.1-9.4h19.1c-.3-2.9-1-5-2.2-6.5-1.8-2.2-4.2-3.4-7.2-3.4-2.7 0-4.9.9-6.7 2.7-1.8 1.9-2.8 4.3-3 7.2zm52.1 20.4v-29.7h-5.1v-4.5h5.1v-3.6c0-2.3.2-4 .6-5.1.6-1.5 1.5-2.7 2.9-3.7 1.4-.9 3.4-1.4 5.9-1.4 1.6 0 3.4.2 5.4.6l-.9 5.1c-1.2-.2-2.3-.3-3.4-.3-1.8 0-3 .4-3.7 1.1s-1.1 2.2-1.1 4.2v3.2h6.7v4.5h-6.7V200h-5.7zm14.8-17.1c0-6.3 1.8-11 5.3-14.1 2.9-2.5 6.5-3.8 10.8-3.8 4.7 0 8.6 1.5 11.5 4.6s4.5 7.3 4.5 12.8c0 4.4-.7 7.9-2 10.4s-3.2 4.5-5.8 5.9c-2.5 1.4-5.3 2.1-8.3 2.1-4.8 0-8.7-1.5-11.6-4.6-2.9-3.1-4.4-7.5-4.4-13.3zm5.9 0c0 4.4 1 7.7 2.9 9.8 1.9 2.2 4.3 3.3 7.2 3.3 2.9 0 5.3-1.1 7.2-3.3s2.9-5.5 2.9-10c0-4.2-1-7.4-2.9-9.6-1.9-2.2-4.3-3.3-7.2-3.3-2.9 0-5.3 1.1-7.2 3.3s-2.9 5.4-2.9 9.8zm33 17.1v-34.2h5.2v4.9c2.5-3.8 6.1-5.6 10.9-5.6 2.1 0 4 .4 5.7 1.1 1.7.7 3 1.7 3.9 2.9s1.5 2.6 1.8 4.3c.2 1.1.3 3 .3 5.6v21h-5.8v-20.8c0-2.4-.2-4.1-.7-5.3s-1.3-2.1-2.4-2.8c-1.1-.7-2.5-1-4-1-2.5 0-4.6.8-6.4 2.4-1.8 1.6-2.7 4.5-2.7 8.9V200h-5.8zm49.3-5.1l.8 5.1c-1.6.3-3.1.5-4.4.5-2.1 0-3.7-.3-4.9-1s-2-1.5-2.4-2.6-.7-3.4-.7-6.8v-19.7h-4.3v-4.5h4.3v-8.5l5.8-3.5v12h5.8v4.5h-5.8v20c0 1.7.1 2.7.3 3.2.2.5.5.8 1 1.1.5.3 1.1.4 2 .4.6 0 1.5-.1 2.5-.2zm3.4-5.1l5.7-.9c.3 2.3 1.2 4.1 2.7 5.3 1.5 1.2 3.5 1.8 6.2 1.8s4.6-.5 5.9-1.6 1.9-2.4 1.9-3.8c0-1.3-.6-2.3-1.7-3.1-.8-.5-2.8-1.2-5.9-2-4.3-1.1-7.2-2-8.8-2.8s-2.9-1.9-3.7-3.3c-.8-1.4-1.3-2.9-1.3-4.6 0-1.5.3-2.9 1-4.2.7-1.3 1.6-2.4 2.9-3.2.9-.7 2.1-1.2 3.7-1.7s3.2-.7 5-.7c2.7 0 5 .4 7.1 1.2s3.5 1.8 4.5 3.1 1.6 3.1 2 5.3l-5.7.8c-.3-1.8-1-3.1-2.2-4.1-1.2-1-3-1.5-5.2-1.5-2.7 0-4.6.4-5.7 1.3s-1.7 1.9-1.7 3.1c0 .8.2 1.4.7 2 .5.6 1.2 1.1 2.2 1.5.6.2 2.3.7 5.1 1.5 4.1 1.1 7 2 8.6 2.7 1.6.7 2.9 1.7 3.8 3s1.4 3 1.4 5c0 1.9-.6 3.8-1.7 5.5-1.1 1.7-2.8 3-4.9 4-2.1.9-4.5 1.4-7.2 1.4-4.4 0-7.8-.9-10.2-2.8-2.4-1.8-3.9-4.5-4.5-8.2z"/></g></symbol><symbol viewBox="0 0 735 700" id="Shape_la_descriere_(1)" xmlns="http://www.w3.org/2000/svg"><path d="M731.884 305.503a363.8 363.8 0 0 0-145.987-246.8 312.427 312.427 0 0 0-132.5-54.437 348.009 348.009 0 0 0-69.86-3.919c-5.758.218-11.515.823-17.225 1.161s-11.371 1.307-17.008 1.96-11.226 1.742-16.863 2.613l-16.574 3.266a426.251 426.251 0 0 0-122.211 48.392 441.213 441.213 0 0 0-102.119 82.604l-11.082 12.606c-3.517 4.379-7.227 8.783-10.6 13.259s-6.89 9.1-10.142 13.816-6.528 9.461-9.636 14.372a342.608 342.608 0 0 0-31.173 62.739A299.958 299.958 0 0 0 2.258 398.68a313.711 313.711 0 0 0 50.108 134.358c26.5 39.947 62.033 72.95 101.011 97.992a451.611 451.611 0 0 0 190.483 66.635 402.044 402.044 0 0 0 67.188 1.621 373.757 373.757 0 0 0 132.618-32.783 318.131 318.131 0 0 0 112.839-85.653c3.734-4.839 7.54-9.461 11.226-14.3s6.986-9.9 10.335-14.953 6.529-10.259 9.636-15.534 5.9-10.646 8.576-16.114a361.935 361.935 0 0 0 25.8-68.353 376.35 376.35 0 0 0 9.8-146.094z"/></symbol><symbol viewBox="0 0 45.701 45.7" id="checked" xmlns="http://www.w3.org/2000/svg"><path d="M20.687 38.332a5.308 5.308 0 0 1-7.505 0L1.554 26.704A5.306 5.306 0 1 1 9.059 19.2l6.928 6.927a1.344 1.344 0 0 0 1.896 0L36.642 7.368a5.308 5.308 0 0 1 7.505 7.504l-23.46 23.46z"/></symbol><symbol viewBox="0 0 469.785 469.785" id="error" xmlns="http://www.w3.org/2000/svg"><path d="M285.368 234.691L459.36 60.697c13.895-13.88 13.895-36.395 0-50.275-13.881-13.895-36.38-13.895-50.275 0L235.091 184.416 61.082 10.421c-13.866-13.895-36.395-13.895-50.275 0-13.88 13.881-13.88 36.395 0 50.275l174.01 173.995L10.421 409.085c-13.895 13.895-13.895 36.395 0 50.275 6.94 6.955 16.043 10.425 25.145 10.425 9.088 0 18.19-3.47 25.132-10.425L235.09 284.967l173.995 173.995c6.955 6.94 16.043 10.425 25.145 10.425a35.46 35.46 0 0 0 25.131-10.425c13.895-13.88 13.895-36.38 0-50.275L285.367 234.691z"/></symbol><symbol viewBox="0 0 128 128" id="loading" xmlns="http://www.w3.org/2000/svg"><g><circle cx="16" cy="64" r="16"/><circle cx="16" cy="64" r="16" fill-opacity=".67" transform="rotate(45 64 64)"/><circle cx="16" cy="64" r="16" fill-opacity=".42" transform="rotate(90 64 64)"/><circle cx="16" cy="64" r="16" fill-opacity=".2" transform="rotate(135 64 64)"/><circle cx="16" cy="64" r="16" fill-opacity=".12" transform="rotate(180 64 64)"/><circle cx="16" cy="64" r="16" fill-opacity=".12" transform="rotate(225 64 64)"/><circle cx="16" cy="64" r="16" fill-opacity=".12" transform="rotate(270 64 64)"/><circle cx="16" cy="64" r="16" fill-opacity=".12" transform="rotate(315 64 64)"/><animateTransform attributeName="transform" type="rotate" values="0 64 64;315 64 64;270 64 64;225 64 64;180 64 64;135 64 64;90 64 64;45 64 64" calcMode="discrete" dur="720ms" repeatCount="indefinite"/></g></symbol></svg>